<?xml version="1.0" standalone="no"?>
<!DOCTYPE svg PUBLIC "-//W3C//DTD SVG 1.1//EN" "http://www.w3.org/Graphics/SVG/1.1/DTD/svg11.dtd" >
<svg xmlns="http://www.w3.org/2000/svg" xmlns:xlink="http://www.w3.org/1999/xlink" version="1.1">
<metadata>
Created by FontForge 20170924 at Tue Jun  5 15:51:57 2018
 By www-data
(c) 2015-2017 Apple Inc. All rights reserved.
</metadata>
<defs>
<font id="SFProText-Heavy" horiz-adv-x="1800" >
  <font-face 
    font-family="SF Pro Text"
    font-weight="800"
    font-stretch="normal"
    units-per-em="2048"
    panose-1="0 0 9 0 0 0 0 0 0 0"
    ascent="1638"
    descent="-410"
    x-height="1112"
    cap-height="1443"
    bbox="-977 -611 2953 2255"
    underline-thickness="227"
    underline-position="-377"
    stemh="291"
    stemv="361"
    unicode-range="U+0020-1F189"
  />
<missing-glyph horiz-adv-x="2048" 
d="M100 -494v165h1848v-165h-1848zM100 -38v165h1848v-165h-1848zM100 418v165h1848v-165h-1848zM100 873v165h1848v-165h-1848zM100 1329v165h1848v-165h-1848zM100 1785v165h1848v-165h-1848z" />
    <glyph glyph-name="uni24B6" unicode="A&#x20dd;" 
d="M836 687h128l-55 221h-18zM772 407h-231l214 692h290l214 -692h-231l-28 114h-200zM900 144c318 0 567 258 567 576s-249 576 -567 576s-567 -258 -567 -576s249 -576 567 -576zM900 -57c-435 0 -777 343 -777 777c0 435 342 777 777 777s777 -342 777 -777
c0 -434 -342 -777 -777 -777z" />
    <glyph glyph-name="uni24B7" unicode="B&#x20dd;" 
d="M614 380v692h369c135 0 218 -64 218 -170c0 -79 -55 -137 -137 -149v-11c102 -12 164 -74 164 -173c0 -112 -97 -189 -234 -189h-380zM830 929v-131h69c58 0 88 24 88 67c0 39 -32 64 -79 64h-78zM829 676v-144h76c64 0 96 27 96 73c0 44 -33 71 -88 71h-84zM900 144
c318 0 567 258 567 576s-249 576 -567 576s-567 -258 -567 -576s249 -576 567 -576zM900 -57c-435 0 -777 343 -777 777c0 435 342 777 777 777s777 -342 777 -777c0 -434 -342 -777 -777 -777z" />
    <glyph glyph-name="uni24B8" unicode="C&#x20dd;" 
d="M1010 647h214c-7 -163 -135 -279 -323 -279c-195 0 -345 131 -345 357s150 357 345 357c189 0 317 -116 323 -281h-213c-3 53 -49 93 -106 93c-71 0 -117 -60 -117 -169c0 -110 46 -169 117 -169c56 0 102 39 105 91zM900 144c318 0 567 258 567 576s-249 576 -567 576
s-567 -258 -567 -576s249 -576 567 -576zM900 -57c-435 0 -777 343 -777 777c0 435 342 777 777 777s777 -342 777 -777c0 -434 -342 -777 -777 -777z" />
    <glyph glyph-name="uni24B9" unicode="D&#x20dd;" 
d="M616 1072h320c211 0 324 -123 324 -347c0 -222 -113 -345 -324 -345h-320v692zM840 894v-337h56c90 0 128 49 128 168c0 118 -38 169 -128 169h-56zM900 144c318 0 567 258 567 576s-249 576 -567 576s-567 -258 -567 -576s249 -576 567 -576zM900 -57
c-435 0 -777 343 -777 777c0 435 342 777 777 777s777 -342 777 -777c0 -434 -342 -777 -777 -777z" />
    <glyph glyph-name="uni24BA" unicode="E&#x20dd;" 
d="M1170 554v-174h-515v692h515v-174h-293v-98h274v-147h-274v-99h293zM900 144c318 0 567 258 567 576s-249 576 -567 576s-567 -258 -567 -576s249 -576 567 -576zM900 -57c-435 0 -777 343 -777 777c0 435 342 777 777 777s777 -342 777 -777c0 -434 -342 -777 -777 -777
z" />
    <glyph glyph-name="uni24BB" unicode="F&#x20dd;" 
d="M898 380h-233v692h514v-178h-281v-104h255v-177h-255v-233zM900 144c318 0 567 258 567 576s-249 576 -567 576s-567 -258 -567 -576s249 -576 567 -576zM900 -57c-435 0 -777 343 -777 777c0 435 342 777 777 777s777 -342 777 -777c0 -434 -342 -777 -777 -777z" />
    <glyph glyph-name="uni24BC" unicode="G&#x20dd;" 
d="M1012 616v17h-109v137h323v-121c0 -158 -125 -281 -324 -281c-207 0 -346 143 -346 357s139 357 346 357c174 0 304 -100 323 -252h-221c-5 48 -43 79 -99 79c-71 0 -117 -73 -117 -184c0 -113 48 -192 117 -192c70 0 107 35 107 83zM900 144c318 0 567 258 567 576
s-249 576 -567 576s-567 -258 -567 -576s249 -576 567 -576zM900 -57c-435 0 -777 343 -777 777c0 435 342 777 777 777s777 -342 777 -777c0 -434 -342 -777 -777 -777z" />
    <glyph glyph-name="uni24BD" unicode="H&#x20dd;" 
d="M1219 380h-217v249h-204v-249h-217v692h217v-255h204v255h217v-692zM900 144c318 0 567 258 567 576s-249 576 -567 576s-567 -258 -567 -576s249 -576 567 -576zM900 -57c-435 0 -777 343 -777 777c0 435 342 777 777 777s777 -342 777 -777c0 -434 -342 -777 -777 -777
z" />
    <glyph glyph-name="uni24BE" unicode="I&#x20dd;" 
d="M1029 380h-258v692h258v-692zM900 144c318 0 567 258 567 576s-249 576 -567 576s-567 -258 -567 -576s249 -576 567 -576zM900 -57c-435 0 -777 343 -777 777c0 435 342 777 777 777s777 -342 777 -777c0 -434 -342 -777 -777 -777z" />
    <glyph glyph-name="uni24BF" unicode="J&#x20dd;" 
d="M583 639h230c0 -52 21 -77 60 -77s56 26 56 79v416h239v-422c0 -174 -111 -282 -288 -282c-184 0 -297 113 -297 286zM900 144c318 0 567 258 567 576s-249 576 -567 576s-567 -258 -567 -576s249 -576 567 -576zM900 -57c-435 0 -777 343 -777 777
c0 435 342 777 777 777s777 -342 777 -777c0 -434 -342 -777 -777 -777z" />
    <glyph glyph-name="uni24C0" unicode="&#x212a;&#x20dd;" 
d="M1243 1072l-211 -322l215 -370h-260l-129 231l-58 -70v-161h-209v692h209v-258h19l175 258h249zM900 144c318 0 567 258 567 576s-249 576 -567 576s-567 -258 -567 -576s249 -576 567 -576zM900 -57c-435 0 -777 343 -777 777c0 435 342 777 777 777s777 -342 777 -777
c0 -434 -342 -777 -777 -777z" />
    <glyph glyph-name="uni24C1" unicode="L&#x20dd;" 
d="M1189 590v-195h-510v692h242v-497h268zM900 144c318 0 567 258 567 576s-249 576 -567 576s-567 -258 -567 -576s249 -576 567 -576zM900 -57c-435 0 -777 343 -777 777c0 435 342 777 777 777s777 -342 777 -777c0 -434 -342 -777 -777 -777z" />
    <glyph glyph-name="uni24C2" unicode="M&#x20dd;" 
d="M714 380h-170v692h221l133 -416h6l133 416h220v-692h-169v398h-20l-119 -352h-99l-116 352h-20v-398zM900 144c318 0 567 258 567 576s-249 576 -567 576s-567 -258 -567 -576s249 -576 567 -576zM900 -57c-435 0 -777 343 -777 777c0 435 342 777 777 777
s777 -342 777 -777c0 -434 -342 -777 -777 -777z" />
    <glyph glyph-name="uni24C3" unicode="N&#x20dd;" 
d="M785 380h-195v692h160l248 -339h17v339h195v-692h-159l-248 345h-18v-345zM900 144c318 0 567 258 567 576s-249 576 -567 576s-567 -258 -567 -576s249 -576 567 -576zM900 -57c-435 0 -777 343 -777 777c0 435 342 777 777 777s777 -342 777 -777
c0 -434 -342 -777 -777 -777z" />
    <glyph glyph-name="uni24C4" unicode="O&#x20dd;" 
d="M900 556c62 0 113 54 113 169s-51 169 -113 169s-113 -54 -113 -169s51 -169 113 -169zM900 368c-195 0 -346 129 -346 357s151 357 346 357s346 -129 346 -357s-151 -357 -346 -357zM900 144c318 0 567 258 567 576s-249 576 -567 576s-567 -258 -567 -576
s249 -576 567 -576zM900 -57c-435 0 -777 343 -777 777c0 435 342 777 777 777s777 -342 777 -777c0 -434 -342 -777 -777 -777z" />
    <glyph glyph-name="uni24C5" unicode="P&#x20dd;" 
d="M977 1072c162 0 266 -106 266 -264c0 -156 -104 -258 -269 -258h-89v-170h-240v692h332zM1016 808c0 60 -27 89 -81 89h-67v-177h67c54 0 81 30 81 88zM900 144c318 0 567 258 567 576s-249 576 -567 576s-567 -258 -567 -576s249 -576 567 -576zM900 -57
c-435 0 -777 343 -777 777c0 435 342 777 777 777s777 -342 777 -777c0 -434 -342 -777 -777 -777z" />
    <glyph glyph-name="uni24C6" unicode="Q&#x20dd;" 
d="M1229 324h-223l-24 53c-26 -6 -53 -9 -82 -9c-195 0 -346 129 -346 357s151 357 346 357s346 -129 346 -357c0 -119 -40 -210 -106 -271zM900 556c7 0 14 1 21 3l-38 89h101l11 -14c11 23 18 53 18 91c0 115 -51 169 -113 169s-113 -54 -113 -169s51 -169 113 -169z
M900 144c318 0 567 258 567 576s-249 576 -567 576s-567 -258 -567 -576s249 -576 567 -576zM900 -57c-435 0 -777 343 -777 777c0 435 342 777 777 777s777 -342 777 -777c0 -434 -342 -777 -777 -777z" />
    <glyph glyph-name="uni24C7" unicode="R&#x20dd;" 
d="M936 1072c185 0 289 -84 289 -229c0 -97 -52 -167 -136 -193l151 -270h-241l-111 228h-68v-228h-211v692h327zM820 756h92c49 0 80 26 80 73c0 48 -29 74 -79 74h-93v-147zM900 144c318 0 567 258 567 576s-249 576 -567 576s-567 -258 -567 -576s249 -576 567 -576z
M900 -57c-435 0 -777 343 -777 777c0 435 342 777 777 777s777 -342 777 -777c0 -434 -342 -777 -777 -777z" />
    <glyph glyph-name="uni24C8" unicode="S&#x20dd;" 
d="M591 587h222c6 -34 41 -55 91 -55c53 0 87 21 87 54c0 28 -21 39 -105 52l-77 12c-135 20 -209 92 -209 202c0 139 118 229 299 229c167 0 283 -82 295 -211h-216c-7 32 -35 51 -79 51c-46 0 -75 -19 -75 -49c0 -28 24 -42 99 -52l87 -14c133 -20 201 -87 201 -201
c0 -144 -123 -236 -313 -236c-185 0 -300 81 -307 218zM900 144c318 0 567 258 567 576s-249 576 -567 576s-567 -258 -567 -576s249 -576 567 -576zM900 -57c-435 0 -777 343 -777 777c0 435 342 777 777 777s777 -342 777 -777c0 -434 -342 -777 -777 -777z" />
    <glyph glyph-name="uni24C9" unicode="T&#x20dd;" 
d="M1021 356h-242v501h-187v191h616v-191h-187v-501zM900 144c318 0 567 258 567 576s-249 576 -567 576s-567 -258 -567 -576s249 -576 567 -576zM900 -57c-435 0 -777 343 -777 777c0 435 342 777 777 777s777 -342 777 -777c0 -434 -342 -777 -777 -777z" />
    <glyph glyph-name="uni24CA" unicode="U&#x20dd;" 
d="M900 532c51 0 86 32 86 84v432h230v-454c0 -141 -125 -250 -316 -250s-316 109 -316 250v454h230v-432c0 -52 35 -84 86 -84zM900 144c318 0 567 258 567 576s-249 576 -567 576s-567 -258 -567 -576s249 -576 567 -576zM900 -57c-435 0 -777 343 -777 777
c0 435 342 777 777 777s777 -342 777 -777c0 -434 -342 -777 -777 -777z" />
    <glyph glyph-name="uni24CB" unicode="V&#x20dd;" 
d="M738 348l-194 692h258l91 -473h14l91 473h258l-194 -692h-324zM900 144c318 0 567 258 567 576s-249 576 -567 576s-567 -258 -567 -576s249 -576 567 -576zM900 -57c-435 0 -777 343 -777 777c0 435 342 777 777 777s777 -342 777 -777c0 -434 -342 -777 -777 -777z" />
    <glyph glyph-name="uni24CC" unicode="W&#x20dd;" 
d="M896 749l-85 -393h-195l-144 692h197l62 -440h10l85 440h149l84 -440h10l62 440h197l-143 -692h-196l-85 393h-8zM900 144c318 0 567 258 567 576s-249 576 -567 576s-567 -258 -567 -576s249 -576 567 -576zM900 -57c-435 0 -777 343 -777 777c0 435 342 777 777 777
s777 -342 777 -777c0 -434 -342 -777 -777 -777z" />
    <glyph glyph-name="uni24CD" unicode="X&#x20dd;" 
d="M1245 1072l-207 -347l206 -345h-244l-97 209h-13l-95 -209h-255l213 346l-212 346h257l95 -210h12l97 210h243zM900 144c318 0 567 258 567 576s-249 576 -567 576s-567 -258 -567 -576s249 -576 567 -576zM900 -57c-435 0 -777 343 -777 777c0 435 342 777 777 777
s777 -342 777 -777c0 -434 -342 -777 -777 -777z" />
    <glyph glyph-name="uni24CE" unicode="Y&#x20dd;" 
d="M1026 359h-251v205l-235 488h260l97 -265h7l97 265h259l-234 -487v-206zM900 144c318 0 567 258 567 576s-249 576 -567 576s-567 -258 -567 -576s249 -576 567 -576zM900 -57c-435 0 -777 343 -777 777c0 435 342 777 777 777s777 -342 777 -777
c0 -434 -342 -777 -777 -777z" />
    <glyph glyph-name="uni24CF" unicode="Z&#x20dd;" 
d="M623 380v148l265 349v11h-270v184h557v-149l-266 -348v-12h277v-183h-563zM900 144c318 0 567 258 567 576s-249 576 -567 576s-567 -258 -567 -576s249 -576 567 -576zM900 -57c-435 0 -777 343 -777 777c0 435 342 777 777 777s777 -342 777 -777
c0 -434 -342 -777 -777 -777z" />
    <glyph glyph-name="uni24EA" unicode="&#x23;&#x20dd;" 
d="M900 546c48 0 81 48 81 178s-33 177 -81 177s-81 -47 -81 -177s33 -178 81 -178zM897 368c-184 0 -302 133 -302 356c0 222 118 355 302 355c183 0 308 -133 308 -355c0 -223 -125 -356 -308 -356zM900 144c318 0 567 258 567 576s-249 576 -567 576s-567 -258 -567 -576
s249 -576 567 -576zM900 -57c-435 0 -777 343 -777 777c0 435 342 777 777 777s777 -342 777 -777c0 -434 -342 -777 -777 -777z" />
    <glyph glyph-name="uni2460" unicode="&#x31;&#x20dd;" 
d="M1054 380h-238v486h-13l-152 -103v201l165 108h238v-692zM900 144c318 0 567 258 567 576s-249 576 -567 576s-567 -258 -567 -576s249 -576 567 -576zM900 -57c-435 0 -777 343 -777 777c0 435 342 777 777 777s777 -342 777 -777c0 -434 -342 -777 -777 -777z" />
    <glyph glyph-name="uni2461" unicode="&#x32;&#x20dd;" 
d="M833 832h-219v2c0 145 109 248 288 248c164 0 275 -88 275 -212c0 -73 -44 -134 -134 -212l-93 -87v-9h237v-183h-557v146l240 218c52 48 73 73 73 107c0 31 -21 50 -52 50c-37 0 -59 -27 -58 -66v-2zM900 144c318 0 567 258 567 576s-249 576 -567 576
s-567 -258 -567 -576s249 -576 567 -576zM900 -57c-435 0 -777 343 -777 777c0 435 342 777 777 777s777 -342 777 -777c0 -434 -342 -777 -777 -777z" />
    <glyph glyph-name="uni2462" unicode="&#x33;&#x20dd;" 
d="M828 644v169h65c40 0 67 22 67 56c0 29 -27 48 -67 48c-45 0 -75 -29 -75 -70h-216c6 150 107 235 295 235c174 -1 285 -75 286 -188c0 -73 -64 -135 -130 -144v-11c78 -6 146 -70 147 -162c0 -129 -120 -208 -304 -208c-182 0 -297 95 -298 235h216c1 -39 31 -65 79 -65
s78 21 78 52c-1 33 -28 53 -77 53h-66zM900 144c318 0 567 258 567 576s-249 576 -567 576s-567 -258 -567 -576s249 -576 567 -576zM900 -57c-435 0 -777 343 -777 777c0 435 342 777 777 777s777 -342 777 -777c0 -434 -342 -777 -777 -777z" />
    <glyph glyph-name="uni2463" unicode="&#x34;&#x20dd;" 
d="M796 1072h315v-417h97v-172h-97v-103h-191v103h-343v175c68 143 134 263 219 414zM776 655h144v258h-19c-55 -106 -90 -176 -125 -257v-1zM900 144c318 0 567 258 567 576s-249 576 -567 576s-567 -258 -567 -576s249 -576 567 -576zM900 -57c-435 0 -777 343 -777 777
c0 435 342 777 777 777s777 -342 777 -777c0 -434 -342 -777 -777 -777z" />
    <glyph glyph-name="uni2464" unicode="&#x35;&#x20dd;" 
d="M620 602h218c7 -34 38 -54 74 -54c41 0 76 32 76 78c0 42 -34 74 -76 74c-33 0 -58 -18 -68 -39h-211l25 418h506v-163h-332l-9 -129h11c21 37 79 67 152 67c134 0 227 -84 227 -221c0 -158 -116 -257 -301 -257c-172 0 -291 94 -292 226zM900 144c318 0 567 258 567 576
s-249 576 -567 576s-567 -258 -567 -576s249 -576 567 -576zM900 -57c-435 0 -777 343 -777 777c0 435 342 777 777 777s777 -342 777 -777c0 -434 -342 -777 -777 -777z" />
    <glyph glyph-name="uni2465" unicode="&#x36;&#x20dd;" 
d="M911 367c-190 0 -329 118 -329 360c0 213 125 353 323 353c152 0 284 -90 298 -212h-239c-4 24 -29 42 -59 42c-60 0 -93 -70 -89 -167h11c26 60 84 92 160 92c128 0 224 -93 224 -219c0 -146 -124 -249 -300 -249zM909 538c40 0 67 33 67 74c0 42 -26 74 -68 74
c-41 0 -66 -33 -66 -73c0 -41 27 -75 67 -75zM900 144c318 0 567 258 567 576s-249 576 -567 576s-567 -258 -567 -576s249 -576 567 -576zM900 -57c-435 0 -777 343 -777 777c0 435 342 777 777 777s777 -342 777 -777c0 -434 -342 -777 -777 -777z" />
    <glyph glyph-name="uni2466" unicode="&#x37;&#x20dd;" 
d="M620 1069h570v-184l-262 -508h-254l276 501v8h-330v183zM900 144c318 0 567 258 567 576s-249 576 -567 576s-567 -258 -567 -576s249 -576 567 -576zM900 -57c-435 0 -777 343 -777 777c0 435 342 777 777 777s777 -342 777 -777c0 -434 -342 -777 -777 -777z" />
    <glyph glyph-name="uni2467" unicode="&#x38;&#x20dd;" 
d="M900 520c46 0 79 31 79 74c0 44 -33 76 -79 76s-79 -33 -79 -76s33 -74 79 -74zM900 807c37 0 64 26 64 61s-28 62 -64 62s-64 -27 -64 -62s27 -61 64 -61zM900 368c-198 0 -321 80 -321 208c0 89 62 152 159 164v10c-88 24 -130 71 -130 145c0 114 113 187 292 187
s292 -73 292 -187c0 -74 -43 -122 -130 -145v-10c97 -12 159 -75 159 -163c0 -129 -124 -209 -321 -209zM900 144c318 0 567 258 567 576s-249 576 -567 576s-567 -258 -567 -576s249 -576 567 -576zM900 -57c-435 0 -777 343 -777 777c0 435 342 777 777 777
s777 -342 777 -777c0 -434 -342 -777 -777 -777z" />
    <glyph glyph-name="uni2468" unicode="&#x39;&#x20dd;" 
d="M890 367c-155 0 -282 89 -296 210h239c3 -22 31 -40 60 -40c60 0 98 71 88 167h-11c-27 -60 -84 -91 -160 -91c-128 0 -224 92 -224 218c0 146 124 249 300 249c220 0 328 -154 328 -360c0 -214 -128 -353 -324 -353zM889 766c39 0 66 31 66 70c0 41 -25 74 -66 74
c-42 0 -68 -33 -68 -73c0 -41 28 -71 68 -71zM900 144c318 0 567 258 567 576s-249 576 -567 576s-567 -258 -567 -576s249 -576 567 -576zM900 -57c-435 0 -777 343 -777 777c0 435 342 777 777 777s777 -342 777 -777c0 -434 -342 -777 -777 -777z" />
    <glyph glyph-name="plus.uc.whitecircle" unicode="&#x2b;&#x20dd;" 
d="M1004 625v-207h-208v207h-202v198h202v206h208v-206h202v-198h-202zM900 144c318 0 567 258 567 576s-249 576 -567 576s-567 -258 -567 -576s249 -576 567 -576zM900 -57c-435 0 -777 343 -777 777c0 435 342 777 777 777s777 -342 777 -777c0 -434 -342 -777 -777 -777
z" />
    <glyph glyph-name="minus.uc.whitecircle" unicode="&#x2212;&#x20dd;" 
d="M1170 620h-540v207h540v-207zM900 144c318 0 567 258 567 576s-249 576 -567 576s-567 -258 -567 -576s249 -576 567 -576zM900 -57c-435 0 -777 343 -777 777c0 435 342 777 777 777s777 -342 777 -777c0 -434 -342 -777 -777 -777z" />
    <glyph glyph-name="multiply.uc.whitecircle" unicode="&#xd7;&#x20dd;" 
d="M899 870l157 155l148 -147l-157 -155l157 -155l-148 -144l-157 154l-157 -154l-145 144l156 155l-157 157l146 145zM900 144c318 0 567 258 567 576s-249 576 -567 576s-567 -258 -567 -576s249 -576 567 -576zM900 -57c-435 0 -777 343 -777 777c0 435 342 777 777 777
s777 -342 777 -777c0 -434 -342 -777 -777 -777z" />
    <glyph glyph-name="divide.uc.whitecircle" unicode="&#xf7;&#x20dd;" 
d="M1170 646h-540v156h540v-156zM793 955c0 55 46 95 107 95s108 -40 108 -95c0 -54 -47 -93 -108 -93s-107 39 -107 93zM793 493c0 55 46 94 107 94s108 -39 108 -94s-47 -94 -108 -94s-107 39 -107 94zM900 144c318 0 567 258 567 576s-249 576 -567 576
s-567 -258 -567 -576s249 -576 567 -576zM900 -57c-435 0 -777 343 -777 777c0 435 342 777 777 777s777 -342 777 -777c0 -434 -342 -777 -777 -777z" />
    <glyph glyph-name="equal.uc.whitecircle" unicode="&#x3d;&#x20dd;" 
d="M1189 494h-577v179h577v-179zM1189 772h-577v179h577v-179zM900 144c318 0 567 258 567 576s-249 576 -567 576s-567 -258 -567 -576s249 -576 567 -576zM900 -57c-435 0 -777 343 -777 777c0 435 342 777 777 777s777 -342 777 -777c0 -434 -342 -777 -777 -777z" />
    <glyph glyph-name="greater.uc.whitecircle" unicode="&#x3e;&#x20dd;" 
d="M1198 784v-123l-542 -255v215l257 100v9l-257 90v222zM900 144c318 0 567 258 567 576s-249 576 -567 576s-567 -258 -567 -576s249 -576 567 -576zM900 -57c-435 0 -777 343 -777 777c0 435 342 777 777 777s777 -342 777 -777c0 -434 -342 -777 -777 -777z" />
    <glyph glyph-name="less.uc.whitecircle" unicode="&#x3c;&#x20dd;" 
d="M602 661v123l542 258v-222l-257 -90v-9l257 -100v-215zM900 144c318 0 567 258 567 576s-249 576 -567 576s-567 -258 -567 -576s249 -576 567 -576zM900 -57c-435 0 -777 343 -777 777c0 435 342 777 777 777s777 -342 777 -777c0 -434 -342 -777 -777 -777z" />
    <glyph glyph-name="numbersign.whitecircle" unicode="&#x30;&#x20dd;" 
d="M1198 767h-93l-14 -76h95l-30 -150h-96l-34 -163h-159l31 163h-72l-33 -163h-161l34 163h-92l29 150h92l16 76h-95l29 151h93l30 153h161l-31 -153h74l29 153h161l-29 -153h93zM859 781l-22 -113h105l20 113h-103zM900 144c318 0 567 258 567 576s-249 576 -567 576
s-567 -258 -567 -576s249 -576 567 -576zM900 -57c-435 0 -777 343 -777 777c0 435 342 777 777 777s777 -342 777 -777c0 -434 -342 -777 -777 -777z" />
    <glyph glyph-name="uni25BC.whitecircle" unicode="&#x25bc;&#x20dd;" 
d="M1235 947l-335 -581l-334 581h669zM900 144c318 0 567 258 567 576s-249 576 -567 576s-567 -258 -567 -576s249 -576 567 -576zM900 -57c-435 0 -777 343 -777 777c0 435 342 777 777 777s777 -342 777 -777c0 -434 -342 -777 -777 -777z" />
    <glyph glyph-name="uni25B2.whitecircle" unicode="&#x25b2;&#x20dd;" 
d="M1235 500h-669l334 581zM900 144c318 0 567 258 567 576s-249 576 -567 576s-567 -258 -567 -576s249 -576 567 -576zM900 -57c-435 0 -777 343 -777 777c0 435 342 777 777 777s777 -342 777 -777c0 -434 -342 -777 -777 -777z" />
    <glyph glyph-name="uni25C0.whitecircle" unicode="&#x25c0;&#x20dd;" 
d="M1120 392l-581 335l581 335v-670zM900 144c318 0 567 258 567 576s-249 576 -567 576s-567 -258 -567 -576s249 -576 567 -576zM900 -57c-435 0 -777 343 -777 777c0 435 342 777 777 777s777 -342 777 -777c0 -434 -342 -777 -777 -777z" />
    <glyph glyph-name="uni25B6.whitecircle" unicode="&#x25b6;&#x20dd;" 
d="M680 392v670l581 -335zM900 144c318 0 567 258 567 576s-249 576 -567 576s-567 -258 -567 -576s249 -576 567 -576zM900 -57c-435 0 -777 343 -777 777c0 435 342 777 777 777s777 -342 777 -777c0 -434 -342 -777 -777 -777z" />
    <glyph glyph-name="question.whitecircle" unicode="&#x3f;&#x20dd;" 
d="M766 464c0 61 48 97 128 97s128 -37 128 -97c0 -61 -47 -96 -128 -96c-80 0 -128 35 -128 96zM787 604c-3 8 -3 22 -3 31c-1 63 29 111 82 144c59 37 83 58 83 86c0 30 -22 47 -51 47s-50 -24 -52 -54h-205c0 150 107 222 279 222c153 0 259 -78 259 -206
c0 -78 -35 -124 -100 -165c-81 -52 -95 -63 -95 -98v-7h-197zM900 144c318 0 567 258 567 576s-249 576 -567 576s-567 -258 -567 -576s249 -576 567 -576zM900 -57c-435 0 -777 343 -777 777c0 435 342 777 777 777s777 -342 777 -777c0 -434 -342 -777 -777 -777z" />
    <glyph glyph-name="exclam.whitecircle" unicode="&#x21;&#x20dd;" 
d="M777 464c0 61 49 97 129 97s127 -37 127 -97c0 -61 -46 -96 -127 -96c-80 0 -129 35 -129 96zM780 1072h251l-27 -458h-198zM900 144c318 0 567 258 567 576s-249 576 -567 576s-567 -258 -567 -576s249 -576 567 -576zM900 -57c-435 0 -777 343 -777 777
c0 435 342 777 777 777s777 -342 777 -777c0 -434 -342 -777 -777 -777z" />
    <glyph glyph-name="uni2717.whitecircle" unicode="&#x2717;&#x20dd;" 
d="M903 862l209 207l138 -138l-207 -208l207 -208l-138 -139l-209 207l-209 -208l-138 138l209 210l-208 208l138 139zM900 144c318 0 567 258 567 576s-249 576 -567 576s-567 -258 -567 -576s249 -576 567 -576zM900 -57c-435 0 -777 343 -777 777c0 435 342 777 777 777
s777 -342 777 -777c0 -434 -342 -777 -777 -777z" />
    <glyph glyph-name="uni2713.whitecircle" unicode="&#x2713;&#x20dd;" 
d="M1330 890l-541 -528l-323 318l144 141l183 -182l398 397zM900 144c318 0 567 258 567 576s-249 576 -567 576s-567 -258 -567 -576s249 -576 567 -576zM900 -57c-435 0 -777 343 -777 777c0 435 342 777 777 777s777 -342 777 -777c0 -434 -342 -777 -777 -777z" />
    <glyph glyph-name="uni1F130" unicode="A&#x20de;" 
d="M836 683h128l-55 220h-18zM772 403h-231l214 692h290l214 -692h-231l-28 114h-200zM411 1475h978c146 0 262 -116 262 -258v-990c0 -142 -116 -258 -262 -258h-978c-145 0 -262 116 -262 258v990c0 142 117 258 262 258zM1444 1161c0 69 -56 123 -127 123h-834
c-70 0 -127 -53 -127 -123v-878c0 -68 58 -123 127 -123h834c69 0 127 54 127 123v878z" />
    <glyph glyph-name="uni1F131" unicode="B&#x20de;" 
d="M614 380v692h369c135 0 218 -64 218 -170c0 -79 -55 -137 -137 -149v-11c102 -12 164 -74 164 -173c0 -112 -97 -189 -234 -189h-380zM830 929v-131h69c58 0 88 24 88 67c0 39 -32 64 -79 64h-78zM829 676v-144h76c64 0 96 27 96 73c0 44 -33 71 -88 71h-84zM411 1475
h978c146 0 262 -116 262 -258v-990c0 -142 -116 -258 -262 -258h-978c-145 0 -262 116 -262 258v990c0 142 117 258 262 258zM1444 1161c0 69 -56 123 -127 123h-834c-70 0 -127 -53 -127 -123v-878c0 -68 58 -123 127 -123h834c69 0 127 54 127 123v878z" />
    <glyph glyph-name="uni1F132" unicode="C&#x20de;" 
d="M1010 647h214c-7 -163 -135 -279 -323 -279c-195 0 -345 131 -345 357s150 357 345 357c189 0 317 -116 323 -281h-213c-3 53 -49 93 -106 93c-71 0 -117 -60 -117 -169c0 -110 46 -169 117 -169c56 0 102 39 105 91zM411 1475h978c146 0 262 -116 262 -258v-990
c0 -142 -116 -258 -262 -258h-978c-145 0 -262 116 -262 258v990c0 142 117 258 262 258zM1444 1161c0 69 -56 123 -127 123h-834c-70 0 -127 -53 -127 -123v-878c0 -68 58 -123 127 -123h834c69 0 127 54 127 123v878z" />
    <glyph glyph-name="uni1F133" unicode="D&#x20de;" 
d="M610 1072h320c211 0 325 -123 325 -347c0 -222 -113 -345 -325 -345h-320v692zM835 894v-337h56c90 0 127 49 127 168c0 118 -37 169 -127 169h-56zM411 1475h978c146 0 262 -116 262 -258v-990c0 -142 -116 -258 -262 -258h-978c-145 0 -262 116 -262 258v990
c0 142 117 258 262 258zM1444 1161c0 69 -56 123 -127 123h-834c-70 0 -127 -53 -127 -123v-878c0 -68 58 -123 127 -123h834c69 0 127 54 127 123v878z" />
    <glyph glyph-name="uni1F134" unicode="E&#x20de;" 
d="M1170 554v-174h-515v692h515v-174h-293v-98h274v-147h-274v-99h293zM411 1475h978c146 0 262 -116 262 -258v-990c0 -142 -116 -258 -262 -258h-978c-145 0 -262 116 -262 258v990c0 142 117 258 262 258zM1444 1161c0 69 -56 123 -127 123h-834
c-70 0 -127 -53 -127 -123v-878c0 -68 58 -123 127 -123h834c69 0 127 54 127 123v878z" />
    <glyph glyph-name="uni1F135" unicode="F&#x20de;" 
d="M898 380h-233v692h514v-178h-281v-104h255v-177h-255v-233zM411 1475h978c146 0 262 -116 262 -258v-990c0 -142 -116 -258 -262 -258h-978c-145 0 -262 116 -262 258v990c0 142 117 258 262 258zM1444 1161c0 69 -56 123 -127 123h-834c-70 0 -127 -53 -127 -123v-878
c0 -68 58 -123 127 -123h834c69 0 127 54 127 123v878z" />
    <glyph glyph-name="uni1F136" unicode="G&#x20de;" 
d="M1012 616v17h-109v137h323v-121c0 -158 -125 -281 -324 -281c-207 0 -346 143 -346 357s139 357 346 357c174 0 304 -100 323 -252h-221c-5 48 -43 79 -99 79c-71 0 -117 -73 -117 -184c0 -113 48 -192 117 -192c70 0 107 35 107 83zM411 1475h978
c146 0 262 -116 262 -258v-990c0 -142 -116 -258 -262 -258h-978c-145 0 -262 116 -262 258v990c0 142 117 258 262 258zM1444 1161c0 69 -56 123 -127 123h-834c-70 0 -127 -53 -127 -123v-878c0 -68 58 -123 127 -123h834c69 0 127 54 127 123v878z" />
    <glyph glyph-name="uni1F137" unicode="H&#x20de;" 
d="M1219 380h-217v249h-204v-249h-217v692h217v-255h204v255h217v-692zM411 1475h978c146 0 262 -116 262 -258v-990c0 -142 -116 -258 -262 -258h-978c-145 0 -262 116 -262 258v990c0 142 117 258 262 258zM1444 1161c0 69 -56 123 -127 123h-834
c-70 0 -127 -53 -127 -123v-878c0 -68 58 -123 127 -123h834c69 0 127 54 127 123v878z" />
    <glyph glyph-name="uni1F138" unicode="I&#x20de;" 
d="M1029 380h-258v692h258v-692zM411 1475h978c146 0 262 -116 262 -258v-990c0 -142 -116 -258 -262 -258h-978c-145 0 -262 116 -262 258v990c0 142 117 258 262 258zM1444 1161c0 69 -56 123 -127 123h-834c-70 0 -127 -53 -127 -123v-878c0 -68 58 -123 127 -123h834
c69 0 127 54 127 123v878z" />
    <glyph glyph-name="uni1F139" unicode="J&#x20de;" 
d="M583 639h230c0 -52 21 -77 60 -77s56 26 56 79v416h239v-422c0 -174 -111 -282 -288 -282c-184 0 -297 113 -297 286zM411 1475h978c146 0 262 -116 262 -258v-990c0 -142 -116 -258 -262 -258h-978c-145 0 -262 116 -262 258v990c0 142 117 258 262 258zM1444 1161
c0 69 -56 123 -127 123h-834c-70 0 -127 -53 -127 -123v-878c0 -68 58 -123 127 -123h834c69 0 127 54 127 123v878z" />
    <glyph glyph-name="uni1F13A" unicode="&#x212a;&#x20de;" 
d="M1243 1072l-211 -322l215 -370h-260l-129 231l-58 -70v-161h-209v692h209v-258h19l175 258h249zM411 1475h978c146 0 262 -116 262 -258v-990c0 -142 -116 -258 -262 -258h-978c-145 0 -262 116 -262 258v990c0 142 117 258 262 258zM1444 1161c0 69 -56 123 -127 123
h-834c-70 0 -127 -53 -127 -123v-878c0 -68 58 -123 127 -123h834c69 0 127 54 127 123v878z" />
    <glyph glyph-name="uni1F13B" unicode="L&#x20de;" 
d="M1191 590v-195h-509v692h241v-497h268zM411 1475h978c146 0 262 -116 262 -258v-990c0 -142 -116 -258 -262 -258h-978c-145 0 -262 116 -262 258v990c0 142 117 258 262 258zM1444 1161c0 69 -56 123 -127 123h-834c-70 0 -127 -53 -127 -123v-878
c0 -68 58 -123 127 -123h834c69 0 127 54 127 123v878z" />
    <glyph glyph-name="uni1F13C" unicode="M&#x20de;" 
d="M714 380h-170v692h221l133 -416h6l133 416h220v-692h-169v398h-20l-119 -352h-99l-116 352h-20v-398zM411 1475h978c146 0 262 -116 262 -258v-990c0 -142 -116 -258 -262 -258h-978c-145 0 -262 116 -262 258v990c0 142 117 258 262 258zM1444 1161
c0 69 -56 123 -127 123h-834c-70 0 -127 -53 -127 -123v-878c0 -68 58 -123 127 -123h834c69 0 127 54 127 123v878z" />
    <glyph glyph-name="uni1F13D" unicode="N&#x20de;" 
d="M785 380h-195v692h160l248 -339h17v339h195v-692h-159l-248 345h-18v-345zM411 1475h978c146 0 262 -116 262 -258v-990c0 -142 -116 -258 -262 -258h-978c-145 0 -262 116 -262 258v990c0 142 117 258 262 258zM1444 1161c0 69 -56 123 -127 123h-834
c-70 0 -127 -53 -127 -123v-878c0 -68 58 -123 127 -123h834c69 0 127 54 127 123v878z" />
    <glyph glyph-name="uni1F13E" unicode="O&#x20de;" 
d="M900 556c62 0 113 54 113 169s-51 169 -113 169s-113 -54 -113 -169s51 -169 113 -169zM900 368c-195 0 -346 129 -346 357s151 357 346 357s346 -129 346 -357s-151 -357 -346 -357zM411 1475h978c146 0 262 -116 262 -258v-990c0 -142 -116 -258 -262 -258h-978
c-145 0 -262 116 -262 258v990c0 142 117 258 262 258zM1444 1161c0 69 -56 123 -127 123h-834c-70 0 -127 -53 -127 -123v-878c0 -68 58 -123 127 -123h834c69 0 127 54 127 123v878z" />
    <glyph glyph-name="uni1F13F" unicode="P&#x20de;" 
d="M977 1072c162 0 266 -106 266 -264c0 -156 -104 -258 -269 -258h-89v-170h-240v692h332zM1016 808c0 60 -27 89 -81 89h-67v-177h67c54 0 81 30 81 88zM411 1475h978c146 0 262 -116 262 -258v-990c0 -142 -116 -258 -262 -258h-978c-145 0 -262 116 -262 258v990
c0 142 117 258 262 258zM1444 1161c0 69 -56 123 -127 123h-834c-70 0 -127 -53 -127 -123v-878c0 -68 58 -123 127 -123h834c69 0 127 54 127 123v878z" />
    <glyph glyph-name="uni1F140" unicode="Q&#x20de;" 
d="M1229 324h-223l-24 53c-26 -6 -53 -9 -82 -9c-195 0 -346 129 -346 357s151 357 346 357s346 -129 346 -357c0 -119 -40 -210 -106 -271zM900 556c7 0 14 1 21 3l-38 89h101l11 -14c11 23 18 53 18 91c0 115 -51 169 -113 169s-113 -54 -113 -169s51 -169 113 -169z
M411 1475h978c146 0 262 -116 262 -258v-990c0 -142 -116 -258 -262 -258h-978c-145 0 -262 116 -262 258v990c0 142 117 258 262 258zM1444 1161c0 69 -56 123 -127 123h-834c-70 0 -127 -53 -127 -123v-878c0 -68 58 -123 127 -123h834c69 0 127 54 127 123v878z" />
    <glyph glyph-name="uni1F141" unicode="R&#x20de;" 
d="M936 1072c185 0 289 -84 289 -229c0 -97 -52 -167 -136 -193l151 -270h-241l-111 228h-68v-228h-211v692h327zM820 756h92c49 0 80 26 80 73c0 48 -29 74 -79 74h-93v-147zM411 1475h978c146 0 262 -116 262 -258v-990c0 -142 -116 -258 -262 -258h-978
c-145 0 -262 116 -262 258v990c0 142 117 258 262 258zM1444 1161c0 69 -56 123 -127 123h-834c-70 0 -127 -53 -127 -123v-878c0 -68 58 -123 127 -123h834c69 0 127 54 127 123v878z" />
    <glyph glyph-name="uni1F142" unicode="S&#x20de;" 
d="M591 587h222c6 -34 41 -55 91 -55c53 0 87 21 87 54c0 28 -21 39 -105 52l-77 12c-135 20 -209 92 -209 202c0 139 118 229 299 229c167 0 283 -82 295 -211h-216c-7 32 -35 51 -79 51c-46 0 -75 -19 -75 -49c0 -28 24 -42 99 -52l87 -14c133 -20 201 -87 201 -201
c0 -144 -123 -236 -313 -236c-185 0 -300 81 -307 218zM411 1475h978c146 0 262 -116 262 -258v-990c0 -142 -116 -258 -262 -258h-978c-145 0 -262 116 -262 258v990c0 142 117 258 262 258zM1444 1161c0 69 -56 123 -127 123h-834c-70 0 -127 -53 -127 -123v-878
c0 -68 58 -123 127 -123h834c69 0 127 54 127 123v878z" />
    <glyph glyph-name="uni1F143" unicode="T&#x20de;" 
d="M1021 360h-242v502h-187v191h616v-191h-187v-502zM411 1475h978c146 0 262 -116 262 -258v-990c0 -142 -116 -258 -262 -258h-978c-145 0 -262 116 -262 258v990c0 142 117 258 262 258zM1444 1161c0 69 -56 123 -127 123h-834c-70 0 -127 -53 -127 -123v-878
c0 -68 58 -123 127 -123h834c69 0 127 54 127 123v878z" />
    <glyph glyph-name="uni1F144" unicode="U&#x20de;" 
d="M900 536c51 0 86 33 86 84v433h230v-454c0 -141 -125 -250 -316 -250s-316 109 -316 250v454h230v-433c0 -51 35 -84 86 -84zM411 1475h978c146 0 262 -116 262 -258v-990c0 -142 -116 -258 -262 -258h-978c-145 0 -262 116 -262 258v990c0 142 117 258 262 258z
M1444 1161c0 69 -56 123 -127 123h-834c-70 0 -127 -53 -127 -123v-878c0 -68 58 -123 127 -123h834c69 0 127 54 127 123v878z" />
    <glyph glyph-name="uni1F145" unicode="V&#x20de;" 
d="M738 353l-194 692h258l91 -473h14l91 473h258l-194 -692h-324zM411 1475h978c146 0 262 -116 262 -258v-990c0 -142 -116 -258 -262 -258h-978c-145 0 -262 116 -262 258v990c0 142 117 258 262 258zM1444 1161c0 69 -56 123 -127 123h-834c-70 0 -127 -53 -127 -123
v-878c0 -68 58 -123 127 -123h834c69 0 127 54 127 123v878z" />
    <glyph glyph-name="uni1F146" unicode="W&#x20de;" 
d="M896 754l-85 -394h-195l-144 693h197l62 -440h10l85 440h149l84 -440h10l62 440h197l-143 -693h-196l-85 394h-8zM411 1475h978c146 0 262 -116 262 -258v-990c0 -142 -116 -258 -262 -258h-978c-145 0 -262 116 -262 258v990c0 142 117 258 262 258zM1444 1161
c0 69 -56 123 -127 123h-834c-70 0 -127 -53 -127 -123v-878c0 -68 58 -123 127 -123h834c69 0 127 54 127 123v878z" />
    <glyph glyph-name="uni1F147" unicode="X&#x20de;" 
d="M1245 1072l-207 -347l206 -345h-244l-97 209h-13l-95 -209h-255l213 346l-212 346h257l95 -210h12l97 210h243zM411 1475h978c146 0 262 -116 262 -258v-990c0 -142 -116 -258 -262 -258h-978c-145 0 -262 116 -262 258v990c0 142 117 258 262 258zM1444 1161
c0 69 -56 123 -127 123h-834c-70 0 -127 -53 -127 -123v-878c0 -68 58 -123 127 -123h834c69 0 127 54 127 123v878z" />
    <glyph glyph-name="uni1F148" unicode="Y&#x20de;" 
d="M1026 360h-251v206l-235 487h260l97 -265h7l97 265h259l-234 -487v-206zM411 1475h978c146 0 262 -116 262 -258v-990c0 -142 -116 -258 -262 -258h-978c-145 0 -262 116 -262 258v990c0 142 117 258 262 258zM1444 1161c0 69 -56 123 -127 123h-834
c-70 0 -127 -53 -127 -123v-878c0 -68 58 -123 127 -123h834c69 0 127 54 127 123v878z" />
    <glyph glyph-name="uni1F149" unicode="Z&#x20de;" 
d="M623 380v148l265 349v11h-270v184h557v-149l-266 -348v-12h277v-183h-563zM411 1475h978c146 0 262 -116 262 -258v-990c0 -142 -116 -258 -262 -258h-978c-145 0 -262 116 -262 258v990c0 142 117 258 262 258zM1444 1161c0 69 -56 123 -127 123h-834
c-70 0 -127 -53 -127 -123v-878c0 -68 58 -123 127 -123h834c69 0 127 54 127 123v878z" />
    <glyph glyph-name="zero.whitesquare" unicode="&#x30;&#x20de;" 
d="M900 546c48 0 81 48 81 178s-33 177 -81 177s-81 -47 -81 -177s33 -178 81 -178zM897 368c-184 0 -302 133 -302 356c0 222 118 355 302 355c183 0 308 -133 308 -355c0 -223 -125 -356 -308 -356zM411 1475h978c146 0 262 -116 262 -258v-990
c0 -142 -116 -258 -262 -258h-978c-145 0 -262 116 -262 258v990c0 142 117 258 262 258zM1444 1161c0 69 -56 123 -127 123h-834c-70 0 -127 -53 -127 -123v-878c0 -68 58 -123 127 -123h834c69 0 127 54 127 123v878z" />
    <glyph glyph-name="one.whitesquare" unicode="&#x31;&#x20de;" 
d="M1056 380h-238v486h-12l-152 -103v201l164 108h238v-692zM411 1475h978c146 0 262 -116 262 -258v-990c0 -142 -116 -258 -262 -258h-978c-145 0 -262 116 -262 258v990c0 142 117 258 262 258zM1444 1161c0 69 -56 123 -127 123h-834c-70 0 -127 -53 -127 -123v-878
c0 -68 58 -123 127 -123h834c69 0 127 54 127 123v878z" />
    <glyph glyph-name="two.whitesquare" unicode="&#x32;&#x20de;" 
d="M833 832h-219v2c0 145 109 248 288 248c164 0 275 -88 275 -212c0 -73 -44 -134 -134 -212l-93 -87v-9h237v-183h-557v146l240 218c52 48 73 73 73 107c0 31 -21 50 -52 50c-37 0 -59 -27 -58 -66v-2zM411 1475h978c146 0 262 -116 262 -258v-990
c0 -142 -116 -258 -262 -258h-978c-145 0 -262 116 -262 258v990c0 142 117 258 262 258zM1444 1161c0 69 -56 123 -127 123h-834c-70 0 -127 -53 -127 -123v-878c0 -68 58 -123 127 -123h834c69 0 127 54 127 123v878z" />
    <glyph glyph-name="three.whitesquare" unicode="&#x33;&#x20de;" 
d="M828 644v169h65c40 0 67 22 67 56c0 29 -27 48 -67 48c-45 0 -75 -29 -75 -70h-216c6 150 107 235 295 235c174 -1 285 -75 286 -188c0 -73 -64 -135 -130 -144v-11c78 -6 146 -70 147 -162c0 -129 -120 -208 -304 -208c-182 0 -297 95 -298 235h216c1 -39 31 -65 79 -65
s78 21 78 52c-1 33 -28 53 -77 53h-66zM411 1475h978c146 0 262 -116 262 -258v-990c0 -142 -116 -258 -262 -258h-978c-145 0 -262 116 -262 258v990c0 142 117 258 262 258zM1444 1161c0 69 -56 123 -127 123h-834c-70 0 -127 -53 -127 -123v-878c0 -68 58 -123 127 -123
h834c69 0 127 54 127 123v878z" />
    <glyph glyph-name="four.whitesquare" unicode="&#x34;&#x20de;" 
d="M801 1072h314v-417h97v-172h-97v-103h-191v103h-343v175c68 143 134 263 220 414zM780 655h144v258h-18c-56 -106 -90 -176 -126 -257v-1zM411 1475h978c146 0 262 -116 262 -258v-990c0 -142 -116 -258 -262 -258h-978c-145 0 -262 116 -262 258v990
c0 142 117 258 262 258zM1444 1161c0 69 -56 123 -127 123h-834c-70 0 -127 -53 -127 -123v-878c0 -68 58 -123 127 -123h834c69 0 127 54 127 123v878z" />
    <glyph glyph-name="five.whitesquare" unicode="&#x35;&#x20de;" 
d="M620 602h218c7 -34 38 -54 74 -54c41 0 76 32 76 78c0 42 -34 74 -76 74c-33 0 -58 -18 -68 -39h-211l25 418h506v-163h-332l-9 -129h11c21 37 79 67 152 67c134 0 227 -84 227 -221c0 -158 -116 -257 -301 -257c-172 0 -291 94 -292 226zM411 1475h978
c146 0 262 -116 262 -258v-990c0 -142 -116 -258 -262 -258h-978c-145 0 -262 116 -262 258v990c0 142 117 258 262 258zM1444 1161c0 69 -56 123 -127 123h-834c-70 0 -127 -53 -127 -123v-878c0 -68 58 -123 127 -123h834c69 0 127 54 127 123v878z" />
    <glyph glyph-name="six.whitesquare" unicode="&#x36;&#x20de;" 
d="M938 367c-204 0 -352 118 -352 361c0 215 133 355 347 355c164 0 303 -90 319 -212h-240c-7 23 -38 42 -78 42c-76 0 -118 -70 -115 -168h12c30 60 95 92 181 92c143 0 249 -94 249 -220c0 -146 -134 -250 -323 -250zM936 538c52 0 89 34 89 75c0 42 -35 75 -89 75
s-89 -34 -89 -74c0 -42 37 -76 89 -76zM411 1475h978c146 0 262 -116 262 -258v-990c0 -142 -116 -258 -262 -258h-978c-145 0 -262 116 -262 258v990c0 142 117 258 262 258zM1444 1161c0 69 -56 123 -127 123h-834c-70 0 -127 -53 -127 -123v-878c0 -68 58 -123 127 -123
h834c69 0 127 54 127 123v878z" />
    <glyph glyph-name="seven.whitesquare" unicode="&#x37;&#x20de;" 
d="M618 1072h569v-185l-261 -507h-254l276 500v9h-330v183zM411 1475h978c146 0 262 -116 262 -258v-990c0 -142 -116 -258 -262 -258h-978c-145 0 -262 116 -262 258v990c0 142 117 258 262 258zM1444 1161c0 69 -56 123 -127 123h-834c-70 0 -127 -53 -127 -123v-878
c0 -68 58 -123 127 -123h834c69 0 127 54 127 123v878z" />
    <glyph glyph-name="eight.whitesquare" unicode="&#x38;&#x20de;" 
d="M900 520c46 0 79 31 79 74c0 44 -33 76 -79 76s-79 -33 -79 -76s33 -74 79 -74zM900 807c37 0 64 26 64 61s-28 62 -64 62s-64 -27 -64 -62s27 -61 64 -61zM900 368c-198 0 -321 80 -321 208c0 89 62 152 159 164v10c-88 24 -130 71 -130 145c0 114 113 187 292 187
s292 -73 292 -187c0 -74 -43 -122 -130 -145v-10c97 -12 159 -75 159 -163c0 -129 -124 -209 -321 -209zM411 1475h978c146 0 262 -116 262 -258v-990c0 -142 -116 -258 -262 -258h-978c-145 0 -262 116 -262 258v990c0 142 117 258 262 258zM1444 1161
c0 69 -56 123 -127 123h-834c-70 0 -127 -53 -127 -123v-878c0 -68 58 -123 127 -123h834c69 0 127 54 127 123v878z" />
    <glyph glyph-name="nine.whitesquare" unicode="&#x39;&#x20de;" 
d="M911 367c-165 0 -299 90 -316 211h240c6 -23 40 -41 80 -41c74 0 121 72 112 169h-11c-31 -61 -96 -93 -181 -93c-143 0 -249 94 -249 220c0 146 134 250 323 250c232 0 352 -155 352 -361c0 -215 -137 -355 -350 -355zM912 767c52 0 88 32 88 71c0 41 -36 74 -89 74
s-89 -33 -89 -73c0 -41 37 -72 90 -72zM411 1475h978c146 0 262 -116 262 -258v-990c0 -142 -116 -258 -262 -258h-978c-145 0 -262 116 -262 258v990c0 142 117 258 262 258zM1444 1161c0 69 -56 123 -127 123h-834c-70 0 -127 -53 -127 -123v-878c0 -68 58 -123 127 -123
h834c69 0 127 54 127 123v878z" />
    <glyph glyph-name="plus.uc.whitesquare" unicode="&#x2b;&#x20de;" 
d="M1004 625v-207h-208v207h-202v198h202v206h208v-206h202v-198h-202zM411 1475h978c146 0 262 -116 262 -258v-990c0 -142 -116 -258 -262 -258h-978c-145 0 -262 116 -262 258v990c0 142 117 258 262 258zM1444 1161c0 69 -56 123 -127 123h-834
c-70 0 -127 -53 -127 -123v-878c0 -68 58 -123 127 -123h834c69 0 127 54 127 123v878z" />
    <glyph glyph-name="minus.uc.whitesquare" unicode="&#x2212;&#x20de;" 
d="M1170 620h-540v207h540v-207zM411 1475h978c146 0 262 -116 262 -258v-990c0 -142 -116 -258 -262 -258h-978c-145 0 -262 116 -262 258v990c0 142 117 258 262 258zM1444 1161c0 69 -56 123 -127 123h-834c-70 0 -127 -53 -127 -123v-878c0 -68 58 -123 127 -123h834
c69 0 127 54 127 123v878z" />
    <glyph glyph-name="multiply.uc.whitesquare" unicode="&#xd7;&#x20de;" 
d="M899 870l158 156l146 -146l-157 -156l157 -156l-146 -145l-158 156l-157 -156l-147 145l158 156l-158 156l147 146zM411 1475h978c146 0 262 -116 262 -258v-990c0 -142 -116 -258 -262 -258h-978c-145 0 -262 116 -262 258v990c0 142 117 258 262 258zM1444 1161
c0 69 -56 123 -127 123h-834c-70 0 -127 -53 -127 -123v-878c0 -68 58 -123 127 -123h834c69 0 127 54 127 123v878z" />
    <glyph glyph-name="divide.uc.whitesquare" unicode="&#xf7;&#x20de;" 
d="M1170 646h-540v156h540v-156zM793 955c0 55 46 95 107 95s108 -40 108 -95c0 -54 -47 -93 -108 -93s-107 39 -107 93zM793 493c0 55 46 94 107 94s108 -39 108 -94s-47 -94 -108 -94s-107 39 -107 94zM411 1475h978c146 0 262 -116 262 -258v-990
c0 -142 -116 -258 -262 -258h-978c-145 0 -262 116 -262 258v990c0 142 117 258 262 258zM1444 1161c0 69 -56 123 -127 123h-834c-70 0 -127 -53 -127 -123v-878c0 -68 58 -123 127 -123h834c69 0 127 54 127 123v878z" />
    <glyph glyph-name="equal.uc.whitesquare" unicode="&#x3d;&#x20de;" 
d="M1189 494h-577v179h577v-179zM1189 772h-577v179h577v-179zM411 1475h978c146 0 262 -116 262 -258v-990c0 -142 -116 -258 -262 -258h-978c-145 0 -262 116 -262 258v990c0 142 117 258 262 258zM1444 1161c0 69 -56 123 -127 123h-834c-70 0 -127 -53 -127 -123v-878
c0 -68 58 -123 127 -123h834c69 0 127 54 127 123v878z" />
    <glyph glyph-name="greater.uc.whitesquare" unicode="&#x3e;&#x20de;" 
d="M1198 784v-123l-542 -255v215l257 100v9l-257 90v222zM411 1475h978c146 0 262 -116 262 -258v-990c0 -142 -116 -258 -262 -258h-978c-145 0 -262 116 -262 258v990c0 142 117 258 262 258zM1444 1161c0 69 -56 123 -127 123h-834c-70 0 -127 -53 -127 -123v-878
c0 -68 58 -123 127 -123h834c69 0 127 54 127 123v878z" />
    <glyph glyph-name="less.uc.whitesquare" unicode="&#x3c;&#x20de;" 
d="M602 661v123l542 258v-222l-257 -90v-9l257 -100v-215zM411 1475h978c146 0 262 -116 262 -258v-990c0 -142 -116 -258 -262 -258h-978c-145 0 -262 116 -262 258v990c0 142 117 258 262 258zM1444 1161c0 69 -56 123 -127 123h-834c-70 0 -127 -53 -127 -123v-878
c0 -68 58 -123 127 -123h834c69 0 127 54 127 123v878z" />
    <glyph glyph-name="numbersign.whitesquare" unicode="&#x23;&#x20de;" 
d="M1198 767h-93l-14 -76h95l-30 -150h-96l-34 -163h-159l31 163h-72l-33 -163h-161l34 163h-92l29 150h92l16 76h-95l29 151h93l30 153h161l-31 -153h74l29 153h161l-29 -153h93zM859 781l-22 -113h105l20 113h-103zM411 1475h978c146 0 262 -116 262 -258v-990
c0 -142 -116 -258 -262 -258h-978c-145 0 -262 116 -262 258v990c0 142 117 258 262 258zM1444 1161c0 69 -56 123 -127 123h-834c-70 0 -127 -53 -127 -123v-878c0 -68 58 -123 127 -123h834c69 0 127 54 127 123v878z" />
    <glyph glyph-name="uni25BC.whitesquare" unicode="&#x25bc;&#x20de;" 
d="M1236 947l-336 -581l-334 581h670zM411 1475h978c146 0 262 -116 262 -258v-990c0 -142 -116 -258 -262 -258h-978c-145 0 -262 116 -262 258v990c0 142 117 258 262 258zM1444 1161c0 69 -56 123 -127 123h-834c-70 0 -127 -53 -127 -123v-878c0 -68 58 -123 127 -123
h834c69 0 127 54 127 123v878z" />
    <glyph glyph-name="uni25B2.whitesquare" unicode="&#x25b2;&#x20de;" 
d="M1235 500h-669l334 581zM411 1475h978c146 0 262 -116 262 -258v-990c0 -142 -116 -258 -262 -258h-978c-145 0 -262 116 -262 258v990c0 142 117 258 262 258zM1444 1161c0 69 -56 123 -127 123h-834c-70 0 -127 -53 -127 -123v-878c0 -68 58 -123 127 -123h834
c69 0 127 54 127 123v878z" />
    <glyph glyph-name="uni25C0.whitesquare" unicode="&#x25c0;&#x20de;" 
d="M1120 392l-581 335l581 335v-670zM411 1475h978c146 0 262 -116 262 -258v-990c0 -142 -116 -258 -262 -258h-978c-145 0 -262 116 -262 258v990c0 142 117 258 262 258zM1444 1161c0 69 -56 123 -127 123h-834c-70 0 -127 -53 -127 -123v-878c0 -68 58 -123 127 -123
h834c69 0 127 54 127 123v878z" />
    <glyph glyph-name="uni25B6.whitesquare" unicode="&#x25b6;&#x20de;" 
d="M680 392v670l581 -335zM411 1475h978c146 0 262 -116 262 -258v-990c0 -142 -116 -258 -262 -258h-978c-145 0 -262 116 -262 258v990c0 142 117 258 262 258zM1444 1161c0 69 -56 123 -127 123h-834c-70 0 -127 -53 -127 -123v-878c0 -68 58 -123 127 -123h834
c69 0 127 54 127 123v878z" />
    <glyph glyph-name="question.whitesquare" unicode="&#x3f;&#x20de;" 
d="M766 464c0 61 48 97 128 97s128 -37 128 -97c0 -61 -47 -96 -128 -96c-80 0 -128 35 -128 96zM641 858c0 150 107 222 279 222c153 0 259 -78 259 -206c0 -78 -35 -124 -100 -165c-81 -52 -95 -63 -95 -98v-7h-197c-3 8 -3 22 -3 31c-1 63 29 111 82 144
c59 37 83 58 83 86c0 30 -22 47 -51 47s-50 -24 -52 -54h-205zM411 1475h978c146 0 262 -116 262 -258v-990c0 -142 -116 -258 -262 -258h-978c-145 0 -262 116 -262 258v990c0 142 117 258 262 258zM1444 1161c0 69 -56 123 -127 123h-834c-70 0 -127 -53 -127 -123v-878
c0 -68 58 -123 127 -123h834c69 0 127 54 127 123v878z" />
    <glyph glyph-name="exclam.whitesquare" unicode="&#x21;&#x20de;" 
d="M777 464c0 61 49 97 129 97s127 -37 127 -97c0 -61 -46 -96 -127 -96c-80 0 -129 35 -129 96zM780 1072h251l-27 -458h-198zM411 1475h978c146 0 262 -116 262 -258v-990c0 -142 -116 -258 -262 -258h-978c-145 0 -262 116 -262 258v990c0 142 117 258 262 258z
M1444 1161c0 69 -56 123 -127 123h-834c-70 0 -127 -53 -127 -123v-878c0 -68 58 -123 127 -123h834c69 0 127 54 127 123v878z" />
    <glyph glyph-name="uni2717.whitesquare" unicode="&#x2717;&#x20de;" 
d="M903 862l209 207l138 -138l-207 -208l207 -208l-138 -139l-209 207l-209 -208l-138 138l209 210l-208 208l138 139zM411 1475h978c146 0 262 -116 262 -258v-990c0 -142 -116 -258 -262 -258h-978c-145 0 -262 116 -262 258v990c0 142 117 258 262 258zM1444 1161
c0 69 -56 123 -127 123h-834c-70 0 -127 -53 -127 -123v-878c0 -68 58 -123 127 -123h834c69 0 127 54 127 123v878z" />
    <glyph glyph-name="uni2713.whitesquare" unicode="&#x2713;&#x20de;" 
d="M1330 890l-541 -528l-323 318l144 141l183 -182l398 397zM411 1475h978c146 0 262 -116 262 -258v-990c0 -142 -116 -258 -262 -258h-978c-145 0 -262 116 -262 258v990c0 142 117 258 262 258zM1444 1161c0 69 -56 123 -127 123h-834c-70 0 -127 -53 -127 -123v-878
c0 -68 58 -123 127 -123h834c69 0 127 54 127 123v878z" />
    <glyph glyph-name="uni1F150" unicode="A&#x20dd;&#x25cf;" 
d="M976 661h-152l69 276h14zM766 379l30 121h208l31 -121h253l-230 746h-316l-230 -746h254zM900 -55c-427 0 -776 350 -776 777s349 776 776 776s776 -349 776 -776s-349 -777 -776 -777z" />
    <glyph glyph-name="uni1F151" unicode="B&#x20dd;&#x25cf;" 
d="M585 351h411c147 0 254 86 254 207c0 104 -64 171 -175 187v5c89 17 145 79 145 163c0 115 -88 185 -237 185h-398v-747zM817 942h86c53 0 85 -26 85 -69c0 -46 -32 -71 -95 -71h-76v140zM817 672h90c62 0 98 -29 98 -77c0 -52 -36 -79 -106 -79h-82v156zM900 -55
c-427 0 -776 350 -776 777s349 776 776 776s776 -349 776 -776s-349 -777 -776 -777z" />
    <glyph glyph-name="uni1F152" unicode="C&#x20dd;&#x25cf;" 
d="M1017 639c-3 -54 -52 -95 -111 -95c-75 0 -124 62 -124 179c0 116 49 178 124 178c59 0 109 -42 112 -97h232c-6 178 -145 303 -348 303c-210 0 -372 -141 -372 -384c0 -244 162 -385 372 -385c201 0 340 125 348 301h-233zM900 -55c-427 0 -776 350 -776 777
s349 776 776 776s776 -349 776 -776s-349 -777 -776 -777z" />
    <glyph glyph-name="uni1F153" unicode="D&#x20dd;&#x25cf;" 
d="M586 1098v-747h345c231 0 352 128 352 373s-122 374 -352 374h-345zM826 915h60c102 0 142 -55 142 -191s-40 -190 -142 -190h-60v381zM900 -55c-427 0 -776 350 -776 777s349 776 776 776s776 -349 776 -776s-349 -777 -776 -777z" />
    <glyph glyph-name="uni1F154" unicode="E&#x20dd;&#x25cf;" 
d="M1189 527h-323v119h302v158h-302v117h323v177h-560v-747h560v176zM900 -55c-427 0 -776 350 -776 777s349 776 776 776s776 -349 776 -776s-349 -777 -776 -777z" />
    <glyph glyph-name="uni1F155" unicode="F&#x20dd;&#x25cf;" 
d="M896 351v250h272v191h-272v118h302v188h-559v-747h257zM900 -55c-427 0 -776 350 -776 777s349 776 776 776s776 -349 776 -776s-349 -777 -776 -777z" />
    <glyph glyph-name="uni1F156" unicode="G&#x20dd;&#x25cf;" 
d="M1019 612c0 -50 -39 -90 -113 -90c-73 0 -124 81 -124 201c0 117 49 192 124 192c61 0 99 -30 104 -76h241c-21 161 -161 268 -348 268c-223 0 -373 -154 -373 -384c0 -231 149 -385 372 -385c212 0 349 136 349 307v130h-346v-153h114v-10zM900 -55
c-427 0 -776 350 -776 777s349 776 776 776s776 -349 776 -776s-349 -777 -776 -777z" />
    <glyph glyph-name="uni1F157" unicode="H&#x20dd;&#x25cf;" 
d="M1244 351v747h-237v-272h-213v272h-237v-747h237v267h213v-267h237zM900 -55c-427 0 -776 350 -776 777s349 776 776 776s776 -349 776 -776s-349 -777 -776 -777z" />
    <glyph glyph-name="uni1F158" unicode="I&#x20dd;&#x25cf;" 
d="M1041 351v747h-281v-747h281zM900 -55c-427 0 -776 350 -776 777s349 776 776 776s776 -349 776 -776s-349 -777 -776 -777z" />
    <glyph glyph-name="uni1F159" unicode="J&#x20dd;&#x25cf;" 
d="M556 636c0 -192 124 -312 320 -312c194 0 312 116 312 304v455h-262v-448c0 -54 -19 -80 -56 -80c-41 0 -61 25 -61 81h-253zM900 -55c-427 0 -776 350 -776 777s349 776 776 776s776 -349 776 -776s-349 -777 -776 -777z" />
    <glyph glyph-name="uni1F15A" unicode="&#x212a;&#x20dd;&#x25cf;" 
d="M1269 1098h-275l-189 -274h-13v274h-230v-747h230v176l57 69l137 -245h287l-232 399zM900 -55c-427 0 -776 350 -776 777s349 776 776 776s776 -349 776 -776s-349 -777 -776 -777z" />
    <glyph glyph-name="uni1F15B" unicode="L&#x20dd;&#x25cf;" 
d="M1206 580h-287v533h-265v-747h552v214zM900 -55c-427 0 -776 350 -776 777s349 776 776 776s776 -349 776 -776s-349 -777 -776 -777z" />
    <glyph glyph-name="uni1F15C" unicode="M&#x20dd;&#x25cf;" 
d="M699 351v431h20l124 -380h112l127 379h20v-430h185v747h-238l-146 -447h-5l-145 447h-238v-747h184zM900 -55c-427 0 -776 350 -776 777s349 776 776 776s776 -349 776 -776s-349 -777 -776 -777z" />
    <glyph glyph-name="uni1F15D" unicode="N&#x20dd;&#x25cf;" 
d="M780 351v369h14l266 -369h176v747h-215v-364h-14l-265 364h-178v-747h216zM900 -55c-427 0 -776 350 -776 777s349 776 776 776s776 -349 776 -776s-349 -777 -776 -777z" />
    <glyph glyph-name="uni1F15E" unicode="O&#x20dd;&#x25cf;" 
d="M900 543c-66 0 -120 57 -120 180s54 179 120 179s120 -56 120 -179s-54 -180 -120 -180zM900 338c210 0 373 138 373 385c0 246 -163 384 -373 384s-373 -138 -373 -384c0 -247 163 -385 373 -385zM900 -55c-427 0 -776 350 -776 777s349 776 776 776s776 -349 776 -776
s-349 -777 -776 -777z" />
    <glyph glyph-name="uni1F15F" unicode="P&#x20dd;&#x25cf;" 
d="M976 1098h-359v-747h264v183h92c177 0 291 109 291 278c0 174 -113 286 -288 286zM1022 812c0 -65 -32 -99 -93 -99h-73v200h73c59 0 93 -36 93 -101zM900 -55c-427 0 -776 350 -776 777s349 776 776 776s776 -349 776 -776s-349 -777 -776 -777z" />
    <glyph glyph-name="uni1F160" unicode="Q&#x20dd;&#x25cf;" 
d="M1257 291l-97 142c70 65 113 163 113 290c0 246 -163 384 -373 384s-373 -138 -373 -384c0 -247 163 -385 373 -385c31 0 61 3 89 10l24 -57h244zM900 543c-66 0 -120 57 -120 180s54 179 120 179s120 -56 120 -179c0 -40 -6 -71 -18 -96l-11 15h-113l42 -97
c-7 -2 -13 -2 -20 -2zM900 -55c-427 0 -776 350 -776 777s349 776 776 776s776 -349 776 -776s-349 -777 -776 -777z" />
    <glyph glyph-name="uni1F161" unicode="R&#x20dd;&#x25cf;" 
d="M805 754v163h104c59 0 89 -28 89 -82c0 -50 -33 -81 -90 -81h-103zM933 1098h-353v-747h233v244h68l117 -244h266l-161 289c90 33 143 108 143 209c0 161 -112 249 -313 249zM900 -55c-427 0 -776 350 -776 777s349 776 776 776s776 -349 776 -776s-349 -777 -776 -777z
" />
    <glyph glyph-name="uni1F162" unicode="S&#x20dd;&#x25cf;" 
d="M566 578c8 -149 131 -237 332 -237c204 0 337 101 337 255c0 123 -73 198 -218 218l-92 14c-81 12 -106 27 -106 56c0 32 31 52 80 52c46 0 76 -21 84 -55h234c-13 140 -137 229 -318 229c-195 0 -323 -97 -323 -247c0 -120 80 -197 226 -219l82 -13
c90 -14 112 -26 112 -56c0 -33 -35 -56 -92 -56c-53 0 -90 23 -95 59h-243zM900 -55c-427 0 -776 350 -776 777s349 776 776 776s776 -349 776 -776s-349 -777 -776 -777z" />
    <glyph glyph-name="uni1F163" unicode="T&#x20dd;&#x25cf;" 
d="M1032 327v538h201v209h-666v-209h201v-538h264zM900 -55c-427 0 -776 350 -776 777s349 776 776 776s776 -349 776 -776s-349 -777 -776 -777z" />
    <glyph glyph-name="uni1F164" unicode="U&#x20dd;&#x25cf;" 
d="M900 522c-54 0 -88 34 -88 85v468h-253v-506c0 -152 135 -254 341 -254s342 102 342 254v506h-253v-468c0 -51 -35 -85 -89 -85zM900 -55c-427 0 -776 350 -776 777s349 776 776 776s776 -349 776 -776s-349 -777 -776 -777z" />
    <glyph glyph-name="uni1F165" unicode="V&#x20dd;&#x25cf;" 
d="M1074 320l209 746h-278l-98 -509h-14l-98 509h-278l209 -746h348zM900 -55c-427 0 -776 350 -776 777s349 776 776 776s776 -349 776 -776s-349 -777 -776 -777z" />
    <glyph glyph-name="uni1F166" unicode="W&#x20dd;&#x25cf;" 
d="M899 747h2l92 -420h215l156 747h-219l-65 -470h-6l-90 470h-167l-91 -470h-5l-65 470h-220l157 -747h215zM900 -55c-427 0 -776 350 -776 777s349 776 776 776s776 -349 776 -776s-349 -777 -776 -777z" />
    <glyph glyph-name="uni1F167" unicode="X&#x20dd;&#x25cf;" 
d="M1273 1098h-264l-103 -225h-12l-102 225h-279l228 -373l-229 -374h276l103 225h12l105 -225h264l-222 373zM900 -55c-427 0 -776 350 -776 777s349 776 776 776s776 -349 776 -776s-349 -777 -776 -777z" />
    <glyph glyph-name="uni1F168" unicode="Y&#x20dd;&#x25cf;" 
d="M763 331h275v222l254 525h-285l-105 -283h-4l-104 283h-285l254 -525v-222zM900 -55c-427 0 -776 350 -776 777s349 776 776 776s776 -349 776 -776s-349 -777 -776 -777z" />
    <glyph glyph-name="uni1F169" unicode="Z&#x20dd;&#x25cf;" 
d="M600 351h609v203h-288v7l277 374v163h-603v-204h280v-5l-275 -375v-163zM900 -55c-427 0 -776 350 -776 777s349 776 776 776s776 -349 776 -776s-349 -777 -776 -777z" />
    <glyph glyph-name="uni24FF" unicode="&#x30;&#x20dd;&#x25cf;" 
d="M899 524c-54 0 -82 58 -82 200c0 141 28 199 82 199s82 -58 82 -199c0 -142 -28 -200 -82 -200zM896 338c201 0 333 144 333 386c0 241 -132 385 -333 385s-326 -144 -326 -385c0 -242 125 -386 326 -386zM900 -55c-427 0 -776 350 -776 777s349 776 776 776
s776 -349 776 -776s-349 -777 -776 -777z" />
    <glyph glyph-name="uni278A" unicode="&#x31;&#x20dd;&#x25cf;" 
d="M1068 351v746h-260l-178 -116v-224l169 113h7v-519h262zM900 -55c-427 0 -776 350 -776 777s349 776 776 776s776 -349 776 -776s-349 -777 -776 -777z" />
    <glyph glyph-name="uni278B" unicode="&#x32;&#x20dd;&#x25cf;" 
d="M817 834v3c0 52 25 86 70 86c38 0 64 -22 64 -57c0 -43 -27 -76 -100 -141l-247 -216v-160h602v203h-268v4l105 94c99 84 147 149 147 236c0 125 -122 222 -285 222c-196 0 -317 -112 -317 -271v-3h229zM900 -55c-427 0 -776 350 -776 777s349 776 776 776
s776 -349 776 -776s-349 -777 -776 -777z" />
    <glyph glyph-name="uni278C" unicode="&#x33;&#x20dd;&#x25cf;" 
d="M816 644h76c52 0 85 -24 86 -61c0 -37 -33 -61 -84 -61c-55 0 -89 28 -91 72h-233c1 -149 130 -255 323 -255c196 0 328 87 328 227c-1 96 -74 166 -157 174v8c71 10 138 75 138 156c-1 122 -123 205 -308 205c-205 -1 -313 -91 -320 -254h234c0 45 30 74 82 74
c42 0 72 -25 72 -57c0 -36 -29 -59 -75 -59h-71v-169zM900 -55c-427 0 -776 350 -776 777s349 776 776 776s776 -349 776 -776s-349 -777 -776 -777z" />
    <glyph glyph-name="uni278D" unicode="&#x34;&#x20dd;&#x25cf;" 
d="M783 1097c-104 -182 -169 -303 -235 -445v-191h366v-110h212v110h103v191h-103v445h-343zM914 652h-146v1c37 84 72 152 132 267h14v-268zM900 -55c-427 0 -776 350 -776 777s349 776 776 776s776 -349 776 -776s-349 -777 -776 -777z" />
    <glyph glyph-name="uni278E" unicode="&#x35;&#x20dd;&#x25cf;" 
d="M592 589c2 -146 128 -243 316 -243c200 0 325 106 325 279c0 148 -100 240 -246 240c-79 0 -141 -31 -163 -72h-8l10 139h354v174h-547l-27 -448h220c13 27 44 47 83 47c51 0 89 -35 89 -89c0 -55 -40 -90 -89 -90c-44 0 -82 24 -89 63h-228zM900 -55
c-427 0 -776 350 -776 777s349 776 776 776s776 -349 776 -776s-349 -777 -776 -777z" />
    <glyph glyph-name="uni278F" unicode="&#x36;&#x20dd;&#x25cf;" 
d="M935 340c204 0 349 111 349 268c0 137 -116 237 -274 237c-93 0 -166 -35 -201 -100h-11c-4 114 46 192 134 192c47 0 84 -22 93 -51h249c-18 130 -166 225 -344 225c-230 0 -376 -150 -376 -384c0 -260 161 -387 381 -387zM933 514c-62 0 -105 40 -105 91
c0 48 40 88 105 88c63 0 106 -39 106 -89s-45 -90 -106 -90zM900 -55c-427 0 -776 350 -776 777s349 776 776 776s776 -349 776 -776s-349 -777 -776 -777z" />
    <glyph glyph-name="uni2790" unicode="&#x37;&#x20dd;&#x25cf;" 
d="M594 1095v-202h352v-4l-298 -541h279l282 545v202h-615zM900 -55c-427 0 -776 350 -776 777s349 776 776 776s776 -349 776 -776s-349 -777 -776 -777z" />
    <glyph glyph-name="uni2791" unicode="&#x38;&#x20dd;&#x25cf;" 
d="M899 800c-46 0 -78 31 -78 76c0 46 32 78 78 78c47 0 79 -32 79 -78c0 -45 -32 -76 -79 -76zM899 495c-55 0 -93 36 -93 89c0 51 38 89 93 89s94 -37 94 -89c0 -53 -39 -89 -94 -89zM899 338c215 0 347 86 347 227c0 95 -64 162 -170 177v4c94 27 138 79 138 158
c0 126 -122 205 -315 205s-314 -79 -314 -205c0 -81 43 -131 138 -158v-4c-106 -15 -170 -82 -170 -177c0 -141 133 -227 346 -227zM900 -55c-427 0 -776 350 -776 777s349 776 776 776s776 -349 776 -776s-349 -777 -776 -777z" />
    <glyph glyph-name="uni2792" unicode="&#x39;&#x20dd;&#x25cf;" 
d="M906 340c231 0 378 150 378 384c0 224 -132 387 -380 387c-205 0 -350 -111 -350 -268c0 -137 117 -237 274 -237c94 0 166 34 201 100h12c9 -113 -46 -193 -132 -193c-46 0 -87 21 -95 50h-249c19 -129 163 -223 341 -223zM907 763c-64 0 -107 36 -107 86
c0 49 43 88 106 88s105 -39 105 -89c0 -47 -42 -85 -104 -85zM900 -55c-427 0 -776 350 -776 777s349 776 776 776s776 -349 776 -776s-349 -777 -776 -777z" />
    <glyph glyph-name="plus.uc.blackcircle" unicode="&#x2b;&#x20dd;&#x25cf;" 
d="M1012 615h218v215h-218v221h-224v-221h-218v-215h218v-222h224v222zM900 -55c-427 0 -776 350 -776 777s349 776 776 776s776 -349 776 -776s-349 -777 -776 -777z" />
    <glyph glyph-name="minus.uc.blackcircle" unicode="&#x2212;&#x20dd;&#x25cf;" 
d="M1192 610v223h-584v-223h584zM900 -55c-427 0 -776 350 -776 777s349 776 776 776s776 -349 776 -776s-349 -777 -776 -777z" />
    <glyph glyph-name="multiply.uc.blackcircle" unicode="&#xd7;&#x20dd;&#x25cf;" 
d="M899 881l-169 168l-159 -158l169 -168l-169 -168l159 -158l169 168l170 -168l159 158l-170 168l170 168l-159 158zM900 -55c-427 0 -776 350 -776 777s349 776 776 776s776 -349 776 -776s-349 -777 -776 -777z" />
    <glyph glyph-name="divide.uc.blackcircle" unicode="&#xf7;&#x20dd;&#x25cf;" 
d="M784 971c0 -59 49 -101 116 -101c66 0 117 42 117 101c0 60 -50 103 -117 103s-116 -43 -116 -103zM1192 637v170h-584v-170h584zM784 474c0 -59 49 -102 116 -102s117 43 117 102c0 60 -50 103 -117 103s-116 -43 -116 -103zM900 -55c-427 0 -776 350 -776 777
s349 776 776 776s776 -349 776 -776s-349 -777 -776 -777z" />
    <glyph glyph-name="equal.uc.blackcircle" unicode="&#x3d;&#x20dd;&#x25cf;" 
d="M1211 778v191h-622v-191h622zM1211 473v190h-622v-190h622zM900 -55c-427 0 -776 350 -776 777s349 776 776 776s776 -349 776 -776s-349 -777 -776 -777z" />
    <glyph glyph-name="greater.uc.blackcircle" unicode="&#x3e;&#x20dd;&#x25cf;" 
d="M1216 788l-586 280v-229l276 -114v-4l-276 -124v-220l586 276v135zM900 -55c-427 0 -776 350 -776 777s349 776 776 776s776 -349 776 -776s-349 -777 -776 -777z" />
    <glyph glyph-name="less.uc.blackcircle" unicode="&#x3c;&#x20dd;&#x25cf;" 
d="M582 653l586 -276v220l-276 124v4l276 114v229l-586 -280v-135zM900 -55c-427 0 -776 350 -776 777s349 776 776 776s776 -349 776 -776s-349 -777 -776 -777z" />
    <glyph glyph-name="numbersign.blackcircle" unicode="&#x23;&#x20dd;&#x25cf;" 
d="M846 794h129l-27 -139h-130zM1219 767l32 167h-100l31 164h-180l-31 -164h-71l33 164h-180l-31 -164h-101l-32 -167h102l-16 -74h-98l-34 -168h98l-33 -174h177l36 174h70l-34 -174h178l35 174h104l33 168h-102c3 14 11 59 14 74h100zM900 -55c-427 0 -776 350 -776 777
s349 776 776 776s776 -349 776 -776s-349 -777 -776 -777z" />
    <glyph glyph-name="uni25BC.blackcircle" unicode="&#x25bc;&#x20dd;&#x25cf;" 
d="M1251 982h-701l350 -608zM900 -55c-427 0 -776 350 -776 777s349 776 776 776s776 -349 776 -776s-349 -777 -776 -777z" />
    <glyph glyph-name="uni25B2.blackcircle" unicode="&#x25b2;&#x20dd;&#x25cf;" 
d="M1251 485l-351 608l-350 -608h701zM900 -55c-427 0 -776 350 -776 777s349 776 776 776s776 -349 776 -776s-349 -777 -776 -777z" />
    <glyph glyph-name="uni25C0.blackcircle" unicode="&#x25c0;&#x20dd;&#x25cf;" 
d="M1133 384v699l-608 -349zM900 -55c-427 0 -776 350 -776 777s349 776 776 776s776 -349 776 -776s-349 -777 -776 -777z" />
    <glyph glyph-name="uni25B6.blackcircle" unicode="&#x25b6;&#x20dd;&#x25cf;" 
d="M667 384l608 350l-608 349v-699zM900 -55c-427 0 -776 350 -776 777s349 776 776 776s776 -349 776 -776s-349 -777 -776 -777z" />
    <glyph glyph-name="question.blackcircle" unicode="&#x3f;&#x20dd;&#x25cf;" 
d="M750 429c0 -70 51 -108 140 -108s139 40 139 108c0 67 -52 107 -139 107c-89 0 -140 -38 -140 -107zM771 592h218v8c0 40 14 51 83 93c96 60 125 94 125 190c0 138 -117 226 -280 226c-188 0 -301 -80 -301 -245v-1l230 5c0 40 20 65 52 65s54 -17 54 -55
c0 -56 -81 -70 -131 -128c-34 -33 -55 -71 -53 -122c0 -14 0 -27 3 -36zM900 -55c-427 0 -776 350 -776 777s349 776 776 776s776 -349 776 -776s-349 -777 -776 -777z" />
    <glyph glyph-name="exclam.blackcircle" unicode="&#x21;&#x20dd;&#x25cf;" 
d="M765 1100l28 -498h218l30 498h-276zM764 429c0 -68 52 -107 140 -107c90 0 139 39 139 107c0 67 -51 107 -139 107s-140 -39 -140 -107zM900 -55c-427 0 -776 350 -776 777s349 776 776 776s776 -349 776 -776s-349 -777 -776 -777z" />
    <glyph glyph-name="uni2717.blackcircle" unicode="&#x2717;&#x20dd;&#x25cf;" 
d="M899 870l-222 223l-150 -150l223 -223l-224 -225l150 -150l223 224l223 -222l151 151l-223 222l223 223l-151 150zM900 -55c-427 0 -776 350 -776 777s349 776 776 776s776 -349 776 -776s-349 -777 -776 -777z" />
    <glyph glyph-name="uni2713.blackcircle" unicode="&#x2713;&#x20dd;&#x25cf;" 
d="M776 351l590 575l-156 161l-430 -431l-198 198l-159 -156zM900 -55c-427 0 -776 350 -776 777s349 776 776 776s776 -349 776 -776s-349 -777 -776 -777z" />
    <glyph glyph-name="uni1F170" unicode="A&#x20de;&#x25a0;" 
d="M976 656h-152l69 276h14zM766 374l30 122h208l31 -122h253l-230 747h-316l-230 -747h254zM411 1475h978c146 0 262 -116 262 -258v-990c0 -142 -116 -258 -262 -258h-978c-145 0 -262 116 -262 258v990c0 142 117 258 262 258z" />
    <glyph glyph-name="uni1F171" unicode="B&#x20de;&#x25a0;" 
d="M585 351h411c146 0 254 85 254 207c0 105 -66 171 -175 187v5c88 16 145 77 145 163c0 116 -89 185 -237 185h-398v-747zM817 942h86c53 0 85 -26 85 -69c0 -46 -32 -71 -95 -71h-76v140zM817 672h90c62 0 98 -30 98 -77c0 -51 -36 -79 -106 -79h-82v156zM411 1475h978
c146 0 262 -116 262 -258v-990c0 -142 -116 -258 -262 -258h-978c-145 0 -262 116 -262 258v990c0 142 117 258 262 258z" />
    <glyph glyph-name="uni1F172" unicode="C&#x20de;&#x25a0;" 
d="M1017 639c-3 -54 -52 -95 -111 -95c-75 0 -124 62 -124 179c0 116 49 178 124 178c59 0 109 -42 112 -97h232c-6 178 -145 303 -348 303c-210 0 -372 -141 -372 -384c0 -244 162 -385 372 -385c201 0 340 125 348 301h-233zM411 1475h978c146 0 262 -116 262 -258v-990
c0 -142 -116 -258 -262 -258h-978c-145 0 -262 116 -262 258v990c0 142 117 258 262 258z" />
    <glyph glyph-name="uni1F173" unicode="D&#x20de;&#x25a0;" 
d="M580 1098v-747h346c232 0 351 130 351 373s-119 374 -351 374h-346zM820 915h61c102 0 142 -55 142 -191s-40 -190 -142 -190h-61v381zM411 1475h978c146 0 262 -116 262 -258v-990c0 -142 -116 -258 -262 -258h-978c-145 0 -262 116 -262 258v990c0 142 117 258 262 258
z" />
    <glyph glyph-name="uni1F174" unicode="E&#x20de;&#x25a0;" 
d="M1189 527h-323v119h302v158h-302v117h323v177h-560v-747h560v176zM411 1475h978c146 0 262 -116 262 -258v-990c0 -142 -116 -258 -262 -258h-978c-145 0 -262 116 -262 258v990c0 142 117 258 262 258z" />
    <glyph glyph-name="uni1F175" unicode="F&#x20de;&#x25a0;" 
d="M896 351v250h272v191h-272v118h302v188h-559v-747h257zM411 1475h978c146 0 262 -116 262 -258v-990c0 -142 -116 -258 -262 -258h-978c-145 0 -262 116 -262 258v990c0 142 117 258 262 258z" />
    <glyph glyph-name="uni1F176" unicode="G&#x20de;&#x25a0;" 
d="M1019 612c0 -50 -39 -90 -113 -90c-73 0 -124 81 -124 201c0 117 49 192 124 192c61 0 99 -30 104 -76h241c-21 161 -161 268 -348 268c-223 0 -373 -154 -373 -384c0 -231 149 -385 372 -385c212 0 349 136 349 307v130h-346v-153h114v-10zM411 1475h978
c146 0 262 -116 262 -258v-990c0 -142 -116 -258 -262 -258h-978c-145 0 -262 116 -262 258v990c0 142 117 258 262 258z" />
    <glyph glyph-name="uni1F177" unicode="H&#x20de;&#x25a0;" 
d="M1244 351v747h-237v-272h-213v272h-237v-747h237v267h213v-267h237zM411 1475h978c146 0 262 -116 262 -258v-990c0 -142 -116 -258 -262 -258h-978c-145 0 -262 116 -262 258v990c0 142 117 258 262 258z" />
    <glyph glyph-name="uni1F178" unicode="I&#x20de;&#x25a0;" 
d="M1041 351v747h-281v-747h281zM411 1475h978c146 0 262 -116 262 -258v-990c0 -142 -116 -258 -262 -258h-978c-145 0 -262 116 -262 258v990c0 142 117 258 262 258z" />
    <glyph glyph-name="uni1F179" unicode="J&#x20de;&#x25a0;" 
d="M556 636c0 -189 121 -312 320 -312c193 0 312 115 312 304v455h-262v-448c0 -54 -18 -80 -56 -80c-41 0 -61 25 -61 81h-253zM411 1475h978c146 0 262 -116 262 -258v-990c0 -142 -116 -258 -262 -258h-978c-145 0 -262 116 -262 258v990c0 142 117 258 262 258z" />
    <glyph glyph-name="uni1F17A" unicode="&#x212a;&#x20de;&#x25a0;" 
d="M1269 1098h-275l-189 -274h-13v274h-230v-747h230v176l57 69l137 -245h287c-23 34 -209 365 -232 399zM411 1475h978c146 0 262 -116 262 -258v-990c0 -142 -116 -258 -262 -258h-978c-145 0 -262 116 -262 258v990c0 142 117 258 262 258z" />
    <glyph glyph-name="uni1F17B" unicode="L&#x20de;&#x25a0;" 
d="M1208 580h-286v533h-266v-747h552v214zM411 1475h978c146 0 262 -116 262 -258v-990c0 -142 -116 -258 -262 -258h-978c-145 0 -262 116 -262 258v990c0 142 117 258 262 258z" />
    <glyph glyph-name="uni1F17C" unicode="M&#x20de;&#x25a0;" 
d="M699 351v431h20l124 -380h112l127 379h20v-430h185v747h-238l-146 -447h-5l-145 447h-238v-747h184zM411 1475h978c146 0 262 -116 262 -258v-990c0 -142 -116 -258 -262 -258h-978c-145 0 -262 116 -262 258v990c0 142 117 258 262 258z" />
    <glyph glyph-name="uni1F17D" unicode="N&#x20de;&#x25a0;" 
d="M780 351v369h14l266 -369h176v747h-215v-364h-14l-265 364h-178v-747h216zM411 1475h978c146 0 262 -116 262 -258v-990c0 -142 -116 -258 -262 -258h-978c-145 0 -262 116 -262 258v990c0 142 117 258 262 258z" />
    <glyph glyph-name="uni1F17E" unicode="O&#x20de;&#x25a0;" 
d="M900 543c-66 0 -120 57 -120 180s54 179 120 179s120 -56 120 -179s-54 -180 -120 -180zM900 338c210 0 373 138 373 385c0 246 -163 384 -373 384s-373 -138 -373 -384c0 -247 163 -385 373 -385zM411 1475h978c146 0 262 -116 262 -258v-990
c0 -142 -116 -258 -262 -258h-978c-145 0 -262 116 -262 258v990c0 142 117 258 262 258z" />
    <glyph glyph-name="uni1F17F" unicode="P&#x20de;&#x25a0;" 
d="M976 1098h-359v-747h264v183h92c179 0 291 110 291 278c0 172 -111 286 -288 286zM1022 812c0 -65 -32 -99 -93 -99h-73v200h73c58 0 93 -36 93 -101zM411 1475h978c146 0 262 -116 262 -258v-990c0 -142 -116 -258 -262 -258h-978c-145 0 -262 116 -262 258v990
c0 142 117 258 262 258z" />
    <glyph glyph-name="uni1F180" unicode="Q&#x20de;&#x25a0;" 
d="M1257 291l-97 142c70 65 113 163 113 290c0 246 -163 384 -373 384s-373 -138 -373 -384c0 -247 163 -385 373 -385c31 0 61 3 89 10l24 -57h244zM900 543c-66 0 -120 57 -120 180s54 179 120 179s120 -56 120 -179c0 -40 -6 -71 -18 -96l-11 15h-113l42 -97
c-7 -2 -13 -2 -20 -2zM411 1475h978c146 0 262 -116 262 -258v-990c0 -142 -116 -258 -262 -258h-978c-145 0 -262 116 -262 258v990c0 142 117 258 262 258z" />
    <glyph glyph-name="uni1F181" unicode="R&#x20de;&#x25a0;" 
d="M805 754v163h104c58 0 89 -27 89 -82c0 -50 -34 -81 -90 -81h-103zM933 1098h-353v-747h233v244h68l117 -244h266l-161 289c89 32 143 106 143 209c0 160 -111 249 -313 249zM411 1475h978c146 0 262 -116 262 -258v-990c0 -142 -116 -258 -262 -258h-978
c-145 0 -262 116 -262 258v990c0 142 117 258 262 258z" />
    <glyph glyph-name="uni1F182" unicode="S&#x20de;&#x25a0;" 
d="M566 578c8 -149 131 -237 332 -237c204 0 337 101 337 255c0 123 -73 198 -218 218l-92 14c-81 12 -106 27 -106 56c0 32 31 52 80 52c46 0 76 -21 84 -55h234c-13 140 -137 229 -318 229c-195 0 -323 -97 -323 -247c0 -120 80 -197 226 -219l82 -13
c90 -14 112 -26 112 -56c0 -33 -35 -56 -92 -56c-53 0 -90 23 -95 59h-243zM411 1475h978c146 0 262 -116 262 -258v-990c0 -142 -116 -258 -262 -258h-978c-145 0 -262 116 -262 258v990c0 142 117 258 262 258z" />
    <glyph glyph-name="uni1F183" unicode="T&#x20de;&#x25a0;" 
d="M1032 332v538h201v209h-666v-209h201v-538h264zM411 1475h978c146 0 262 -116 262 -258v-990c0 -142 -116 -258 -262 -258h-978c-145 0 -262 116 -262 258v990c0 142 117 258 262 258z" />
    <glyph glyph-name="uni1F184" unicode="U&#x20de;&#x25a0;" 
d="M900 527c-54 0 -88 34 -88 85v468h-253v-506c0 -152 135 -254 341 -254s342 102 342 254v506h-253v-468c0 -52 -35 -85 -89 -85zM411 1475h978c146 0 262 -116 262 -258v-990c0 -142 -116 -258 -262 -258h-978c-145 0 -262 116 -262 258v990c0 142 117 258 262 258z" />
    <glyph glyph-name="uni1F185" unicode="V&#x20de;&#x25a0;" 
d="M1074 325l209 746h-278l-98 -509h-14l-98 509h-278l209 -746h348zM411 1475h978c146 0 262 -116 262 -258v-990c0 -142 -116 -258 -262 -258h-978c-145 0 -262 116 -262 258v990c0 142 117 258 262 258z" />
    <glyph glyph-name="uni1F186" unicode="W&#x20de;&#x25a0;" 
d="M899 752h2l92 -420h215l156 747h-219l-65 -471h-6l-90 471h-167l-91 -471h-5l-65 471h-220l157 -747h215zM411 1475h978c146 0 262 -116 262 -258v-990c0 -142 -116 -258 -262 -258h-978c-145 0 -262 116 -262 258v990c0 142 117 258 262 258z" />
    <glyph glyph-name="uni1F187" unicode="X&#x20de;&#x25a0;" 
d="M1273 1098h-264l-103 -225h-12l-102 225h-279l228 -373l-229 -374h276l103 225h12l105 -225h264l-222 373zM411 1475h978c146 0 262 -116 262 -258v-990c0 -142 -116 -258 -262 -258h-978c-145 0 -262 116 -262 258v990c0 142 117 258 262 258z" />
    <glyph glyph-name="uni1F188" unicode="Y&#x20de;&#x25a0;" 
d="M763 332h275v222l254 525h-285l-105 -283h-4l-104 283h-285l254 -525v-222zM411 1475h978c146 0 262 -116 262 -258v-990c0 -142 -116 -258 -262 -258h-978c-145 0 -262 116 -262 258v990c0 142 117 258 262 258z" />
    <glyph glyph-name="uni1F189" unicode="Z&#x20de;&#x25a0;" 
d="M600 351h609v203h-288v7l277 374v163h-603v-204h280v-5l-275 -375v-163zM411 1475h978c146 0 262 -116 262 -258v-990c0 -142 -116 -258 -262 -258h-978c-145 0 -262 116 -262 258v990c0 142 117 258 262 258z" />
    <glyph glyph-name="zero.blacksquare" unicode="&#x30;&#x20de;&#x25a0;" 
d="M899 524c-54 0 -82 58 -82 200c0 141 28 199 82 199s82 -58 82 -199c0 -142 -28 -200 -82 -200zM896 338c201 0 333 144 333 386c0 241 -132 385 -333 385s-326 -144 -326 -385c0 -242 125 -386 326 -386zM411 1475h978c146 0 262 -116 262 -258v-990
c0 -142 -116 -258 -262 -258h-978c-145 0 -262 116 -262 258v990c0 142 117 258 262 258z" />
    <glyph glyph-name="one.blacksquare" unicode="&#x31;&#x20de;&#x25a0;" 
d="M1070 351v746h-260l-178 -116v-224l169 113h8v-519h261zM411 1475h978c146 0 262 -116 262 -258v-990c0 -142 -116 -258 -262 -258h-978c-145 0 -262 116 -262 258v990c0 142 117 258 262 258z" />
    <glyph glyph-name="two.blacksquare" unicode="&#x32;&#x20de;&#x25a0;" 
d="M817 834v3c0 52 25 86 70 86c38 0 64 -22 64 -57c0 -43 -27 -76 -100 -141l-247 -216v-160h602v203h-268v4l105 94c99 84 147 149 147 236c0 125 -122 222 -285 222c-196 0 -317 -112 -317 -271v-3h229zM411 1475h978c146 0 262 -116 262 -258v-990
c0 -142 -116 -258 -262 -258h-978c-145 0 -262 116 -262 258v990c0 142 117 258 262 258z" />
    <glyph glyph-name="three.blacksquare" unicode="&#x33;&#x20de;&#x25a0;" 
d="M816 644h76c52 0 85 -24 86 -61c0 -37 -33 -61 -84 -61c-55 0 -89 28 -91 72h-233c1 -149 130 -255 323 -255c196 0 328 87 328 227c-1 96 -74 166 -157 174v8c71 10 138 75 138 156c-1 122 -123 205 -308 205c-205 -1 -313 -91 -320 -254h234c0 45 30 74 82 74
c42 0 72 -25 72 -57c0 -36 -29 -59 -75 -59h-71v-169zM411 1475h978c146 0 262 -116 262 -258v-990c0 -142 -116 -258 -262 -258h-978c-145 0 -262 116 -262 258v990c0 142 117 258 262 258z" />
    <glyph glyph-name="four.blacksquare" unicode="&#x34;&#x20de;&#x25a0;" 
d="M788 1097c-104 -182 -169 -303 -235 -445v-191h366v-110h212v110h103v191h-103v445h-343zM919 652h-146v1c37 84 72 152 132 267h14v-268zM411 1475h978c146 0 262 -116 262 -258v-990c0 -142 -116 -258 -262 -258h-978c-145 0 -262 116 -262 258v990
c0 142 117 258 262 258z" />
    <glyph glyph-name="five.blacksquare" unicode="&#x35;&#x20de;&#x25a0;" 
d="M592 593c2 -146 128 -247 316 -247c200 0 325 106 325 279c0 148 -100 240 -246 240c-79 0 -141 -31 -163 -72h-8c1 16 8 123 10 139h354v174h-547l-27 -452h220c13 28 44 51 83 51c51 0 89 -35 89 -89c0 -55 -40 -90 -89 -90c-44 0 -82 26 -89 67h-228zM411 1475h978
c146 0 262 -116 262 -258v-990c0 -142 -116 -258 -262 -258h-978c-145 0 -262 116 -262 258v990c0 142 117 258 262 258z" />
    <glyph glyph-name="six.blacksquare" unicode="&#x36;&#x20de;&#x25a0;" 
d="M915 340c194 0 331 110 331 267c0 136 -109 236 -254 236c-87 0 -152 -35 -184 -100h-10c-5 114 38 192 113 192c38 0 70 -22 77 -52h248c-16 130 -158 225 -327 225c-217 0 -355 -149 -355 -382c0 -260 152 -386 361 -386zM913 514c-52 0 -87 40 -87 90
c0 48 33 87 87 87c53 0 88 -38 88 -88c0 -49 -37 -89 -88 -89zM411 1475h978c146 0 262 -116 262 -258v-990c0 -142 -116 -258 -262 -258h-978c-145 0 -262 116 -262 258v990c0 142 117 258 262 258z" />
    <glyph glyph-name="seven.blacksquare" unicode="&#x37;&#x20de;&#x25a0;" 
d="M591 1097v-202h353v-3l-298 -541h279l281 545v201h-615zM411 1475h978c146 0 262 -116 262 -258v-990c0 -142 -116 -258 -262 -258h-978c-145 0 -262 116 -262 258v990c0 142 117 258 262 258z" />
    <glyph glyph-name="eight.blacksquare" unicode="&#x38;&#x20de;&#x25a0;" 
d="M899 800c-46 0 -78 31 -78 76c0 46 32 78 78 78c47 0 79 -32 79 -78c0 -45 -32 -76 -79 -76zM899 495c-55 0 -93 36 -93 89c0 51 38 89 93 89s94 -37 94 -89c0 -53 -39 -89 -94 -89zM899 338c215 0 347 86 347 227c0 95 -64 162 -170 177v4c94 27 138 79 138 158
c0 126 -122 205 -315 205s-314 -79 -314 -205c0 -81 43 -131 138 -158v-4c-106 -15 -170 -82 -170 -177c0 -141 133 -227 346 -227zM411 1475h978c146 0 262 -116 262 -258v-990c0 -142 -116 -258 -262 -258h-978c-145 0 -262 116 -262 258v990c0 142 117 258 262 258z" />
    <glyph glyph-name="nine.blacksquare" unicode="&#x39;&#x20de;&#x25a0;" 
d="M888 340c218 0 358 150 358 382c0 224 -122 386 -361 386c-194 0 -331 -111 -331 -267c0 -136 109 -236 254 -236c87 0 152 34 184 100h10c10 -112 -37 -192 -111 -192c-38 0 -73 21 -79 50h-248c17 -129 155 -223 324 -223zM887 762c-52 0 -88 36 -88 85s35 87 89 87
c52 0 86 -39 86 -87c0 -47 -34 -85 -87 -85zM411 1475h978c146 0 262 -116 262 -258v-990c0 -142 -116 -258 -262 -258h-978c-145 0 -262 116 -262 258v990c0 142 117 258 262 258z" />
    <glyph glyph-name="plus.uc.blacksquare" unicode="&#x2b;&#x20de;&#x25a0;" 
d="M1012 615h218v215h-218v221h-224v-221h-218v-215h218v-222h224v222zM411 1475h978c146 0 262 -116 262 -258v-990c0 -142 -116 -258 -262 -258h-978c-145 0 -262 116 -262 258v990c0 142 117 258 262 258z" />
    <glyph glyph-name="minus.uc.blacksquare" unicode="&#x2212;&#x20de;&#x25a0;" 
d="M1192 610v223h-584v-223h584zM411 1475h978c146 0 262 -116 262 -258v-990c0 -142 -116 -258 -262 -258h-978c-145 0 -262 116 -262 258v990c0 142 117 258 262 258z" />
    <glyph glyph-name="multiply.uc.blacksquare" unicode="&#xd7;&#x20de;&#x25a0;" 
d="M899 881l-169 168l-159 -158l169 -168l-169 -168l159 -158l169 168l170 -168l159 158l-170 168l170 168l-159 158zM411 1475h978c146 0 262 -116 262 -258v-990c0 -142 -116 -258 -262 -258h-978c-145 0 -262 116 -262 258v990c0 142 117 258 262 258z" />
    <glyph glyph-name="divide.uc.blacksquare" unicode="&#xf7;&#x20de;&#x25a0;" 
d="M784 971c0 -59 49 -101 116 -101c66 0 117 42 117 101c0 60 -50 103 -117 103s-116 -43 -116 -103zM1192 637v170h-584v-170h584zM784 474c0 -59 49 -102 116 -102s117 43 117 102c0 60 -50 103 -117 103s-116 -43 -116 -103zM411 1475h978c146 0 262 -116 262 -258v-990
c0 -142 -116 -258 -262 -258h-978c-145 0 -262 116 -262 258v990c0 142 117 258 262 258z" />
    <glyph glyph-name="equal.uc.blacksquare" unicode="&#x3d;&#x20de;&#x25a0;" 
d="M1211 778v191h-622v-191h622zM1211 473v190h-622v-190h622zM411 1475h978c146 0 262 -116 262 -258v-990c0 -142 -116 -258 -262 -258h-978c-145 0 -262 116 -262 258v990c0 142 117 258 262 258z" />
    <glyph glyph-name="greater.uc.blacksquare" unicode="&#x3e;&#x20de;&#x25a0;" 
d="M1216 788l-586 280v-229l276 -114v-4l-276 -124v-220l586 276v135zM411 1475h978c146 0 262 -116 262 -258v-990c0 -142 -116 -258 -262 -258h-978c-145 0 -262 116 -262 258v990c0 142 117 258 262 258z" />
    <glyph glyph-name="less.uc.blacksquare" unicode="&#x3c;&#x20de;&#x25a0;" 
d="M582 653l586 -276v220c-29 14 -247 110 -276 124v4l276 114v229l-586 -280v-135zM411 1475h978c146 0 262 -116 262 -258v-990c0 -142 -116 -258 -262 -258h-978c-145 0 -262 116 -262 258v990c0 142 117 258 262 258z" />
    <glyph glyph-name="numbersign.blacksquare" unicode="&#x23;&#x20de;&#x25a0;" 
d="M846 794h129l-27 -139h-130zM1219 767l32 167h-100l31 164h-180l-31 -164h-71l33 164h-180l-31 -164h-101l-32 -167h102l-16 -74h-98l-34 -168h98l-33 -174h177l36 174h70l-34 -174h178l35 174h104l33 168h-102c3 14 11 59 14 74h100zM411 1475h978
c146 0 262 -116 262 -258v-990c0 -142 -116 -258 -262 -258h-978c-145 0 -262 116 -262 258v990c0 142 117 258 262 258z" />
    <glyph glyph-name="uni25BC.blacksquare" unicode="&#x25bc;&#x20de;&#x25a0;" 
d="M1251 980h-701l350 -607zM411 1475h978c146 0 262 -116 262 -258v-990c0 -142 -116 -258 -262 -258h-978c-145 0 -262 116 -262 258v990c0 142 117 258 262 258z" />
    <glyph glyph-name="uni25B2.blacksquare" unicode="&#x25b2;&#x20de;&#x25a0;" 
d="M1251 485l-351 608l-350 -608h701zM411 1475h978c146 0 262 -116 262 -258v-990c0 -142 -116 -258 -262 -258h-978c-145 0 -262 116 -262 258v990c0 142 117 258 262 258z" />
    <glyph glyph-name="uni25C0.blacksquare" unicode="&#x25c0;&#x20de;&#x25a0;" 
d="M1133 384v699l-608 -349zM411 1475h978c146 0 262 -116 262 -258v-990c0 -142 -116 -258 -262 -258h-978c-145 0 -262 116 -262 258v990c0 142 117 258 262 258z" />
    <glyph glyph-name="uni25B6.blacksquare" unicode="&#x25b6;&#x20de;&#x25a0;" 
d="M667 384l608 350l-608 349v-699zM411 1475h978c146 0 262 -116 262 -258v-990c0 -142 -116 -258 -262 -258h-978c-145 0 -262 116 -262 258v990c0 142 117 258 262 258z" />
    <glyph glyph-name="question.blacksquare" unicode="&#x3f;&#x20de;&#x25a0;" 
d="M750 429c0 -70 51 -108 140 -108s139 40 139 108c0 67 -52 107 -139 107c-89 0 -140 -38 -140 -107zM917 1109c-188 0 -301 -80 -301 -245v-1l230 5c0 40 20 65 52 65s54 -17 54 -55c0 -56 -81 -70 -131 -128c-34 -33 -55 -71 -53 -122c0 -14 0 -27 3 -36h218v8
c0 40 14 51 83 93c96 60 125 94 125 190c0 138 -117 226 -280 226zM411 1475h978c146 0 262 -116 262 -258v-990c0 -142 -116 -258 -262 -258h-978c-145 0 -262 116 -262 258v990c0 142 117 258 262 258z" />
    <glyph glyph-name="exclam.blacksquare" unicode="&#x21;&#x20de;&#x25a0;" 
d="M765 1100l28 -498h218l30 498h-276zM764 429c0 -68 52 -107 140 -107c90 0 139 39 139 107c0 67 -51 107 -139 107s-140 -39 -140 -107zM411 1475h978c146 0 262 -116 262 -258v-990c0 -142 -116 -258 -262 -258h-978c-145 0 -262 116 -262 258v990
c0 142 117 258 262 258z" />
    <glyph glyph-name="uni2717.blacksquare" unicode="&#x2717;&#x20de;&#x25a0;" 
d="M527 943l223 -223l-224 -225l150 -150l223 224l223 -222l151 151l-223 222l223 223l-151 150l-223 -223l-222 223zM411 1475h978c146 0 262 -116 262 -258v-990c0 -142 -116 -258 -262 -258h-978c-145 0 -262 116 -262 258v990c0 142 117 258 262 258z" />
    <glyph glyph-name="uni2713.blacksquare" unicode="&#x2713;&#x20de;&#x25a0;" 
d="M776 351l590 575l-156 161l-430 -431l-198 198l-159 -156zM411 1475h978c146 0 262 -116 262 -258v-990c0 -142 -116 -258 -262 -258h-978c-145 0 -262 116 -262 258v990c0 142 117 258 262 258z" />
    <glyph glyph-name=".notdef" horiz-adv-x="2048" 
d="M100 -494v165h1848v-165h-1848zM100 -38v165h1848v-165h-1848zM100 418v165h1848v-165h-1848zM100 873v165h1848v-165h-1848zM100 1329v165h1848v-165h-1848zM100 1785v165h1848v-165h-1848z" />
    <glyph glyph-name=".null" horiz-adv-x="0" 
 />
    <glyph glyph-name="nonmarkingreturn" horiz-adv-x="0" 
 />
    <glyph glyph-name="space" unicode=" " horiz-adv-x="502" 
 />
    <glyph glyph-name="A" unicode="A" horiz-adv-x="1563" 
d="M1091 0l-90 317h-471l-93 -317h-364l484 1443h449l485 -1443h-400zM758 1118l-158 -537h332l-155 537h-19z" />
    <glyph glyph-name="Agrave" unicode="&#xc0;" horiz-adv-x="1563" 
d="M1091 0l-90 317h-471l-93 -317h-364l484 1443h449l485 -1443h-400zM758 1118l-158 -537h332l-155 537h-19zM655 1596l-260 336h342l168 -336h-250z" />
    <glyph glyph-name="Aacute" unicode="&#xc1;" horiz-adv-x="1563" 
d="M1091 0l-90 317h-471l-93 -317h-364l484 1443h449l485 -1443h-400zM758 1118l-158 -537h332l-155 537h-19zM909 1596h-250l168 336h342z" />
    <glyph glyph-name="Adieresis" unicode="&#xc4;" horiz-adv-x="1563" 
d="M1091 0l-90 317h-471l-93 -317h-364l484 1443h449l485 -1443h-400zM758 1118l-158 -537h332l-155 537h-19zM529 1589c-96 0 -174 75 -174 170c0 97 78 172 174 172c97 0 174 -75 174 -172c0 -95 -77 -170 -174 -170zM1035 1589c-96 0 -174 75 -174 170
c0 97 78 172 174 172s174 -75 174 -172c0 -95 -78 -170 -174 -170z" />
    <glyph glyph-name="Adieresismacron" unicode="&#x1de;" horiz-adv-x="1563" 
d="M1091 0l-90 317h-471l-93 -317h-364l484 1443h449l485 -1443h-400zM758 1118l-158 -537h332l-155 537h-19zM531 1907c101 0 172 -67 172 -163s-71 -163 -172 -163c-102 0 -173 67 -173 163s71 163 173 163zM391 2204h782v-183h-782v183zM1033 1907
c102 0 173 -67 173 -163s-71 -163 -173 -163c-101 0 -172 67 -172 163s71 163 172 163z" />
    <glyph glyph-name="Aring" unicode="&#x212b;" horiz-adv-x="1563" 
d="M1091 0l-90 317h-471l-93 -317h-364l484 1443h449l485 -1443h-400zM758 1118l-158 -537h332l-155 537h-19zM782 1529c-117 0 -215 90 -215 209s98 209 215 209s215 -90 215 -209s-98 -209 -215 -209zM782 1654c47 0 86 36 86 84c0 49 -39 84 -86 84s-86 -35 -86 -84
c0 -48 39 -84 86 -84z" />
    <glyph glyph-name="Aring" unicode="&#xc5;" horiz-adv-x="1563" 
d="M1091 0l-90 317h-471l-93 -317h-364l484 1443h449l485 -1443h-400zM758 1118l-158 -537h332l-155 537h-19zM782 1529c-117 0 -215 90 -215 209s98 209 215 209s215 -90 215 -209s-98 -209 -215 -209zM782 1654c47 0 86 36 86 84c0 49 -39 84 -86 84s-86 -35 -86 -84
c0 -48 39 -84 86 -84z" />
    <glyph glyph-name="Aringacute" unicode="&#x1fa;" horiz-adv-x="1563" 
d="M1091 0l-90 317h-471l-93 -317h-364l484 1443h449l485 -1443h-400zM758 1118l-158 -537h332l-155 537h-19zM783 1530c-129 0 -224 90 -224 216c0 124 94 212 224 212c128 0 222 -88 222 -212c0 -126 -94 -216 -222 -216zM782 1666c46 0 79 33 79 78s-34 78 -79 78
c-46 0 -79 -34 -79 -78c0 -45 33 -78 79 -78zM731 2230h305l-115 -195h-277z" />
    <glyph glyph-name="Atilde" unicode="&#xc3;" horiz-adv-x="1563" 
d="M1091 0l-90 317h-471l-93 -317h-364l484 1443h449l485 -1443h-400zM758 1118l-158 -537h332l-155 537h-19zM942 1577c-161 0 -207 133 -288 133c-55 0 -78 -50 -78 -126h-201c0 208 110 331 259 331c162 0 199 -140 291 -140c54 0 76 56 76 132h202
c0 -204 -111 -330 -261 -330z" />
    <glyph glyph-name="Abrevegrave" unicode="&#x1eb0;" horiz-adv-x="1563" 
d="M1091 0l-90 317h-471l-93 -317h-364l484 1443h449l485 -1443h-400zM758 1118l-158 -537h332l-155 537h-19zM1200 1924c0 -199 -160 -343 -418 -343s-418 144 -418 343h236c3 -91 73 -153 182 -153s179 62 182 153h236zM917 1945h-243l-219 267h297z" />
    <glyph glyph-name="Adotmacron" unicode="&#x1e0;" horiz-adv-x="1563" 
d="M1091 0l-90 317h-471l-93 -317h-364l484 1443h449l485 -1443h-400zM758 1118l-158 -537h332l-155 537h-19zM782 1575c-104 0 -176 68 -176 161c0 92 72 160 176 160s176 -68 176 -160c0 -93 -72 -161 -176 -161zM1173 2204v-183h-782v183h782z" />
    <glyph glyph-name="Aringbelow" unicode="&#x1e00;" horiz-adv-x="1563" 
d="M1091 0l-90 317h-471l-93 -317h-364l484 1443h449l485 -1443h-400zM758 1118l-158 -537h332l-155 537h-19zM764 -534c-136 0 -252 101 -252 243s116 243 252 243s252 -101 252 -243s-116 -243 -252 -243zM764 -388c52 0 99 41 99 97s-47 97 -99 97s-99 -41 -99 -97
s47 -97 99 -97z" />
    <glyph glyph-name="Acircumflex" unicode="&#xc2;" horiz-adv-x="1563" 
d="M1091 0l-90 317h-471l-93 -317h-364l484 1443h449l485 -1443h-400zM758 1118l-158 -537h332l-155 537h-19zM617 1932h330l275 -336h-298l-132 183h-20l-132 -183h-298z" />
    <glyph glyph-name="Acircumflexdotbelow" unicode="&#x1eac;" horiz-adv-x="1563" 
d="M1091 0l-90 317h-471l-93 -317h-364l484 1443h449l485 -1443h-400zM758 1118l-158 -537h332l-155 537h-19zM617 1932h330l275 -336h-298l-132 183h-20l-132 -183h-298zM764 -475c-103 0 -188 81 -188 184s85 185 188 185s188 -82 188 -185s-85 -184 -188 -184z" />
    <glyph glyph-name="Acircumflexacute" unicode="&#x1ea4;" horiz-adv-x="1563" 
d="M1091 0l-90 317h-471l-93 -317h-364l484 1443h449l485 -1443h-400zM758 1118l-158 -537h332l-155 537h-19zM612 1864h340l269 -283h-298l-130 146h-22l-130 -146h-298zM1040 1897l162 315h303l-194 -315h-271z" />
    <glyph glyph-name="Acircumflextilde" unicode="&#x1eaa;" horiz-adv-x="1563" 
d="M1091 0l-90 317h-471l-93 -317h-364l484 1443h449l485 -1443h-400zM758 1118l-158 -537h332l-155 537h-19zM936 1915c-156 0 -191 121 -282 121c-47 0 -79 -36 -82 -105h-193c0 189 103 293 249 293c156 0 191 -121 282 -121c45 0 79 32 82 109h193
c0 -192 -103 -297 -249 -297zM612 1856h340l269 -275h-298l-130 146h-22l-130 -146h-298z" />
    <glyph glyph-name="Acircumflexgrave" unicode="&#x1ea6;" horiz-adv-x="1563" 
d="M1091 0l-90 317h-471l-93 -317h-364l484 1443h449l485 -1443h-400zM758 1118l-158 -537h332l-155 537h-19zM612 1864h340l269 -283h-298l-130 146h-22l-130 -146h-298zM1358 1897h-271l-194 315h302z" />
    <glyph glyph-name="Acircumflexhookabove" unicode="&#x1ea8;" horiz-adv-x="1563" 
d="M1091 0l-90 317h-471l-93 -317h-364l484 1443h449l485 -1443h-400zM758 1118l-158 -537h332l-155 537h-19zM612 1864h340l269 -283h-298l-130 146h-22l-130 -146h-298zM944 2048v165c32 12 84 20 138 20c160 0 261 -83 261 -213c0 -116 -63 -202 -188 -252l-109 115
c65 26 92 64 92 104c0 47 -39 76 -102 76c-35 0 -69 -6 -92 -15z" />
    <glyph glyph-name="Abreve" unicode="&#x102;" horiz-adv-x="1563" 
d="M1091 0l-90 317h-471l-93 -317h-364l484 1443h449l485 -1443h-400zM758 1118l-158 -537h332l-155 537h-19zM366 1928h236c3 -91 71 -156 180 -156s177 65 180 156h236c0 -199 -158 -346 -416 -346s-416 147 -416 346z" />
    <glyph glyph-name="Abreveacute" unicode="&#x1eae;" horiz-adv-x="1563" 
d="M1091 0l-90 317h-471l-93 -317h-364l484 1443h449l485 -1443h-400zM758 1118l-158 -537h332l-155 537h-19zM364 1924h236c3 -91 73 -153 182 -153s179 62 182 153h236c0 -199 -160 -343 -418 -343s-418 144 -418 343zM647 1945l165 267h297l-219 -267h-243z" />
    <glyph glyph-name="Abrevetilde" unicode="&#x1eb4;" horiz-adv-x="1563" 
d="M1091 0l-90 317h-471l-93 -317h-364l484 1443h449l485 -1443h-400zM758 1118l-158 -537h332l-155 537h-19zM390 1875h220c3 -60 69 -117 172 -117s169 57 172 117h220c0 -159 -150 -294 -392 -294s-392 135 -392 294zM936 1935c-145 0 -190 111 -275 111
c-44 0 -74 -32 -77 -91h-194c0 170 101 269 238 269c145 0 190 -111 275 -111c42 0 74 28 77 95h194c0 -174 -101 -273 -238 -273z" />
    <glyph glyph-name="Abrevehookabove" unicode="&#x1eb2;" horiz-adv-x="1563" 
d="M1091 0l-90 317h-471l-93 -317h-364l484 1443h449l485 -1443h-400zM758 1118l-158 -537h332l-155 537h-19zM567 2075v155c35 12 83 21 135 21c160 0 262 -79 262 -204c0 -110 -65 -193 -194 -243l-99 112c65 25 93 62 93 101c0 45 -39 74 -103 74c-33 0 -68 -6 -94 -16z
M381 1882h205c8 -88 79 -142 196 -142s188 54 196 142h205c0 -193 -155 -322 -401 -322s-401 129 -401 322z" />
    <glyph glyph-name="Abrevedotbelow" unicode="&#x1eb6;" horiz-adv-x="1563" 
d="M1091 0l-90 317h-471l-93 -317h-364l484 1443h449l485 -1443h-400zM758 1118l-158 -537h332l-155 537h-19zM366 1928h236c3 -91 71 -156 180 -156s177 65 180 156h236c0 -199 -158 -346 -416 -346s-416 147 -416 346zM764 -475c-103 0 -188 81 -188 184s85 185 188 185
s188 -82 188 -185s-85 -184 -188 -184z" />
    <glyph glyph-name="Ainvertedbreve" unicode="&#x202;" horiz-adv-x="1563" 
d="M1091 0l-90 317h-471l-93 -317h-364l484 1443h449l485 -1443h-400zM758 1118l-158 -537h332l-155 537h-19zM1198 1582h-236c-3 91 -71 156 -180 156s-177 -65 -180 -156h-236c0 199 158 346 416 346s416 -147 416 -346z" />
    <glyph glyph-name="Acaron" unicode="&#x1cd;" horiz-adv-x="1563" 
d="M1091 0l-90 317h-471l-93 -317h-364l484 1443h449l485 -1443h-400zM758 1118l-158 -537h332l-155 537h-19zM947 1596h-330l-275 336h298l132 -183h20l132 183h298z" />
    <glyph glyph-name="Adotaccent" unicode="&#x226;" horiz-adv-x="1563" 
d="M1091 0l-90 317h-471l-93 -317h-364l484 1443h449l485 -1443h-400zM758 1118l-158 -537h332l-155 537h-19zM782 1579c-103 0 -188 82 -188 184c0 104 85 185 188 185s188 -81 188 -185c0 -102 -85 -184 -188 -184z" />
    <glyph glyph-name="Adotbelow" unicode="&#x1ea0;" horiz-adv-x="1563" 
d="M1091 0l-90 317h-471l-93 -317h-364l484 1443h449l485 -1443h-400zM758 1118l-158 -537h332l-155 537h-19zM764 -475c-103 0 -188 81 -188 184s85 185 188 185s188 -82 188 -185s-85 -184 -188 -184z" />
    <glyph glyph-name="Ahookabove" unicode="&#x1ea2;" horiz-adv-x="1563" 
d="M1091 0l-90 317h-471l-93 -317h-364l484 1443h449l485 -1443h-400zM758 1118l-158 -537h332l-155 537h-19zM559 1843v168c36 12 95 26 168 26c151 0 263 -87 263 -221c0 -119 -76 -209 -209 -261l-103 121c63 24 106 62 106 106c0 48 -42 80 -114 80
c-42 0 -86 -8 -111 -19z" />
    <glyph glyph-name="Adblgrave" unicode="&#x200;" horiz-adv-x="1563" 
d="M1091 0l-90 317h-471l-93 -317h-364l484 1443h449l485 -1443h-400zM758 1118l-158 -537h332l-155 537h-19zM1111 1596h-229l-156 336h286zM708 1596h-234l-230 336h310z" />
    <glyph glyph-name="Amacron" unicode="&#x100;" horiz-adv-x="1563" 
d="M1091 0l-90 317h-471l-93 -317h-364l484 1443h449l485 -1443h-400zM758 1118l-158 -537h332l-155 537h-19zM1163 1854v-197h-762v197h762z" />
    <glyph glyph-name="Aogonek" unicode="&#x104;" horiz-adv-x="1563" 
d="M600 581h332l-155 537h-19zM1491 0h-47c-157 -12 -231 -97 -231 -179c0 -61 41 -107 137 -107c20 0 43 2 69 8v-179c-51 -15 -113 -23 -162 -23c-189 0 -297 106 -297 243c0 82 44 172 130 240l-89 314h-471l-93 -317h-364l484 1443h449z" />
    <glyph glyph-name="Aogonek.mini" horiz-adv-x="1563" 
d="M600 581h332l-155 537h-19zM1491 0h-47c-157 -12 -239 -73 -239 -150c0 -46 27 -90 122 -90c20 0 43 2 69 9v-180c-51 -15 -103 -22 -152 -22c-189 0 -293 88 -293 217c0 83 40 156 139 220l-89 313h-471l-93 -317h-364l484 1443h449z" />
    <glyph glyph-name="Aringbelow.mini" horiz-adv-x="1563" 
d="M1091 0l-90 317h-471l-93 -317h-364l484 1443h449l485 -1443h-400zM758 1118l-158 -537h332l-155 537h-19zM764 -494c-117 0 -215 90 -215 209s98 209 215 209s215 -90 215 -209s-98 -209 -215 -209zM764 -369c47 0 86 36 86 84c0 49 -39 84 -86 84s-86 -35 -86 -84
c0 -48 39 -84 86 -84z" />
    <glyph glyph-name="A.mini" horiz-adv-x="1548" 
d="M1078 0l-94 301h-453l-96 -301h-362l462 1276h479l461 -1276h-397zM752 1006l-147 -463h307l-143 463h-17z" />
    <glyph glyph-name="Adieresismacron.mini" horiz-adv-x="1548" 
d="M1078 0l-94 301h-453l-96 -301h-362l462 1276h479l461 -1276h-397zM752 1006l-147 -463h307l-143 463h-17zM383 1750v196h782v-196h-782zM547 1380c-91 0 -154 56 -154 137s63 136 154 136s153 -55 153 -136s-62 -137 -153 -137zM1001 1380c-91 0 -153 56 -153 137
s62 136 153 136s154 -55 154 -136s-63 -137 -154 -137z" />
    <glyph glyph-name="Aringacute.mini" horiz-adv-x="1548" 
d="M1078 0l-94 301h-453l-96 -301h-362l462 1276h479l461 -1276h-397zM752 1006l-147 -463h307l-143 463h-17zM696 1544c0 -45 32 -77 77 -77s78 33 78 77s-33 78 -78 78c-45 -1 -77 -34 -77 -78zM774 1342c-122 0 -211 85 -211 204c0 117 89 201 211 201s209 -84 209 -201
c0 -119 -88 -204 -209 -204zM703 1950h296l-86 -131h-265z" />
    <glyph glyph-name="Abrevegrave.mini" horiz-adv-x="1548" 
d="M1078 0l-94 301h-453l-96 -301h-362l462 1276h479l461 -1276h-397zM752 1006l-147 -463h307l-143 463h-17zM356 1691h236c1 -79 66 -137 182 -137s181 58 182 137h236c0 -169 -142 -320 -418 -320s-418 151 -418 320zM912 1704h-269l-177 246h319z" />
    <glyph glyph-name="Adotmacron.mini" horiz-adv-x="1548" 
d="M1078 0l-94 301h-453l-96 -301h-362l462 1276h479l461 -1276h-397zM752 1006l-147 -463h307l-143 463h-17zM774 1375c-99 0 -166 61 -166 149c0 89 67 149 166 149s166 -60 166 -149c0 -88 -67 -149 -166 -149zM1165 1757h-782v189h782v-189z" />
    <glyph glyph-name="Acircumflexacute.mini" horiz-adv-x="1548" 
d="M1078 0l-94 301h-453l-96 -301h-362l462 1276h479l461 -1276h-397zM752 1006l-147 -463h307l-143 463h-17zM951 1655l279 -275h-315l-130 139h-22l-130 -139h-315l279 275h354zM1034 1700l143 250h319l-174 -250h-288z" />
    <glyph glyph-name="Acircumflextilde.mini" horiz-adv-x="1548" 
d="M1078 0l-94 301h-453l-96 -301h-362l462 1276h479l461 -1276h-397zM752 1006l-147 -463h307l-143 463h-17zM959 1632l271 -252h-317l-128 135h-22l-128 -135h-317l271 252h370zM935 1678c-154 0 -214 99 -293 99c-51 0 -75 -34 -76 -75h-205c0 146 93 248 251 248
c155 0 216 -99 294 -99c52 0 74 27 76 86h205c0 -156 -93 -259 -252 -259z" />
    <glyph glyph-name="Acircumflexgrave.mini" horiz-adv-x="1548" 
d="M1078 0l-94 301h-453l-96 -301h-362l462 1276h479l461 -1276h-397zM752 1006l-147 -463h307l-143 463h-17zM951 1655l279 -275h-315l-130 139h-22l-130 -139h-315l279 275h354zM1323 1700h-287l-174 250h319z" />
    <glyph glyph-name="Acircumflexhookabove.mini" horiz-adv-x="1548" 
d="M1078 0l-94 301h-453l-96 -301h-362l462 1276h479l461 -1276h-397zM752 1006l-147 -463h307l-143 463h-17zM951 1655l279 -275h-315l-130 139h-22l-130 -139h-315l279 275h354zM959 1786v143c33 12 95 21 148 21c158 0 263 -80 263 -212c0 -109 -78 -198 -169 -229
l-109 113c45 19 74 56 74 94c0 50 -37 84 -104 84c-35 0 -80 -5 -103 -14z" />
    <glyph glyph-name="Abreveacute.mini" horiz-adv-x="1548" 
d="M1078 0l-94 301h-453l-96 -301h-362l462 1276h479l461 -1276h-397zM752 1006l-147 -463h307l-143 463h-17zM356 1691h236c1 -79 66 -137 182 -137s181 58 182 137h236c0 -169 -142 -320 -418 -320s-418 151 -418 320zM632 1704l127 246h319l-177 -246h-269z" />
    <glyph glyph-name="Abrevehookabove.mini" horiz-adv-x="1548" 
d="M1078 0l-94 301h-453l-96 -301h-362l462 1276h479l461 -1276h-397zM752 1006l-147 -463h307l-143 463h-17zM376 1655h223c2 -56 63 -114 175 -114s173 58 175 114h223c0 -140 -135 -284 -398 -284s-398 144 -398 284zM585 1801v122c41 18 95 27 149 27
c124 0 211 -60 211 -160c0 -88 -89 -172 -182 -183l-70 93c25 5 82 34 82 70c0 35 -31 51 -87 51c-47 0 -78 -9 -103 -20z" />
    <glyph glyph-name="Abrevetilde.mini" horiz-adv-x="1548" 
d="M1078 0l-94 301h-453l-96 -301h-362l462 1276h479l461 -1276h-397zM752 1006l-147 -463h307l-143 463h-17zM376 1646h223c2 -47 63 -101 175 -101s173 54 175 101h223c0 -131 -135 -275 -398 -275s-398 144 -398 275zM935 1683c-145 0 -211 98 -287 98
c-48 0 -77 -20 -78 -64h-194c0 134 86 233 236 233c144 0 213 -99 288 -99c49 0 77 29 78 83h194c0 -139 -85 -251 -237 -251z" />
    <glyph glyph-name="B" unicode="B" horiz-adv-x="1459" 
d="M863 0h-693v1443h673c288 0 458 -136 458 -360c0 -155 -116 -286 -269 -307v-19c189 -10 335 -157 335 -341c0 -253 -195 -416 -504 -416zM537 1184v-329h194c134 0 212 62 212 164c0 103 -73 165 -198 165h-208zM537 259h222c152 0 235 67 235 189
c0 118 -85 184 -237 184h-220v-373z" />
    <glyph glyph-name="Blinebelow" unicode="&#x1e06;" horiz-adv-x="1459" 
d="M863 0h-693v1443h673c288 0 458 -136 458 -360c0 -155 -116 -286 -269 -307v-19c189 -10 335 -157 335 -341c0 -253 -195 -416 -504 -416zM537 1184v-329h194c134 0 212 62 212 164c0 103 -73 165 -198 165h-208zM537 259h222c152 0 235 67 235 189
c0 118 -85 184 -237 184h-220v-373zM1044 -192v-198h-762v198h762z" />
    <glyph glyph-name="Bdotbelow" unicode="&#x1e04;" horiz-adv-x="1459" 
d="M863 0h-693v1443h673c288 0 458 -136 458 -360c0 -155 -116 -286 -269 -307v-19c189 -10 335 -157 335 -341c0 -253 -195 -416 -504 -416zM537 1184v-329h194c134 0 212 62 212 164c0 103 -73 165 -198 165h-208zM537 259h222c152 0 235 67 235 189
c0 118 -85 184 -237 184h-220v-373zM663 -475c-103 0 -188 81 -188 184s85 185 188 185s188 -82 188 -185s-85 -184 -188 -184z" />
    <glyph glyph-name="Bdotaccent" unicode="&#x1e02;" horiz-adv-x="1459" 
d="M863 0h-693v1443h673c288 0 458 -136 458 -360c0 -155 -116 -286 -269 -307v-19c189 -10 335 -157 335 -341c0 -253 -195 -416 -504 -416zM537 1184v-329h194c134 0 212 62 212 164c0 103 -73 165 -198 165h-208zM537 259h222c152 0 235 67 235 189
c0 118 -85 184 -237 184h-220v-373zM663 1579c-103 0 -188 82 -188 184c0 104 85 185 188 185s188 -81 188 -185c0 -102 -85 -184 -188 -184z" />
    <glyph glyph-name="C" unicode="C" horiz-adv-x="1545" 
d="M800 -39c-432 0 -698 290 -698 761s265 760 698 760c363 0 638 -242 649 -569h-353c-19 157 -138 263 -296 263c-201 0 -324 -172 -324 -453c0 -282 123 -456 325 -456c158 0 276 102 297 257h352c-12 -330 -280 -563 -650 -563z" />
    <glyph glyph-name="Cacute" unicode="&#x106;" horiz-adv-x="1545" 
d="M800 -39c-432 0 -698 290 -698 761s265 760 698 760c363 0 638 -242 649 -569h-353c-19 157 -138 263 -296 263c-201 0 -324 -172 -324 -453c0 -282 123 -456 325 -456c158 0 276 102 297 257h352c-12 -330 -280 -563 -650 -563zM927 1596h-250l168 336h342z" />
    <glyph glyph-name="Ccaron" unicode="&#x10c;" horiz-adv-x="1545" 
d="M800 -39c-432 0 -698 290 -698 761s265 760 698 760c363 0 638 -242 649 -569h-353c-19 157 -138 263 -296 263c-201 0 -324 -172 -324 -453c0 -282 123 -456 325 -456c158 0 276 102 297 257h352c-12 -330 -280 -563 -650 -563zM965 1596h-330l-275 336h298l132 -183h20
l132 183h298z" />
    <glyph glyph-name="Ccircumflex" unicode="&#x108;" horiz-adv-x="1545" 
d="M800 -39c-432 0 -698 290 -698 761s265 760 698 760c363 0 638 -242 649 -569h-353c-19 157 -138 263 -296 263c-201 0 -324 -172 -324 -453c0 -282 123 -456 325 -456c158 0 276 102 297 257h352c-12 -330 -280 -563 -650 -563zM635 1932h330l275 -336h-298l-132 183
h-20l-132 -183h-298z" />
    <glyph glyph-name="Cdotaccent" unicode="&#x10a;" horiz-adv-x="1545" 
d="M800 -39c-432 0 -698 290 -698 761s265 760 698 760c363 0 638 -242 649 -569h-353c-19 157 -138 263 -296 263c-201 0 -324 -172 -324 -453c0 -282 123 -456 325 -456c158 0 276 102 297 257h352c-12 -330 -280 -563 -650 -563zM800 1579c-103 0 -188 82 -188 184
c0 104 85 185 188 185s188 -81 188 -185c0 -102 -85 -184 -188 -184z" />
    <glyph glyph-name="Ccedilla" unicode="&#xc7;" horiz-adv-x="1545" 
d="M1098 524h352c-11 -303 -238 -524 -561 -558l-39 -62c114 -12 195 -75 195 -184c0 -141 -117 -212 -292 -212c-56 0 -112 7 -148 17v147c15 -6 61 -14 108 -14c56 0 113 13 113 53c0 37 -41 51 -120 51h-69v128l50 78c-365 47 -585 326 -585 754c0 471 265 760 698 760
c363 0 638 -242 649 -569h-353c-19 157 -138 263 -296 263c-201 0 -324 -172 -324 -453c0 -282 123 -456 325 -456c158 0 276 102 297 257z" />
    <glyph glyph-name="Ccedillaacute" unicode="&#x1e08;" horiz-adv-x="1545" 
d="M1187 1932l-260 -336h-250l168 336h342zM1098 524h352c-11 -303 -238 -524 -561 -558l-39 -62c114 -12 195 -75 195 -184c0 -141 -117 -212 -292 -212c-56 0 -112 7 -148 17v147c15 -6 61 -14 108 -14c56 0 113 13 113 53c0 37 -41 51 -120 51h-69v128l50 78
c-365 47 -585 326 -585 754c0 471 265 760 698 760c363 0 638 -242 649 -569h-353c-19 157 -138 263 -296 263c-201 0 -324 -172 -324 -453c0 -282 123 -456 325 -456c158 0 276 102 297 257z" />
    <glyph glyph-name="Ccedilla.mini" horiz-adv-x="1545" 
d="M1098 524h352c-11 -306 -243 -529 -573 -559l-35 -48c118 -8 187 -67 187 -166c0 -116 -104 -183 -283 -183c-55 0 -112 7 -143 16v130c29 -6 72 -10 113 -10c64 0 105 17 105 53c0 40 -29 53 -115 53h-72v82l51 76c-364 48 -583 326 -583 754c0 471 265 760 698 760
c363 0 638 -242 649 -569h-353c-19 157 -138 263 -296 263c-201 0 -324 -172 -324 -453c0 -282 123 -456 325 -456c158 0 276 102 297 257z" />
    <glyph glyph-name="Ccedillaacute.mini" horiz-adv-x="1545" 
d="M1187 1932l-260 -336h-250l168 336h342zM1098 524h352c-11 -306 -243 -529 -573 -559l-35 -48c118 -8 187 -67 187 -166c0 -116 -104 -183 -283 -183c-55 0 -112 7 -143 16v130c29 -6 72 -10 113 -10c64 0 105 17 105 53c0 40 -29 53 -115 53h-72v82l51 76
c-364 48 -583 326 -583 754c0 471 265 760 698 760c363 0 638 -242 649 -569h-353c-19 157 -138 263 -296 263c-201 0 -324 -172 -324 -453c0 -282 123 -456 325 -456c158 0 276 102 297 257z" />
    <glyph glyph-name="D" unicode="D" horiz-adv-x="1553" 
d="M170 1443h606c430 0 675 -256 675 -707c0 -474 -241 -736 -675 -736h-606v1443zM537 1148v-853h173c238 0 367 148 367 434c0 269 -136 419 -367 419h-173z" />
    <glyph glyph-name="Ddotaccent" unicode="&#x1e0a;" horiz-adv-x="1553" 
d="M170 1443h606c430 0 675 -256 675 -707c0 -474 -241 -736 -675 -736h-606v1443zM537 1148v-853h173c238 0 367 148 367 434c0 269 -136 419 -367 419h-173zM667 1579c-103 0 -188 82 -188 184c0 104 85 185 188 185s188 -81 188 -185c0 -102 -85 -184 -188 -184z" />
    <glyph glyph-name="Dcircumflexbelow" unicode="&#x1e12;" horiz-adv-x="1553" 
d="M170 1443h606c430 0 675 -256 675 -707c0 -474 -241 -736 -675 -736h-606v1443zM537 1148v-853h173c238 0 367 148 367 434c0 269 -136 419 -367 419h-173zM502 -133h330l275 -336h-298l-132 183h-20l-132 -183h-298z" />
    <glyph glyph-name="Dcommaaccent" unicode="&#x1e10;" horiz-adv-x="1553" 
d="M170 1443h606c430 0 675 -256 675 -707c0 -474 -241 -736 -675 -736h-606v1443zM537 1148v-853h173c238 0 367 148 367 434c0 269 -136 419 -367 419h-173zM653 -494h-258l105 361h334z" />
    <glyph glyph-name="Dlinebelow" unicode="&#x1e0e;" horiz-adv-x="1553" 
d="M170 1443h606c430 0 675 -256 675 -707c0 -474 -241 -736 -675 -736h-606v1443zM537 1148v-853h173c238 0 367 148 367 434c0 269 -136 419 -367 419h-173zM1048 -192v-198h-762v198h762z" />
    <glyph glyph-name="Dcaron" unicode="&#x10e;" horiz-adv-x="1553" 
d="M170 1443h606c430 0 675 -256 675 -707c0 -474 -241 -736 -675 -736h-606v1443zM537 1148v-853h173c238 0 367 148 367 434c0 269 -136 419 -367 419h-173zM832 1596h-330l-275 336h298l132 -183h20l132 183h298z" />
    <glyph glyph-name="Ddotbelow" unicode="&#x1e0c;" horiz-adv-x="1553" 
d="M170 1443h606c430 0 675 -256 675 -707c0 -474 -241 -736 -675 -736h-606v1443zM537 1148v-853h173c238 0 367 148 367 434c0 269 -136 419 -367 419h-173zM667 -475c-103 0 -188 81 -188 184s85 185 188 185s188 -82 188 -185s-85 -184 -188 -184z" />
    <glyph glyph-name="Dcroat" unicode="&#x110;" horiz-adv-x="1553" 
d="M537 295h173c238 0 367 148 367 434c0 269 -136 419 -367 419h-173v-294h230v-254h-230v-305zM170 1443h606c430 0 675 -256 675 -707c0 -474 -241 -736 -675 -736h-606v600h-107v254h107v589z" />
    <glyph glyph-name="Dcommaaccent.mini" horiz-adv-x="1553" 
d="M170 1443h606c430 0 675 -256 675 -707c0 -474 -241 -736 -675 -736h-606v1443zM537 1148v-853h173c238 0 367 148 367 434c0 269 -136 419 -367 419h-173zM673 -432h-300l114 293h358z" />
    <glyph glyph-name="E" unicode="E" horiz-adv-x="1302" 
d="M1159 295v-295h-989v1443h989v-295h-622v-288h585v-270h-585v-295h622z" />
    <glyph glyph-name="Egrave" unicode="&#xc8;" horiz-adv-x="1302" 
d="M1159 295v-295h-989v1443h989v-295h-622v-288h585v-270h-585v-295h622zM538 1596l-260 336h342l168 -336h-250z" />
    <glyph glyph-name="Edblgrave" unicode="&#x204;" horiz-adv-x="1302" 
d="M1159 295v-295h-989v1443h989v-295h-622v-288h585v-270h-585v-295h622zM994 1596h-229l-156 336h286zM591 1596h-234l-230 336h310z" />
    <glyph glyph-name="Eacute" unicode="&#xc9;" horiz-adv-x="1302" 
d="M1159 295v-295h-989v1443h989v-295h-622v-288h585v-270h-585v-295h622zM792 1596h-250l168 336h342z" />
    <glyph glyph-name="Ecircumflex" unicode="&#xca;" horiz-adv-x="1302" 
d="M1159 295v-295h-989v1443h989v-295h-622v-288h585v-270h-585v-295h622zM500 1932h330l275 -336h-298l-132 183h-20l-132 -183h-298z" />
    <glyph glyph-name="Ecircumflexhookabove" unicode="&#x1ec2;" horiz-adv-x="1302" 
d="M1159 295v-295h-989v1443h989v-295h-622v-288h585v-270h-585v-295h622zM495 1864h340l269 -283h-298l-130 146h-22l-130 -146h-298zM827 2048v165c32 12 84 20 138 20c160 0 261 -83 261 -213c0 -116 -63 -202 -188 -252l-109 115c65 26 92 64 92 104
c0 47 -39 76 -102 76c-35 0 -69 -6 -92 -15z" />
    <glyph glyph-name="Ecircumflexgrave" unicode="&#x1ec0;" horiz-adv-x="1302" 
d="M1159 295v-295h-989v1443h989v-295h-622v-288h585v-270h-585v-295h622zM495 1864h340l269 -283h-298l-130 146h-22l-130 -146h-298zM1241 1897h-271l-194 315h302z" />
    <glyph glyph-name="Ecircumflextilde" unicode="&#x1ec4;" horiz-adv-x="1302" 
d="M1159 295v-295h-989v1443h989v-295h-622v-288h585v-270h-585v-295h622zM819 1915c-156 0 -191 121 -282 121c-47 0 -79 -36 -82 -105h-193c0 189 103 293 249 293c156 0 191 -121 282 -121c45 0 79 32 82 109h193c0 -192 -103 -297 -249 -297zM495 1856h340l269 -275
h-298l-130 146h-22l-130 -146h-298z" />
    <glyph glyph-name="Ecircumflexdotbelow" unicode="&#x1ec6;" horiz-adv-x="1302" 
d="M1159 295v-295h-989v1443h989v-295h-622v-288h585v-270h-585v-295h622zM500 1932h330l275 -336h-298l-132 183h-20l-132 -183h-298zM665 -475c-103 0 -188 81 -188 184s85 185 188 185s188 -82 188 -185s-85 -184 -188 -184z" />
    <glyph glyph-name="Ecircumflexacute" unicode="&#x1ebe;" horiz-adv-x="1302" 
d="M1159 295v-295h-989v1443h989v-295h-622v-288h585v-270h-585v-295h622zM495 1864h340l269 -283h-298l-130 146h-22l-130 -146h-298zM923 1897l162 315h303l-194 -315h-271z" />
    <glyph glyph-name="Edieresis" unicode="&#xcb;" horiz-adv-x="1302" 
d="M1159 295v-295h-989v1443h989v-295h-622v-288h585v-270h-585v-295h622zM412 1589c-96 0 -174 75 -174 170c0 97 78 172 174 172c97 0 174 -75 174 -172c0 -95 -77 -170 -174 -170zM918 1589c-96 0 -174 75 -174 170c0 97 78 172 174 172s174 -75 174 -172
c0 -95 -78 -170 -174 -170z" />
    <glyph glyph-name="Edotbelow" unicode="&#x1eb8;" horiz-adv-x="1302" 
d="M1159 295v-295h-989v1443h989v-295h-622v-288h585v-270h-585v-295h622zM665 -475c-103 0 -188 81 -188 184s85 185 188 185s188 -82 188 -185s-85 -184 -188 -184z" />
    <glyph glyph-name="Einvertedbreve" unicode="&#x206;" horiz-adv-x="1302" 
d="M1159 295v-295h-989v1443h989v-295h-622v-288h585v-270h-585v-295h622zM1081 1582h-236c-3 91 -71 156 -180 156s-177 -65 -180 -156h-236c0 199 158 346 416 346s416 -147 416 -346z" />
    <glyph glyph-name="Ehookabove" unicode="&#x1eba;" horiz-adv-x="1302" 
d="M1159 295v-295h-989v1443h989v-295h-622v-288h585v-270h-585v-295h622zM442 1843v168c36 12 95 26 168 26c151 0 263 -87 263 -221c0 -119 -76 -209 -209 -261l-103 121c63 24 106 62 106 106c0 48 -42 80 -114 80c-42 0 -86 -8 -111 -19z" />
    <glyph glyph-name="Ecaron" unicode="&#x11a;" horiz-adv-x="1302" 
d="M1159 295v-295h-989v1443h989v-295h-622v-288h585v-270h-585v-295h622zM830 1596h-330l-275 336h298l132 -183h20l132 183h298z" />
    <glyph glyph-name="Emacron" unicode="&#x112;" horiz-adv-x="1302" 
d="M1159 295v-295h-989v1443h989v-295h-622v-288h585v-270h-585v-295h622zM1046 1854v-197h-762v197h762z" />
    <glyph glyph-name="Emacrongrave" unicode="&#x1e14;" horiz-adv-x="1302" 
d="M1159 295v-295h-989v1443h989v-295h-622v-288h585v-270h-585v-295h622zM274 1607v196h782v-196h-782zM795 1932h-288l-158 280h320z" />
    <glyph glyph-name="Emacronacute" unicode="&#x1e16;" horiz-adv-x="1302" 
d="M1159 295v-295h-989v1443h989v-295h-622v-288h585v-270h-585v-295h622zM1056 1607h-782v196h782v-196zM535 1932l126 280h320l-158 -280h-288z" />
    <glyph glyph-name="Etilde" unicode="&#x1ebc;" horiz-adv-x="1302" 
d="M1159 295v-295h-989v1443h989v-295h-622v-288h585v-270h-585v-295h622zM825 1577c-161 0 -207 133 -288 133c-55 0 -78 -50 -78 -126h-201c0 208 110 331 259 331c162 0 199 -140 291 -140c54 0 76 56 76 132h202c0 -204 -111 -330 -261 -330z" />
    <glyph glyph-name="Ecircumflexbelow" unicode="&#x1e18;" horiz-adv-x="1302" 
d="M1159 295v-295h-989v1443h989v-295h-622v-288h585v-270h-585v-295h622zM834 -133l262 -359h-295l-126 202h-20l-126 -202h-295l262 359h338z" />
    <glyph glyph-name="Ebreve" unicode="&#x114;" horiz-adv-x="1302" 
d="M1159 295v-295h-989v1443h989v-295h-622v-288h585v-270h-585v-295h622zM249 1928h236c3 -91 71 -156 180 -156s177 65 180 156h236c0 -199 -158 -346 -416 -346s-416 147 -416 346z" />
    <glyph glyph-name="Etildebelow" unicode="&#x1e1a;" horiz-adv-x="1302" 
d="M1159 295v-295h-989v1443h989v-295h-622v-288h585v-270h-585v-295h622zM825 -460c-161 0 -207 134 -288 134c-55 0 -78 -51 -78 -126h-201c0 208 110 331 259 331c162 0 199 -141 291 -141c54 0 76 57 76 133h202c0 -204 -111 -331 -261 -331z" />
    <glyph glyph-name="Edotaccent" unicode="&#x116;" horiz-adv-x="1302" 
d="M1159 295v-295h-989v1443h989v-295h-622v-288h585v-270h-585v-295h622zM665 1579c-103 0 -188 82 -188 184c0 104 85 185 188 185s188 -81 188 -185c0 -102 -85 -184 -188 -184z" />
    <glyph glyph-name="Ecedilla" unicode="&#x228;" horiz-adv-x="1302" 
d="M1159 1148h-622v-288h585v-270h-585v-295h622v-295h-383l-61 -96c114 -12 195 -75 195 -184c0 -141 -117 -212 -292 -212c-56 0 -112 7 -148 17v147c15 -6 61 -14 108 -14c56 0 113 13 113 53c0 37 -41 51 -120 51h-69v128l71 110h-403v1443h989v-295z" />
    <glyph glyph-name="Ecedillabreve" unicode="&#x1e1c;" horiz-adv-x="1302" 
d="M845 1928h236c0 -199 -158 -346 -416 -346s-416 147 -416 346h236c3 -91 71 -156 180 -156s177 65 180 156zM1159 1148h-622v-288h585v-270h-585v-295h622v-295h-383l-61 -96c114 -12 195 -75 195 -184c0 -141 -117 -212 -292 -212c-56 0 -112 7 -148 17v147
c15 -6 61 -14 108 -14c56 0 113 13 113 53c0 37 -41 51 -120 51h-69v128l71 110h-403v1443h989v-295z" />
    <glyph glyph-name="Eogonek" unicode="&#x118;" horiz-adv-x="1302" 
d="M1159 1148h-622v-288h585v-270h-585v-295h622v-295c-157 -12 -231 -97 -231 -179c0 -61 41 -107 137 -107c20 0 43 2 69 8v-179c-51 -15 -113 -23 -162 -23c-189 0 -297 106 -297 243c0 81 43 169 126 237h-631v1443h989v-295z" />
    <glyph glyph-name="Eogonek.mini" horiz-adv-x="1302" 
d="M1159 1148h-622v-288h585v-270h-585v-295h622v-295c-157 -12 -239 -73 -239 -150c0 -46 27 -90 122 -90c20 0 43 2 69 9v-180c-51 -15 -103 -22 -152 -22c-189 0 -293 88 -293 217c0 81 39 153 133 216h-629v1443h989v-295z" />
    <glyph glyph-name="Ecedillabreve.mini" horiz-adv-x="1302" 
d="M845 1928h236c0 -199 -158 -346 -416 -346s-416 147 -416 346h236c3 -91 71 -156 180 -156s177 65 180 156zM1159 1148h-622v-288h585v-270h-585v-295h622v-295h-390l-62 -83c118 -8 187 -67 187 -166c0 -116 -104 -183 -283 -183c-55 0 -112 7 -143 16v130
c29 -6 72 -10 113 -10c64 0 105 17 105 53c0 40 -29 53 -115 53h-72v82l72 108h-401v1443h989v-295z" />
    <glyph glyph-name="Ecedilla.mini" horiz-adv-x="1302" 
d="M1159 1148h-622v-288h585v-270h-585v-295h622v-295h-390l-62 -83c118 -8 187 -67 187 -166c0 -116 -104 -183 -283 -183c-55 0 -112 7 -143 16v130c29 -6 72 -10 113 -10c64 0 105 17 105 53c0 40 -29 53 -115 53h-72v82l72 108h-401v1443h989v-295z" />
    <glyph glyph-name="E.mini" horiz-adv-x="1302" 
d="M1159 280v-280h-989v1276h989v-280h-622v-235h585v-240h-585v-241h622z" />
    <glyph glyph-name="Emacronacute.mini" horiz-adv-x="1302" 
d="M1159 280v-280h-989v1276h989v-280h-622v-235h585v-240h-585v-241h622zM1056 1406h-782v188h782v-188zM512 1704l142 246h319l-174 -246h-287z" />
    <glyph glyph-name="Ecircumflexhookabove.mini" horiz-adv-x="1302" 
d="M1159 280v-280h-989v1276h989v-280h-622v-235h585v-240h-585v-241h622zM842 1655l279 -275h-315l-130 139h-22l-130 -139h-315l279 275h354zM850 1786v143c33 12 95 21 148 21c158 0 263 -80 263 -212c0 -109 -78 -198 -169 -229l-109 113c45 19 74 56 74 94
c0 50 -37 84 -104 84c-35 0 -80 -5 -103 -14z" />
    <glyph glyph-name="Emacrongrave.mini" horiz-adv-x="1302" 
d="M1159 280v-280h-989v1276h989v-280h-622v-235h585v-240h-585v-241h622zM1056 1406h-782v188h782v-188zM818 1704h-287l-174 246h319z" />
    <glyph glyph-name="Ecircumflexacute.mini" horiz-adv-x="1302" 
d="M1159 280v-280h-989v1276h989v-280h-622v-235h585v-240h-585v-241h622zM842 1655l279 -275h-315l-130 139h-22l-130 -139h-315l279 275h354zM925 1700l143 250h319l-174 -250h-288z" />
    <glyph glyph-name="Ecircumflexgrave.mini" horiz-adv-x="1302" 
d="M1159 280v-280h-989v1276h989v-280h-622v-235h585v-240h-585v-241h622zM842 1655l279 -275h-315l-130 139h-22l-130 -139h-315l279 275h354zM1214 1700h-287l-174 250h319z" />
    <glyph glyph-name="Ecircumflextilde.mini" horiz-adv-x="1302" 
d="M1159 280v-280h-989v1276h989v-280h-622v-235h585v-240h-585v-241h622zM850 1632l271 -252h-317l-128 135h-22l-128 -135h-317l271 252h370zM826 1678c-154 0 -214 99 -293 99c-51 0 -75 -34 -76 -75h-205c0 146 93 248 251 248c155 0 216 -99 294 -99c52 0 74 27 76 86
h205c0 -156 -93 -259 -252 -259z" />
    <glyph glyph-name="F" unicode="F" horiz-adv-x="1251" 
d="M537 0h-367v1443h982v-295h-615v-329h558v-281h-558v-538z" />
    <glyph glyph-name="Fdotaccent" unicode="&#x1e1e;" horiz-adv-x="1251" 
d="M537 0h-367v1443h982v-295h-615v-329h558v-281h-558v-538zM661 1579c-103 0 -188 82 -188 184c0 104 85 185 188 185s188 -81 188 -185c0 -102 -85 -184 -188 -184z" />
    <glyph glyph-name="G" unicode="G" horiz-adv-x="1572" 
d="M1468 601c0 -397 -247 -640 -655 -640c-444 0 -711 287 -711 762c0 469 268 759 701 759c352 0 614 -205 650 -510h-362c-36 127 -144 204 -288 204c-205 0 -327 -168 -327 -449c0 -286 135 -460 345 -460c167 0 283 98 292 244l1 24h-264v252h618v-186z" />
    <glyph glyph-name="Gacute" unicode="&#x1f4;" horiz-adv-x="1572" 
d="M1468 601c0 -397 -247 -640 -655 -640c-444 0 -711 287 -711 762c0 469 268 759 701 759c352 0 614 -205 650 -510h-362c-36 127 -144 204 -288 204c-205 0 -327 -168 -327 -449c0 -286 135 -460 345 -460c167 0 283 98 292 244l1 24h-264v252h618v-186zM930 1598h-250
l168 336h342z" />
    <glyph glyph-name="Gcaron" unicode="&#x1e6;" horiz-adv-x="1572" 
d="M1468 601c0 -397 -247 -640 -655 -640c-444 0 -711 287 -711 762c0 469 268 759 701 759c352 0 614 -205 650 -510h-362c-36 127 -144 204 -288 204c-205 0 -327 -168 -327 -449c0 -286 135 -460 345 -460c167 0 283 98 292 244l1 24h-264v252h618v-186zM968 1598h-330
l-275 336h298l132 -183h20l132 183h298z" />
    <glyph glyph-name="Gcircumflex" unicode="&#x11c;" horiz-adv-x="1572" 
d="M1468 601c0 -397 -247 -640 -655 -640c-444 0 -711 287 -711 762c0 469 268 759 701 759c352 0 614 -205 650 -510h-362c-36 127 -144 204 -288 204c-205 0 -327 -168 -327 -449c0 -286 135 -460 345 -460c167 0 283 98 292 244l1 24h-264v252h618v-186zM638 1934h330
l275 -336h-298l-132 183h-20l-132 -183h-298z" />
    <glyph glyph-name="Gbreve" unicode="&#x11e;" horiz-adv-x="1572" 
d="M1468 601c0 -397 -247 -640 -655 -640c-444 0 -711 287 -711 762c0 469 268 759 701 759c352 0 614 -205 650 -510h-362c-36 127 -144 204 -288 204c-205 0 -327 -168 -327 -449c0 -286 135 -460 345 -460c167 0 283 98 292 244l1 24h-264v252h618v-186zM387 1930h236
c3 -91 71 -156 180 -156s177 65 180 156h236c0 -199 -158 -346 -416 -346s-416 147 -416 346z" />
    <glyph glyph-name="Gmacron" unicode="&#x1e20;" horiz-adv-x="1572" 
d="M1468 601c0 -397 -247 -640 -655 -640c-444 0 -711 287 -711 762c0 469 268 759 701 759c352 0 614 -205 650 -510h-362c-36 127 -144 204 -288 204c-205 0 -327 -168 -327 -449c0 -286 135 -460 345 -460c167 0 283 98 292 244l1 24h-264v252h618v-186zM1184 1856v-197
h-762v197h762z" />
    <glyph glyph-name="Gdotaccent" unicode="&#x120;" horiz-adv-x="1572" 
d="M1468 601c0 -397 -247 -640 -655 -640c-444 0 -711 287 -711 762c0 469 268 759 701 759c352 0 614 -205 650 -510h-362c-36 127 -144 204 -288 204c-205 0 -327 -168 -327 -449c0 -286 135 -460 345 -460c167 0 283 98 292 244l1 24h-264v252h618v-186zM803 1581
c-103 0 -188 82 -188 184c0 104 85 185 188 185s188 -81 188 -185c0 -102 -85 -184 -188 -184z" />
    <glyph glyph-name="Gcommaaccent" unicode="&#x122;" horiz-adv-x="1572" 
d="M1468 601c0 -397 -247 -640 -655 -640c-444 0 -711 287 -711 762c0 469 268 759 701 759c352 0 614 -205 650 -510h-362c-36 127 -144 204 -288 204c-205 0 -327 -168 -327 -449c0 -286 135 -460 345 -460c167 0 283 98 292 244l1 24h-264v252h618v-186zM799 -494h-258
l105 361h334z" />
    <glyph glyph-name="Gcommaaccent.mini" horiz-adv-x="1572" 
d="M1468 601c0 -397 -247 -640 -655 -640c-444 0 -711 287 -711 762c0 469 268 759 701 759c352 0 614 -205 650 -510h-362c-36 127 -144 204 -288 204c-205 0 -327 -168 -327 -449c0 -286 135 -460 345 -460c167 0 283 98 292 244l1 24h-264v252h618v-186zM819 -432h-300
l114 293h358z" />
    <glyph glyph-name="H" unicode="H" horiz-adv-x="1648" 
d="M1478 0h-366v582h-575v-582h-367v1443h367v-566h575v566h366v-1443z" />
    <glyph glyph-name="Hdieresis" unicode="&#x1e26;" horiz-adv-x="1648" 
d="M1478 0h-366v582h-575v-582h-367v1443h367v-566h575v566h366v-1443zM571 1589c-96 0 -174 75 -174 170c0 97 78 172 174 172c97 0 174 -75 174 -172c0 -95 -77 -170 -174 -170zM1077 1589c-96 0 -174 75 -174 170c0 97 78 172 174 172s174 -75 174 -172
c0 -95 -78 -170 -174 -170z" />
    <glyph glyph-name="Hcaron" unicode="&#x21e;" horiz-adv-x="1648" 
d="M1478 0h-366v582h-575v-582h-367v1443h367v-566h575v566h366v-1443zM989 1596h-330l-275 336h298l132 -183h20l132 183h298z" />
    <glyph glyph-name="Hcircumflex" unicode="&#x124;" horiz-adv-x="1648" 
d="M1478 0h-366v582h-575v-582h-367v1443h367v-566h575v566h366v-1443zM659 1932h330l275 -336h-298l-132 183h-20l-132 -183h-298z" />
    <glyph glyph-name="Hdotbelow" unicode="&#x1e24;" horiz-adv-x="1648" 
d="M1478 0h-366v582h-575v-582h-367v1443h367v-566h575v566h366v-1443zM824 -475c-103 0 -188 81 -188 184s85 185 188 185s188 -82 188 -185s-85 -184 -188 -184z" />
    <glyph glyph-name="Hdotaccent" unicode="&#x1e22;" horiz-adv-x="1648" 
d="M1478 0h-366v582h-575v-582h-367v1443h367v-566h575v566h366v-1443zM824 1579c-103 0 -188 82 -188 184c0 104 85 185 188 185s188 -81 188 -185c0 -102 -85 -184 -188 -184z" />
    <glyph glyph-name="Hbrevebelow" unicode="&#x1e2a;" horiz-adv-x="1648" 
d="M1478 0h-366v582h-575v-582h-367v1443h367v-566h575v566h366v-1443zM409 -109h236c3 -106 69 -172 179 -172s176 66 179 172h236c0 -214 -156 -363 -415 -363s-415 149 -415 363z" />
    <glyph glyph-name="Hcedilla" unicode="&#x1e28;" horiz-adv-x="1648" 
d="M1112 1443h366v-1443h-366v582h-575v-552v-30l-62 -96c114 -12 196 -75 196 -184c0 -141 -117 -212 -293 -212c-55 0 -111 7 -147 17v147c15 -6 61 -14 108 -14c56 0 112 13 112 53c0 37 -40 51 -120 51h-68v128l71 110h-164v1443h367v-566h575v566z" />
    <glyph glyph-name="Hbar" unicode="&#x126;" horiz-adv-x="1648" 
d="M1112 877v157h-575v-157h575zM1642 1288v-254h-164v-1034h-366v582h-575v-582h-367v1034h-164v254h164v155h367v-155h575v155h366v-155h164z" />
    <glyph glyph-name="Hcedilla.mini" horiz-adv-x="1648" 
d="M1112 1443h366v-1443h-366v582h-575v-544v-38l-63 -83c118 -8 187 -67 187 -166c0 -116 -104 -183 -283 -183c-54 0 -111 7 -142 16v130c29 -6 71 -10 112 -10c65 0 105 17 105 53c0 40 -29 53 -115 53h-72v82l72 108h-168v1443h367v-566h575v566z" />
    <glyph glyph-name="I" unicode="I" horiz-adv-x="707" 
d="M537 0h-367v1443h367v-1443z" />
    <glyph glyph-name="Idotaccent" unicode="&#x130;" horiz-adv-x="707" 
d="M537 0h-367v1443h367v-1443zM353 1579c-103 0 -188 82 -188 184c0 104 85 185 188 185s188 -81 188 -185c0 -102 -85 -184 -188 -184z" />
    <glyph glyph-name="Igrave" unicode="&#xcc;" horiz-adv-x="707" 
d="M537 0h-367v1443h367v-1443zM226 1596l-260 336h342l168 -336h-250z" />
    <glyph glyph-name="Idblgrave" unicode="&#x208;" horiz-adv-x="707" 
d="M537 0h-367v1443h367v-1443zM682 1596h-229l-156 336h286zM279 1596h-234l-230 336h310z" />
    <glyph glyph-name="Iacute" unicode="&#xcd;" horiz-adv-x="707" 
d="M537 0h-367v1443h367v-1443zM480 1596h-250l168 336h342z" />
    <glyph glyph-name="Icircumflex" unicode="&#xce;" horiz-adv-x="707" 
d="M537 0h-367v1443h367v-1443zM188 1932h330l275 -336h-298l-132 183h-20l-132 -183h-298z" />
    <glyph glyph-name="Icaron" unicode="&#x1cf;" horiz-adv-x="707" 
d="M537 0h-367v1443h367v-1443zM518 1596h-330l-275 336h298l132 -183h20l132 183h298z" />
    <glyph glyph-name="Idieresis" unicode="&#xcf;" horiz-adv-x="707" 
d="M537 0h-367v1443h367v-1443zM100 1589c-96 0 -174 75 -174 170c0 97 78 172 174 172c97 0 174 -75 174 -172c0 -95 -77 -170 -174 -170zM606 1589c-96 0 -174 75 -174 170c0 97 78 172 174 172s174 -75 174 -172c0 -95 -78 -170 -174 -170z" />
    <glyph glyph-name="Idieresisacute" unicode="&#x1e2e;" horiz-adv-x="707" 
d="M537 0h-367v1443h367v-1443zM216 1962l132 250h327l-185 -250h-274zM102 1581c-102 0 -174 68 -174 164s72 164 174 164c101 0 173 -68 173 -164s-72 -164 -173 -164zM604 1581c-101 0 -173 68 -173 164s72 164 173 164c102 0 174 -68 174 -164s-72 -164 -174 -164z" />
    <glyph glyph-name="Ibreve" unicode="&#x12c;" horiz-adv-x="707" 
d="M537 0h-367v1443h367v-1443zM-63 1928h236c3 -91 71 -156 180 -156s177 65 180 156h236c0 -199 -158 -346 -416 -346s-416 147 -416 346z" />
    <glyph glyph-name="Idotbelow" unicode="&#x1eca;" horiz-adv-x="707" 
d="M537 0h-367v1443h367v-1443zM353 -475c-103 0 -188 81 -188 184s85 185 188 185s188 -82 188 -185s-85 -184 -188 -184z" />
    <glyph glyph-name="Iinvertedbreve" unicode="&#x20a;" horiz-adv-x="707" 
d="M537 0h-367v1443h367v-1443zM769 1582h-236c-3 91 -71 156 -180 156s-177 -65 -180 -156h-236c0 199 158 346 416 346s416 -147 416 -346z" />
    <glyph glyph-name="Imacron" unicode="&#x12a;" horiz-adv-x="707" 
d="M537 0h-367v1443h367v-1443zM734 1854v-197h-762v197h762z" />
    <glyph glyph-name="Itildebelow" unicode="&#x1e2c;" horiz-adv-x="707" 
d="M537 0h-367v1443h367v-1443zM513 -460c-161 0 -207 134 -288 134c-55 0 -78 -51 -78 -126h-201c0 208 110 331 259 331c162 0 199 -141 291 -141c54 0 76 57 76 133h202c0 -204 -111 -331 -261 -331z" />
    <glyph glyph-name="Ihookabove" unicode="&#x1ec8;" horiz-adv-x="707" 
d="M537 0h-367v1443h367v-1443zM130 1843v168c36 12 95 26 168 26c151 0 263 -87 263 -221c0 -119 -76 -209 -209 -261l-103 121c63 24 106 62 106 106c0 48 -42 80 -114 80c-42 0 -86 -8 -111 -19z" />
    <glyph glyph-name="Itilde" unicode="&#x128;" horiz-adv-x="707" 
d="M537 0h-367v1443h367v-1443zM513 1577c-161 0 -207 133 -288 133c-55 0 -78 -50 -78 -126h-201c0 208 110 331 259 331c162 0 199 -140 291 -140c54 0 76 56 76 132h202c0 -204 -111 -330 -261 -330z" />
    <glyph glyph-name="Iogonek" unicode="&#x12e;" horiz-adv-x="707" 
d="M537 1443v-1443c-157 -12 -232 -97 -232 -179c0 -61 42 -107 137 -107c21 0 44 2 70 8v-179c-52 -15 -114 -23 -163 -23c-188 0 -297 106 -297 243c0 81 43 169 127 237h-9v1443h367z" />
    <glyph glyph-name="Iogonek.mini" horiz-adv-x="707" 
d="M537 1443v-1443c-157 -12 -239 -73 -239 -150c0 -46 27 -90 121 -90c21 0 44 2 70 9v-180c-52 -15 -104 -22 -153 -22c-188 0 -292 88 -292 217c0 81 38 153 133 216h-7v1443h367z" />
    <glyph glyph-name="I.mini" horiz-adv-x="707" 
d="M537 0h-367v1276h367v-1276z" />
    <glyph glyph-name="Idieresisacute.mini" horiz-adv-x="707" 
d="M537 0h-367v1276h367v-1276zM126 1380c-92 0 -155 57 -155 138s63 137 155 137c91 0 154 -56 154 -137s-63 -138 -154 -138zM580 1380c-91 0 -154 57 -154 138s63 137 154 137c92 0 155 -56 155 -137s-63 -138 -155 -138zM201 1720l141 230h319l-175 -230h-285z" />
    <glyph glyph-name="I.1" horiz-adv-x="1120" 
d="M109 0v284h268v875h-268v284h903v-284h-269v-875h269v-284h-903z" />
    <glyph glyph-name="Idotaccent.1" horiz-adv-x="1120" 
d="M109 0v284h268v875h-268v284h903v-284h-269v-875h269v-284h-903zM560 1579c-103 0 -188 82 -188 184c0 104 85 185 188 185s188 -81 188 -185c0 -102 -85 -184 -188 -184z" />
    <glyph glyph-name="Igrave.1" horiz-adv-x="1120" 
d="M109 0v284h268v875h-268v284h903v-284h-269v-875h269v-284h-903zM433 1596l-260 336h342l168 -336h-250z" />
    <glyph glyph-name="Idblgrave.1" horiz-adv-x="1120" 
d="M109 0v284h268v875h-268v284h903v-284h-269v-875h269v-284h-903zM889 1596h-229l-156 336h286zM486 1596h-234l-230 336h310z" />
    <glyph glyph-name="Iacute.1" horiz-adv-x="1120" 
d="M109 0v284h268v875h-268v284h903v-284h-269v-875h269v-284h-903zM687 1596h-250l168 336h342z" />
    <glyph glyph-name="Icircumflex.1" horiz-adv-x="1120" 
d="M109 0v284h268v875h-268v284h903v-284h-269v-875h269v-284h-903zM395 1932h330l275 -336h-298l-132 183h-20l-132 -183h-298z" />
    <glyph glyph-name="Icaron.1" horiz-adv-x="1120" 
d="M109 0v284h268v875h-268v284h903v-284h-269v-875h269v-284h-903zM725 1596h-330l-275 336h298l132 -183h20l132 183h298z" />
    <glyph glyph-name="Idieresis.1" horiz-adv-x="1120" 
d="M109 0v284h268v875h-268v284h903v-284h-269v-875h269v-284h-903zM307 1589c-96 0 -174 75 -174 170c0 97 78 172 174 172c97 0 174 -75 174 -172c0 -95 -77 -170 -174 -170zM813 1589c-96 0 -174 75 -174 170c0 97 78 172 174 172s174 -75 174 -172
c0 -95 -78 -170 -174 -170z" />
    <glyph glyph-name="Idieresisacute.1" horiz-adv-x="1120" 
d="M109 0v284h268v875h-268v284h903v-284h-269v-875h269v-284h-903zM423 1962l132 250h327l-185 -250h-274zM309 1581c-102 0 -174 68 -174 164s72 164 174 164c101 0 173 -68 173 -164s-72 -164 -173 -164zM811 1581c-101 0 -173 68 -173 164s72 164 173 164
c102 0 174 -68 174 -164s-72 -164 -174 -164z" />
    <glyph glyph-name="Ibreve.1" horiz-adv-x="1120" 
d="M109 0v284h268v875h-268v284h903v-284h-269v-875h269v-284h-903zM144 1928h236c3 -91 71 -156 180 -156s177 65 180 156h236c0 -199 -158 -346 -416 -346s-416 147 -416 346z" />
    <glyph glyph-name="Idotbelow.1" horiz-adv-x="1120" 
d="M109 0v284h268v875h-268v284h903v-284h-269v-875h269v-284h-903zM560 -475c-103 0 -188 81 -188 184s85 185 188 185s188 -82 188 -185s-85 -184 -188 -184z" />
    <glyph glyph-name="Iinvertedbreve.1" horiz-adv-x="1120" 
d="M109 0v284h268v875h-268v284h903v-284h-269v-875h269v-284h-903zM976 1582h-236c-3 91 -71 156 -180 156s-177 -65 -180 -156h-236c0 199 158 346 416 346s416 -147 416 -346z" />
    <glyph glyph-name="Imacron.1" horiz-adv-x="1120" 
d="M109 0v284h268v875h-268v284h903v-284h-269v-875h269v-284h-903zM941 1854v-197h-762v197h762z" />
    <glyph glyph-name="Itildebelow.1" horiz-adv-x="1120" 
d="M109 0v284h268v875h-268v284h903v-284h-269v-875h269v-284h-903zM720 -460c-161 0 -207 134 -288 134c-55 0 -78 -51 -78 -126h-201c0 208 110 331 259 331c162 0 199 -141 291 -141c54 0 76 57 76 133h202c0 -204 -111 -331 -261 -331z" />
    <glyph glyph-name="Ihookabove.1" horiz-adv-x="1120" 
d="M109 0v284h268v875h-268v284h903v-284h-269v-875h269v-284h-903zM337 1843v168c36 12 95 26 168 26c151 0 263 -87 263 -221c0 -119 -76 -209 -209 -261l-103 121c63 24 106 62 106 106c0 48 -42 80 -114 80c-42 0 -86 -8 -111 -19z" />
    <glyph glyph-name="Itilde.1" horiz-adv-x="1120" 
d="M109 0v284h268v875h-268v284h903v-284h-269v-875h269v-284h-903zM720 1577c-161 0 -207 133 -288 133c-55 0 -78 -50 -78 -126h-201c0 208 110 331 259 331c162 0 199 -140 291 -140c54 0 76 56 76 132h202c0 -204 -111 -330 -261 -330z" />
    <glyph glyph-name="Iogonek.1" horiz-adv-x="1120" 
d="M1012 1159h-269v-875h269v-284c-157 -12 -231 -97 -231 -179c0 -61 41 -107 136 -107c21 0 44 2 70 8v-179c-52 -15 -114 -23 -163 -23c-188 0 -296 106 -296 243c0 81 43 169 126 237h-545v284h268v875h-268v284h903v-284z" />
    <glyph glyph-name="Iogonek.mini.1" horiz-adv-x="1120" 
d="M1012 1159h-269v-875h269v-284c-157 -12 -239 -73 -239 -150c0 -46 27 -90 121 -90c21 0 44 2 70 9v-180c-52 -15 -104 -22 -153 -22c-188 0 -292 88 -292 217c0 81 38 153 133 216h-543v284h268v875h-268v284h903v-284z" />
    <glyph glyph-name="I.mini.1" horiz-adv-x="1120" 
d="M109 0v285h268v705h-268v286h903v-286h-269v-705h269v-285h-903z" />
    <glyph glyph-name="Idieresisacute.mini.1" horiz-adv-x="1120" 
d="M109 0v285h268v705h-268v286h903v-286h-269v-705h269v-285h-903zM333 1380c-92 0 -155 57 -155 138s63 137 155 137c91 0 154 -56 154 -137s-63 -138 -154 -138zM787 1380c-91 0 -154 57 -154 138s63 137 154 137c92 0 155 -56 155 -137s-63 -138 -155 -138zM408 1720
l141 230h319l-175 -230h-285z" />
    <glyph glyph-name="J" unicode="J" horiz-adv-x="1299" 
d="M70 458h352c1 -114 69 -186 174 -186c108 0 166 68 166 196v975h367v-978c0 -323 -198 -504 -527 -504c-325 0 -532 190 -532 497z" />
    <glyph glyph-name="Jacute" horiz-adv-x="1299" 
d="M70 458h352c1 -114 69 -186 174 -186c108 0 166 68 166 196v975h367v-978c0 -323 -198 -504 -527 -504c-325 0 -532 190 -532 497zM1073 1596h-250l168 336h342z" />
    <glyph glyph-name="Jcircumflex" unicode="&#x134;" horiz-adv-x="1299" 
d="M70 458h352c1 -114 69 -186 174 -186c108 0 166 68 166 196v975h367v-978c0 -323 -198 -504 -527 -504c-325 0 -532 190 -532 497zM781 1932h330l275 -336h-298l-132 183h-20l-132 -183h-298z" />
    <glyph glyph-name="K" unicode="&#x212a;" horiz-adv-x="1507" 
d="M537 0h-367v1443h367v-620h19l480 620h394l-499 -637l528 -806h-431l-364 569l-127 -161v-408z" />
    <glyph glyph-name="K" unicode="K" horiz-adv-x="1507" 
d="M537 0h-367v1443h367v-620h19l480 620h394l-499 -637l528 -806h-431l-364 569l-127 -161v-408z" />
    <glyph glyph-name="Kacute" unicode="&#x1e30;" horiz-adv-x="1507" 
d="M537 0h-367v1443h367v-620h19l480 620h394l-499 -637l528 -806h-431l-364 569l-127 -161v-408zM854 1596h-250l168 336h342z" />
    <glyph glyph-name="Kcaron" unicode="&#x1e8;" horiz-adv-x="1507" 
d="M537 0h-367v1443h367v-620h19l480 620h394l-499 -637l528 -806h-431l-364 569l-127 -161v-408zM892 1596h-330l-275 336h298l132 -183h20l132 183h298z" />
    <glyph glyph-name="Kdotbelow" unicode="&#x1e32;" horiz-adv-x="1507" 
d="M537 0h-367v1443h367v-620h19l480 620h394l-499 -637l528 -806h-431l-364 569l-127 -161v-408zM727 -475c-103 0 -188 81 -188 184s85 185 188 185s188 -82 188 -185s-85 -184 -188 -184z" />
    <glyph glyph-name="Klinebelow" unicode="&#x1e34;" horiz-adv-x="1507" 
d="M537 0h-367v1443h367v-620h19l480 620h394l-499 -637l528 -806h-431l-364 569l-127 -161v-408zM1108 -192v-198h-762v198h762z" />
    <glyph glyph-name="Kcommaaccent" unicode="&#x136;" horiz-adv-x="1507" 
d="M537 0h-367v1443h367v-620h19l480 620h394l-499 -637l528 -806h-431l-364 569l-127 -161v-408zM713 -494h-258l105 361h334z" />
    <glyph glyph-name="Kcommaaccent.mini" horiz-adv-x="1507" 
d="M537 0h-367v1443h367v-620h19l480 620h394l-499 -637l528 -806h-431l-364 569l-127 -161v-408zM733 -432h-300l114 293h358z" />
    <glyph glyph-name="L" unicode="L" horiz-adv-x="1247" 
d="M1150 303v-303h-980v1443h367v-1140h613z" />
    <glyph glyph-name="Lacute" unicode="&#x139;" horiz-adv-x="1247" 
d="M1150 303v-303h-980v1443h367v-1140h613zM480 1596h-250l168 336h342z" />
    <glyph glyph-name="Lcircumflexbelow" unicode="&#x1e3c;" horiz-adv-x="1247" 
d="M1150 303v-303h-980v1443h367v-1140h613zM822 -133l262 -359h-295l-126 202h-20l-126 -202h-295l262 359h338z" />
    <glyph glyph-name="Ldotbelow" unicode="&#x1e36;" horiz-adv-x="1247" 
d="M1150 303v-303h-980v1443h367v-1140h613zM653 -475c-103 0 -188 81 -188 184s85 185 188 185s188 -82 188 -185s-85 -184 -188 -184z" />
    <glyph glyph-name="Ldotbelowmacron" unicode="&#x1e38;" horiz-adv-x="1247" 
d="M1150 303v-303h-980v1443h367v-1140h613zM653 -475c-103 0 -188 81 -188 184s85 185 188 185s188 -82 188 -185s-85 -184 -188 -184zM734 1854v-197h-762v197h762z" />
    <glyph glyph-name="Llinebelow" unicode="&#x1e3a;" horiz-adv-x="1247" 
d="M1150 303v-303h-980v1443h367v-1140h613zM1034 -192v-198h-762v198h762z" />
    <glyph glyph-name="Lcommaaccent" unicode="&#x13b;" horiz-adv-x="1247" 
d="M1150 303v-303h-980v1443h367v-1140h613zM639 -494h-258l105 361h334z" />
    <glyph glyph-name="Lcaron" unicode="&#x13d;" horiz-adv-x="1247" 
d="M1150 303v-303h-980v1443h367v-1140h613zM748 1619h272l-67 -549h-205v549z" />
    <glyph glyph-name="Lslash" unicode="&#x141;" horiz-adv-x="1247" 
d="M537 303h613v-303h-980v634l-144 -76v229l144 76v580h367v-386l208 110v-229l-208 -110v-525z" />
    <glyph glyph-name="Lcommaaccent.mini" horiz-adv-x="1247" 
d="M1150 303v-303h-980v1443h367v-1140h613zM659 -432h-300l114 293h358z" />
    <glyph glyph-name="M" unicode="M" horiz-adv-x="1924" 
d="M1754 0h-339v911h-18l-321 -803h-227l-322 803h-18v-911h-339v1443h433l350 -885h19l349 885h433v-1443z" />
    <glyph glyph-name="Macute" unicode="&#x1e3e;" horiz-adv-x="1924" 
d="M1754 0h-339v911h-18l-321 -803h-227l-322 803h-18v-911h-339v1443h433l350 -885h19l349 885h433v-1443zM1089 1596h-250l168 336h342z" />
    <glyph glyph-name="Mdotaccent" unicode="&#x1e40;" horiz-adv-x="1924" 
d="M1754 0h-339v911h-18l-321 -803h-227l-322 803h-18v-911h-339v1443h433l350 -885h19l349 885h433v-1443zM962 1579c-103 0 -188 82 -188 184c0 104 85 185 188 185s188 -81 188 -185c0 -102 -85 -184 -188 -184z" />
    <glyph glyph-name="Mdotbelow" unicode="&#x1e42;" horiz-adv-x="1924" 
d="M1754 0h-339v911h-18l-321 -803h-227l-322 803h-18v-911h-339v1443h433l350 -885h19l349 885h433v-1443zM962 -475c-103 0 -188 81 -188 184s85 185 188 185s188 -82 188 -185s-85 -184 -188 -184z" />
    <glyph glyph-name="N" unicode="N" horiz-adv-x="1601" 
d="M518 0h-348v1443h293l601 -812h19v812h348v-1443h-291l-603 820h-19v-820z" />
    <glyph glyph-name="Ngrave" unicode="&#x1f8;" horiz-adv-x="1601" 
d="M518 0h-348v1443h293l601 -812h19v812h348v-1443h-291l-603 820h-19v-820zM667 1596l-260 336h342l168 -336h-250z" />
    <glyph glyph-name="Nacute" unicode="&#x143;" horiz-adv-x="1601" 
d="M518 0h-348v1443h293l601 -812h19v812h348v-1443h-291l-603 820h-19v-820zM921 1596h-250l168 336h342z" />
    <glyph glyph-name="Ntilde" unicode="&#xd1;" horiz-adv-x="1601" 
d="M518 0h-348v1443h293l601 -812h19v812h348v-1443h-291l-603 820h-19v-820zM954 1577c-161 0 -207 133 -288 133c-55 0 -78 -50 -78 -126h-201c0 208 110 331 259 331c162 0 199 -140 291 -140c54 0 76 56 76 132h202c0 -204 -111 -330 -261 -330z" />
    <glyph glyph-name="Ndotbelow" unicode="&#x1e46;" horiz-adv-x="1601" 
d="M518 0h-348v1443h293l601 -812h19v812h348v-1443h-291l-603 820h-19v-820zM794 -475c-103 0 -188 81 -188 184s85 185 188 185s188 -82 188 -185s-85 -184 -188 -184z" />
    <glyph glyph-name="Ndotaccent" unicode="&#x1e44;" horiz-adv-x="1601" 
d="M518 0h-348v1443h293l601 -812h19v812h348v-1443h-291l-603 820h-19v-820zM794 1579c-103 0 -188 82 -188 184c0 104 85 185 188 185s188 -81 188 -185c0 -102 -85 -184 -188 -184z" />
    <glyph glyph-name="Ncaron" unicode="&#x147;" horiz-adv-x="1601" 
d="M518 0h-348v1443h293l601 -812h19v812h348v-1443h-291l-603 820h-19v-820zM959 1596h-330l-275 336h298l132 -183h20l132 183h298z" />
    <glyph glyph-name="Ncircumflexbelow" unicode="&#x1e4a;" horiz-adv-x="1601" 
d="M518 0h-348v1443h293l601 -812h19v812h348v-1443h-291l-603 820h-19v-820zM963 -133l262 -359h-295l-126 202h-20l-126 -202h-295l262 359h338z" />
    <glyph glyph-name="Nlinebelow" unicode="&#x1e48;" horiz-adv-x="1601" 
d="M518 0h-348v1443h293l601 -812h19v812h348v-1443h-291l-603 820h-19v-820zM1175 -192v-198h-762v198h762z" />
    <glyph glyph-name="Ncommaaccent" unicode="&#x145;" horiz-adv-x="1601" 
d="M518 0h-348v1443h293l601 -812h19v812h348v-1443h-291l-603 820h-19v-820zM780 -494h-258l105 361h334z" />
    <glyph glyph-name="Ncommaaccent.mini" horiz-adv-x="1601" 
d="M518 0h-348v1443h293l601 -812h19v812h348v-1443h-291l-603 820h-19v-820zM800 -432h-300l114 293h358z" />
    <glyph glyph-name="O" unicode="O" horiz-adv-x="1627" 
d="M814 1482c433 0 711 -291 711 -760c0 -470 -277 -761 -711 -761c-436 0 -712 291 -712 761c0 469 278 760 712 760zM814 1178c-203 0 -338 -178 -338 -456c0 -279 133 -457 338 -457c202 0 337 178 337 457c0 278 -135 456 -337 456z" />
    <glyph glyph-name="Odieresis" unicode="&#xd6;" horiz-adv-x="1627" 
d="M814 1482c433 0 711 -291 711 -760c0 -470 -277 -761 -711 -761c-436 0 -712 291 -712 761c0 469 278 760 712 760zM814 1178c-203 0 -338 -178 -338 -456c0 -279 133 -457 338 -457c202 0 337 178 337 457c0 278 -135 456 -337 456zM561 1589c-96 0 -174 75 -174 170
c0 97 78 172 174 172c97 0 174 -75 174 -172c0 -95 -77 -170 -174 -170zM1067 1589c-96 0 -174 75 -174 170c0 97 78 172 174 172s174 -75 174 -172c0 -95 -78 -170 -174 -170z" />
    <glyph glyph-name="Oslash" unicode="&#xd8;" horiz-adv-x="1627" 
d="M1137 939l-540 -607c57 -53 131 -82 217 -82c215 0 355 185 355 473c0 81 -11 154 -32 216zM488 510l538 605c-57 51 -129 79 -212 79c-216 0 -356 -184 -356 -471c0 -79 11 -151 30 -213zM1496 1343l-113 -127c92 -126 142 -293 142 -493c0 -470 -276 -761 -711 -761
c-172 0 -318 45 -433 128l-109 -123l-148 134l116 131c-89 126 -138 293 -138 491c0 468 278 759 712 759c168 0 313 -44 427 -125l107 120z" />
    <glyph glyph-name="Otilde" unicode="&#xd5;" horiz-adv-x="1627" 
d="M814 1482c433 0 711 -291 711 -760c0 -470 -277 -761 -711 -761c-436 0 -712 291 -712 761c0 469 278 760 712 760zM814 1178c-203 0 -338 -178 -338 -456c0 -279 133 -457 338 -457c202 0 337 178 337 457c0 278 -135 456 -337 456zM974 1577c-161 0 -207 133 -288 133
c-55 0 -78 -50 -78 -126h-201c0 208 110 331 259 331c162 0 199 -140 291 -140c54 0 76 56 76 132h202c0 -204 -111 -330 -261 -330z" />
    <glyph glyph-name="Oacute" unicode="&#xd3;" horiz-adv-x="1627" 
d="M814 1482c433 0 711 -291 711 -760c0 -470 -277 -761 -711 -761c-436 0 -712 291 -712 761c0 469 278 760 712 760zM814 1178c-203 0 -338 -178 -338 -456c0 -279 133 -457 338 -457c202 0 337 178 337 457c0 278 -135 456 -337 456zM941 1596h-250l168 336h342z" />
    <glyph glyph-name="Ocircumflex" unicode="&#xd4;" horiz-adv-x="1627" 
d="M814 1482c433 0 711 -291 711 -760c0 -470 -277 -761 -711 -761c-436 0 -712 291 -712 761c0 469 278 760 712 760zM814 1178c-203 0 -338 -178 -338 -456c0 -279 133 -457 338 -457c202 0 337 178 337 457c0 278 -135 456 -337 456zM649 1932h330l275 -336h-298
l-132 183h-20l-132 -183h-298z" />
    <glyph glyph-name="Ograve" unicode="&#xd2;" horiz-adv-x="1627" 
d="M814 1482c433 0 711 -291 711 -760c0 -470 -277 -761 -711 -761c-436 0 -712 291 -712 761c0 469 278 760 712 760zM814 1178c-203 0 -338 -178 -338 -456c0 -279 133 -457 338 -457c202 0 337 178 337 457c0 278 -135 456 -337 456zM687 1596l-260 336h342l168 -336
h-250z" />
    <glyph glyph-name="Ocircumflexhookabove" unicode="&#x1ed4;" horiz-adv-x="1627" 
d="M814 1482c433 0 711 -291 711 -760c0 -470 -277 -761 -711 -761c-436 0 -712 291 -712 761c0 469 278 760 712 760zM814 1178c-203 0 -338 -178 -338 -456c0 -279 133 -457 338 -457c202 0 337 178 337 457c0 278 -135 456 -337 456zM644 1864h340l269 -283h-298
l-130 146h-22l-130 -146h-298zM976 2048v165c32 12 84 20 138 20c160 0 261 -83 261 -213c0 -116 -63 -202 -188 -252l-109 115c65 26 92 64 92 104c0 47 -39 76 -102 76c-35 0 -69 -6 -92 -15z" />
    <glyph glyph-name="Ocircumflexgrave" unicode="&#x1ed2;" horiz-adv-x="1627" 
d="M814 1482c433 0 711 -291 711 -760c0 -470 -277 -761 -711 -761c-436 0 -712 291 -712 761c0 469 278 760 712 760zM814 1178c-203 0 -338 -178 -338 -456c0 -279 133 -457 338 -457c202 0 337 178 337 457c0 278 -135 456 -337 456zM644 1864h340l269 -283h-298
l-130 146h-22l-130 -146h-298zM1390 1897h-271l-194 315h302z" />
    <glyph glyph-name="Odotbelow" unicode="&#x1ecc;" horiz-adv-x="1627" 
d="M814 1482c433 0 711 -291 711 -760c0 -470 -277 -761 -711 -761c-436 0 -712 291 -712 761c0 469 278 760 712 760zM814 1178c-203 0 -338 -178 -338 -456c0 -279 133 -457 338 -457c202 0 337 178 337 457c0 278 -135 456 -337 456zM814 -475c-103 0 -188 81 -188 184
s85 185 188 185s188 -82 188 -185s-85 -184 -188 -184z" />
    <glyph glyph-name="Odblgrave" unicode="&#x20c;" horiz-adv-x="1627" 
d="M814 1482c433 0 711 -291 711 -760c0 -470 -277 -761 -711 -761c-436 0 -712 291 -712 761c0 469 278 760 712 760zM814 1178c-203 0 -338 -178 -338 -456c0 -279 133 -457 338 -457c202 0 337 178 337 457c0 278 -135 456 -337 456zM1143 1596h-229l-156 336h286z
M740 1596h-234l-230 336h310z" />
    <glyph glyph-name="Otildeacute" unicode="&#x1e4c;" horiz-adv-x="1627" 
d="M814 1482c433 0 711 -291 711 -760c0 -470 -277 -761 -711 -761c-436 0 -712 291 -712 761c0 469 278 760 712 760zM814 1178c-203 0 -338 -178 -338 -456c0 -279 133 -457 338 -457c202 0 337 178 337 457c0 278 -135 456 -337 456zM975 1581c-156 0 -198 117 -289 117
c-47 0 -79 -33 -82 -109h-209c0 196 111 301 258 301c156 0 198 -117 289 -117c45 0 79 28 82 105h209c0 -192 -111 -297 -258 -297zM681 1962l127 250h319l-158 -250h-288z" />
    <glyph glyph-name="Omacronacute" unicode="&#x1e52;" horiz-adv-x="1627" 
d="M814 1482c433 0 711 -291 711 -760c0 -470 -277 -761 -711 -761c-436 0 -712 291 -712 761c0 469 278 760 712 760zM814 1178c-203 0 -338 -178 -338 -456c0 -279 133 -457 338 -457c202 0 337 178 337 457c0 278 -135 456 -337 456zM1205 1607h-782v196h782v-196z
M684 1932l126 280h320l-158 -280h-288z" />
    <glyph glyph-name="Ocircumflextilde" unicode="&#x1ed6;" horiz-adv-x="1627" 
d="M814 1482c433 0 711 -291 711 -760c0 -470 -277 -761 -711 -761c-436 0 -712 291 -712 761c0 469 278 760 712 760zM814 1178c-203 0 -338 -178 -338 -456c0 -279 133 -457 338 -457c202 0 337 178 337 457c0 278 -135 456 -337 456zM968 1915c-156 0 -191 121 -282 121
c-47 0 -79 -36 -82 -105h-193c0 189 103 293 249 293c156 0 191 -121 282 -121c45 0 79 32 82 109h193c0 -192 -103 -297 -249 -297zM644 1856h340l269 -275h-298l-130 146h-22l-130 -146h-298z" />
    <glyph glyph-name="Odotaccentmacron" unicode="&#x230;" horiz-adv-x="1627" 
d="M814 1482c433 0 711 -291 711 -760c0 -470 -277 -761 -711 -761c-436 0 -712 291 -712 761c0 469 278 760 712 760zM814 1178c-203 0 -338 -178 -338 -456c0 -279 133 -457 338 -457c202 0 337 178 337 457c0 278 -135 456 -337 456zM814 1575c-104 0 -176 68 -176 161
c0 92 72 160 176 160s176 -68 176 -160c0 -93 -72 -161 -176 -161zM1205 2204v-183h-782v183h782z" />
    <glyph glyph-name="Omacrongrave" unicode="&#x1e50;" horiz-adv-x="1627" 
d="M814 1482c433 0 711 -291 711 -760c0 -470 -277 -761 -711 -761c-436 0 -712 291 -712 761c0 469 278 760 712 760zM814 1178c-203 0 -338 -178 -338 -456c0 -279 133 -457 338 -457c202 0 337 178 337 457c0 278 -135 456 -337 456zM423 1607v196h782v-196h-782z
M944 1932h-288l-158 280h320z" />
    <glyph glyph-name="Ocaron" unicode="&#x1d1;" horiz-adv-x="1627" 
d="M814 1482c433 0 711 -291 711 -760c0 -470 -277 -761 -711 -761c-436 0 -712 291 -712 761c0 469 278 760 712 760zM814 1178c-203 0 -338 -178 -338 -456c0 -279 133 -457 338 -457c202 0 337 178 337 457c0 278 -135 456 -337 456zM979 1596h-330l-275 336h298
l132 -183h20l132 183h298z" />
    <glyph glyph-name="Oslashacute" unicode="&#x1fe;" horiz-adv-x="1627" 
d="M1201 1932l-260 -336h-250l168 336h342zM1137 939l-540 -607c57 -53 131 -82 217 -82c215 0 355 185 355 473c0 81 -11 154 -32 216zM488 510l538 605c-57 51 -129 79 -212 79c-216 0 -356 -184 -356 -471c0 -79 11 -151 30 -213zM1496 1343l-113 -127
c92 -126 142 -293 142 -493c0 -470 -276 -761 -711 -761c-172 0 -318 45 -433 128l-109 -123l-148 134l116 131c-89 126 -138 293 -138 491c0 468 278 759 712 759c168 0 313 -44 427 -125l107 120z" />
    <glyph glyph-name="Ohungarumlaut" unicode="&#x150;" horiz-adv-x="1627" 
d="M814 1482c433 0 711 -291 711 -760c0 -470 -277 -761 -711 -761c-436 0 -712 291 -712 761c0 469 278 760 712 760zM814 1178c-203 0 -338 -178 -338 -456c0 -279 133 -457 338 -457c202 0 337 178 337 457c0 278 -135 456 -337 456zM485 1596l99 336h286l-156 -336h-229
zM888 1596l154 336h310l-230 -336h-234z" />
    <glyph glyph-name="Obreve" unicode="&#x14e;" horiz-adv-x="1627" 
d="M814 1482c433 0 711 -291 711 -760c0 -470 -277 -761 -711 -761c-436 0 -712 291 -712 761c0 469 278 760 712 760zM814 1178c-203 0 -338 -178 -338 -456c0 -279 133 -457 338 -457c202 0 337 178 337 457c0 278 -135 456 -337 456zM398 1928h236
c3 -91 71 -156 180 -156s177 65 180 156h236c0 -199 -158 -346 -416 -346s-416 147 -416 346z" />
    <glyph glyph-name="Oinvertedbreve" unicode="&#x20e;" horiz-adv-x="1627" 
d="M814 1482c433 0 711 -291 711 -760c0 -470 -277 -761 -711 -761c-436 0 -712 291 -712 761c0 469 278 760 712 760zM814 1178c-203 0 -338 -178 -338 -456c0 -279 133 -457 338 -457c202 0 337 178 337 457c0 278 -135 456 -337 456zM1230 1582h-236
c-3 91 -71 156 -180 156s-177 -65 -180 -156h-236c0 199 158 346 416 346s416 -147 416 -346z" />
    <glyph glyph-name="Ohookabove" unicode="&#x1ece;" horiz-adv-x="1627" 
d="M814 1482c433 0 711 -291 711 -760c0 -470 -277 -761 -711 -761c-436 0 -712 291 -712 761c0 469 278 760 712 760zM814 1178c-203 0 -338 -178 -338 -456c0 -279 133 -457 338 -457c202 0 337 178 337 457c0 278 -135 456 -337 456zM591 1843v168c36 12 95 26 168 26
c151 0 263 -87 263 -221c0 -119 -76 -209 -209 -261l-103 121c63 24 106 62 106 106c0 48 -42 80 -114 80c-42 0 -86 -8 -111 -19z" />
    <glyph glyph-name="Odieresismacron" unicode="&#x22a;" horiz-adv-x="1627" 
d="M814 1482c433 0 711 -291 711 -760c0 -470 -277 -761 -711 -761c-436 0 -712 291 -712 761c0 469 278 760 712 760zM814 1178c-203 0 -338 -178 -338 -456c0 -279 133 -457 338 -457c202 0 337 178 337 457c0 278 -135 456 -337 456zM563 1907c101 0 172 -67 172 -163
s-71 -163 -172 -163c-102 0 -173 67 -173 163s71 163 173 163zM423 2204h782v-183h-782v183zM1065 1907c102 0 173 -67 173 -163s-71 -163 -173 -163c-101 0 -172 67 -172 163s71 163 172 163z" />
    <glyph glyph-name="Otildemacron" unicode="&#x22c;" horiz-adv-x="1627" 
d="M814 1482c433 0 711 -291 711 -760c0 -470 -277 -761 -711 -761c-436 0 -712 291 -712 761c0 469 278 760 712 760zM814 1178c-203 0 -338 -178 -338 -456c0 -279 133 -457 338 -457c202 0 337 178 337 457c0 278 -135 456 -337 456zM975 1581c-156 0 -198 117 -289 117
c-47 0 -79 -33 -82 -109h-209c0 196 111 301 258 301c156 0 198 -117 289 -117c45 0 79 28 82 105h209c0 -192 -111 -297 -258 -297zM1205 2204v-196h-782v196h782z" />
    <glyph glyph-name="Odotaccent" unicode="&#x22e;" horiz-adv-x="1627" 
d="M814 1482c433 0 711 -291 711 -760c0 -470 -277 -761 -711 -761c-436 0 -712 291 -712 761c0 469 278 760 712 760zM814 1178c-203 0 -338 -178 -338 -456c0 -279 133 -457 338 -457c202 0 337 178 337 457c0 278 -135 456 -337 456zM814 1579c-103 0 -188 82 -188 184
c0 104 85 185 188 185s188 -81 188 -185c0 -102 -85 -184 -188 -184z" />
    <glyph glyph-name="Ocircumflexdotbelow" unicode="&#x1ed8;" horiz-adv-x="1627" 
d="M814 1482c433 0 711 -291 711 -760c0 -470 -277 -761 -711 -761c-436 0 -712 291 -712 761c0 469 278 760 712 760zM814 1178c-203 0 -338 -178 -338 -456c0 -279 133 -457 338 -457c202 0 337 178 337 457c0 278 -135 456 -337 456zM649 1932h330l275 -336h-298
l-132 183h-20l-132 -183h-298zM814 -475c-103 0 -188 81 -188 184s85 185 188 185s188 -82 188 -185s-85 -184 -188 -184z" />
    <glyph glyph-name="Ocircumflexacute" unicode="&#x1ed0;" horiz-adv-x="1627" 
d="M814 1482c433 0 711 -291 711 -760c0 -470 -277 -761 -711 -761c-436 0 -712 291 -712 761c0 469 278 760 712 760zM814 1178c-203 0 -338 -178 -338 -456c0 -279 133 -457 338 -457c202 0 337 178 337 457c0 278 -135 456 -337 456zM644 1864h340l269 -283h-298
l-130 146h-22l-130 -146h-298zM1072 1897l162 315h303l-194 -315h-271z" />
    <glyph glyph-name="Otildedieresis" unicode="&#x1e4e;" horiz-adv-x="1627" 
d="M814 1482c433 0 711 -291 711 -760c0 -470 -277 -761 -711 -761c-436 0 -712 291 -712 761c0 469 278 760 712 760zM814 1178c-203 0 -338 -178 -338 -456c0 -279 133 -457 338 -457c202 0 337 178 337 457c0 278 -135 456 -337 456zM975 1579c-156 0 -198 117 -289 117
c-47 0 -79 -33 -82 -109h-209c0 196 111 301 258 301c156 0 198 -117 289 -117c45 0 79 28 82 105h209c0 -192 -111 -297 -258 -297zM586 2220c89 0 149 -52 149 -129s-60 -130 -149 -130s-148 53 -148 130s59 129 148 129zM1042 2220c89 0 148 -52 148 -129
s-59 -130 -148 -130s-149 53 -149 130s60 129 149 129z" />
    <glyph glyph-name="Omacron" unicode="&#x14c;" horiz-adv-x="1627" 
d="M814 1482c433 0 711 -291 711 -760c0 -470 -277 -761 -711 -761c-436 0 -712 291 -712 761c0 469 278 760 712 760zM814 1178c-203 0 -338 -178 -338 -456c0 -279 133 -457 338 -457c202 0 337 178 337 457c0 278 -135 456 -337 456zM1195 1854v-197h-762v197h762z" />
    <glyph glyph-name="Oogonek" unicode="&#x1ea;" horiz-adv-x="1627" 
d="M476 722c0 -279 133 -457 338 -457c202 0 337 178 337 457c0 278 -135 456 -337 456c-203 0 -338 -178 -338 -456zM1224 -278v-179c-51 -15 -103 -23 -152 -23c-189 0 -294 89 -294 217c0 83 44 164 124 228c-29 -3 -58 -4 -88 -4c-436 0 -712 291 -712 761
c0 469 278 760 712 760c433 0 711 -291 711 -760c0 -291 -106 -513 -290 -640c-116 -95 -203 -173 -203 -265c0 -59 48 -104 121 -104c20 0 44 3 71 9z" />
    <glyph glyph-name="Oogonekmacron" unicode="&#x1ec;" horiz-adv-x="1627" 
d="M1195 1854v-197h-762v197h762zM476 722c0 -279 133 -457 338 -457c202 0 337 178 337 457c0 278 -135 456 -337 456c-203 0 -338 -178 -338 -456zM1224 -278v-179c-51 -15 -103 -23 -152 -23c-189 0 -294 89 -294 217c0 83 44 164 124 228c-29 -3 -58 -4 -88 -4
c-436 0 -712 291 -712 761c0 469 278 760 712 760c433 0 711 -291 711 -760c0 -291 -106 -513 -290 -640c-116 -95 -203 -173 -203 -265c0 -59 48 -104 121 -104c20 0 44 3 71 9z" />
    <glyph glyph-name="Ohorn" unicode="&#x1a0;" horiz-adv-x="1698" 
d="M814 -39c-436 0 -712 291 -712 761c0 469 279 760 712 760c186 0 274 -56 440 -56c74 0 108 32 108 88v174h269v-251c0 -143 -77 -224 -220 -224h-62v-18c102 -82 175 -270 175 -473c0 -470 -276 -761 -710 -761zM814 265c203 0 337 178 337 457c0 278 -135 456 -337 456
c-203 0 -338 -178 -338 -456c0 -279 133 -457 338 -457z" />
    <glyph glyph-name="Ohorndotbelow" unicode="&#x1ee2;" horiz-adv-x="1698" 
d="M814 -39c-436 0 -712 291 -712 761c0 469 279 760 712 760c186 0 274 -56 440 -56c74 0 108 32 108 88v174h269v-251c0 -143 -77 -224 -220 -224h-62v-18c102 -82 175 -270 175 -473c0 -470 -276 -761 -710 -761zM814 265c203 0 337 178 337 457c0 278 -135 456 -337 456
c-203 0 -338 -178 -338 -456c0 -279 133 -457 338 -457zM814 -475c-103 0 -188 81 -188 184s85 185 188 185s188 -82 188 -185s-85 -184 -188 -184z" />
    <glyph glyph-name="Ohornhookabove" unicode="&#x1ede;" horiz-adv-x="1698" 
d="M814 -39c-436 0 -712 291 -712 761c0 469 279 760 712 760c186 0 274 -56 440 -56c74 0 108 32 108 88v174h269v-251c0 -143 -77 -224 -220 -224h-62v-18c102 -82 175 -270 175 -473c0 -470 -276 -761 -710 -761zM814 265c203 0 337 178 337 457c0 278 -135 456 -337 456
c-203 0 -338 -178 -338 -456c0 -279 133 -457 338 -457zM582 1843v168c36 12 95 26 168 26c151 0 263 -87 263 -221c0 -119 -76 -209 -209 -261l-103 121c63 24 106 62 106 106c0 48 -42 80 -114 80c-42 0 -86 -8 -111 -19z" />
    <glyph glyph-name="Ohorntilde" unicode="&#x1ee0;" horiz-adv-x="1698" 
d="M814 -39c-436 0 -712 291 -712 761c0 469 279 760 712 760c186 0 274 -56 440 -56c74 0 108 32 108 88v174h269v-251c0 -143 -77 -224 -220 -224h-62v-18c102 -82 175 -270 175 -473c0 -470 -276 -761 -710 -761zM814 265c203 0 337 178 337 457c0 278 -135 456 -337 456
c-203 0 -338 -178 -338 -456c0 -279 133 -457 338 -457zM965 1577c-161 0 -207 133 -288 133c-55 0 -78 -50 -78 -126h-201c0 208 110 331 259 331c162 0 199 -140 291 -140c54 0 76 56 76 132h202c0 -204 -111 -330 -261 -330z" />
    <glyph glyph-name="Ohorngrave" unicode="&#x1edc;" horiz-adv-x="1698" 
d="M814 -39c-436 0 -712 291 -712 761c0 469 279 760 712 760c186 0 274 -56 440 -56c74 0 108 32 108 88v174h269v-251c0 -143 -77 -224 -220 -224h-62v-18c102 -82 175 -270 175 -473c0 -470 -276 -761 -710 -761zM814 265c203 0 337 178 337 457c0 278 -135 456 -337 456
c-203 0 -338 -178 -338 -456c0 -279 133 -457 338 -457zM678 1596l-260 336h342l168 -336h-250z" />
    <glyph glyph-name="Ohornacute" unicode="&#x1eda;" horiz-adv-x="1698" 
d="M814 -39c-436 0 -712 291 -712 761c0 469 279 760 712 760c186 0 274 -56 440 -56c74 0 108 32 108 88v174h269v-251c0 -143 -77 -224 -220 -224h-62v-18c102 -82 175 -270 175 -473c0 -470 -276 -761 -710 -761zM814 265c203 0 337 178 337 457c0 278 -135 456 -337 456
c-203 0 -338 -178 -338 -456c0 -279 133 -457 338 -457zM932 1596h-250l168 336h342z" />
    <glyph glyph-name="Oogonek.mini" horiz-adv-x="1627" 
d="M476 722c0 -279 133 -457 338 -457c202 0 337 178 337 457c0 278 -135 456 -337 456c-203 0 -338 -178 -338 -456zM1234 -224v-179c-52 -15 -104 -23 -152 -23c-189 0 -294 73 -294 202c0 73 35 136 98 188c-24 -2 -48 -3 -72 -3c-436 0 -712 291 -712 761
c0 469 278 760 712 760c433 0 711 -291 711 -760c0 -299 -112 -526 -306 -651c-117 -88 -177 -140 -177 -212c0 -62 51 -94 119 -94c26 0 53 4 73 11z" />
    <glyph glyph-name="Ocircumflexacute.mini" horiz-adv-x="1626" 
d="M814 1314c416 0 710 -256 710 -675c0 -421 -294 -678 -710 -678c-418 0 -712 257 -712 678c0 419 296 675 712 675zM814 1011c-193 0 -338 -142 -338 -372c0 -232 143 -374 338 -374c193 0 337 142 337 374c0 230 -144 372 -337 372zM991 1685l279 -275h-315l-130 139
h-22l-130 -139h-315l279 275h354zM1074 1730l143 250h319l-174 -250h-288z" />
    <glyph glyph-name="O.mini" horiz-adv-x="1626" 
d="M814 1314c416 0 710 -256 710 -675c0 -421 -294 -678 -710 -678c-418 0 -712 257 -712 678c0 419 296 675 712 675zM814 1011c-193 0 -338 -142 -338 -372c0 -232 143 -374 338 -374c193 0 337 142 337 374c0 230 -144 372 -337 372z" />
    <glyph glyph-name="Ocircumflexgrave.mini" horiz-adv-x="1626" 
d="M814 1314c416 0 710 -256 710 -675c0 -421 -294 -678 -710 -678c-418 0 -712 257 -712 678c0 419 296 675 712 675zM814 1011c-193 0 -338 -142 -338 -372c0 -232 143 -374 338 -374c193 0 337 142 337 374c0 230 -144 372 -337 372zM991 1685l279 -275h-315l-130 139
h-22l-130 -139h-315l279 275h354zM1363 1730h-287l-174 250h319z" />
    <glyph glyph-name="Otildemacron.mini" horiz-adv-x="1626" 
d="M814 1314c416 0 710 -256 710 -675c0 -421 -294 -678 -710 -678c-418 0 -712 257 -712 678c0 419 296 675 712 675zM814 1011c-193 0 -338 -142 -338 -372c0 -232 143 -374 338 -374c193 0 337 142 337 374c0 230 -144 372 -337 372zM1205 1787h-782v189h782v-189z
M972 1411c-154 0 -211 110 -290 110c-51 0 -75 -36 -76 -90h-205c0 158 95 269 255 269c154 0 211 -110 290 -110c49 0 75 28 76 90h205c0 -156 -95 -269 -255 -269z" />
    <glyph glyph-name="Omacronacute.mini" horiz-adv-x="1626" 
d="M814 1314c416 0 710 -256 710 -675c0 -421 -294 -678 -710 -678c-418 0 -712 257 -712 678c0 419 296 675 712 675zM814 1011c-193 0 -338 -142 -338 -372c0 -232 143 -374 338 -374c193 0 337 142 337 374c0 230 -144 372 -337 372zM1205 1436h-782v188h782v-188z
M661 1734l142 246h319l-174 -246h-287z" />
    <glyph glyph-name="Omacrongrave.mini" horiz-adv-x="1626" 
d="M814 1314c416 0 710 -256 710 -675c0 -421 -294 -678 -710 -678c-418 0 -712 257 -712 678c0 419 296 675 712 675zM814 1011c-193 0 -338 -142 -338 -372c0 -232 143 -374 338 -374c193 0 337 142 337 374c0 230 -144 372 -337 372zM1205 1436h-782v188h782v-188z
M967 1734h-287l-174 246h319z" />
    <glyph glyph-name="Otildedieresis.mini" horiz-adv-x="1626" 
d="M814 1314c416 0 710 -256 710 -675c0 -421 -294 -678 -710 -678c-418 0 -712 257 -712 678c0 419 296 675 712 675zM814 1011c-193 0 -338 -142 -338 -372c0 -232 143 -374 338 -374c193 0 337 142 337 374c0 230 -144 372 -337 372zM974 1408c-155 0 -213 101 -292 101
c-51 0 -75 -34 -76 -85h-205c0 157 93 259 252 259c155 0 214 -100 293 -100c52 0 75 25 76 84h205c0 -156 -94 -259 -253 -259zM601 1732c-86 0 -143 50 -143 124c0 75 57 124 143 124s143 -49 143 -124c0 -74 -57 -124 -143 -124zM1027 1732c-86 0 -143 50 -143 124
c0 75 57 124 143 124s143 -49 143 -124c0 -74 -57 -124 -143 -124z" />
    <glyph glyph-name="Otildeacute.mini" horiz-adv-x="1626" 
d="M814 1314c416 0 710 -256 710 -675c0 -421 -294 -678 -710 -678c-418 0 -712 257 -712 678c0 419 296 675 712 675zM814 1011c-193 0 -338 -142 -338 -372c0 -232 143 -374 338 -374c193 0 337 142 337 374c0 230 -144 372 -337 372zM664 1760l144 220h318l-176 -220
h-286zM972 1411c-154 0 -211 110 -290 110c-51 0 -75 -36 -76 -90h-205c0 158 95 269 255 269c154 0 211 -110 290 -110c49 0 75 28 76 90h205c0 -156 -95 -269 -255 -269z" />
    <glyph glyph-name="Odieresismacron.mini" horiz-adv-x="1626" 
d="M814 1314c416 0 710 -256 710 -675c0 -421 -294 -678 -710 -678c-418 0 -712 257 -712 678c0 419 296 675 712 675zM814 1011c-193 0 -338 -142 -338 -372c0 -232 143 -374 338 -374c193 0 337 142 337 374c0 230 -144 372 -337 372zM423 1780v196h782v-196h-782z
M587 1410c-91 0 -154 56 -154 137s63 136 154 136s153 -55 153 -136s-62 -137 -153 -137zM1041 1410c-91 0 -153 56 -153 137s62 136 153 136s154 -55 154 -136s-63 -137 -154 -137z" />
    <glyph glyph-name="Odotaccentmacron.mini" horiz-adv-x="1626" 
d="M814 1314c416 0 710 -256 710 -675c0 -421 -294 -678 -710 -678c-418 0 -712 257 -712 678c0 419 296 675 712 675zM814 1011c-193 0 -338 -142 -338 -372c0 -232 143 -374 338 -374c193 0 337 142 337 374c0 230 -144 372 -337 372zM814 1405c-99 0 -166 61 -166 149
c0 89 67 149 166 149s166 -60 166 -149c0 -88 -67 -149 -166 -149zM1205 1787h-782v189h782v-189z" />
    <glyph glyph-name="Ocircumflexhookabove.mini" horiz-adv-x="1626" 
d="M814 1314c416 0 710 -256 710 -675c0 -421 -294 -678 -710 -678c-418 0 -712 257 -712 678c0 419 296 675 712 675zM814 1011c-193 0 -338 -142 -338 -372c0 -232 143 -374 338 -374c193 0 337 142 337 374c0 230 -144 372 -337 372zM991 1685l279 -275h-315l-130 139
h-22l-130 -139h-315l279 275h354zM999 1816v143c33 12 95 21 148 21c158 0 263 -80 263 -212c0 -109 -78 -198 -169 -229l-109 113c45 19 74 56 74 94c0 50 -37 84 -104 84c-35 0 -80 -5 -103 -14z" />
    <glyph glyph-name="Ocircumflextilde.mini" horiz-adv-x="1626" 
d="M814 1314c416 0 710 -256 710 -675c0 -421 -294 -678 -710 -678c-418 0 -712 257 -712 678c0 419 296 675 712 675zM814 1011c-193 0 -338 -142 -338 -372c0 -232 143 -374 338 -374c193 0 337 142 337 374c0 230 -144 372 -337 372zM999 1662l271 -252h-317l-128 135
h-22l-128 -135h-317l271 252h370zM975 1708c-154 0 -214 99 -293 99c-51 0 -75 -34 -76 -75h-205c0 146 93 248 251 248c155 0 216 -99 294 -99c52 0 74 27 76 86h205c0 -156 -93 -259 -252 -259z" />
    <glyph glyph-name="P" unicode="P" horiz-adv-x="1421" 
d="M170 1443h632c310 0 520 -202 520 -512c0 -307 -221 -508 -542 -508h-243v-423h-367v1443zM537 1161v-461h166c156 0 248 80 248 230c0 152 -91 231 -246 231h-168z" />
    <glyph glyph-name="Pdotaccent" unicode="&#x1e56;" horiz-adv-x="1421" 
d="M170 1443h632c310 0 520 -202 520 -512c0 -307 -221 -508 -542 -508h-243v-423h-367v1443zM537 1161v-461h166c156 0 248 80 248 230c0 152 -91 231 -246 231h-168zM613 1579c-103 0 -188 82 -188 184c0 104 85 185 188 185s188 -81 188 -185c0 -102 -85 -184 -188 -184z
" />
    <glyph glyph-name="Pacute" unicode="&#x1e54;" horiz-adv-x="1421" 
d="M170 1443h632c310 0 520 -202 520 -512c0 -307 -221 -508 -542 -508h-243v-423h-367v1443zM537 1161v-461h166c156 0 248 80 248 230c0 152 -91 231 -246 231h-168zM740 1596h-250l168 336h342z" />
    <glyph glyph-name="Q" unicode="Q" horiz-adv-x="1626" 
d="M814 -39c-436 0 -712 289 -712 761c0 470 279 760 712 760s710 -291 710 -760c0 -261 -84 -468 -232 -596l197 -258h-323l-100 131c-76 -25 -161 -38 -252 -38zM814 249c20 0 38 2 56 6l-193 252h323l79 -102c53 75 83 185 83 317c0 288 -139 472 -348 472
c-210 0 -350 -183 -350 -472c0 -290 140 -473 350 -473z" />
    <glyph glyph-name="R" unicode="R" horiz-adv-x="1466" 
d="M537 1166v-402h217c135 0 215 75 215 200c0 123 -85 202 -216 202h-216zM537 505v-505h-367v1443h635c337 0 539 -178 539 -476c0 -177 -88 -339 -246 -408l288 -559h-412l-247 505v0h-190z" />
    <glyph glyph-name="Rcaron" unicode="&#x158;" horiz-adv-x="1466" 
d="M537 1166v-402h217c135 0 215 75 215 200c0 123 -85 202 -216 202h-216zM537 505v-505h-367v1443h635c337 0 539 -178 539 -476c0 -177 -88 -339 -246 -408l288 -559h-412l-247 505v0h-190zM840 1596h-330l-275 336h298l132 -183h20l132 183h298z" />
    <glyph glyph-name="Rlinebelow" unicode="&#x1e5e;" horiz-adv-x="1466" 
d="M537 1166v-402h217c135 0 215 75 215 200c0 123 -85 202 -216 202h-216zM537 505v-505h-367v1443h635c337 0 539 -178 539 -476c0 -177 -88 -339 -246 -408l288 -559h-412l-247 505v0h-190zM1056 -192v-198h-762v198h762z" />
    <glyph glyph-name="Rdotbelowmacron" unicode="&#x1e5c;" horiz-adv-x="1466" 
d="M537 1166v-402h217c135 0 215 75 215 200c0 123 -85 202 -216 202h-216zM537 505v-505h-367v1443h635c337 0 539 -178 539 -476c0 -177 -88 -339 -246 -408l288 -559h-412l-247 505v0h-190zM675 -475c-103 0 -188 81 -188 184s85 185 188 185s188 -82 188 -185
s-85 -184 -188 -184zM1056 1854v-197h-762v197h762z" />
    <glyph glyph-name="Rdblgrave" unicode="&#x210;" horiz-adv-x="1466" 
d="M537 1166v-402h217c135 0 215 75 215 200c0 123 -85 202 -216 202h-216zM537 505v-505h-367v1443h635c337 0 539 -178 539 -476c0 -177 -88 -339 -246 -408l288 -559h-412l-247 505v0h-190zM1004 1596h-229l-156 336h286zM601 1596h-234l-230 336h310z" />
    <glyph glyph-name="Rinvertedbreve" unicode="&#x212;" horiz-adv-x="1466" 
d="M537 1166v-402h217c135 0 215 75 215 200c0 123 -85 202 -216 202h-216zM537 505v-505h-367v1443h635c337 0 539 -178 539 -476c0 -177 -88 -339 -246 -408l288 -559h-412l-247 505v0h-190zM1091 1582h-236c-3 91 -71 156 -180 156s-177 -65 -180 -156h-236
c0 199 158 346 416 346s416 -147 416 -346z" />
    <glyph glyph-name="Racute" unicode="&#x154;" horiz-adv-x="1466" 
d="M537 1166v-402h217c135 0 215 75 215 200c0 123 -85 202 -216 202h-216zM537 505v-505h-367v1443h635c337 0 539 -178 539 -476c0 -177 -88 -339 -246 -408l288 -559h-412l-247 505v0h-190zM802 1596h-250l168 336h342z" />
    <glyph glyph-name="Rdotbelow" unicode="&#x1e5a;" horiz-adv-x="1466" 
d="M537 1166v-402h217c135 0 215 75 215 200c0 123 -85 202 -216 202h-216zM537 505v-505h-367v1443h635c337 0 539 -178 539 -476c0 -177 -88 -339 -246 -408l288 -559h-412l-247 505v0h-190zM675 -475c-103 0 -188 81 -188 184s85 185 188 185s188 -82 188 -185
s-85 -184 -188 -184z" />
    <glyph glyph-name="Rdotaccent" unicode="&#x1e58;" horiz-adv-x="1466" 
d="M537 1166v-402h217c135 0 215 75 215 200c0 123 -85 202 -216 202h-216zM537 505v-505h-367v1443h635c337 0 539 -178 539 -476c0 -177 -88 -339 -246 -408l288 -559h-412l-247 505v0h-190zM675 1579c-103 0 -188 82 -188 184c0 104 85 185 188 185s188 -81 188 -185
c0 -102 -85 -184 -188 -184z" />
    <glyph glyph-name="Rcommaaccent" unicode="&#x156;" horiz-adv-x="1466" 
d="M537 1166v-402h217c135 0 215 75 215 200c0 123 -85 202 -216 202h-216zM537 505v-505h-367v1443h635c337 0 539 -178 539 -476c0 -177 -88 -339 -246 -408l288 -559h-412l-247 505v0h-190zM661 -494h-258l105 361h334z" />
    <glyph glyph-name="Rcommaaccent.mini" horiz-adv-x="1466" 
d="M537 1166v-402h217c135 0 215 75 215 200c0 123 -85 202 -216 202h-216zM537 505v-505h-367v1443h635c337 0 539 -178 539 -476c0 -177 -88 -339 -246 -408l288 -559h-412l-247 505v0h-190zM681 -432h-300l114 293h358z" />
    <glyph glyph-name="S" unicode="S" horiz-adv-x="1423" 
d="M107 411h350c9 -105 114 -172 266 -172c137 0 231 66 231 161c0 80 -63 123 -228 156l-190 38c-264 50 -400 194 -400 421c0 282 226 467 574 467c338 0 572 -183 578 -450h-339c-8 102 -105 173 -234 173s-214 -61 -214 -157c0 -79 64 -125 216 -155l186 -36
c285 -55 413 -184 413 -413c0 -301 -230 -483 -608 -483c-365 0 -595 172 -601 450z" />
    <glyph glyph-name="Scaron" unicode="&#x160;" horiz-adv-x="1423" 
d="M107 411h350c9 -105 114 -172 266 -172c137 0 231 66 231 161c0 80 -63 123 -228 156l-190 38c-264 50 -400 194 -400 421c0 282 226 467 574 467c338 0 572 -183 578 -450h-339c-8 102 -105 173 -234 173s-214 -61 -214 -157c0 -79 64 -125 216 -155l186 -36
c285 -55 413 -184 413 -413c0 -301 -230 -483 -608 -483c-365 0 -595 172 -601 450zM876 1596h-330l-275 336h298l132 -183h20l132 183h298z" />
    <glyph glyph-name="Scedilla" unicode="&#x15e;" horiz-adv-x="1423" 
d="M717 893l186 -36c285 -55 413 -184 413 -413c0 -277 -194 -453 -520 -479l-38 -61c114 -12 195 -75 195 -184c0 -141 -117 -212 -292 -212c-56 0 -112 7 -148 17v147c15 -6 61 -14 108 -14c56 0 113 13 113 53c0 37 -41 51 -120 51h-69v128l49 77
c-298 32 -482 196 -487 444h350c9 -105 114 -172 266 -172c137 0 231 66 231 161c0 80 -63 123 -228 156l-190 38c-264 50 -400 194 -400 421c0 282 226 467 574 467c338 0 572 -183 578 -450h-339c-8 102 -105 173 -234 173s-214 -61 -214 -157c0 -79 64 -125 216 -155z
" />
    <glyph glyph-name="Sdotaccent" unicode="&#x1e60;" horiz-adv-x="1423" 
d="M107 411h350c9 -105 114 -172 266 -172c137 0 231 66 231 161c0 80 -63 123 -228 156l-190 38c-264 50 -400 194 -400 421c0 282 226 467 574 467c338 0 572 -183 578 -450h-339c-8 102 -105 173 -234 173s-214 -61 -214 -157c0 -79 64 -125 216 -155l186 -36
c285 -55 413 -184 413 -413c0 -301 -230 -483 -608 -483c-365 0 -595 172 -601 450zM711 1579c-103 0 -188 82 -188 184c0 104 85 185 188 185s188 -81 188 -185c0 -102 -85 -184 -188 -184z" />
    <glyph glyph-name="Sdotbelow" unicode="&#x1e62;" horiz-adv-x="1423" 
d="M107 411h350c9 -105 114 -172 266 -172c137 0 231 66 231 161c0 80 -63 123 -228 156l-190 38c-264 50 -400 194 -400 421c0 282 226 467 574 467c338 0 572 -183 578 -450h-339c-8 102 -105 173 -234 173s-214 -61 -214 -157c0 -79 64 -125 216 -155l186 -36
c285 -55 413 -184 413 -413c0 -301 -230 -483 -608 -483c-365 0 -595 172 -601 450zM708 -475c-103 0 -188 81 -188 184s85 185 188 185s188 -82 188 -185s-85 -184 -188 -184z" />
    <glyph glyph-name="Scommaaccent" unicode="&#x218;" horiz-adv-x="1423" 
d="M107 411h350c9 -105 114 -172 266 -172c137 0 231 66 231 161c0 80 -63 123 -228 156l-190 38c-264 50 -400 194 -400 421c0 282 226 467 574 467c338 0 572 -183 578 -450h-339c-8 102 -105 173 -234 173s-214 -61 -214 -157c0 -79 64 -125 216 -155l186 -36
c285 -55 413 -184 413 -413c0 -301 -230 -483 -608 -483c-365 0 -595 172 -601 450zM694 -494h-258l105 361h334z" />
    <glyph glyph-name="Sdotbelowdotaccent" unicode="&#x1e68;" horiz-adv-x="1423" 
d="M107 411h350c9 -105 114 -172 266 -172c137 0 231 66 231 161c0 80 -63 123 -228 156l-190 38c-264 50 -400 194 -400 421c0 282 226 467 574 467c338 0 572 -183 578 -450h-339c-8 102 -105 173 -234 173s-214 -61 -214 -157c0 -79 64 -125 216 -155l186 -36
c285 -55 413 -184 413 -413c0 -301 -230 -483 -608 -483c-365 0 -595 172 -601 450zM708 -475c-103 0 -188 81 -188 184s85 185 188 185s188 -82 188 -185s-85 -184 -188 -184zM711 1579c-103 0 -188 82 -188 184c0 104 85 185 188 185s188 -81 188 -185
c0 -102 -85 -184 -188 -184z" />
    <glyph glyph-name="Scarondotaccent" unicode="&#x1e66;" horiz-adv-x="1423" 
d="M107 411h350c9 -105 114 -172 266 -172c137 0 231 66 231 161c0 80 -63 123 -228 156l-190 38c-264 50 -400 194 -400 421c0 282 226 467 574 467c338 0 572 -183 578 -450h-339c-8 102 -105 173 -234 173s-214 -61 -214 -157c0 -79 64 -125 216 -155l186 -36
c285 -55 413 -184 413 -413c0 -301 -230 -483 -608 -483c-365 0 -595 172 -601 450zM541 1581l-269 283h298l130 -146h22l130 146h298l-269 -283h-340zM711 1934c-104 0 -176 68 -176 161s72 160 176 160s176 -67 176 -160s-72 -161 -176 -161z" />
    <glyph glyph-name="Scircumflex" unicode="&#x15c;" horiz-adv-x="1423" 
d="M107 411h350c9 -105 114 -172 266 -172c137 0 231 66 231 161c0 80 -63 123 -228 156l-190 38c-264 50 -400 194 -400 421c0 282 226 467 574 467c338 0 572 -183 578 -450h-339c-8 102 -105 173 -234 173s-214 -61 -214 -157c0 -79 64 -125 216 -155l186 -36
c285 -55 413 -184 413 -413c0 -301 -230 -483 -608 -483c-365 0 -595 172 -601 450zM546 1932h330l275 -336h-298l-132 183h-20l-132 -183h-298z" />
    <glyph glyph-name="Sacutedotaccent" unicode="&#x1e64;" horiz-adv-x="1423" 
d="M107 411h350c9 -105 114 -172 266 -172c137 0 231 66 231 161c0 80 -63 123 -228 156l-190 38c-264 50 -400 194 -400 421c0 282 226 467 574 467c338 0 572 -183 578 -450h-339c-8 102 -105 173 -234 173s-214 -61 -214 -157c0 -79 64 -125 216 -155l186 -36
c285 -55 413 -184 413 -413c0 -301 -230 -483 -608 -483c-365 0 -595 172 -601 450zM965 1596h-250l168 336h342zM458 1595c-103 0 -188 82 -188 184c0 104 85 185 188 185s188 -81 188 -185c0 -102 -85 -184 -188 -184z" />
    <glyph glyph-name="Sacute" unicode="&#x15a;" horiz-adv-x="1423" 
d="M107 411h350c9 -105 114 -172 266 -172c137 0 231 66 231 161c0 80 -63 123 -228 156l-190 38c-264 50 -400 194 -400 421c0 282 226 467 574 467c338 0 572 -183 578 -450h-339c-8 102 -105 173 -234 173s-214 -61 -214 -157c0 -79 64 -125 216 -155l186 -36
c285 -55 413 -184 413 -413c0 -301 -230 -483 -608 -483c-365 0 -595 172 -601 450zM838 1596h-250l168 336h342z" />
    <glyph glyph-name="germandbls.uc" unicode="&#x1e9e;" horiz-adv-x="2847" 
d="M107 411h350c9 -105 114 -172 266 -172c137 0 231 66 231 161c0 80 -63 123 -228 156l-190 38c-264 50 -400 194 -400 421c0 282 226 467 574 467c338 0 572 -183 578 -450h-339c-8 102 -105 173 -234 173s-214 -61 -214 -157c0 -79 64 -125 216 -155l186 -36
c285 -55 413 -184 413 -413c0 -301 -230 -483 -608 -483c-365 0 -595 172 -601 450zM1530 411h350c9 -105 114 -172 266 -172c137 0 231 66 231 161c0 80 -63 123 -228 156l-190 38c-264 50 -400 194 -400 421c0 282 226 467 574 467c338 0 572 -183 578 -450h-339
c-8 102 -105 173 -234 173s-214 -61 -214 -157c0 -79 64 -125 216 -155l186 -36c285 -55 413 -184 413 -413c0 -301 -230 -483 -608 -483c-365 0 -595 172 -601 450z" />
    <glyph glyph-name="Scommaaccent.mini" horiz-adv-x="1423" 
d="M107 411h350c9 -105 114 -172 266 -172c137 0 231 66 231 161c0 80 -63 123 -228 156l-190 38c-264 50 -400 194 -400 421c0 282 226 467 574 467c338 0 572 -183 578 -450h-339c-8 102 -105 173 -234 173s-214 -61 -214 -157c0 -79 64 -125 216 -155l186 -36
c285 -55 413 -184 413 -413c0 -301 -230 -483 -608 -483c-365 0 -595 172 -601 450zM714 -432h-300l114 293h358z" />
    <glyph glyph-name="Scedilla.mini" horiz-adv-x="1423" 
d="M717 893l186 -36c285 -55 413 -184 413 -413c0 -280 -199 -457 -531 -480l-35 -47c118 -8 187 -67 187 -166c0 -116 -104 -183 -283 -183c-55 0 -112 7 -143 16v130c29 -6 72 -10 113 -10c64 0 105 17 105 53c0 40 -29 53 -115 53h-72v82l50 75
c-297 33 -480 197 -485 444h350c9 -105 114 -172 266 -172c137 0 231 66 231 161c0 80 -63 123 -228 156l-190 38c-264 50 -400 194 -400 421c0 282 226 467 574 467c338 0 572 -183 578 -450h-339c-8 102 -105 173 -234 173s-214 -61 -214 -157c0 -79 64 -125 216 -155z
" />
    <glyph glyph-name="S.mini" horiz-adv-x="1423" 
d="M107 370h350c9 -94 111 -153 267 -153c146 0 230 49 230 134c0 71 -58 105 -228 139l-185 33c-270 51 -405 177 -405 376c0 253 223 415 573 415c341 0 573 -164 579 -407h-339c-8 92 -101 152 -234 152c-135 0 -214 -47 -214 -127c0 -68 64 -108 221 -138l184 -32
c283 -52 410 -167 410 -370c0 -271 -225 -431 -608 -431c-365 0 -595 157 -601 409z" />
    <glyph glyph-name="Scarondotaccent.mini" horiz-adv-x="1423" 
d="M107 370h350c9 -94 111 -153 267 -153c146 0 230 49 230 134c0 71 -58 105 -228 139l-185 33c-270 51 -405 177 -405 376c0 253 223 415 573 415c341 0 573 -164 579 -407h-339c-8 92 -101 152 -234 152c-135 0 -214 -47 -214 -127c0 -68 64 -108 221 -138l184 -32
c283 -52 410 -167 410 -370c0 -271 -225 -431 -608 -431c-365 0 -595 157 -601 409zM711 1707c-86 0 -153 60 -153 136c0 77 67 137 153 137s153 -60 153 -137c0 -76 -67 -136 -153 -136zM896 1410h-370l-271 256h317l128 -136h22l128 136h317z" />
    <glyph glyph-name="T" unicode="T" horiz-adv-x="1381" 
d="M873 0h-366v1148h-416v295h1199v-295h-417v-1148z" />
    <glyph glyph-name="Tcircumflexbelow" unicode="&#x1e70;" horiz-adv-x="1381" 
d="M873 0h-366v1148h-416v295h1199v-295h-417v-1148zM859 -133l262 -359h-295l-126 202h-20l-126 -202h-295l262 359h338z" />
    <glyph glyph-name="Tdotbelow" unicode="&#x1e6c;" horiz-adv-x="1381" 
d="M873 0h-366v1148h-416v295h1199v-295h-417v-1148zM690 -475c-103 0 -188 81 -188 184s85 185 188 185s188 -82 188 -185s-85 -184 -188 -184z" />
    <glyph glyph-name="Tcommaaccent" unicode="&#x21a;" horiz-adv-x="1381" 
d="M873 0h-366v1148h-416v295h1199v-295h-417v-1148zM676 -494h-258l105 361h334z" />
    <glyph glyph-name="Tdotaccent" unicode="&#x1e6a;" horiz-adv-x="1381" 
d="M873 0h-366v1148h-416v295h1199v-295h-417v-1148zM690 1579c-103 0 -188 82 -188 184c0 104 85 185 188 185s188 -81 188 -185c0 -102 -85 -184 -188 -184z" />
    <glyph glyph-name="Tcedilla" unicode="&#x162;" horiz-adv-x="1381" 
d="M873 30v-30l-61 -96c114 -12 196 -75 196 -184c0 -141 -117 -212 -293 -212c-55 0 -111 7 -147 17v147c14 -6 61 -14 108 -14c56 0 112 13 112 53c0 37 -41 51 -120 51h-68v128l71 110h-164v1148h-416v295h1199v-295h-417v-1118z" />
    <glyph glyph-name="Tlinebelow" unicode="&#x1e6e;" horiz-adv-x="1381" 
d="M873 0h-366v1148h-416v295h1199v-295h-417v-1148zM1071 -192v-198h-762v198h762z" />
    <glyph glyph-name="Tcaron" unicode="&#x164;" horiz-adv-x="1381" 
d="M873 0h-366v1148h-416v295h1199v-295h-417v-1148zM855 1596h-330l-275 336h298l132 -183h20l132 183h298z" />
    <glyph glyph-name="Tbar" unicode="&#x166;" horiz-adv-x="1381" 
d="M1290 1148h-417v-342h267v-254h-267v-552h-366v552h-266v254h266v342h-416v295h1199v-295z" />
    <glyph glyph-name="Tcommaaccent.mini" horiz-adv-x="1381" 
d="M873 0h-366v1148h-416v295h1199v-295h-417v-1148zM696 -432h-300l114 293h358z" />
    <glyph glyph-name="Tcedilla.mini" horiz-adv-x="1381" 
d="M873 38v-38l-62 -83c118 -8 187 -67 187 -166c0 -116 -104 -183 -283 -183c-54 0 -111 7 -143 16v130c29 -6 72 -10 113 -10c64 0 105 17 105 53c0 40 -29 53 -115 53h-72v82l72 108h-168v1148h-416v295h1199v-295h-417v-1110z" />
    <glyph glyph-name="U" unicode="U" horiz-adv-x="1582" 
d="M536 1443v-906c0 -168 92 -267 255 -267c164 0 255 99 255 267v906h366v-945c0 -324 -246 -537 -621 -537s-621 213 -621 537v945h366z" />
    <glyph glyph-name="Ugrave" unicode="&#xd9;" horiz-adv-x="1582" 
d="M536 1443v-906c0 -168 92 -267 255 -267c164 0 255 99 255 267v906h366v-945c0 -324 -246 -537 -621 -537s-621 213 -621 537v945h366zM664 1596l-260 336h342l168 -336h-250z" />
    <glyph glyph-name="Udblgrave" unicode="&#x214;" horiz-adv-x="1582" 
d="M536 1443v-906c0 -168 92 -267 255 -267c164 0 255 99 255 267v906h366v-945c0 -324 -246 -537 -621 -537s-621 213 -621 537v945h366zM1120 1596h-229l-156 336h286zM717 1596h-234l-230 336h310z" />
    <glyph glyph-name="Uacute" unicode="&#xda;" horiz-adv-x="1582" 
d="M536 1443v-906c0 -168 92 -267 255 -267c164 0 255 99 255 267v906h366v-945c0 -324 -246 -537 -621 -537s-621 213 -621 537v945h366zM918 1596h-250l168 336h342z" />
    <glyph glyph-name="Uhungarumlaut" unicode="&#x170;" horiz-adv-x="1582" 
d="M536 1443v-906c0 -168 92 -267 255 -267c164 0 255 99 255 267v906h366v-945c0 -324 -246 -537 -621 -537s-621 213 -621 537v945h366zM462 1596l99 336h286l-156 -336h-229zM865 1596l154 336h310l-230 -336h-234z" />
    <glyph glyph-name="Ucircumflex" unicode="&#xdb;" horiz-adv-x="1582" 
d="M536 1443v-906c0 -168 92 -267 255 -267c164 0 255 99 255 267v906h366v-945c0 -324 -246 -537 -621 -537s-621 213 -621 537v945h366zM626 1932h330l275 -336h-298l-132 183h-20l-132 -183h-298z" />
    <glyph glyph-name="Ucaron" unicode="&#x1d3;" horiz-adv-x="1582" 
d="M536 1443v-906c0 -168 92 -267 255 -267c164 0 255 99 255 267v906h366v-945c0 -324 -246 -537 -621 -537s-621 213 -621 537v945h366zM956 1596h-330l-275 336h298l132 -183h20l132 183h298z" />
    <glyph glyph-name="Ucircumflexbelow" unicode="&#x1e76;" horiz-adv-x="1582" 
d="M536 1443v-906c0 -168 92 -267 255 -267c164 0 255 99 255 267v906h366v-945c0 -324 -246 -537 -621 -537s-621 213 -621 537v945h366zM960 -133l262 -359h-295l-126 202h-20l-126 -202h-295l262 359h338z" />
    <glyph glyph-name="Udieresis" unicode="&#xdc;" horiz-adv-x="1582" 
d="M536 1443v-906c0 -168 92 -267 255 -267c164 0 255 99 255 267v906h366v-945c0 -324 -246 -537 -621 -537s-621 213 -621 537v945h366zM538 1589c-96 0 -174 75 -174 170c0 97 78 172 174 172c97 0 174 -75 174 -172c0 -95 -77 -170 -174 -170zM1044 1589
c-96 0 -174 75 -174 170c0 97 78 172 174 172s174 -75 174 -172c0 -95 -78 -170 -174 -170z" />
    <glyph glyph-name="Udieresisgrave" unicode="&#x1db;" horiz-adv-x="1582" 
d="M536 1443v-906c0 -168 92 -267 255 -267c164 0 255 99 255 267v906h366v-945c0 -324 -246 -537 -621 -537s-621 213 -621 537v945h366zM932 1962h-274l-184 250h326zM540 1581c-102 0 -174 68 -174 164s72 164 174 164c101 0 173 -68 173 -164s-72 -164 -173 -164z
M1042 1581c-101 0 -173 68 -173 164s72 164 173 164c102 0 174 -68 174 -164s-72 -164 -174 -164z" />
    <glyph glyph-name="Udieresisacute" unicode="&#x1d7;" horiz-adv-x="1582" 
d="M536 1443v-906c0 -168 92 -267 255 -267c164 0 255 99 255 267v906h366v-945c0 -324 -246 -537 -621 -537s-621 213 -621 537v945h366zM654 1962l132 250h327l-185 -250h-274zM540 1581c-102 0 -174 68 -174 164s72 164 174 164c101 0 173 -68 173 -164
s-72 -164 -173 -164zM1042 1581c-101 0 -173 68 -173 164s72 164 173 164c102 0 174 -68 174 -164s-72 -164 -174 -164z" />
    <glyph glyph-name="Udieresismacron" unicode="&#x1d5;" horiz-adv-x="1582" 
d="M536 1443v-906c0 -168 92 -267 255 -267c164 0 255 99 255 267v906h366v-945c0 -324 -246 -537 -621 -537s-621 213 -621 537v945h366zM540 1907c101 0 172 -67 172 -163s-71 -163 -172 -163c-102 0 -173 67 -173 163s71 163 173 163zM400 2204h782v-183h-782v183z
M1042 1907c102 0 173 -67 173 -163s-71 -163 -173 -163c-101 0 -172 67 -172 163s71 163 172 163z" />
    <glyph glyph-name="Udieresiscaron" unicode="&#x1d9;" horiz-adv-x="1582" 
d="M536 1443v-906c0 -168 92 -267 255 -267c164 0 255 99 255 267v906h366v-945c0 -324 -246 -537 -621 -537s-621 213 -621 537v945h366zM636 1929l-269 326h285l128 -178h22l128 178h285l-269 -326h-310zM540 1870c101 0 170 -66 170 -155c0 -90 -69 -155 -170 -155
s-170 65 -170 155c0 89 69 155 170 155zM1042 1870c101 0 170 -66 170 -155c0 -90 -69 -155 -170 -155s-170 65 -170 155c0 89 69 155 170 155z" />
    <glyph glyph-name="Udieresisbelow" unicode="&#x1e72;" horiz-adv-x="1582" 
d="M536 1443v-906c0 -168 92 -267 255 -267c164 0 255 99 255 267v906h366v-945c0 -324 -246 -537 -621 -537s-621 213 -621 537v945h366zM538 -462c-96 0 -174 75 -174 171s78 171 174 171c97 0 174 -75 174 -171s-77 -171 -174 -171zM1044 -462c-96 0 -174 75 -174 171
s78 171 174 171s174 -75 174 -171s-78 -171 -174 -171z" />
    <glyph glyph-name="Utildebelow" unicode="&#x1e74;" horiz-adv-x="1582" 
d="M536 1443v-906c0 -168 92 -267 255 -267c164 0 255 99 255 267v906h366v-945c0 -324 -246 -537 -621 -537s-621 213 -621 537v945h366zM951 -460c-161 0 -207 134 -288 134c-55 0 -78 -51 -78 -126h-201c0 208 110 331 259 331c162 0 199 -141 291 -141
c54 0 76 57 76 133h202c0 -204 -111 -331 -261 -331z" />
    <glyph glyph-name="Uhookabove" unicode="&#x1ee6;" horiz-adv-x="1582" 
d="M536 1443v-906c0 -168 92 -267 255 -267c164 0 255 99 255 267v906h366v-945c0 -324 -246 -537 -621 -537s-621 213 -621 537v945h366zM568 1843v168c36 12 95 26 168 26c151 0 263 -87 263 -221c0 -119 -76 -209 -209 -261l-103 121c63 24 106 62 106 106
c0 48 -42 80 -114 80c-42 0 -86 -8 -111 -19z" />
    <glyph glyph-name="Ubreve" unicode="&#x16c;" horiz-adv-x="1582" 
d="M536 1443v-906c0 -168 92 -267 255 -267c164 0 255 99 255 267v906h366v-945c0 -324 -246 -537 -621 -537s-621 213 -621 537v945h366zM375 1928h236c3 -91 71 -156 180 -156s177 65 180 156h236c0 -199 -158 -346 -416 -346s-416 147 -416 346z" />
    <glyph glyph-name="Uinvertedbreve" unicode="&#x216;" horiz-adv-x="1582" 
d="M536 1443v-906c0 -168 92 -267 255 -267c164 0 255 99 255 267v906h366v-945c0 -324 -246 -537 -621 -537s-621 213 -621 537v945h366zM1207 1582h-236c-3 91 -71 156 -180 156s-177 -65 -180 -156h-236c0 199 158 346 416 346s416 -147 416 -346z" />
    <glyph glyph-name="Utildeacute" unicode="&#x1e78;" horiz-adv-x="1582" 
d="M536 1443v-906c0 -168 92 -267 255 -267c164 0 255 99 255 267v906h366v-945c0 -324 -246 -537 -621 -537s-621 213 -621 537v945h366zM952 1581c-156 0 -198 117 -289 117c-47 0 -79 -33 -82 -109h-209c0 196 111 301 258 301c156 0 198 -117 289 -117
c45 0 79 28 82 105h209c0 -192 -111 -297 -258 -297zM658 1962l127 250h319l-158 -250h-288z" />
    <glyph glyph-name="Udotbelow" unicode="&#x1ee4;" horiz-adv-x="1582" 
d="M536 1443v-906c0 -168 92 -267 255 -267c164 0 255 99 255 267v906h366v-945c0 -324 -246 -537 -621 -537s-621 213 -621 537v945h366zM791 -475c-103 0 -188 81 -188 184s85 185 188 185s188 -82 188 -185s-85 -184 -188 -184z" />
    <glyph glyph-name="Utilde" unicode="&#x168;" horiz-adv-x="1582" 
d="M536 1443v-906c0 -168 92 -267 255 -267c164 0 255 99 255 267v906h366v-945c0 -324 -246 -537 -621 -537s-621 213 -621 537v945h366zM951 1577c-161 0 -207 133 -288 133c-55 0 -78 -50 -78 -126h-201c0 208 110 331 259 331c162 0 199 -140 291 -140
c54 0 76 56 76 132h202c0 -204 -111 -330 -261 -330z" />
    <glyph glyph-name="Umacron" unicode="&#x16a;" horiz-adv-x="1582" 
d="M536 1443v-906c0 -168 92 -267 255 -267c164 0 255 99 255 267v906h366v-945c0 -324 -246 -537 -621 -537s-621 213 -621 537v945h366zM1172 1854v-197h-762v197h762z" />
    <glyph glyph-name="Umacrondieresis" unicode="&#x1e7a;" horiz-adv-x="1582" 
d="M536 1443v-906c0 -168 92 -267 255 -267c164 0 255 99 255 267v906h366v-945c0 -324 -246 -537 -621 -537s-621 213 -621 537v945h366zM1182 1607h-782v196h782v-196zM560 1908c-96 0 -162 68 -162 156c0 89 66 156 162 156s161 -67 161 -156c0 -88 -65 -156 -161 -156z
M1022 1908c-96 0 -161 68 -161 156c0 89 65 156 161 156s162 -67 162 -156c0 -88 -66 -156 -162 -156z" />
    <glyph glyph-name="Uring" unicode="&#x16e;" horiz-adv-x="1582" 
d="M536 1443v-906c0 -168 92 -267 255 -267c164 0 255 99 255 267v906h366v-945c0 -324 -246 -537 -621 -537s-621 213 -621 537v945h366zM791 1529c-117 0 -215 90 -215 209s98 209 215 209s215 -90 215 -209s-98 -209 -215 -209zM791 1654c47 0 86 36 86 84
c0 49 -39 84 -86 84s-86 -35 -86 -84c0 -48 39 -84 86 -84z" />
    <glyph glyph-name="Uogonek" unicode="&#x172;" horiz-adv-x="1582" 
d="M1046 1443h366v-945c0 -184 -79 -332 -216 -426c-111 -90 -192 -166 -192 -255c0 -59 48 -104 121 -104c21 0 44 3 72 9v-179c-52 -15 -104 -23 -153 -23c-189 0 -294 89 -294 217c0 83 45 164 124 228c-27 -3 -55 -4 -83 -4c-375 0 -621 213 -621 537v945h366v-906
c0 -168 92 -267 255 -267c164 0 255 99 255 267v906z" />
    <glyph glyph-name="Uhorn" unicode="&#x1af;" horiz-adv-x="1795" 
d="M791 -39c-375 0 -621 213 -621 537v945h366v-906c0 -169 94 -267 255 -267s255 97 255 267v906h382c46 0 73 24 73 71v194h269v-266c0 -146 -92 -227 -240 -227h-118v-717c0 -324 -246 -537 -621 -537z" />
    <glyph glyph-name="Uhorngrave" unicode="&#x1eea;" horiz-adv-x="1795" 
d="M791 -39c-375 0 -621 213 -621 537v945h366v-906c0 -169 94 -267 255 -267s255 97 255 267v906h382c46 0 73 24 73 71v194h269v-266c0 -146 -92 -227 -240 -227h-118v-717c0 -324 -246 -537 -621 -537zM664 1596l-260 336h342l168 -336h-250z" />
    <glyph glyph-name="Uhornacute" unicode="&#x1ee8;" horiz-adv-x="1795" 
d="M791 -39c-375 0 -621 213 -621 537v945h366v-906c0 -169 94 -267 255 -267s255 97 255 267v906h382c46 0 73 24 73 71v194h269v-266c0 -146 -92 -227 -240 -227h-118v-717c0 -324 -246 -537 -621 -537zM918 1596h-250l168 336h342z" />
    <glyph glyph-name="Uhorndotbelow" unicode="&#x1ef0;" horiz-adv-x="1795" 
d="M791 -39c-375 0 -621 213 -621 537v945h366v-906c0 -169 94 -267 255 -267s255 97 255 267v906h382c46 0 73 24 73 71v194h269v-266c0 -146 -92 -227 -240 -227h-118v-717c0 -324 -246 -537 -621 -537zM791 -475c-103 0 -188 81 -188 184s85 185 188 185
s188 -82 188 -185s-85 -184 -188 -184z" />
    <glyph glyph-name="Uhornhookabove" unicode="&#x1eec;" horiz-adv-x="1795" 
d="M791 -39c-375 0 -621 213 -621 537v945h366v-906c0 -169 94 -267 255 -267s255 97 255 267v906h382c46 0 73 24 73 71v194h269v-266c0 -146 -92 -227 -240 -227h-118v-717c0 -324 -246 -537 -621 -537zM568 1843v168c36 12 95 26 168 26c151 0 263 -87 263 -221
c0 -119 -76 -209 -209 -261l-103 121c63 24 106 62 106 106c0 48 -42 80 -114 80c-42 0 -86 -8 -111 -19z" />
    <glyph glyph-name="Uhorntilde" unicode="&#x1eee;" horiz-adv-x="1795" 
d="M791 -39c-375 0 -621 213 -621 537v945h366v-906c0 -169 94 -267 255 -267s255 97 255 267v906h382c46 0 73 24 73 71v194h269v-266c0 -146 -92 -227 -240 -227h-118v-717c0 -324 -246 -537 -621 -537zM951 1577c-161 0 -207 133 -288 133c-55 0 -78 -50 -78 -126h-201
c0 208 110 331 259 331c162 0 199 -140 291 -140c54 0 76 56 76 132h202c0 -204 -111 -330 -261 -330z" />
    <glyph glyph-name="Uogonek.mini" horiz-adv-x="1582" 
d="M1046 1443h366v-945c0 -192 -86 -345 -234 -438c-108 -82 -164 -131 -164 -201c0 -62 52 -94 119 -94c26 0 54 4 74 11v-179c-52 -15 -104 -23 -153 -23c-189 0 -294 73 -294 202c0 73 35 136 97 187c-21 -1 -43 -2 -66 -2c-375 0 -621 213 -621 537v945h366v-906
c0 -168 92 -267 255 -267c164 0 255 99 255 267v906z" />
    <glyph glyph-name="U.mini" horiz-adv-x="1583" 
d="M536 1276v-739c0 -168 92 -267 255 -267c164 0 255 99 255 267v739h366v-778c0 -324 -246 -537 -621 -537s-621 213 -621 537v778h366z" />
    <glyph glyph-name="Udieresismacron.mini" horiz-adv-x="1583" 
d="M536 1276v-739c0 -168 92 -267 255 -267c164 0 255 99 255 267v739h366v-778c0 -324 -246 -537 -621 -537s-621 213 -621 537v778h366zM400 1750v196h782v-196h-782zM564 1380c-91 0 -154 56 -154 137s63 136 154 136s153 -55 153 -136s-62 -137 -153 -137zM1018 1380
c-91 0 -153 56 -153 137s62 136 153 136s154 -55 154 -136s-63 -137 -154 -137z" />
    <glyph glyph-name="Udieresiscaron.mini" horiz-adv-x="1583" 
d="M536 1276v-739c0 -168 92 -267 255 -267c164 0 255 99 255 267v739h366v-778c0 -324 -246 -537 -621 -537s-621 213 -621 537v778h366zM564 1380c-91 0 -154 56 -154 137s63 136 154 136s153 -55 153 -136s-62 -137 -153 -137zM1018 1380c-91 0 -153 56 -153 137
s62 136 153 136s154 -55 154 -136s-63 -137 -154 -137zM970 1710h-358l-270 240h320l118 -123h22l118 123h320z" />
    <glyph glyph-name="Udieresisacute.mini" horiz-adv-x="1583" 
d="M536 1276v-739c0 -168 92 -267 255 -267c164 0 255 99 255 267v739h366v-778c0 -324 -246 -537 -621 -537s-621 213 -621 537v778h366zM564 1380c-92 0 -155 57 -155 138s63 137 155 137c91 0 154 -56 154 -137s-63 -138 -154 -138zM1018 1380c-91 0 -154 57 -154 138
s63 137 154 137c92 0 155 -56 155 -137s-63 -138 -155 -138zM639 1720l141 230h319l-175 -230h-285z" />
    <glyph glyph-name="Udieresisgrave.mini" horiz-adv-x="1583" 
d="M536 1276v-739c0 -168 92 -267 255 -267c164 0 255 99 255 267v739h366v-778c0 -324 -246 -537 -621 -537s-621 213 -621 537v778h366zM564 1380c-92 0 -155 57 -155 138s63 137 155 137c91 0 154 -56 154 -137s-63 -138 -154 -138zM1018 1380c-91 0 -154 57 -154 138
s63 137 154 137c92 0 155 -56 155 -137s-63 -138 -155 -138zM943 1720h-285l-175 230h319z" />
    <glyph glyph-name="Utildeacute.mini" horiz-adv-x="1583" 
d="M536 1276v-739c0 -168 92 -267 255 -267c164 0 255 99 255 267v739h366v-778c0 -324 -246 -537 -621 -537s-621 213 -621 537v778h366zM641 1730l144 220h318l-176 -220h-286zM949 1381c-154 0 -211 110 -290 110c-51 0 -75 -36 -76 -90h-205c0 158 95 269 255 269
c154 0 211 -110 290 -110c49 0 75 28 76 90h205c0 -156 -95 -269 -255 -269z" />
    <glyph glyph-name="Umacrondieresis.mini" horiz-adv-x="1583" 
d="M536 1276v-739c0 -168 92 -267 255 -267c164 0 255 99 255 267v739h366v-778c0 -324 -246 -537 -621 -537s-621 213 -621 537v778h366zM400 1399v188h782v-188h-782zM564 1677c-91 0 -154 56 -154 137s63 136 154 136s153 -55 153 -136s-62 -137 -153 -137zM1018 1677
c-91 0 -153 56 -153 137s62 136 153 136s154 -55 154 -136s-63 -137 -154 -137z" />
    <glyph glyph-name="V" unicode="V" horiz-adv-x="1528" 
d="M1002 0h-464l-465 1443h421l277 -1062h19l269 1062h396z" />
    <glyph glyph-name="Vtilde" unicode="&#x1e7c;" horiz-adv-x="1528" 
d="M1002 0h-464l-465 1443h421l277 -1062h19l269 1062h396zM930 1577c-161 0 -207 133 -288 133c-55 0 -78 -50 -78 -126h-201c0 208 110 331 259 331c162 0 199 -140 291 -140c54 0 76 56 76 132h202c0 -204 -111 -330 -261 -330z" />
    <glyph glyph-name="Vdotbelow" unicode="&#x1e7e;" horiz-adv-x="1528" 
d="M1002 0h-464l-465 1443h421l277 -1062h19l269 1062h396zM770 -475c-103 0 -188 81 -188 184s85 185 188 185s188 -82 188 -185s-85 -184 -188 -184z" />
    <glyph glyph-name="W" unicode="W" horiz-adv-x="2112" 
d="M1046 884l-237 -884h-346l-377 1443h381l192 -957h18l231 957h294l239 -957h18l189 957h378l-377 -1443h-344l-241 884h-18z" />
    <glyph glyph-name="Wgrave" unicode="&#x1e80;" horiz-adv-x="2112" 
d="M1046 884l-237 -884h-346l-377 1443h381l192 -957h18l231 957h294l239 -957h18l189 957h378l-377 -1443h-344l-241 884h-18zM929 1596l-260 336h342l168 -336h-250z" />
    <glyph glyph-name="Wacute" unicode="&#x1e82;" horiz-adv-x="2112" 
d="M1046 884l-237 -884h-346l-377 1443h381l192 -957h18l231 957h294l239 -957h18l189 957h378l-377 -1443h-344l-241 884h-18zM1183 1596h-250l168 336h342z" />
    <glyph glyph-name="Wdotaccent" unicode="&#x1e86;" horiz-adv-x="2112" 
d="M1046 884l-237 -884h-346l-377 1443h381l192 -957h18l231 957h294l239 -957h18l189 957h378l-377 -1443h-344l-241 884h-18zM1056 1579c-103 0 -188 82 -188 184c0 104 85 185 188 185s188 -81 188 -185c0 -102 -85 -184 -188 -184z" />
    <glyph glyph-name="Wdotbelow" unicode="&#x1e88;" horiz-adv-x="2112" 
d="M1046 884l-237 -884h-346l-377 1443h381l192 -957h18l231 957h294l239 -957h18l189 957h378l-377 -1443h-344l-241 884h-18zM1056 -475c-103 0 -188 81 -188 184s85 185 188 185s188 -82 188 -185s-85 -184 -188 -184z" />
    <glyph glyph-name="Wdieresis" unicode="&#x1e84;" horiz-adv-x="2112" 
d="M1046 884l-237 -884h-346l-377 1443h381l192 -957h18l231 957h294l239 -957h18l189 957h378l-377 -1443h-344l-241 884h-18zM803 1589c-96 0 -174 75 -174 170c0 97 78 172 174 172c97 0 174 -75 174 -172c0 -95 -77 -170 -174 -170zM1309 1589c-96 0 -174 75 -174 170
c0 97 78 172 174 172s174 -75 174 -172c0 -95 -78 -170 -174 -170z" />
    <glyph glyph-name="Wcircumflex" unicode="&#x174;" horiz-adv-x="2112" 
d="M1046 884l-237 -884h-346l-377 1443h381l192 -957h18l231 957h294l239 -957h18l189 957h378l-377 -1443h-344l-241 884h-18zM891 1932h330l275 -336h-298l-132 183h-20l-132 -183h-298z" />
    <glyph glyph-name="X" unicode="X" horiz-adv-x="1549" 
d="M87 0l443 728v0l-442 715h428l259 -478h19l261 478h408l-461 -719v0l457 -724h-413l-274 457h-19l-276 -457h-390z" />
    <glyph glyph-name="Xdotaccent" unicode="&#x1e8a;" horiz-adv-x="1549" 
d="M87 0l443 728v0l-442 715h428l259 -478h19l261 478h408l-461 -719v0l457 -724h-413l-274 457h-19l-276 -457h-390zM784 1579c-103 0 -188 82 -188 184c0 104 85 185 188 185s188 -81 188 -185c0 -102 -85 -184 -188 -184z" />
    <glyph glyph-name="Xdieresis" unicode="&#x1e8c;" horiz-adv-x="1549" 
d="M87 0l443 728v0l-442 715h428l259 -478h19l261 478h408l-461 -719v0l457 -724h-413l-274 457h-19l-276 -457h-390zM531 1589c-96 0 -174 75 -174 170c0 97 78 172 174 172c97 0 174 -75 174 -172c0 -95 -77 -170 -174 -170zM1037 1589c-96 0 -174 75 -174 170
c0 97 78 172 174 172s174 -75 174 -172c0 -95 -78 -170 -174 -170z" />
    <glyph glyph-name="Y" unicode="Y" horiz-adv-x="1507" 
d="M937 0h-366v496l-498 947h391l281 -589h19l279 589h391l-497 -947v-496z" />
    <glyph glyph-name="Ygrave" unicode="&#x1ef2;" horiz-adv-x="1507" 
d="M937 0h-366v496l-498 947h391l281 -589h19l279 589h391l-497 -947v-496zM627 1596l-260 336h342l168 -336h-250z" />
    <glyph glyph-name="Yacute" unicode="&#xdd;" horiz-adv-x="1507" 
d="M937 0h-366v496l-498 947h391l281 -589h19l279 589h391l-497 -947v-496zM881 1596h-250l168 336h342z" />
    <glyph glyph-name="Ydotaccent" unicode="&#x1e8e;" horiz-adv-x="1507" 
d="M937 0h-366v496l-498 947h391l281 -589h19l279 589h391l-497 -947v-496zM754 1579c-103 0 -188 82 -188 184c0 104 85 185 188 185s188 -81 188 -185c0 -102 -85 -184 -188 -184z" />
    <glyph glyph-name="Ydotbelow" unicode="&#x1ef4;" horiz-adv-x="1507" 
d="M937 0h-366v496l-498 947h391l281 -589h19l279 589h391l-497 -947v-496zM754 -475c-103 0 -188 81 -188 184s85 185 188 185s188 -82 188 -185s-85 -184 -188 -184z" />
    <glyph glyph-name="Ydieresis" unicode="&#x178;" horiz-adv-x="1507" 
d="M937 0h-366v496l-498 947h391l281 -589h19l279 589h391l-497 -947v-496zM501 1589c-96 0 -174 75 -174 170c0 97 78 172 174 172c97 0 174 -75 174 -172c0 -95 -77 -170 -174 -170zM1007 1589c-96 0 -174 75 -174 170c0 97 78 172 174 172s174 -75 174 -172
c0 -95 -78 -170 -174 -170z" />
    <glyph glyph-name="Ytilde" unicode="&#x1ef8;" horiz-adv-x="1507" 
d="M937 0h-366v496l-498 947h391l281 -589h19l279 589h391l-497 -947v-496zM914 1577c-161 0 -207 133 -288 133c-55 0 -78 -50 -78 -126h-201c0 208 110 331 259 331c162 0 199 -140 291 -140c54 0 76 56 76 132h202c0 -204 -111 -330 -261 -330z" />
    <glyph glyph-name="Ycircumflex" unicode="&#x176;" horiz-adv-x="1507" 
d="M937 0h-366v496l-498 947h391l281 -589h19l279 589h391l-497 -947v-496zM589 1932h330l275 -336h-298l-132 183h-20l-132 -183h-298z" />
    <glyph glyph-name="Ymacron" unicode="&#x232;" horiz-adv-x="1507" 
d="M937 0h-366v496l-498 947h391l281 -589h19l279 589h391l-497 -947v-496zM1135 1854v-197h-762v197h762z" />
    <glyph glyph-name="Yhookabove" unicode="&#x1ef6;" horiz-adv-x="1507" 
d="M937 0h-366v496l-498 947h391l281 -589h19l279 589h391l-497 -947v-496zM531 1843v168c36 12 95 26 168 26c151 0 263 -87 263 -221c0 -119 -76 -209 -209 -261l-103 121c63 24 106 62 106 106c0 48 -42 80 -114 80c-42 0 -86 -8 -111 -19z" />
    <glyph glyph-name="Z" unicode="Z" horiz-adv-x="1399" 
d="M130 0v233l677 896v19h-666v295h1106v-233l-677 -896v-19h698v-295h-1138z" />
    <glyph glyph-name="Zacute" unicode="&#x179;" horiz-adv-x="1399" 
d="M130 0v233l677 896v19h-666v295h1106v-233l-677 -896v-19h698v-295h-1138zM826 1596h-250l168 336h342z" />
    <glyph glyph-name="Zcaron" unicode="&#x17d;" horiz-adv-x="1399" 
d="M130 0v233l677 896v19h-666v295h1106v-233l-677 -896v-19h698v-295h-1138zM864 1596h-330l-275 336h298l132 -183h20l132 183h298z" />
    <glyph glyph-name="Zcircumflex" unicode="&#x1e90;" horiz-adv-x="1399" 
d="M130 0v233l677 896v19h-666v295h1106v-233l-677 -896v-19h698v-295h-1138zM534 1932h330l275 -336h-298l-132 183h-20l-132 -183h-298z" />
    <glyph glyph-name="Zlinebelow" unicode="&#x1e94;" horiz-adv-x="1399" 
d="M130 0v233l677 896v19h-666v295h1106v-233l-677 -896v-19h698v-295h-1138zM1080 -192v-198h-762v198h762z" />
    <glyph glyph-name="Zdotbelow" unicode="&#x1e92;" horiz-adv-x="1399" 
d="M130 0v233l677 896v19h-666v295h1106v-233l-677 -896v-19h698v-295h-1138zM699 -475c-103 0 -188 81 -188 184s85 185 188 185s188 -82 188 -185s-85 -184 -188 -184z" />
    <glyph glyph-name="Zdotaccent" unicode="&#x17b;" horiz-adv-x="1399" 
d="M130 0v233l677 896v19h-666v295h1106v-233l-677 -896v-19h698v-295h-1138zM699 1579c-103 0 -188 82 -188 184c0 104 85 185 188 185s188 -81 188 -185c0 -102 -85 -184 -188 -184z" />
    <glyph glyph-name="AE" unicode="&#xc6;" horiz-adv-x="2108" 
d="M872 1167l-217 -575h337v575h-120zM992 0v327h-432l-125 -327h-362l566 1443h1326v-295h-646v-290h609v-270h-609v-293h646v-295h-973z" />
    <glyph glyph-name="AEmacron" unicode="&#x1e2;" horiz-adv-x="2108" 
d="M872 1167l-217 -575h337v575h-120zM992 0v327h-432l-125 -327h-362l566 1443h1326v-295h-646v-290h609v-270h-609v-293h646v-295h-973zM1679 1854v-197h-762v197h762z" />
    <glyph glyph-name="AEacute" unicode="&#x1fc;" horiz-adv-x="2108" 
d="M872 1167l-217 -575h337v575h-120zM992 0v327h-432l-125 -327h-362l566 1443h1326v-295h-646v-290h609v-270h-609v-293h646v-295h-973zM1425 1596h-250l168 336h342z" />
    <glyph glyph-name="OE" unicode="&#x152;" horiz-adv-x="2291" 
d="M816 1178c-206 0 -340 -179 -340 -456c0 -278 133 -457 340 -457c204 0 335 180 335 457s-131 456 -335 456zM1220 0v226h-19c-66 -158 -245 -265 -451 -265c-409 0 -648 281 -648 761c0 482 237 760 648 760c203 0 393 -109 451 -259h19v220h928v-295h-627v-288h590
v-270h-590v-295h627v-295h-928z" />
    <glyph glyph-name="Eth" unicode="&#xd0;" horiz-adv-x="1553" 
d="M537 295h173c238 0 367 148 367 434c0 269 -136 419 -367 419h-173v-294h230v-254h-230v-305zM170 1443h606c430 0 675 -256 675 -707c0 -474 -241 -736 -675 -736h-606v600h-107v254h107v589z" />
    <glyph glyph-name="Thorn" unicode="&#xde;" horiz-adv-x="1430" 
d="M170 1443h369v-219h273c299 0 502 -182 502 -480c0 -295 -212 -478 -525 -478h-252v-266h-367v1443zM537 942v-398h174c147 0 232 68 232 200c0 130 -85 198 -229 198h-177z" />
    <glyph glyph-name="Alphagreek" unicode="&#x391;" horiz-adv-x="1563" 
d="M1091 0l-90 317h-471l-93 -317h-364l484 1443h449l485 -1443h-400zM758 1118l-158 -537h332l-155 537h-19z" />
    <glyph glyph-name="Betagreek" unicode="&#x392;" horiz-adv-x="1459" 
d="M863 0h-693v1443h673c288 0 458 -136 458 -360c0 -155 -116 -286 -269 -307v-19c189 -10 335 -157 335 -341c0 -253 -195 -416 -504 -416zM537 1184v-329h194c134 0 212 62 212 164c0 103 -73 165 -198 165h-208zM537 259h222c152 0 235 67 235 189
c0 118 -85 184 -237 184h-220v-373z" />
    <glyph glyph-name="Gammagreek" unicode="&#x393;" horiz-adv-x="1231" 
d="M537 0h-367v1443h962v-295h-595v-1148z" />
    <glyph glyph-name="Deltagreek" unicode="&#x2206;" horiz-adv-x="1565" 
d="M1446 0h-1327v196l439 1247h449l439 -1247v-196zM495 314v-19h542v19l-259 814h-19z" />
    <glyph glyph-name="Deltagreek" unicode="&#x394;" horiz-adv-x="1565" 
d="M1446 0h-1327v196l439 1247h449l439 -1247v-196zM495 314v-19h542v19l-259 814h-19z" />
    <glyph glyph-name="Epsilongreek" unicode="&#x395;" horiz-adv-x="1302" 
d="M1159 295v-295h-989v1443h989v-295h-622v-288h585v-270h-585v-295h622z" />
    <glyph glyph-name="Zetagreek" unicode="&#x396;" horiz-adv-x="1399" 
d="M130 0v233l677 896v19h-666v295h1106v-233l-677 -896v-19h698v-295h-1138z" />
    <glyph glyph-name="Etagreek" unicode="&#x397;" horiz-adv-x="1648" 
d="M1478 0h-366v582h-575v-582h-367v1443h367v-566h575v566h366v-1443z" />
    <glyph glyph-name="Thetagreek" unicode="&#x398;" horiz-adv-x="1707" 
d="M1084 572h-462v288h462v-288zM854 1482c474 0 751 -276 751 -760c0 -479 -281 -761 -751 -761s-752 282 -752 761c0 484 279 760 752 760zM854 1184c-232 0 -375 -170 -375 -462s141 -463 375 -463c233 0 375 171 375 463s-142 462 -375 462z" />
    <glyph glyph-name="Iotagreek" unicode="&#x399;" horiz-adv-x="707" 
d="M537 0h-367v1443h367v-1443z" />
    <glyph glyph-name="Iotagreek.1" horiz-adv-x="1120" 
d="M109 0v284h268v875h-268v284h903v-284h-269v-875h269v-284h-903z" />
    <glyph glyph-name="Kappagreek" unicode="&#x39a;" horiz-adv-x="1507" 
d="M537 0h-367v1443h367v-620h19l480 620h394l-499 -637l528 -806h-431l-364 569l-127 -161v-408z" />
    <glyph glyph-name="Lambdagreek" unicode="&#x39b;" horiz-adv-x="1530" 
d="M1047 0l-283 1100h-19l-297 -1100h-372l465 1443h448l465 -1443h-407z" />
    <glyph glyph-name="Mugreek" unicode="&#x39c;" horiz-adv-x="1924" 
d="M1754 0h-339v911h-18l-321 -803h-227l-322 803h-18v-911h-339v1443h433l350 -885h19l349 885h433v-1443z" />
    <glyph glyph-name="Nugreek" unicode="&#x39d;" horiz-adv-x="1601" 
d="M518 0h-348v1443h293l601 -812h19v812h348v-1443h-291l-603 820h-19v-820z" />
    <glyph glyph-name="Xigreek" unicode="&#x39e;" horiz-adv-x="1388" 
d="M143 1443h1102v-304h-1102v304zM1158 584h-928v279h928v-279zM143 304h1102v-304h-1102v304z" />
    <glyph glyph-name="Omicrongreek" unicode="&#x39f;" horiz-adv-x="1627" 
d="M814 1482c433 0 711 -291 711 -760c0 -470 -277 -761 -711 -761c-436 0 -712 291 -712 761c0 469 278 760 712 760zM814 1178c-203 0 -338 -178 -338 -456c0 -279 133 -457 338 -457c202 0 337 178 337 457c0 278 -135 456 -337 456z" />
    <glyph glyph-name="Pigreek" unicode="&#x3a0;" horiz-adv-x="1628" 
d="M1458 0h-366v1148h-555v-1148h-367v1443h1288v-1443z" />
    <glyph glyph-name="Rhogreek" unicode="&#x3a1;" horiz-adv-x="1421" 
d="M170 1443h632c310 0 520 -202 520 -512c0 -307 -221 -508 -542 -508h-243v-423h-367v1443zM537 1161v-461h166c156 0 248 80 248 230c0 152 -91 231 -246 231h-168z" />
    <glyph glyph-name="Sigmagreek" unicode="&#x3a3;" horiz-adv-x="1379" 
d="M591 314v-19h657v-295h-1118v214l355 509l-332 466v254h1073v-295h-610v-19l256 -377v-38z" />
    <glyph glyph-name="Taugreek" unicode="&#x3a4;" horiz-adv-x="1381" 
d="M873 0h-366v1148h-416v295h1199v-295h-417v-1148z" />
    <glyph glyph-name="Upsilongreek" unicode="&#x3a5;" horiz-adv-x="1507" 
d="M937 0h-366v496l-498 947h391l281 -589h19l279 589h391l-497 -947v-496z" />
    <glyph glyph-name="Phigreek" unicode="&#x3a6;" horiz-adv-x="1944" 
d="M1497 712c0 241 -138 384 -361 408v-816c223 24 361 167 361 408zM448 712c0 -242 136 -384 360 -408v816c-224 -24 -360 -167 -360 -408zM1136 -131h-328v155c-423 21 -716 295 -716 688s293 667 716 688v155h328v-155c422 -21 716 -295 716 -688s-294 -667 -716 -688
v-155z" />
    <glyph glyph-name="Chigreek" unicode="&#x3a7;" horiz-adv-x="1549" 
d="M87 0l443 728v0l-442 715h428l259 -478h19l261 478h408l-461 -719v0l457 -724h-413l-274 457h-19l-276 -457h-390z" />
    <glyph glyph-name="Psigreek" unicode="&#x3a8;" horiz-adv-x="1833" 
d="M1088 0h-343v293c-380 10 -609 240 -609 613v537h344v-544c0 -196 88 -301 265 -318v862h343v-862c178 17 266 122 266 318v544h343v-537c0 -373 -229 -604 -609 -613v-293z" />
    <glyph glyph-name="Omegagreek" unicode="&#x2126;" horiz-adv-x="1645" 
d="M1175 785c0 240 -138 393 -352 393c-215 0 -353 -153 -353 -393c0 -199 76 -336 238 -428v-357h-604v280h266v19c-165 96 -266 293 -266 517c0 393 294 666 719 666c424 0 718 -273 718 -666c0 -224 -101 -421 -266 -517v-19h266v-280h-604v357c162 92 238 229 238 428z
" />
    <glyph glyph-name="Omegagreek" unicode="&#x3a9;" horiz-adv-x="1645" 
d="M1175 785c0 240 -138 393 -352 393c-215 0 -353 -153 -353 -393c0 -199 76 -336 238 -428v-357h-604v280h266v19c-165 96 -266 293 -266 517c0 393 294 666 719 666c424 0 718 -273 718 -666c0 -224 -101 -421 -266 -517v-19h266v-280h-604v357c162 92 238 229 238 428z
" />
    <glyph glyph-name="Alphatonosgreek" unicode="&#x386;" horiz-adv-x="1615" 
d="M1142 0l-90 317h-471l-93 -317h-364l484 1443h449l485 -1443h-400zM809 1118l-158 -537h332l-155 537h-19zM298 1084h-234l92 359h285z" />
    <glyph glyph-name="Epsilontonosgreek" unicode="&#x388;" horiz-adv-x="1710" 
d="M296 1084h-234l92 359h285zM1568 295v-295h-989v1443h989v-295h-622v-288h585v-270h-585v-295h622z" />
    <glyph glyph-name="Etatonosgreek" unicode="&#x389;" horiz-adv-x="2057" 
d="M296 1084h-234l92 359h285zM1887 0h-366v582h-575v-582h-367v1443h367v-566h575v566h366v-1443z" />
    <glyph glyph-name="Iotatonosgreek" unicode="&#x38a;" horiz-adv-x="1115" 
d="M296 1084h-234l92 359h285zM946 0h-367v1443h367v-1443z" />
    <glyph glyph-name="Iotadieresisgreek" unicode="&#x3aa;" horiz-adv-x="707" 
d="M537 0h-367v1443h367v-1443zM100 1589c-96 0 -174 75 -174 170c0 97 78 172 174 172c97 0 174 -75 174 -172c0 -95 -77 -170 -174 -170zM606 1589c-96 0 -174 75 -174 170c0 97 78 172 174 172s174 -75 174 -172c0 -95 -78 -170 -174 -170z" />
    <glyph glyph-name="Iotatonosgreek.1" horiz-adv-x="1581" 
d="M296 1084h-234l92 359h285zM570 0v284h268v875h-268v284h903v-284h-269v-875h269v-284h-903z" />
    <glyph glyph-name="Iotadieresisgreek.1" horiz-adv-x="1120" 
d="M109 0v284h268v875h-268v284h903v-284h-269v-875h269v-284h-903zM307 1589c-96 0 -174 75 -174 170c0 97 78 172 174 172c97 0 174 -75 174 -172c0 -95 -77 -170 -174 -170zM813 1589c-96 0 -174 75 -174 170c0 97 78 172 174 172s174 -75 174 -172
c0 -95 -78 -170 -174 -170z" />
    <glyph glyph-name="Omicrontonosgreek" unicode="&#x38c;" horiz-adv-x="1930" 
d="M296 1084h-234l92 359h285zM1117 1482c433 0 711 -291 711 -760c0 -470 -277 -761 -711 -761c-436 0 -712 291 -712 761c0 469 278 760 712 760zM1117 1178c-203 0 -338 -178 -338 -456c0 -279 133 -457 338 -457c202 0 337 178 337 457c0 278 -135 456 -337 456z" />
    <glyph glyph-name="Upsilontonosgreek" unicode="&#x38e;" horiz-adv-x="1947" 
d="M296 1084h-234l92 359h285zM1376 0h-366v496l-498 947h391l281 -589h19l279 589h391l-497 -947v-496z" />
    <glyph glyph-name="Upsilondieresisgreek" unicode="&#x3ab;" horiz-adv-x="1507" 
d="M937 0h-366v496l-498 947h391l281 -589h19l279 589h391l-497 -947v-496zM501 1589c-96 0 -174 75 -174 170c0 97 78 172 174 172c97 0 174 -75 174 -172c0 -95 -77 -170 -174 -170zM1007 1589c-96 0 -174 75 -174 170c0 97 78 172 174 172s174 -75 174 -172
c0 -95 -78 -170 -174 -170z" />
    <glyph glyph-name="Omegatonosgreek" unicode="&#x38f;" horiz-adv-x="1955" 
d="M296 1084h-234l92 359h285zM1485 785c0 240 -138 393 -352 393c-215 0 -353 -153 -353 -393c0 -199 76 -336 238 -428v-357h-604v280h266v19c-165 96 -266 293 -266 517c0 393 294 666 719 666c424 0 718 -273 718 -666c0 -224 -101 -421 -266 -517v-19h266v-280h-604
v357c162 92 238 229 238 428z" />
    <glyph glyph-name="Acyrillic" unicode="&#x410;" horiz-adv-x="1583" 
d="M1101 0l-90 317h-471l-93 -317h-364l484 1443h449l485 -1443h-400zM768 1118l-158 -537h332l-155 537h-19z" />
    <glyph glyph-name="uni04D0" unicode="&#x4d0;" horiz-adv-x="1583" 
d="M1101 0l-90 317h-471l-93 -317h-364l484 1443h449l485 -1443h-400zM768 1118l-158 -537h332l-155 537h-19zM396 1931h250c6 -91 63 -147 146 -147c84 0 140 56 146 147h250c0 -201 -157 -332 -396 -332s-396 131 -396 332z" />
    <glyph glyph-name="uni04D2" unicode="&#x4d2;" horiz-adv-x="1583" 
d="M1101 0l-90 317h-471l-93 -317h-364l484 1443h449l485 -1443h-400zM768 1118l-158 -537h332l-155 537h-19zM539 1589c-96 0 -174 75 -174 170c0 97 78 172 174 172c97 0 174 -75 174 -172c0 -95 -77 -170 -174 -170zM1045 1589c-96 0 -174 75 -174 170
c0 97 78 172 174 172s174 -75 174 -172c0 -95 -78 -170 -174 -170z" />
    <glyph glyph-name="uniF50E" horiz-adv-x="1583" 
d="M1101 0l-90 317h-471l-93 -317h-364l484 1443h449l485 -1443h-400zM768 1118l-158 -537h332l-155 537h-19zM1173 1854v-197h-762v197h762z" />
    <glyph glyph-name="uniF460" horiz-adv-x="1583" 
d="M1101 0l-90 317h-471l-93 -317h-364l484 1443h449l485 -1443h-400zM768 1118l-158 -537h332l-155 537h-19zM919 1596h-250l168 336h342z" />
    <glyph glyph-name="Becyrillic" unicode="&#x411;" horiz-adv-x="1439" 
d="M1327 466c0 -283 -210 -466 -519 -466h-628v1443h1020v-295h-653v-230h246c316 0 534 -179 534 -452zM547 283h171c147 0 235 63 235 184s-88 185 -237 185h-169v-369z" />
    <glyph glyph-name="Vecyrillic" unicode="&#x412;" horiz-adv-x="1479" 
d="M873 0h-693v1443h673c288 0 458 -136 458 -360c0 -155 -116 -286 -269 -307v-19c189 -10 335 -157 335 -341c0 -253 -195 -416 -504 -416zM547 1184v-329h194c134 0 212 62 212 164c0 103 -73 165 -198 165h-208zM547 259h222c152 0 235 67 235 189
c0 118 -85 184 -237 184h-220v-373z" />
    <glyph glyph-name="Gecyrillic" unicode="&#x413;" horiz-adv-x="1259" 
d="M547 0h-367v1443h969v-295h-602v-1148z" />
    <glyph glyph-name="Gjecyrillic" unicode="&#x403;" horiz-adv-x="1259" 
d="M547 0h-367v1443h969v-295h-602v-1148zM792 1596h-250l168 336h342z" />
    <glyph glyph-name="Geupturncyrillic" unicode="&#x490;" horiz-adv-x="1259" 
d="M547 1148v-1148h-367v1443h640v285h329v-580h-602z" />
    <glyph glyph-name="uni04F6" unicode="&#x4f6;" horiz-adv-x="1259" 
d="M1149 1148h-602v-853h180v-580h-329v285h-217h-1v1443h969v-295z" />
    <glyph glyph-name="uni0492" unicode="&#x492;" horiz-adv-x="1259" 
d="M1149 1148h-602v-318h453v-254h-453v-576h-367v576h-101v254h101v613h969v-295z" />
    <glyph glyph-name="uniF53C" horiz-adv-x="1271" 
d="M547 0h-367v1443h982v-295h-615v-329h558v-281h-558v-538z" />
    <glyph glyph-name="uni04FA" unicode="&#x4fa;" horiz-adv-x="1259" 
d="M1149 1148h-602v-318h472v-254h-472v-576h-1v-20c0 -245 -155 -370 -435 -370c-31 0 -84 3 -102 5v254c9 -1 29 -2 42 -2c92 0 129 32 129 112v21v576h-101v254h101v613h969v-295z" />
    <glyph glyph-name="Decyrillic" unicode="&#x414;" horiz-adv-x="1667" 
d="M608 644c-10 -154 -32 -262 -86 -329v-19h528v853h-409zM370 0v-285h-330v581h98c98 76 122 181 134 380l48 767h1097v-1147h180v-581h-330v285h-897z" />
    <glyph glyph-name="uni0414.BUL" horiz-adv-x="1660" 
d="M789 1058l-212 -762h450l-219 762h-19zM1438 296h159v-581h-330v285h-897v-285h-330v581h151l386 1147h464z" />
    <glyph glyph-name="Iecyrillic" unicode="&#x415;" horiz-adv-x="1322" 
d="M1169 295v-295h-989v1443h989v-295h-622v-288h585v-270h-585v-295h622z" />
    <glyph glyph-name="Iocyrillic" unicode="&#x401;" horiz-adv-x="1322" 
d="M1169 295v-295h-989v1443h989v-295h-622v-288h585v-270h-585v-295h622zM422 1589c-96 0 -174 75 -174 170c0 97 78 172 174 172c97 0 174 -75 174 -172c0 -95 -77 -170 -174 -170zM928 1589c-96 0 -174 75 -174 170c0 97 78 172 174 172s174 -75 174 -172
c0 -95 -78 -170 -174 -170z" />
    <glyph glyph-name="uni04D6" unicode="&#x4d6;" horiz-adv-x="1322" 
d="M1169 295v-295h-989v1443h989v-295h-622v-288h585v-270h-585v-295h622zM279 1931h250c6 -91 63 -147 146 -147c84 0 140 56 146 147h250c0 -201 -157 -332 -396 -332s-396 131 -396 332z" />
    </font>
</defs>
</svg>
