<?xml version="1.0" standalone="no"?>
<!DOCTYPE svg PUBLIC "-//W3C//DTD SVG 1.1//EN" "http://www.w3.org/Graphics/SVG/1.1/DTD/svg11.dtd" >
<svg xmlns="http://www.w3.org/2000/svg" xmlns:xlink="http://www.w3.org/1999/xlink" version="1.1">
<metadata>
Created by FontForge 20170924 at Tue Jun  5 15:52:00 2018
 By www-data
(c) 2015-2017 Apple Inc. All rights reserved.
</metadata>
<defs>
<font id="SFProText-Light" horiz-adv-x="1800" >
  <font-face 
    font-family="SF Pro Text"
    font-weight="300"
    font-stretch="normal"
    units-per-em="2048"
    panose-1="0 0 4 0 0 0 0 0 0 0"
    ascent="1638"
    descent="-410"
    x-height="1075"
    cap-height="1443"
    bbox="-832 -590 2662 2183"
    underline-thickness="95"
    underline-position="-369"
    stemh="120"
    stemv="134"
    unicode-range="U+0020-1F189"
  />
<missing-glyph horiz-adv-x="2048" 
d="M100 -494v308h1848v-308h-1848zM100 -67v308h1848v-308h-1848zM100 361v307h1848v-307h-1848zM100 788v307h1848v-307h-1848zM100 1215v308h1848v-308h-1848zM100 1642v308h1848v-308h-1848z" />
    <glyph glyph-name="uni24B6" unicode="A&#x20dd;" 
d="M788 682h225l-109 312h-8zM694 406h-104l251 689h118l252 -689h-105l-69 199h-273zM900 55c369 0 660 298 660 665s-291 665 -660 665s-660 -298 -660 -665s291 -665 660 -665zM900 -46c-422 0 -767 345 -767 767s345 767 767 767s767 -345 767 -767s-345 -767 -767 -767
z" />
    <glyph glyph-name="uni24B7" unicode="B&#x20dd;" 
d="M670 389v689h277c126 0 206 -68 206 -170c0 -82 -50 -136 -118 -152v-5c89 -10 157 -69 157 -169c0 -121 -98 -193 -246 -193h-276zM771 999v-218h126c103 0 155 43 155 110s-46 108 -126 108h-155zM771 707v-239h134c127 0 182 39 182 117c0 75 -53 122 -147 122h-169z
M900 55c369 0 660 298 660 665s-291 665 -660 665s-660 -298 -660 -665s291 -665 660 -665zM900 -46c-422 0 -767 345 -767 767s345 767 767 767s767 -345 767 -767s-345 -767 -767 -767z" />
    <glyph glyph-name="uni24B8" unicode="C&#x20dd;" 
d="M1088 596h104c-19 -132 -132 -224 -291 -224c-189 0 -316 145 -316 358s127 358 316 358c161 0 277 -95 292 -233h-102c-10 88 -88 149 -188 149c-128 0 -215 -111 -215 -274s87 -274 215 -274c99 0 173 59 185 140zM900 55c369 0 660 298 660 665s-291 665 -660 665
s-660 -298 -660 -665s291 -665 660 -665zM900 -46c-422 0 -767 345 -767 767s345 767 767 767s767 -345 767 -767s-345 -767 -767 -767z" />
    <glyph glyph-name="uni24B9" unicode="D&#x20dd;" 
d="M667 1071h238c207 0 316 -125 316 -339c0 -217 -109 -342 -316 -342h-238v681zM769 988v-515h123c146 0 222 87 222 258c0 167 -77 257 -222 257h-123zM900 55c369 0 660 298 660 665s-291 665 -660 665s-660 -298 -660 -665s291 -665 660 -665zM900 -46
c-422 0 -767 345 -767 767s345 767 767 767s767 -345 767 -767s-345 -767 -767 -767z" />
    <glyph glyph-name="uni24BA" unicode="E&#x20dd;" 
d="M1127 469v-83h-444v689h444v-83h-343v-216h324v-79h-324v-228h343zM900 55c369 0 660 298 660 665s-291 665 -660 665s-660 -298 -660 -665s291 -665 660 -665zM900 -46c-422 0 -767 345 -767 767s345 767 767 767s767 -345 767 -767s-345 -767 -767 -767z" />
    <glyph glyph-name="uni24BB" unicode="F&#x20dd;" 
d="M813 386h-103v689h439v-84h-336v-229h308v-82h-308v-294zM900 55c369 0 660 298 660 665s-291 665 -660 665s-660 -298 -660 -665s291 -665 660 -665zM900 -46c-422 0 -767 345 -767 767s345 767 767 767s767 -345 767 -767s-345 -767 -767 -767z" />
    <glyph glyph-name="uni24BC" unicode="G&#x20dd;" 
d="M1091 616v52h-183v77h280v-108c0 -156 -102 -265 -285 -265c-189 0 -318 145 -318 358s129 358 318 358c157 0 272 -91 289 -223h-102c-13 80 -87 139 -186 139c-129 0 -216 -109 -216 -274c0 -164 87 -274 216 -274c119 0 187 64 187 160zM900 55c369 0 660 298 660 665
s-291 665 -660 665s-660 -298 -660 -665s291 -665 660 -665zM900 -46c-422 0 -767 345 -767 767s345 767 767 767s767 -345 767 -767s-345 -767 -767 -767z" />
    <glyph glyph-name="uni24BD" unicode="H&#x20dd;" 
d="M1180 386h-102v314h-355v-314h-102v689h102v-292h355v292h102v-689zM900 55c369 0 660 298 660 665s-291 665 -660 665s-660 -298 -660 -665s291 -665 660 -665zM900 -46c-422 0 -767 345 -767 767s345 767 767 767s767 -345 767 -767s-345 -767 -767 -767z" />
    <glyph glyph-name="uni24BE" unicode="I&#x20dd;" 
d="M952 386h-104v689h104v-689zM900 55c369 0 660 298 660 665s-291 665 -660 665s-660 -298 -660 -665s291 -665 660 -665zM900 -46c-422 0 -767 345 -767 767s345 767 767 767s767 -345 767 -767s-345 -767 -767 -767z" />
    <glyph glyph-name="uni24BF" unicode="J&#x20dd;" 
d="M651 566h99c1 -62 51 -105 117 -105c77 0 118 50 118 129v485h102v-482c0 -139 -84 -220 -220 -220c-135 0 -216 85 -216 193zM900 55c369 0 660 298 660 665s-291 665 -660 665s-660 -298 -660 -665s291 -665 660 -665zM900 -46c-422 0 -767 345 -767 767
s345 767 767 767s767 -345 767 -767s-345 -767 -767 -767z" />
    <glyph glyph-name="uni24C0" unicode="&#x212a;&#x20dd;" 
d="M1190 1075l-270 -295l285 -394h-127l-234 327l-87 -91v-236h-102v689h102v-333h5l310 333h118zM900 55c369 0 660 298 660 665s-291 665 -660 665s-660 -298 -660 -665s291 -665 660 -665zM900 -46c-422 0 -767 345 -767 767s345 767 767 767s767 -345 767 -767
s-345 -767 -767 -767z" />
    <glyph glyph-name="uni24C1" unicode="L&#x20dd;" 
d="M1157 472v-86h-434v689h103v-603h331zM900 55c369 0 660 298 660 665s-291 665 -660 665s-660 -298 -660 -665s291 -665 660 -665zM900 -46c-422 0 -767 345 -767 767s345 767 767 767s767 -345 767 -767s-345 -767 -767 -767z" />
    <glyph glyph-name="uni24C2" unicode="M&#x20dd;" 
d="M654 386h-92v689h110l227 -565h4l227 565h108v-689h-92v521h-5l-202 -507h-77l-202 507h-6v-521zM900 55c369 0 660 298 660 665s-291 665 -660 665s-660 -298 -660 -665s291 -665 660 -665zM900 -46c-422 0 -767 345 -767 767s345 767 767 767s767 -345 767 -767
s-345 -767 -767 -767z" />
    <glyph glyph-name="uni24C3" unicode="N&#x20dd;" 
d="M721 386h-98v689h95l356 -528h5v528h98v-689h-95l-356 529h-5v-529zM900 55c369 0 660 298 660 665s-291 665 -660 665s-660 -298 -660 -665s291 -665 660 -665zM900 -46c-422 0 -767 345 -767 767s345 767 767 767s767 -345 767 -767s-345 -767 -767 -767z" />
    <glyph glyph-name="uni24C4" unicode="O&#x20dd;" 
d="M900 456c125 0 218 103 218 274s-93 274 -218 274s-218 -103 -218 -274s93 -274 218 -274zM900 372c-182 0 -321 135 -321 358c0 224 139 358 321 358s321 -134 321 -358c0 -223 -139 -358 -321 -358zM900 55c369 0 660 298 660 665s-291 665 -660 665
s-660 -298 -660 -665s291 -665 660 -665zM900 -46c-422 0 -767 345 -767 767s345 767 767 767s767 -345 767 -767s-345 -767 -767 -767z" />
    <glyph glyph-name="uni24C5" unicode="P&#x20dd;" 
d="M956 1075c144 0 232 -94 232 -220s-89 -219 -232 -219h-165v-250h-102v689h267zM1083 855c0 85 -54 138 -141 138h-151v-276h151c87 0 141 53 141 138zM900 55c369 0 660 298 660 665s-291 665 -660 665s-660 -298 -660 -665s291 -665 660 -665zM900 -46
c-422 0 -767 345 -767 767s345 767 767 767s767 -345 767 -767s-345 -767 -767 -767z" />
    <glyph glyph-name="uni24C6" unicode="Q&#x20dd;" 
d="M1185 311h-102l-61 84c-37 -15 -78 -23 -122 -23c-182 0 -321 135 -321 358c0 224 139 358 321 358s321 -134 321 -358c0 -133 -49 -234 -127 -294zM900 456c24 0 48 4 68 12l-88 122h101l57 -78c49 46 80 122 80 218c0 171 -93 274 -218 274s-218 -103 -218 -274
s93 -274 218 -274zM900 55c369 0 660 298 660 665s-291 665 -660 665s-660 -298 -660 -665s291 -665 660 -665zM900 -46c-422 0 -767 345 -767 767s345 767 767 767s767 -345 767 -767s-345 -767 -767 -767z" />
    <glyph glyph-name="uni24C7" unicode="R&#x20dd;" 
d="M929 1075c146 0 237 -84 237 -211c0 -99 -63 -170 -142 -194l153 -284h-115l-140 269h-159v-269h-100v689h266zM763 733h151c90 0 146 47 146 129c0 83 -57 132 -143 132h-154v-261zM900 55c369 0 660 298 660 665s-291 665 -660 665s-660 -298 -660 -665
s291 -665 660 -665zM900 -46c-422 0 -767 345 -767 767s345 767 767 767s767 -345 767 -767s-345 -767 -767 -767z" />
    <glyph glyph-name="uni24C8" unicode="S&#x20dd;" 
d="M627 575h101c7 -70 80 -122 175 -122s164 50 164 119c0 52 -41 87 -130 109l-115 27c-115 27 -175 88 -175 181c0 119 105 201 256 201c150 0 254 -80 255 -197h-98c-6 68 -72 117 -158 117s-152 -51 -152 -116c0 -46 42 -83 113 -100l114 -26c134 -32 192 -88 192 -187
c0 -128 -107 -208 -274 -208c-159 0 -264 79 -268 202zM900 55c369 0 660 298 660 665s-291 665 -660 665s-660 -298 -660 -665s291 -665 660 -665zM900 -46c-422 0 -767 345 -767 767s345 767 767 767s767 -345 767 -767s-345 -767 -767 -767z" />
    <glyph glyph-name="uni24C9" unicode="T&#x20dd;" 
d="M952 366h-103v605h-219v84h541v-84h-219v-605zM900 55c369 0 660 298 660 665s-291 665 -660 665s-660 -298 -660 -665s291 -665 660 -665zM900 -46c-422 0 -767 345 -767 767s345 767 767 767s767 -345 767 -767s-345 -767 -767 -767z" />
    <glyph glyph-name="uni24CA" unicode="U&#x20dd;" 
d="M900 436c104 0 177 64 177 171v446h102v-453c0 -151 -112 -249 -279 -249s-279 98 -279 249v453h102v-446c0 -107 73 -171 177 -171zM900 55c369 0 660 298 660 665s-291 665 -660 665s-660 -298 -660 -665s291 -665 660 -665zM900 -46c-422 0 -767 345 -767 767
s345 767 767 767s767 -345 767 -767s-345 -767 -767 -767z" />
    <glyph glyph-name="uni24CB" unicode="V&#x20dd;" 
d="M837 364l-253 689h118l195 -581h6l195 581h118l-253 -689h-126zM900 55c369 0 660 298 660 665s-291 665 -660 665s-660 -298 -660 -665s291 -665 660 -665zM900 -46c-422 0 -767 345 -767 767s345 767 767 767s767 -345 767 -767s-345 -767 -767 -767z" />
    <glyph glyph-name="uni24CC" unicode="W&#x20dd;" 
d="M900 903l-148 -539h-100l-188 689h112l129 -554h6l145 554h93l145 -554h5l129 554h112l-187 -689h-101l-148 539h-4zM900 55c369 0 660 298 660 665s-291 665 -660 665s-660 -298 -660 -665s291 -665 660 -665zM900 -46c-422 0 -767 345 -767 767s345 767 767 767
s767 -345 767 -767s-345 -767 -767 -767z" />
    <glyph glyph-name="uni24CD" unicode="X&#x20dd;" 
d="M1187 1079l-231 -346l227 -343h-119l-173 268h-5l-174 -268h-114l228 346l-226 343h122l171 -271h6l171 271h117zM900 55c369 0 660 298 660 665s-291 665 -660 665s-660 -298 -660 -665s291 -665 660 -665zM900 -46c-422 0 -767 345 -767 767s345 767 767 767
s767 -345 767 -767s-345 -767 -767 -767z" />
    <glyph glyph-name="uni24CE" unicode="Y&#x20dd;" 
d="M952 387h-103v281l-251 407h115l186 -308h4l186 308h113l-250 -405v-283zM900 55c369 0 660 298 660 665s-291 665 -660 665s-660 -298 -660 -665s291 -665 660 -665zM900 -46c-422 0 -767 345 -767 767s345 767 767 767s767 -345 767 -767s-345 -767 -767 -767z" />
    <glyph glyph-name="uni24CF" unicode="Z&#x20dd;" 
d="M637 390v71l388 528v6h-376v84h499v-71l-385 -528v-6h394v-84h-520zM900 55c369 0 660 298 660 665s-291 665 -660 665s-660 -298 -660 -665s291 -665 660 -665zM900 -46c-422 0 -767 345 -767 767s345 767 767 767s767 -345 767 -767s-345 -767 -767 -767z" />
    <glyph glyph-name="uni24EA" unicode="&#x23;&#x20dd;" 
d="M900 461c97 0 161 102 161 270c0 167 -64 270 -161 270s-161 -103 -161 -270c0 -168 64 -270 161 -270zM900 373c-152 0 -259 134 -259 358c0 223 107 357 259 357s259 -134 259 -357c0 -224 -107 -358 -259 -358zM900 55c369 0 660 298 660 665s-291 665 -660 665
s-660 -298 -660 -665s291 -665 660 -665zM900 -46c-422 0 -767 345 -767 767s345 767 767 767s767 -345 767 -767s-345 -767 -767 -767z" />
    <glyph glyph-name="uni2460" unicode="&#x31;&#x20dd;" 
d="M983 390h-102v589h-5l-170 -114v95l175 119h102v-689zM900 55c369 0 660 298 660 665s-291 665 -660 665s-660 -298 -660 -665s291 -665 660 -665zM900 -46c-422 0 -767 345 -767 767s345 767 767 767s767 -345 767 -767s-345 -767 -767 -767z" />
    <glyph glyph-name="uni2461" unicode="&#x32;&#x20dd;" 
d="M765 884h-99v5c0 105 84 203 235 203c139 0 229 -79 229 -189c0 -83 -51 -141 -121 -216l-194 -209v-5h331v-83h-472v64l271 289c47 50 83 95 83 153c0 68 -53 115 -129 115c-82 0 -134 -55 -134 -122v-5zM900 55c369 0 660 298 660 665s-291 665 -660 665
s-660 -298 -660 -665s291 -665 660 -665zM900 -46c-422 0 -767 345 -767 767s345 767 767 767s767 -345 767 -767s-345 -767 -767 -767z" />
    <glyph glyph-name="uni2462" unicode="&#x33;&#x20dd;" 
d="M822 706v79h78c75 0 131 51 131 117c-1 65 -55 111 -133 111c-75 0 -129 -46 -133 -100h-96c3 100 90 179 231 179c139 0 231 -75 233 -176c1 -93 -75 -152 -136 -163v-5c74 -8 157 -64 159 -168c1 -124 -113 -203 -258 -203c-147 0 -239 81 -245 181h96
c5 -57 68 -101 150 -102c92 0 155 53 155 127c-2 71 -62 123 -150 123h-82zM900 55c369 0 660 298 660 665s-291 665 -660 665s-660 -298 -660 -665s291 -665 660 -665zM900 -46c-422 0 -767 345 -767 767s345 767 767 767s767 -345 767 -767s-345 -767 -767 -767z" />
    <glyph glyph-name="uni2463" unicode="&#x34;&#x20dd;" 
d="M898 1079h151v-465h97v-82h-97v-142h-97v142h-349v84c77 135 208 329 295 463zM701 614h251v387h-6c-69 -102 -183 -276 -245 -383v-4zM900 55c369 0 660 298 660 665s-291 665 -660 665s-660 -298 -660 -665s291 -665 660 -665zM900 -46c-422 0 -767 345 -767 767
s345 767 767 767s767 -345 767 -767s-345 -767 -767 -767z" />
    <glyph glyph-name="uni2464" unicode="&#x35;&#x20dd;" 
d="M659 557h96c12 -63 78 -99 148 -99c83 0 155 60 155 156c0 88 -68 146 -153 146c-69 0 -114 -35 -141 -76h-90l31 395h416v-82h-332l-19 -225h5c22 32 77 67 154 67c128 0 230 -85 230 -223c0 -143 -106 -239 -261 -239c-134 0 -232 78 -239 180zM900 55
c369 0 660 298 660 665s-291 665 -660 665s-660 -298 -660 -665s291 -665 660 -665zM900 -46c-422 0 -767 345 -767 767s345 767 767 767s767 -345 767 -767s-345 -767 -767 -767z" />
    <glyph glyph-name="uni2465" unicode="&#x36;&#x20dd;" 
d="M910 374c-155 0 -273 111 -273 347c0 230 107 368 276 368c129 0 222 -73 239 -181h-102c-12 61 -65 99 -135 99c-114 0 -181 -102 -181 -285h7c31 73 103 117 191 117c133 0 231 -96 231 -227c0 -138 -105 -238 -253 -238zM909 456c87 0 154 66 154 154
c0 89 -64 152 -153 152s-156 -64 -156 -149c0 -89 67 -157 155 -157zM900 55c369 0 660 298 660 665s-291 665 -660 665s-660 -298 -660 -665s291 -665 660 -665zM900 -46c-422 0 -767 345 -767 767s345 767 767 767s767 -345 767 -767s-345 -767 -767 -767z" />
    <glyph glyph-name="uni2466" unicode="&#x37;&#x20dd;" 
d="M680 1066h473v-85l-296 -604h-109l301 601v5h-369v83zM900 55c369 0 660 298 660 665s-291 665 -660 665s-660 -298 -660 -665s291 -665 660 -665zM900 -46c-422 0 -767 345 -767 767s345 767 767 767s767 -345 767 -767s-345 -767 -767 -767z" />
    <glyph glyph-name="uni2467" unicode="&#x38;&#x20dd;" 
d="M901 452c94 0 162 56 162 132s-67 131 -162 131s-164 -56 -164 -131c0 -76 69 -132 164 -132zM901 786c79 0 136 49 136 116c0 68 -56 115 -136 115s-137 -47 -137 -115c0 -67 57 -116 137 -116zM899 377c-156 0 -263 82 -263 202c0 85 62 155 150 173v4
c-75 23 -121 82 -121 155c0 106 98 181 236 181c137 0 236 -75 236 -181c0 -72 -48 -133 -122 -155v-4c88 -18 150 -88 150 -172c0 -120 -109 -203 -266 -203zM900 55c369 0 660 298 660 665s-291 665 -660 665s-660 -298 -660 -665s291 -665 660 -665zM900 -46
c-422 0 -767 345 -767 767s345 767 767 767s767 -345 767 -767s-345 -767 -767 -767z" />
    <glyph glyph-name="uni2468" unicode="&#x39;&#x20dd;" 
d="M886 374c-124 0 -219 72 -238 180h102c14 -59 67 -98 138 -98c109 0 178 99 178 284h-7c-31 -71 -103 -116 -191 -116c-134 0 -231 96 -231 226c0 139 105 239 253 239c160 0 273 -117 273 -347s-103 -368 -277 -368zM890 702c90 0 156 64 156 148c0 89 -66 157 -155 157
s-154 -66 -154 -154c0 -87 63 -151 153 -151zM900 55c369 0 660 298 660 665s-291 665 -660 665s-660 -298 -660 -665s291 -665 660 -665zM900 -46c-422 0 -767 345 -767 767s345 767 767 767s767 -345 767 -767s-345 -767 -767 -767z" />
    <glyph glyph-name="plus.uc.whitecircle" unicode="&#x2b;&#x20dd;" 
d="M943 689v-224h-86v224h-216v82h216v215h86v-215h216v-82h-216zM900 55c369 0 660 298 660 665s-291 665 -660 665s-660 -298 -660 -665s291 -665 660 -665zM900 -46c-422 0 -767 345 -767 767s345 767 767 767s767 -345 767 -767s-345 -767 -767 -767z" />
    <glyph glyph-name="minus.uc.whitecircle" unicode="&#x2212;&#x20dd;" 
d="M1147 685h-494v84h494v-84zM900 55c369 0 660 298 660 665s-291 665 -660 665s-660 -298 -660 -665s291 -665 660 -665zM900 -46c-422 0 -767 345 -767 767s345 767 767 767s767 -345 767 -767s-345 -767 -767 -767z" />
    <glyph glyph-name="multiply.uc.whitecircle" unicode="&#xd7;&#x20dd;" 
d="M901 786l162 157l62 -59l-162 -157l162 -158l-62 -58l-161 157l-165 -160l-62 59l165 160l-162 157l61 59zM900 55c369 0 660 298 660 665s-291 665 -660 665s-660 -298 -660 -665s291 -665 660 -665zM900 -46c-422 0 -767 345 -767 767s345 767 767 767
s767 -345 767 -767s-345 -767 -767 -767z" />
    <glyph glyph-name="divide.uc.whitecircle" unicode="&#xf7;&#x20dd;" 
d="M1147 690h-494v74h494v-74zM832 925c0 39 30 66 67 66c40 0 71 -27 71 -66c0 -36 -31 -64 -71 -64c-37 0 -67 27 -67 64zM832 531c0 38 30 66 68 66c39 0 70 -27 70 -66c0 -37 -31 -64 -70 -64c-38 0 -68 27 -68 64zM900 55c369 0 660 298 660 665s-291 665 -660 665
s-660 -298 -660 -665s291 -665 660 -665zM900 -46c-422 0 -767 345 -767 767s345 767 767 767s767 -345 767 -767s-345 -767 -767 -767z" />
    <glyph glyph-name="equal.uc.whitecircle" unicode="&#x3d;&#x20dd;" 
d="M1137 582h-474v77h474v-77zM1137 795h-474v78h474v-78zM900 55c369 0 660 298 660 665s-291 665 -660 665s-660 -298 -660 -665s291 -665 660 -665zM900 -46c-422 0 -767 345 -767 767s345 767 767 767s767 -345 767 -767s-345 -767 -767 -767z" />
    <glyph glyph-name="greater.uc.whitecircle" unicode="&#x3e;&#x20dd;" 
d="M1157 754v-72l-463 -253v100l350 189v4l-350 193v102zM900 55c369 0 660 298 660 665s-291 665 -660 665s-660 -298 -660 -665s291 -665 660 -665zM900 -46c-422 0 -767 345 -767 767s345 767 767 767s767 -345 767 -767s-345 -767 -767 -767z" />
    <glyph glyph-name="less.uc.whitecircle" unicode="&#x3c;&#x20dd;" 
d="M644 682v72l462 263v-102l-350 -193v-4l350 -189v-100zM900 55c369 0 660 298 660 665s-291 665 -660 665s-660 -298 -660 -665s291 -665 660 -665zM900 -46c-422 0 -767 345 -767 767s345 767 767 767s767 -345 767 -767s-345 -767 -767 -767z" />
    <glyph glyph-name="numbersign.whitecircle" unicode="&#x30;&#x20dd;" 
d="M1181 812h-115l-33 -155h109l-16 -74h-109l-41 -196h-81l42 196h-145l-41 -196h-82l42 196h-112l15 74h112l34 155h-107l15 74h108l39 190h81l-40 -190h145l40 190h80l-39 -190h114zM837 815l-35 -165h154l35 165h-154zM900 55c369 0 660 298 660 665s-291 665 -660 665
s-660 -298 -660 -665s291 -665 660 -665zM900 -46c-422 0 -767 345 -767 767s345 767 767 767s767 -345 767 -767s-345 -767 -767 -767z" />
    <glyph glyph-name="uni25BC.whitecircle" unicode="&#x25bc;&#x20dd;" 
d="M1192 924l-292 -494l-292 494h584zM900 55c369 0 660 298 660 665s-291 665 -660 665s-660 -298 -660 -665s291 -665 660 -665zM900 -46c-422 0 -767 345 -767 767s345 767 767 767s767 -345 767 -767s-345 -767 -767 -767z" />
    <glyph glyph-name="uni25B2.whitecircle" unicode="&#x25b2;&#x20dd;" 
d="M1192 525h-584l292 494zM900 55c369 0 660 298 660 665s-291 665 -660 665s-660 -298 -660 -665s291 -665 660 -665zM900 -46c-422 0 -767 345 -767 767s345 767 767 767s767 -345 767 -767s-345 -767 -767 -767z" />
    <glyph glyph-name="uni25C0.whitecircle" unicode="&#x25c0;&#x20dd;" 
d="M1094 433l-493 292l493 292v-584zM900 55c369 0 660 298 660 665s-291 665 -660 665s-660 -298 -660 -665s291 -665 660 -665zM900 -46c-422 0 -767 345 -767 767s345 767 767 767s767 -345 767 -767s-345 -767 -767 -767z" />
    <glyph glyph-name="uni25B6.whitecircle" unicode="&#x25b6;&#x20dd;" 
d="M706 433v584l494 -292zM900 55c369 0 660 298 660 665s-291 665 -660 665s-660 -298 -660 -665s291 -665 660 -665zM900 -46c-422 0 -767 345 -767 767s345 767 767 767s767 -345 767 -767s-345 -767 -767 -767z" />
    <glyph glyph-name="question.whitecircle" unicode="&#x3f;&#x20dd;" 
d="M812 449c0 40 32 68 75 68c46 0 78 -28 78 -68c0 -37 -32 -66 -78 -66c-43 0 -75 28 -75 66zM837 604v36c-2 71 34 115 94 157c58 41 88 67 88 118c0 65 -54 100 -122 100c-79 0 -123 -53 -124 -117h-95c-2 134 107 196 224 196c120 0 219 -62 219 -174
c0 -82 -46 -123 -106 -165c-62 -45 -85 -65 -85 -120v-31h-93zM900 55c369 0 660 298 660 665s-291 665 -660 665s-660 -298 -660 -665s291 -665 660 -665zM900 -46c-422 0 -767 345 -767 767s345 767 767 767s767 -345 767 -767s-345 -767 -767 -767z" />
    <glyph glyph-name="exclam.whitecircle" unicode="&#x21;&#x20dd;" 
d="M824 449c0 40 32 69 76 69c45 0 77 -29 77 -69c0 -37 -32 -66 -77 -66s-76 28 -76 66zM846 1079h109l-10 -455h-89zM900 55c369 0 660 298 660 665s-291 665 -660 665s-660 -298 -660 -665s291 -665 660 -665zM900 -46c-422 0 -767 345 -767 767s345 767 767 767
s767 -345 767 -767s-345 -767 -767 -767z" />
    <glyph glyph-name="uni2717.whitecircle" unicode="&#x2717;&#x20dd;" 
d="M903 791l266 265l66 -65l-265 -266l265 -267l-66 -66l-266 265l-266 -265l-67 66l265 267l-266 266l66 67zM900 55c369 0 660 298 660 665s-291 665 -660 665s-660 -298 -660 -665s291 -665 660 -665zM900 -46c-422 0 -767 345 -767 767s345 767 767 767
s767 -345 767 -767s-345 -767 -767 -767z" />
    <glyph glyph-name="uni2713.whitecircle" unicode="&#x2713;&#x20dd;" 
d="M1318 960l-541 -540l-283 283l70 70l213 -214l470 472zM900 55c369 0 660 298 660 665s-291 665 -660 665s-660 -298 -660 -665s291 -665 660 -665zM900 -46c-422 0 -767 345 -767 767s345 767 767 767s767 -345 767 -767s-345 -767 -767 -767z" />
    <glyph glyph-name="uni1F130" unicode="A&#x20de;" 
d="M788 668h225l-109 312h-8zM694 392h-104l251 689h118l252 -689h-105l-69 199h-273zM399 1462h1002c135 0 239 -102 239 -236v-1009c0 -133 -104 -235 -239 -235h-1002c-134 0 -239 102 -239 235v1009c0 134 105 236 239 236zM1538 1225c0 83 -61 144 -147 144h-982
c-85 0 -147 -60 -147 -144v-1006c0 -84 62 -144 147 -144h982c86 0 147 60 147 144v1006z" />
    <glyph glyph-name="uni1F131" unicode="B&#x20de;" 
d="M670 389v689h277c126 0 206 -68 206 -170c0 -82 -50 -136 -118 -152v-5c89 -10 157 -69 157 -169c0 -121 -98 -193 -246 -193h-276zM771 999v-218h126c103 0 155 43 155 110s-46 108 -126 108h-155zM771 707v-239h134c127 0 182 39 182 117c0 75 -53 122 -147 122h-169z
M399 1462h1002c135 0 239 -102 239 -236v-1009c0 -133 -104 -235 -239 -235h-1002c-134 0 -239 102 -239 235v1009c0 134 105 236 239 236zM1538 1225c0 83 -61 144 -147 144h-982c-85 0 -147 -60 -147 -144v-1006c0 -84 62 -144 147 -144h982c86 0 147 60 147 144v1006z
" />
    <glyph glyph-name="uni1F132" unicode="C&#x20de;" 
d="M1088 596h104c-19 -132 -132 -224 -291 -224c-189 0 -316 145 -316 358s127 358 316 358c161 0 277 -95 292 -233h-102c-10 88 -88 149 -188 149c-128 0 -215 -111 -215 -274s87 -274 215 -274c99 0 173 59 185 140zM399 1462h1002c135 0 239 -102 239 -236v-1009
c0 -133 -104 -235 -239 -235h-1002c-134 0 -239 102 -239 235v1009c0 134 105 236 239 236zM1538 1225c0 83 -61 144 -147 144h-982c-85 0 -147 -60 -147 -144v-1006c0 -84 62 -144 147 -144h982c86 0 147 60 147 144v1006z" />
    <glyph glyph-name="uni1F133" unicode="D&#x20de;" 
d="M651 1071h238c207 0 316 -125 316 -339c0 -217 -109 -342 -316 -342h-238v681zM753 988v-515h123c146 0 222 87 222 258c0 167 -77 257 -222 257h-123zM399 1462h1002c135 0 239 -102 239 -236v-1009c0 -133 -104 -235 -239 -235h-1002c-134 0 -239 102 -239 235v1009
c0 134 105 236 239 236zM1538 1225c0 83 -61 144 -147 144h-982c-85 0 -147 -60 -147 -144v-1006c0 -84 62 -144 147 -144h982c86 0 147 60 147 144v1006z" />
    <glyph glyph-name="uni1F134" unicode="E&#x20de;" 
d="M1127 469v-83h-444v689h444v-83h-343v-216h324v-79h-324v-228h343zM399 1462h1002c135 0 239 -102 239 -236v-1009c0 -133 -104 -235 -239 -235h-1002c-134 0 -239 102 -239 235v1009c0 134 105 236 239 236zM1538 1225c0 83 -61 144 -147 144h-982
c-85 0 -147 -60 -147 -144v-1006c0 -84 62 -144 147 -144h982c86 0 147 60 147 144v1006z" />
    <glyph glyph-name="uni1F135" unicode="F&#x20de;" 
d="M813 386h-103v689h439v-84h-336v-229h308v-82h-308v-294zM399 1462h1002c135 0 239 -102 239 -236v-1009c0 -133 -104 -235 -239 -235h-1002c-134 0 -239 102 -239 235v1009c0 134 105 236 239 236zM1538 1225c0 83 -61 144 -147 144h-982c-85 0 -147 -60 -147 -144
v-1006c0 -84 62 -144 147 -144h982c86 0 147 60 147 144v1006z" />
    <glyph glyph-name="uni1F136" unicode="G&#x20de;" 
d="M1091 616v52h-183v77h280v-108c0 -156 -102 -265 -285 -265c-189 0 -318 145 -318 358s129 358 318 358c157 0 272 -91 289 -223h-102c-13 80 -87 139 -186 139c-129 0 -216 -109 -216 -274c0 -164 87 -274 216 -274c119 0 187 64 187 160zM399 1462h1002
c135 0 239 -102 239 -236v-1009c0 -133 -104 -235 -239 -235h-1002c-134 0 -239 102 -239 235v1009c0 134 105 236 239 236zM1538 1225c0 83 -61 144 -147 144h-982c-85 0 -147 -60 -147 -144v-1006c0 -84 62 -144 147 -144h982c86 0 147 60 147 144v1006z" />
    <glyph glyph-name="uni1F137" unicode="H&#x20de;" 
d="M1180 386h-102v314h-355v-314h-102v689h102v-292h355v292h102v-689zM399 1462h1002c135 0 239 -102 239 -236v-1009c0 -133 -104 -235 -239 -235h-1002c-134 0 -239 102 -239 235v1009c0 134 105 236 239 236zM1538 1225c0 83 -61 144 -147 144h-982
c-85 0 -147 -60 -147 -144v-1006c0 -84 62 -144 147 -144h982c86 0 147 60 147 144v1006z" />
    <glyph glyph-name="uni1F138" unicode="I&#x20de;" 
d="M952 386h-104v689h104v-689zM399 1462h1002c135 0 239 -102 239 -236v-1009c0 -133 -104 -235 -239 -235h-1002c-134 0 -239 102 -239 235v1009c0 134 105 236 239 236zM1538 1225c0 83 -61 144 -147 144h-982c-85 0 -147 -60 -147 -144v-1006c0 -84 62 -144 147 -144
h982c86 0 147 60 147 144v1006z" />
    <glyph glyph-name="uni1F139" unicode="J&#x20de;" 
d="M651 566h99c1 -62 51 -105 117 -105c77 0 118 50 118 129v485h102v-482c0 -139 -84 -220 -220 -220c-135 0 -216 85 -216 193zM399 1462h1002c135 0 239 -102 239 -236v-1009c0 -133 -104 -235 -239 -235h-1002c-134 0 -239 102 -239 235v1009c0 134 105 236 239 236z
M1538 1225c0 83 -61 144 -147 144h-982c-85 0 -147 -60 -147 -144v-1006c0 -84 62 -144 147 -144h982c86 0 147 60 147 144v1006z" />
    <glyph glyph-name="uni1F13A" unicode="&#x212a;&#x20de;" 
d="M1190 1075l-270 -295l285 -394h-127l-234 327l-87 -91v-236h-102v689h102v-333h5l310 333h118zM399 1462h1002c135 0 239 -102 239 -236v-1009c0 -133 -104 -235 -239 -235h-1002c-134 0 -239 102 -239 235v1009c0 134 105 236 239 236zM1538 1225c0 83 -61 144 -147 144
h-982c-85 0 -147 -60 -147 -144v-1006c0 -84 62 -144 147 -144h982c86 0 147 60 147 144v1006z" />
    <glyph glyph-name="uni1F13B" unicode="L&#x20de;" 
d="M1163 472v-86h-433v689h103v-603h330zM399 1462h1002c135 0 239 -102 239 -236v-1009c0 -133 -104 -235 -239 -235h-1002c-134 0 -239 102 -239 235v1009c0 134 105 236 239 236zM1538 1225c0 83 -61 144 -147 144h-982c-85 0 -147 -60 -147 -144v-1006
c0 -84 62 -144 147 -144h982c86 0 147 60 147 144v1006z" />
    <glyph glyph-name="uni1F13C" unicode="M&#x20de;" 
d="M654 386h-92v689h110l227 -565h4l227 565h108v-689h-92v521h-5l-202 -507h-77l-202 507h-6v-521zM399 1462h1002c135 0 239 -102 239 -236v-1009c0 -133 -104 -235 -239 -235h-1002c-134 0 -239 102 -239 235v1009c0 134 105 236 239 236zM1538 1225
c0 83 -61 144 -147 144h-982c-85 0 -147 -60 -147 -144v-1006c0 -84 62 -144 147 -144h982c86 0 147 60 147 144v1006z" />
    <glyph glyph-name="uni1F13D" unicode="N&#x20de;" 
d="M721 386h-98v689h95l356 -528h5v528h98v-689h-95l-356 529h-5v-529zM399 1462h1002c135 0 239 -102 239 -236v-1009c0 -133 -104 -235 -239 -235h-1002c-134 0 -239 102 -239 235v1009c0 134 105 236 239 236zM1538 1225c0 83 -61 144 -147 144h-982
c-85 0 -147 -60 -147 -144v-1006c0 -84 62 -144 147 -144h982c86 0 147 60 147 144v1006z" />
    <glyph glyph-name="uni1F13E" unicode="O&#x20de;" 
d="M900 456c125 0 218 103 218 274s-93 274 -218 274s-218 -103 -218 -274s93 -274 218 -274zM900 372c-182 0 -321 135 -321 358c0 224 139 358 321 358s321 -134 321 -358c0 -223 -139 -358 -321 -358zM399 1462h1002c135 0 239 -102 239 -236v-1009
c0 -133 -104 -235 -239 -235h-1002c-134 0 -239 102 -239 235v1009c0 134 105 236 239 236zM1538 1225c0 83 -61 144 -147 144h-982c-85 0 -147 -60 -147 -144v-1006c0 -84 62 -144 147 -144h982c86 0 147 60 147 144v1006z" />
    <glyph glyph-name="uni1F13F" unicode="P&#x20de;" 
d="M956 1075c144 0 232 -94 232 -220s-89 -219 -232 -219h-165v-250h-102v689h267zM1083 855c0 85 -54 138 -141 138h-151v-276h151c87 0 141 53 141 138zM399 1462h1002c135 0 239 -102 239 -236v-1009c0 -133 -104 -235 -239 -235h-1002c-134 0 -239 102 -239 235v1009
c0 134 105 236 239 236zM1538 1225c0 83 -61 144 -147 144h-982c-85 0 -147 -60 -147 -144v-1006c0 -84 62 -144 147 -144h982c86 0 147 60 147 144v1006z" />
    <glyph glyph-name="uni1F140" unicode="Q&#x20de;" 
d="M1185 311h-102l-61 84c-37 -15 -78 -23 -122 -23c-182 0 -321 135 -321 358c0 224 139 358 321 358s321 -134 321 -358c0 -133 -49 -234 -127 -294zM900 456c24 0 48 4 68 12l-88 122h101l57 -78c49 46 80 122 80 218c0 171 -93 274 -218 274s-218 -103 -218 -274
s93 -274 218 -274zM399 1462h1002c135 0 239 -102 239 -236v-1009c0 -133 -104 -235 -239 -235h-1002c-134 0 -239 102 -239 235v1009c0 134 105 236 239 236zM1538 1225c0 83 -61 144 -147 144h-982c-85 0 -147 -60 -147 -144v-1006c0 -84 62 -144 147 -144h982
c86 0 147 60 147 144v1006z" />
    <glyph glyph-name="uni1F141" unicode="R&#x20de;" 
d="M929 1075c146 0 237 -84 237 -211c0 -99 -63 -170 -142 -194l153 -284h-115l-140 269h-159v-269h-100v689h266zM763 733h151c90 0 146 47 146 129c0 83 -57 132 -143 132h-154v-261zM399 1462h1002c135 0 239 -102 239 -236v-1009c0 -133 -104 -235 -239 -235h-1002
c-134 0 -239 102 -239 235v1009c0 134 105 236 239 236zM1538 1225c0 83 -61 144 -147 144h-982c-85 0 -147 -60 -147 -144v-1006c0 -84 62 -144 147 -144h982c86 0 147 60 147 144v1006z" />
    <glyph glyph-name="uni1F142" unicode="S&#x20de;" 
d="M627 575h101c7 -70 80 -122 175 -122s164 50 164 119c0 52 -41 87 -130 109l-115 27c-115 27 -175 88 -175 181c0 119 105 201 256 201c150 0 254 -80 255 -197h-98c-6 68 -72 117 -158 117s-152 -51 -152 -116c0 -46 42 -83 113 -100l114 -26c134 -32 192 -88 192 -187
c0 -128 -107 -208 -274 -208c-159 0 -264 79 -268 202zM399 1462h1002c135 0 239 -102 239 -236v-1009c0 -133 -104 -235 -239 -235h-1002c-134 0 -239 102 -239 235v1009c0 134 105 236 239 236zM1538 1225c0 83 -61 144 -147 144h-982c-85 0 -147 -60 -147 -144v-1006
c0 -84 62 -144 147 -144h982c86 0 147 60 147 144v1006z" />
    <glyph glyph-name="uni1F143" unicode="T&#x20de;" 
d="M952 380h-103v604h-219v85h541v-85h-219v-604zM399 1462h1002c135 0 239 -102 239 -236v-1009c0 -133 -104 -235 -239 -235h-1002c-134 0 -239 102 -239 235v1009c0 134 105 236 239 236zM1538 1225c0 83 -61 144 -147 144h-982c-85 0 -147 -60 -147 -144v-1006
c0 -84 62 -144 147 -144h982c86 0 147 60 147 144v1006z" />
    <glyph glyph-name="uni1F144" unicode="U&#x20de;" 
d="M900 450c104 0 177 64 177 171v446h102v-453c0 -151 -112 -250 -279 -250s-279 99 -279 250v453h102v-446c0 -107 73 -171 177 -171zM399 1462h1002c135 0 239 -102 239 -236v-1009c0 -133 -104 -235 -239 -235h-1002c-134 0 -239 102 -239 235v1009
c0 134 105 236 239 236zM1538 1225c0 83 -61 144 -147 144h-982c-85 0 -147 -60 -147 -144v-1006c0 -84 62 -144 147 -144h982c86 0 147 60 147 144v1006z" />
    <glyph glyph-name="uni1F145" unicode="V&#x20de;" 
d="M837 378l-253 688h118l195 -580h6l195 580h118l-253 -688h-126zM399 1462h1002c135 0 239 -102 239 -236v-1009c0 -133 -104 -235 -239 -235h-1002c-134 0 -239 102 -239 235v1009c0 134 105 236 239 236zM1538 1225c0 83 -61 144 -147 144h-982
c-85 0 -147 -60 -147 -144v-1006c0 -84 62 -144 147 -144h982c86 0 147 60 147 144v1006z" />
    <glyph glyph-name="uni1F146" unicode="W&#x20de;" 
d="M900 917l-148 -539h-100l-188 688h112l129 -553h6l145 553h93l145 -553h5l129 553h112l-187 -688h-101l-148 539h-4zM399 1462h1002c135 0 239 -102 239 -236v-1009c0 -133 -104 -235 -239 -235h-1002c-134 0 -239 102 -239 235v1009c0 134 105 236 239 236zM1538 1225
c0 83 -61 144 -147 144h-982c-85 0 -147 -60 -147 -144v-1006c0 -84 62 -144 147 -144h982c86 0 147 60 147 144v1006z" />
    <glyph glyph-name="uni1F147" unicode="X&#x20de;" 
d="M1187 1079l-231 -346l227 -343h-119l-173 268h-5l-174 -268h-114l228 346l-226 343h122l171 -271h6l171 271h117zM399 1462h1002c135 0 239 -102 239 -236v-1009c0 -133 -104 -235 -239 -235h-1002c-134 0 -239 102 -239 235v1009c0 134 105 236 239 236zM1538 1225
c0 83 -61 144 -147 144h-982c-85 0 -147 -60 -147 -144v-1006c0 -84 62 -144 147 -144h982c86 0 147 60 147 144v1006z" />
    <glyph glyph-name="uni1F148" unicode="Y&#x20de;" 
d="M952 390h-103v282l-251 407h115l186 -309h4l186 309h113l-250 -406v-283zM399 1462h1002c135 0 239 -102 239 -236v-1009c0 -133 -104 -235 -239 -235h-1002c-134 0 -239 102 -239 235v1009c0 134 105 236 239 236zM1538 1225c0 83 -61 144 -147 144h-982
c-85 0 -147 -60 -147 -144v-1006c0 -84 62 -144 147 -144h982c86 0 147 60 147 144v1006z" />
    <glyph glyph-name="uni1F149" unicode="Z&#x20de;" 
d="M637 390v71l388 528v6h-376v84h499v-71l-385 -528v-6h394v-84h-520zM399 1462h1002c135 0 239 -102 239 -236v-1009c0 -133 -104 -235 -239 -235h-1002c-134 0 -239 102 -239 235v1009c0 134 105 236 239 236zM1538 1225c0 83 -61 144 -147 144h-982
c-85 0 -147 -60 -147 -144v-1006c0 -84 62 -144 147 -144h982c86 0 147 60 147 144v1006z" />
    <glyph glyph-name="zero.whitesquare" unicode="&#x30;&#x20de;" 
d="M900 461c97 0 161 102 161 270c0 167 -64 270 -161 270s-161 -103 -161 -270c0 -168 64 -270 161 -270zM900 373c-152 0 -259 134 -259 358c0 223 107 357 259 357s259 -134 259 -357c0 -224 -107 -358 -259 -358zM399 1462h1002c135 0 239 -102 239 -236v-1009
c0 -133 -104 -235 -239 -235h-1002c-134 0 -239 102 -239 235v1009c0 134 105 236 239 236zM1538 1225c0 83 -61 144 -147 144h-982c-85 0 -147 -60 -147 -144v-1006c0 -84 62 -144 147 -144h982c86 0 147 60 147 144v1006z" />
    <glyph glyph-name="one.whitesquare" unicode="&#x31;&#x20de;" 
d="M990 390h-102v589h-5l-170 -114v95l175 119h102v-689zM399 1462h1002c135 0 239 -102 239 -236v-1009c0 -133 -104 -235 -239 -235h-1002c-134 0 -239 102 -239 235v1009c0 134 105 236 239 236zM1538 1225c0 83 -61 144 -147 144h-982c-85 0 -147 -60 -147 -144v-1006
c0 -84 62 -144 147 -144h982c86 0 147 60 147 144v1006z" />
    <glyph glyph-name="two.whitesquare" unicode="&#x32;&#x20de;" 
d="M765 884h-99v5c0 105 84 203 235 203c139 0 229 -79 229 -189c0 -83 -51 -141 -121 -216l-194 -209v-5h331v-83h-472v64l271 289c47 50 83 95 83 153c0 68 -53 115 -129 115c-82 0 -134 -55 -134 -122v-5zM399 1462h1002c135 0 239 -102 239 -236v-1009
c0 -133 -104 -235 -239 -235h-1002c-134 0 -239 102 -239 235v1009c0 134 105 236 239 236zM1538 1225c0 83 -61 144 -147 144h-982c-85 0 -147 -60 -147 -144v-1006c0 -84 62 -144 147 -144h982c86 0 147 60 147 144v1006z" />
    <glyph glyph-name="three.whitesquare" unicode="&#x33;&#x20de;" 
d="M822 706v79h78c75 0 131 51 131 117c-1 65 -55 111 -133 111c-75 0 -129 -46 -133 -100h-96c3 100 90 179 231 179c139 0 231 -75 233 -176c1 -93 -75 -152 -136 -163v-5c74 -8 157 -64 159 -168c1 -124 -113 -203 -258 -203c-147 0 -239 81 -245 181h96
c5 -57 68 -101 150 -102c92 0 155 53 155 127c-2 71 -62 123 -150 123h-82zM399 1462h1002c135 0 239 -102 239 -236v-1009c0 -133 -104 -235 -239 -235h-1002c-134 0 -239 102 -239 235v1009c0 134 105 236 239 236zM1538 1225c0 83 -61 144 -147 144h-982
c-85 0 -147 -60 -147 -144v-1006c0 -84 62 -144 147 -144h982c86 0 147 60 147 144v1006z" />
    <glyph glyph-name="four.whitesquare" unicode="&#x34;&#x20de;" 
d="M912 1079h151v-465h97v-82h-97v-142h-97v142h-350v84c78 135 209 329 296 463zM715 614h251v387h-6c-69 -102 -184 -276 -245 -383v-4zM399 1462h1002c135 0 239 -102 239 -236v-1009c0 -133 -104 -235 -239 -235h-1002c-134 0 -239 102 -239 235v1009
c0 134 105 236 239 236zM1538 1225c0 83 -61 144 -147 144h-982c-85 0 -147 -60 -147 -144v-1006c0 -84 62 -144 147 -144h982c86 0 147 60 147 144v1006z" />
    <glyph glyph-name="five.whitesquare" unicode="&#x35;&#x20de;" 
d="M659 557h96c12 -63 78 -99 148 -99c83 0 155 60 155 156c0 88 -68 146 -153 146c-69 0 -114 -35 -141 -76h-90l31 395h416v-82h-332l-19 -225h5c22 32 77 67 154 67c128 0 230 -85 230 -223c0 -143 -106 -239 -261 -239c-134 0 -232 78 -239 180zM399 1462h1002
c135 0 239 -102 239 -236v-1009c0 -133 -104 -235 -239 -235h-1002c-134 0 -239 102 -239 235v1009c0 134 105 236 239 236zM1538 1225c0 83 -61 144 -147 144h-982c-85 0 -147 -60 -147 -144v-1006c0 -84 62 -144 147 -144h982c86 0 147 60 147 144v1006z" />
    <glyph glyph-name="six.whitesquare" unicode="&#x36;&#x20de;" 
d="M921 374c-161 0 -284 111 -284 348c0 231 112 370 288 370c134 0 231 -73 248 -181h-102c-13 61 -69 99 -144 99c-122 0 -192 -103 -193 -287h8c32 73 109 118 202 118c139 0 241 -97 241 -228c0 -139 -110 -239 -264 -239zM921 455c93 0 164 68 164 156
c0 89 -68 153 -164 153c-95 0 -166 -65 -166 -150c0 -90 71 -159 166 -159zM399 1462h1002c135 0 239 -102 239 -236v-1009c0 -133 -104 -235 -239 -235h-1002c-134 0 -239 102 -239 235v1009c0 134 105 236 239 236zM1538 1225c0 83 -61 144 -147 144h-982
c-85 0 -147 -60 -147 -144v-1006c0 -84 62 -144 147 -144h982c86 0 147 60 147 144v1006z" />
    <glyph glyph-name="seven.whitesquare" unicode="&#x37;&#x20de;" 
d="M670 1079h473v-85l-296 -604h-109l301 601v5h-369v83zM399 1462h1002c135 0 239 -102 239 -236v-1009c0 -133 -104 -235 -239 -235h-1002c-134 0 -239 102 -239 235v1009c0 134 105 236 239 236zM1538 1225c0 83 -61 144 -147 144h-982c-85 0 -147 -60 -147 -144v-1006
c0 -84 62 -144 147 -144h982c86 0 147 60 147 144v1006z" />
    <glyph glyph-name="eight.whitesquare" unicode="&#x38;&#x20de;" 
d="M901 452c94 0 162 56 162 132s-67 131 -162 131s-164 -56 -164 -131c0 -76 69 -132 164 -132zM901 786c79 0 136 49 136 116c0 68 -56 115 -136 115s-137 -47 -137 -115c0 -67 57 -116 137 -116zM899 377c-156 0 -263 82 -263 202c0 85 62 155 150 173v4
c-75 23 -121 82 -121 155c0 106 98 181 236 181c137 0 236 -75 236 -181c0 -72 -48 -133 -122 -155v-4c88 -18 150 -88 150 -172c0 -120 -109 -203 -266 -203zM399 1462h1002c135 0 239 -102 239 -236v-1009c0 -133 -104 -235 -239 -235h-1002c-134 0 -239 102 -239 235
v1009c0 134 105 236 239 236zM1538 1225c0 83 -61 144 -147 144h-982c-85 0 -147 -60 -147 -144v-1006c0 -84 62 -144 147 -144h982c86 0 147 60 147 144v1006z" />
    <glyph glyph-name="nine.whitesquare" unicode="&#x39;&#x20de;" 
d="M897 374c-130 0 -228 72 -248 181h101c17 -60 73 -99 148 -99c117 0 190 99 190 286h-7c-32 -72 -109 -117 -202 -117c-140 0 -242 96 -242 227c0 139 110 240 264 240c166 0 284 -117 284 -348s-107 -370 -288 -370zM901 702c95 0 167 66 167 149c0 90 -71 159 -166 159
c-94 0 -165 -67 -165 -155s68 -153 164 -153zM399 1462h1002c135 0 239 -102 239 -236v-1009c0 -133 -104 -235 -239 -235h-1002c-134 0 -239 102 -239 235v1009c0 134 105 236 239 236zM1538 1225c0 83 -61 144 -147 144h-982c-85 0 -147 -60 -147 -144v-1006
c0 -84 62 -144 147 -144h982c86 0 147 60 147 144v1006z" />
    <glyph glyph-name="plus.uc.whitesquare" unicode="&#x2b;&#x20de;" 
d="M943 689v-224h-86v224h-216v82h216v215h86v-215h216v-82h-216zM399 1462h1002c135 0 239 -102 239 -236v-1009c0 -133 -104 -235 -239 -235h-1002c-134 0 -239 102 -239 235v1009c0 134 105 236 239 236zM1538 1225c0 83 -61 144 -147 144h-982c-85 0 -147 -60 -147 -144
v-1006c0 -84 62 -144 147 -144h982c86 0 147 60 147 144v1006z" />
    <glyph glyph-name="minus.uc.whitesquare" unicode="&#x2212;&#x20de;" 
d="M1147 685h-494v84h494v-84zM399 1462h1002c135 0 239 -102 239 -236v-1009c0 -133 -104 -235 -239 -235h-1002c-134 0 -239 102 -239 235v1009c0 134 105 236 239 236zM1538 1225c0 83 -61 144 -147 144h-982c-85 0 -147 -60 -147 -144v-1006c0 -84 62 -144 147 -144h982
c86 0 147 60 147 144v1006z" />
    <glyph glyph-name="multiply.uc.whitesquare" unicode="&#xd7;&#x20de;" 
d="M901 786l162 157l62 -59l-162 -157l162 -158l-62 -58l-161 157l-165 -160l-62 59l165 160l-162 157l61 59zM399 1462h1002c135 0 239 -102 239 -236v-1009c0 -133 -104 -235 -239 -235h-1002c-134 0 -239 102 -239 235v1009c0 134 105 236 239 236zM1538 1225
c0 83 -61 144 -147 144h-982c-85 0 -147 -60 -147 -144v-1006c0 -84 62 -144 147 -144h982c86 0 147 60 147 144v1006z" />
    <glyph glyph-name="divide.uc.whitesquare" unicode="&#xf7;&#x20de;" 
d="M1147 690h-494v74h494v-74zM832 925c0 39 30 66 67 66c40 0 71 -27 71 -66c0 -36 -31 -64 -71 -64c-37 0 -67 27 -67 64zM832 531c0 38 30 66 68 66c39 0 70 -27 70 -66c0 -37 -31 -64 -70 -64c-38 0 -68 27 -68 64zM399 1462h1002c135 0 239 -102 239 -236v-1009
c0 -133 -104 -235 -239 -235h-1002c-134 0 -239 102 -239 235v1009c0 134 105 236 239 236zM1538 1225c0 83 -61 144 -147 144h-982c-85 0 -147 -60 -147 -144v-1006c0 -84 62 -144 147 -144h982c86 0 147 60 147 144v1006z" />
    <glyph glyph-name="equal.uc.whitesquare" unicode="&#x3d;&#x20de;" 
d="M1137 582h-474v77h474v-77zM1137 795h-474v78h474v-78zM399 1462h1002c135 0 239 -102 239 -236v-1009c0 -133 -104 -235 -239 -235h-1002c-134 0 -239 102 -239 235v1009c0 134 105 236 239 236zM1538 1225c0 83 -61 144 -147 144h-982c-85 0 -147 -60 -147 -144v-1006
c0 -84 62 -144 147 -144h982c86 0 147 60 147 144v1006z" />
    <glyph glyph-name="greater.uc.whitesquare" unicode="&#x3e;&#x20de;" 
d="M1157 754v-72l-463 -253v100l350 189v4l-350 193v102zM399 1462h1002c135 0 239 -102 239 -236v-1009c0 -133 -104 -235 -239 -235h-1002c-134 0 -239 102 -239 235v1009c0 134 105 236 239 236zM1538 1225c0 83 -61 144 -147 144h-982c-85 0 -147 -60 -147 -144v-1006
c0 -84 62 -144 147 -144h982c86 0 147 60 147 144v1006z" />
    <glyph glyph-name="less.uc.whitesquare" unicode="&#x3c;&#x20de;" 
d="M644 682v72l462 263v-102l-350 -193v-4l350 -189v-100zM399 1462h1002c135 0 239 -102 239 -236v-1009c0 -133 -104 -235 -239 -235h-1002c-134 0 -239 102 -239 235v1009c0 134 105 236 239 236zM1538 1225c0 83 -61 144 -147 144h-982c-85 0 -147 -60 -147 -144v-1006
c0 -84 62 -144 147 -144h982c86 0 147 60 147 144v1006z" />
    <glyph glyph-name="numbersign.whitesquare" unicode="&#x23;&#x20de;" 
d="M1181 812h-115l-33 -155h109l-16 -74h-109l-41 -196h-81l42 196h-145l-41 -196h-82l42 196h-112l15 74h112l34 155h-107l15 74h108l39 190h81l-40 -190h145l40 190h80l-39 -190h114zM837 815l-35 -165h154l35 165h-154zM399 1462h1002c135 0 239 -102 239 -236v-1009
c0 -133 -104 -235 -239 -235h-1002c-134 0 -239 102 -239 235v1009c0 134 105 236 239 236zM1538 1225c0 83 -61 144 -147 144h-982c-85 0 -147 -60 -147 -144v-1006c0 -84 62 -144 147 -144h982c86 0 147 60 147 144v1006z" />
    <glyph glyph-name="uni25BC.whitesquare" unicode="&#x25bc;&#x20de;" 
d="M1193 924l-292 -494l-293 494h585zM399 1462h1002c135 0 239 -102 239 -236v-1009c0 -133 -104 -235 -239 -235h-1002c-134 0 -239 102 -239 235v1009c0 134 105 236 239 236zM1538 1225c0 83 -61 144 -147 144h-982c-85 0 -147 -60 -147 -144v-1006
c0 -84 62 -144 147 -144h982c86 0 147 60 147 144v1006z" />
    <glyph glyph-name="uni25B2.whitesquare" unicode="&#x25b2;&#x20de;" 
d="M1192 525h-584l292 494zM399 1462h1002c135 0 239 -102 239 -236v-1009c0 -133 -104 -235 -239 -235h-1002c-134 0 -239 102 -239 235v1009c0 134 105 236 239 236zM1538 1225c0 83 -61 144 -147 144h-982c-85 0 -147 -60 -147 -144v-1006c0 -84 62 -144 147 -144h982
c86 0 147 60 147 144v1006z" />
    <glyph glyph-name="uni25C0.whitesquare" unicode="&#x25c0;&#x20de;" 
d="M1094 433l-493 292l493 292v-584zM399 1462h1002c135 0 239 -102 239 -236v-1009c0 -133 -104 -235 -239 -235h-1002c-134 0 -239 102 -239 235v1009c0 134 105 236 239 236zM1538 1225c0 83 -61 144 -147 144h-982c-85 0 -147 -60 -147 -144v-1006
c0 -84 62 -144 147 -144h982c86 0 147 60 147 144v1006z" />
    <glyph glyph-name="uni25B6.whitesquare" unicode="&#x25b6;&#x20de;" 
d="M706 433v584l494 -292zM399 1462h1002c135 0 239 -102 239 -236v-1009c0 -133 -104 -235 -239 -235h-1002c-134 0 -239 102 -239 235v1009c0 134 105 236 239 236zM1538 1225c0 83 -61 144 -147 144h-982c-85 0 -147 -60 -147 -144v-1006c0 -84 62 -144 147 -144h982
c86 0 147 60 147 144v1006z" />
    <glyph glyph-name="question.whitesquare" unicode="&#x3f;&#x20de;" 
d="M812 449c0 40 32 68 75 68c46 0 78 -28 78 -68c0 -37 -32 -66 -78 -66c-43 0 -75 28 -75 66zM678 898c-2 134 107 196 224 196c120 0 219 -62 219 -174c0 -82 -46 -123 -106 -165c-62 -45 -85 -65 -85 -120v-31h-93v36c-2 71 34 115 94 157c58 41 88 67 88 118
c0 65 -54 100 -122 100c-79 0 -123 -53 -124 -117h-95zM399 1462h1002c135 0 239 -102 239 -236v-1009c0 -133 -104 -235 -239 -235h-1002c-134 0 -239 102 -239 235v1009c0 134 105 236 239 236zM1538 1225c0 83 -61 144 -147 144h-982c-85 0 -147 -60 -147 -144v-1006
c0 -84 62 -144 147 -144h982c86 0 147 60 147 144v1006z" />
    <glyph glyph-name="exclam.whitesquare" unicode="&#x21;&#x20de;" 
d="M824 449c0 40 32 69 76 69c45 0 77 -29 77 -69c0 -37 -32 -66 -77 -66s-76 28 -76 66zM846 1079h109l-10 -455h-89zM399 1462h1002c135 0 239 -102 239 -236v-1009c0 -133 -104 -235 -239 -235h-1002c-134 0 -239 102 -239 235v1009c0 134 105 236 239 236zM1538 1225
c0 83 -61 144 -147 144h-982c-85 0 -147 -60 -147 -144v-1006c0 -84 62 -144 147 -144h982c86 0 147 60 147 144v1006z" />
    <glyph glyph-name="uni2717.whitesquare" unicode="&#x2717;&#x20de;" 
d="M903 791l266 265l66 -65l-265 -266l265 -267l-66 -66l-266 265l-266 -265l-67 66l265 267l-266 266l66 67zM399 1462h1002c135 0 239 -102 239 -236v-1009c0 -133 -104 -235 -239 -235h-1002c-134 0 -239 102 -239 235v1009c0 134 105 236 239 236zM1538 1225
c0 83 -61 144 -147 144h-982c-85 0 -147 -60 -147 -144v-1006c0 -84 62 -144 147 -144h982c86 0 147 60 147 144v1006z" />
    <glyph glyph-name="uni2713.whitesquare" unicode="&#x2713;&#x20de;" 
d="M1318 960l-541 -540l-283 283l70 70l213 -214l470 472zM399 1462h1002c135 0 239 -102 239 -236v-1009c0 -133 -104 -235 -239 -235h-1002c-134 0 -239 102 -239 235v1009c0 134 105 236 239 236zM1538 1225c0 83 -61 144 -147 144h-982c-85 0 -147 -60 -147 -144v-1006
c0 -84 62 -144 147 -144h982c86 0 147 60 147 144v1006z" />
    <glyph glyph-name="uni1F150" unicode="A&#x20dd;&#x25cf;" 
d="M1015 683h-230l113 324h4zM683 376l73 213h288l74 -213h125l-273 752h-140l-273 -752h126zM900 -46c-422 0 -767 345 -767 767s345 767 767 767s767 -345 767 -767s-345 -767 -767 -767z" />
    <glyph glyph-name="uni1F151" unicode="B&#x20dd;&#x25cf;" 
d="M642 360h303c166 0 271 80 271 211c0 101 -65 171 -166 186v1c75 21 123 83 123 166c0 111 -87 187 -227 187h-304v-751zM762 1017h161c82 0 130 -43 130 -112c0 -72 -56 -114 -162 -114h-129v226zM762 701h177c96 0 153 -47 153 -126c0 -82 -61 -121 -192 -121h-138v247
zM900 -46c-422 0 -767 345 -767 767s345 767 767 767s767 -345 767 -767s-345 -767 -767 -767z" />
    <glyph glyph-name="uni1F152" unicode="C&#x20dd;&#x25cf;" 
d="M1098 584c-15 -77 -92 -137 -194 -137c-131 0 -225 113 -225 283c0 169 94 284 225 284c102 0 182 -67 197 -148h122c-19 150 -144 254 -321 254c-207 0 -348 -158 -348 -390s141 -390 348 -390c174 0 296 99 319 244h-123zM900 -46c-422 0 -767 345 -767 767
s345 767 767 767s767 -345 767 -767s-345 -767 -767 -767z" />
    <glyph glyph-name="uni1F153" unicode="D&#x20dd;&#x25cf;" 
d="M637 1104v-743h262c222 0 346 131 346 373c0 238 -124 370 -346 370h-262zM757 1004h128c153 0 236 -93 236 -272c0 -183 -83 -271 -236 -271h-128v543zM900 -46c-422 0 -767 345 -767 767s345 767 767 767s767 -345 767 -767s-345 -767 -767 -767z" />
    <glyph glyph-name="uni1F154" unicode="E&#x20dd;&#x25cf;" 
d="M1147 456h-369v234h348v95h-348v223h369v100h-490v-752h490v100zM900 -46c-422 0 -767 345 -767 767s345 767 767 767s767 -345 767 -767s-345 -767 -767 -767z" />
    <glyph glyph-name="uni1F155" unicode="F&#x20dd;&#x25cf;" 
d="M807 356v316h332v100h-332v235h361v101h-482v-752h121zM900 -46c-422 0 -767 345 -767 767s345 767 767 767s767 -345 767 -767s-345 -767 -767 -767z" />
    <glyph glyph-name="uni1F156" unicode="G&#x20dd;&#x25cf;" 
d="M1101 626c0 -97 -68 -174 -196 -174c-132 0 -225 107 -225 278s93 279 225 279c109 0 183 -57 194 -125h123c-19 136 -146 236 -318 236c-207 0 -350 -158 -350 -390s142 -389 349 -389c196 0 316 128 316 299v119h-304v-103h186v-30zM900 -46c-422 0 -767 345 -767 767
s345 767 767 767s767 -345 767 -767s-345 -767 -767 -767z" />
    <glyph glyph-name="uni1F157" unicode="H&#x20dd;&#x25cf;" 
d="M1208 356v752h-120v-315h-375v315h-121v-752h121v337h375v-337h120zM900 -46c-422 0 -767 345 -767 767s345 767 767 767s767 -345 767 -767s-345 -767 -767 -767z" />
    <glyph glyph-name="uni1F158" unicode="I&#x20dd;&#x25cf;" 
d="M960 356v752h-120v-752h120zM900 -46c-422 0 -767 345 -767 767s345 767 767 767s767 -345 767 -767s-345 -767 -767 -767z" />
    <glyph glyph-name="uni1F159" unicode="J&#x20dd;&#x25cf;" 
d="M626 559c1 -130 97 -216 239 -216c152 0 242 89 242 241v524h-121v-528c0 -84 -43 -132 -122 -132c-70 0 -118 46 -120 111h-118zM900 -46c-422 0 -767 345 -767 767s345 767 767 767s767 -345 767 -767s-345 -767 -767 -767z" />
    <glyph glyph-name="uni1F15A" unicode="&#x212a;&#x20dd;&#x25cf;" 
d="M1217 1108h-139l-330 -356h-1v356h-121v-752h121v257l87 92l250 -349h148l-311 428zM901 -46c-422 0 -767 345 -767 767s345 767 767 767s767 -345 767 -767s-345 -767 -767 -767z" />
    <glyph glyph-name="uni1F15B" unicode="L&#x20dd;&#x25cf;" 
d="M1175 459h-354v649h-121v-752h475v103zM900 -46c-422 0 -767 345 -767 767s345 767 767 767s767 -345 767 -767s-345 -767 -767 -767z" />
    <glyph glyph-name="uni1F15C" unicode="M&#x20dd;&#x25cf;" 
d="M640 356v563h1l213 -545h92l212 542h2v-560h111v752h-129l-242 -608h-1l-240 608h-129v-752h110zM900 -46c-422 0 -767 345 -767 767s345 767 767 767s767 -345 767 -767s-345 -767 -767 -767z" />
    <glyph glyph-name="uni1F15D" unicode="N&#x20dd;&#x25cf;" 
d="M713 356v565h1l377 -565h113v752h-116v-565h-1l-379 565h-111v-752h116zM900 -46c-422 0 -767 345 -767 767s345 767 767 767s767 -345 767 -767s-345 -767 -767 -767z" />
    <glyph glyph-name="uni1F15E" unicode="O&#x20dd;&#x25cf;" 
d="M900 443c-130 0 -228 107 -228 287s98 288 228 288s228 -108 228 -288s-98 -287 -228 -287zM900 340c199 0 350 146 350 390c0 245 -151 390 -350 390s-350 -145 -350 -390c0 -244 151 -390 350 -390zM900 -46c-422 0 -767 345 -767 767s345 767 767 767
s767 -345 767 -767s-345 -767 -767 -767z" />
    <glyph glyph-name="uni1F15F" unicode="P&#x20dd;&#x25cf;" 
d="M955 1108h-293v-752h121v271h172c152 0 256 96 256 239s-104 242 -256 242zM1087 866c0 -87 -56 -143 -147 -143h-157v287h157c91 0 147 -56 147 -144zM900 -46c-422 0 -767 345 -767 767s345 767 767 767s767 -345 767 -767s-345 -767 -767 -767z" />
    <glyph glyph-name="uni1F160" unicode="Q&#x20dd;&#x25cf;" 
d="M1220 277l-102 138c82 65 132 174 132 315c0 245 -151 390 -350 390s-350 -145 -350 -390c0 -244 151 -390 350 -390c46 0 89 8 129 24l63 -87h128zM900 443c-130 0 -228 107 -228 287s98 288 228 288s228 -108 228 -288c0 -97 -30 -174 -79 -222l-57 79h-124l96 -134
c-20 -6 -41 -10 -64 -10zM900 -46c-422 0 -767 345 -767 767s345 767 767 767s767 -345 767 -767s-345 -767 -767 -767z" />
    <glyph glyph-name="uni1F161" unicode="R&#x20dd;&#x25cf;" 
d="M754 741v269h160c91 0 149 -53 149 -136c0 -82 -57 -133 -151 -133h-158zM927 1108h-292v-752h119v292h161l150 -292h137l-166 309c92 28 151 110 151 212c0 140 -101 231 -260 231zM900 -46c-422 0 -767 345 -767 767s345 767 767 767s767 -345 767 -767
s-345 -767 -767 -767z" />
    <glyph glyph-name="uni1F162" unicode="S&#x20dd;&#x25cf;" 
d="M600 568c4 -138 124 -227 295 -227c181 0 300 89 300 228c0 109 -67 174 -211 208l-123 29c-75 17 -117 55 -117 103c0 71 64 119 158 119c92 0 160 -51 166 -123h115c-2 126 -115 220 -280 220c-166 0 -280 -91 -280 -222c0 -102 68 -171 192 -200l123 -30
c96 -23 136 -57 136 -113c0 -74 -70 -121 -172 -121s-178 54 -183 129h-119zM900 -46c-422 0 -767 345 -767 767s345 767 767 767s767 -345 767 -767s-345 -767 -767 -767z" />
    <glyph glyph-name="uni1F163" unicode="T&#x20dd;&#x25cf;" 
d="M961 336v651h234v101h-590v-101h235v-651h121zM900 -46c-422 0 -767 345 -767 767s345 767 767 767s767 -345 767 -767s-345 -767 -767 -767z" />
    <glyph glyph-name="uni1F164" unicode="U&#x20dd;&#x25cf;" 
d="M900 423c-113 0 -185 67 -185 179v484h-121v-493c0 -165 123 -273 306 -273c182 0 306 108 306 273v493h-121v-484c0 -112 -73 -179 -185 -179zM900 -46c-422 0 -767 345 -767 767s345 767 767 767s767 -345 767 -767s-345 -767 -767 -767z" />
    <glyph glyph-name="uni1F165" unicode="V&#x20dd;&#x25cf;" 
d="M971 334l275 752h-138l-206 -627h-4l-206 627h-138l276 -752h141zM900 -46c-422 0 -767 345 -767 767s345 767 767 767s767 -345 767 -767s-345 -767 -767 -767z" />
    <glyph glyph-name="uni1F166" unicode="W&#x20dd;&#x25cf;" 
d="M900 909h4l157 -575h119l204 752h-133l-133 -596h-4l-156 596h-112l-155 -596h-4l-134 596h-132l204 -752h118zM900 -46c-422 0 -767 345 -767 767s345 767 767 767s767 -345 767 -767s-345 -767 -767 -767z" />
    <glyph glyph-name="uni1F167" unicode="X&#x20dd;&#x25cf;" 
d="M1221 1112h-139l-182 -293h-4l-185 293h-144l246 -374l-249 -377h136l187 289h3l186 -289h141l-249 373zM900 -46c-422 0 -767 345 -767 767s345 767 767 767s767 -345 767 -767s-345 -767 -767 -767z" />
    <glyph glyph-name="uni1F168" unicode="Y&#x20dd;&#x25cf;" 
d="M840 357h120v306l275 445h-137l-196 -332h-4l-196 332h-137l275 -445v-306zM900 -46c-422 0 -767 345 -767 767s345 767 767 767s767 -345 767 -767s-345 -767 -767 -767z" />
    <glyph glyph-name="uni1F169" unicode="Z&#x20dd;&#x25cf;" 
d="M612 361h570v100h-425v1l416 566v84h-548v-100h404v-2l-417 -566v-83zM900 -46c-422 0 -767 345 -767 767s345 767 767 767s767 -345 767 -767s-345 -767 -767 -767z" />
    <glyph glyph-name="uni24FF" unicode="&#x30;&#x20dd;&#x25cf;" 
d="M897 441c-101 0 -164 108 -164 290c0 181 63 290 164 290c102 0 165 -109 165 -290c0 -182 -63 -290 -165 -290zM897 340c174 0 287 150 287 391c0 240 -113 390 -287 390c-173 0 -287 -150 -287 -390c0 -241 114 -391 287 -391zM900 -46c-422 0 -767 345 -767 767
s345 767 767 767s767 -345 767 -767s-345 -767 -767 -767z" />
    <glyph glyph-name="uni278A" unicode="&#x31;&#x20dd;&#x25cf;" 
d="M994 360v751h-117l-191 -130v-114l187 126h2v-633h119zM900 -46c-422 0 -767 345 -767 767s345 767 767 767s767 -345 767 -767s-345 -767 -767 -767z" />
    <glyph glyph-name="uni278B" unicode="&#x32;&#x20dd;&#x25cf;" 
d="M757 892v8c1 71 54 128 138 128c74 0 134 -48 134 -119c0 -62 -37 -109 -87 -162l-294 -313v-75h518v99h-354v1l216 231c73 79 121 139 121 226c0 121 -103 208 -252 208c-167 0 -255 -108 -257 -224v-8h117zM900 -46c-422 0 -767 345 -767 767s345 767 767 767
s767 -345 767 -767s-345 -767 -767 -767z" />
    <glyph glyph-name="uni278C" unicode="&#x33;&#x20dd;&#x25cf;" 
d="M810 699h93c90 0 153 -53 154 -128c0 -77 -64 -130 -162 -130c-86 1 -149 50 -158 107h-112c7 -114 108 -203 269 -203c159 0 286 86 284 224c-2 113 -89 174 -167 183v1c64 14 143 78 142 178c-2 110 -104 195 -255 195c-156 -1 -249 -88 -256 -201h115
c6 58 59 105 138 105c82 0 138 -48 138 -115c0 -68 -56 -120 -135 -120h-88v-96zM900 -46c-422 0 -767 345 -767 767s345 767 767 767s767 -345 767 -767s-345 -767 -767 -767z" />
    <glyph glyph-name="uni278D" unicode="&#x34;&#x20dd;&#x25cf;" 
d="M893 1111c-132 -203 -251 -383 -319 -502v-97h375v-152h116v152h104v98h-104v501h-172zM949 610h-259v2c66 113 184 292 258 401h1v-403zM900 -46c-422 0 -767 345 -767 767s345 767 767 767s767 -345 767 -767s-345 -767 -767 -767z" />
    <glyph glyph-name="uni278E" unicode="&#x35;&#x20dd;&#x25cf;" 
d="M632 547c6 -114 115 -201 264 -201c167 0 284 104 284 262c0 150 -113 245 -252 245c-81 0 -138 -37 -164 -70h-1l19 231h355v97h-455l-34 -434h106c26 41 75 80 148 80c88 0 159 -60 159 -153c0 -100 -76 -161 -160 -161c-73 0 -143 39 -156 104h-113zM900 -46
c-422 0 -767 345 -767 767s345 767 767 767s767 -345 767 -767s-345 -767 -767 -767z" />
    <glyph glyph-name="uni278F" unicode="&#x36;&#x20dd;&#x25cf;" 
d="M928 343c170 0 291 109 291 261c0 143 -112 248 -264 248c-99 0 -181 -47 -216 -124h-9c1 191 75 298 203 298c78 0 137 -39 152 -101h121c-19 119 -126 200 -275 200c-195 0 -317 -151 -317 -401c0 -259 134 -381 314 -381zM927 441c-99 0 -173 71 -173 164
c0 88 73 155 173 155s172 -67 172 -158c0 -92 -75 -161 -172 -161zM900 -46c-422 0 -767 345 -767 767s345 767 767 767s767 -345 767 -767s-345 -767 -767 -767z" />
    <glyph glyph-name="uni2790" unicode="&#x37;&#x20dd;&#x25cf;" 
d="M652 1104v-100h395v-2l-328 -649h129l322 652v99h-518zM900 -46c-422 0 -767 345 -767 767s345 767 767 767s767 -345 767 -767s-345 -767 -767 -767z" />
    <glyph glyph-name="uni2791" unicode="&#x38;&#x20dd;&#x25cf;" 
d="M898 796c-83 0 -141 50 -141 119c0 70 58 119 141 119s141 -49 141 -119c0 -69 -59 -119 -141 -119zM898 436c-98 0 -170 58 -170 137c0 78 72 136 170 136s169 -58 169 -136c0 -79 -71 -137 -169 -137zM898 345c170 0 289 90 289 222c0 91 -64 166 -161 187v1
c81 26 130 91 130 171c0 117 -106 200 -258 200s-258 -83 -258 -200c0 -80 49 -144 130 -171v-1c-97 -21 -161 -96 -161 -187c0 -132 118 -222 289 -222zM900 -46c-422 0 -767 345 -767 767s345 767 767 767s767 -345 767 -767s-345 -767 -767 -767z" />
    <glyph glyph-name="uni2792" unicode="&#x39;&#x20dd;&#x25cf;" 
d="M901 343c199 0 318 150 318 401c0 250 -129 381 -314 381c-170 0 -291 -109 -291 -262c0 -143 110 -247 263 -247c99 0 181 47 216 123h9c0 -193 -76 -298 -200 -298c-78 0 -137 40 -154 101h-122c22 -120 131 -199 275 -199zM905 709c-101 0 -171 66 -171 157
s73 160 172 160s173 -71 173 -163c0 -88 -74 -154 -174 -154zM900 -46c-422 0 -767 345 -767 767s345 767 767 767s767 -345 767 -767s-345 -767 -767 -767z" />
    <glyph glyph-name="plus.uc.blackcircle" unicode="&#x2b;&#x20dd;&#x25cf;" 
d="M953 682h232v98h-232v231h-106v-231h-232v-98h232v-241h106v241zM900 -46c-422 0 -767 345 -767 767s345 767 767 767s767 -345 767 -767s-345 -767 -767 -767z" />
    <glyph glyph-name="minus.uc.blackcircle" unicode="&#x2212;&#x20dd;&#x25cf;" 
d="M1171 678v100h-542v-100h542zM900 -46c-422 0 -767 345 -767 767s345 767 767 767s767 -345 767 -767s-345 -767 -767 -767z" />
    <glyph glyph-name="multiply.uc.blackcircle" unicode="&#xd7;&#x20dd;&#x25cf;" 
d="M898 796l-174 168l-75 -72l174 -169l-174 -168l75 -71l174 167l174 -167l74 71l-174 168l174 169l-74 72zM900 -46c-422 0 -767 345 -767 767s345 767 767 767s767 -345 767 -767s-345 -767 -767 -767z" />
    <glyph glyph-name="divide.uc.blackcircle" unicode="&#xf7;&#x20dd;&#x25cf;" 
d="M820 942c0 -43 35 -74 79 -74c45 0 82 32 82 75c0 44 -36 77 -82 77c-44 0 -79 -33 -79 -78zM1171 682v91h-542v-91h542zM820 515c0 -44 35 -75 80 -75s81 32 81 75c0 45 -36 77 -81 77s-80 -33 -80 -77zM900 -46c-422 0 -767 345 -767 767s345 767 767 767
s767 -345 767 -767s-345 -767 -767 -767z" />
    <glyph glyph-name="equal.uc.blackcircle" unicode="&#x3d;&#x20dd;&#x25cf;" 
d="M1160 795v95h-519v-95h519zM1160 565v94h-519v-94h519zM900 -46c-422 0 -767 345 -767 767s345 767 767 767s767 -345 767 -767s-345 -767 -767 -767z" />
    <glyph glyph-name="greater.uc.blackcircle" unicode="&#x3e;&#x20dd;&#x25cf;" 
d="M1176 760l-507 288v-119l378 -209v-2l-378 -201v-119l507 277v85zM900 -46c-422 0 -767 345 -767 767s345 767 767 767s767 -345 767 -767s-345 -767 -767 -767z" />
    <glyph glyph-name="less.uc.blackcircle" unicode="&#x3c;&#x20dd;&#x25cf;" 
d="M619 675l507 -277v119l-378 201v2l378 209v119l-507 -288v-85zM900 -46c-422 0 -767 345 -767 767s345 767 767 767s767 -345 767 -767s-345 -767 -767 -767z" />
    <glyph glyph-name="numbersign.blackcircle" unicode="&#x23;&#x20dd;&#x25cf;" 
d="M836 818h157l-37 -169h-156zM1206 815l18 89h-122l43 203h-97l-43 -203h-146l43 203h-98l-42 -203h-117l-18 -89h115l-33 -158h-121l-18 -91h119l-44 -210h98l44 210h147l-45 -210h98l44 210h116l19 91h-116l33 158h123zM900 -46c-422 0 -767 345 -767 767
s345 767 767 767s767 -345 767 -767s-345 -767 -767 -767z" />
    <glyph glyph-name="uni25BC.blackcircle" unicode="&#x25bc;&#x20dd;&#x25cf;" 
d="M1219 952h-637l318 -540zM900 -46c-422 0 -767 345 -767 767s345 767 767 767s767 -345 767 -767s-345 -767 -767 -767z" />
    <glyph glyph-name="uni25B2.blackcircle" unicode="&#x25b2;&#x20dd;&#x25cf;" 
d="M1219 508l-319 539l-318 -539h637zM900 -46c-422 0 -767 345 -767 767s345 767 767 767s767 -345 767 -767s-345 -767 -767 -767z" />
    <glyph glyph-name="uni25C0.blackcircle" unicode="&#x25c0;&#x20dd;&#x25cf;" 
d="M1117 412v636l-539 -318zM900 -46c-422 0 -767 345 -767 767s345 767 767 767s767 -345 767 -767s-345 -767 -767 -767z" />
    <glyph glyph-name="uni25B6.blackcircle" unicode="&#x25b6;&#x20dd;&#x25cf;" 
d="M683 412l540 318l-540 318v-636zM900 -46c-422 0 -767 345 -767 767s345 767 767 767s767 -345 767 -767s-345 -767 -767 -767z" />
    <glyph glyph-name="question.blackcircle" unicode="&#x3f;&#x20dd;&#x25cf;" 
d="M796 427c0 -45 37 -78 87 -78c53 0 90 34 90 78c0 46 -37 79 -90 79c-49 0 -87 -33 -87 -79zM824 591h110v37c0 58 23 78 89 125s117 93 117 182c0 122 -111 192 -241 192c-126 0 -246 -66 -246 -216v-3h112c2 71 48 124 129 124c68 0 126 -36 126 -102
c0 -53 -33 -82 -93 -123c-66 -47 -107 -94 -103 -172v-44zM902 -46c-422 0 -767 345 -767 767s345 767 767 767s767 -345 767 -767s-345 -767 -767 -767z" />
    <glyph glyph-name="exclam.blackcircle" unicode="&#x21;&#x20dd;&#x25cf;" 
d="M835 1111l12 -499h106l12 499h-130zM812 427c0 -44 37 -77 88 -77s88 34 88 77c0 46 -38 79 -88 79c-51 0 -88 -33 -88 -79zM900 -46c-422 0 -767 345 -767 767s345 767 767 767s767 -345 767 -767s-345 -767 -767 -767z" />
    <glyph glyph-name="uni2717.blackcircle" unicode="&#x2717;&#x20dd;&#x25cf;" 
d="M903 800l-289 290l-75 -74l289 -290l-288 -288l75 -75l288 288l288 -288l74 75l-288 288l288 288l-74 74zM900 -46c-422 0 -767 345 -767 767s345 767 767 767s767 -345 767 -767s-345 -767 -767 -767z" />
    <glyph glyph-name="uni2713.blackcircle" unicode="&#x2713;&#x20dd;&#x25cf;" 
d="M766 395l588 588l-78 80l-511 -512l-228 230l-79 -79zM900 -46c-422 0 -767 345 -767 767s345 767 767 767s767 -345 767 -767s-345 -767 -767 -767z" />
    <glyph glyph-name="uni1F170" unicode="A&#x20de;&#x25a0;" 
d="M1015 669h-230l113 324h4zM683 363l73 213h288l74 -213h125l-273 751h-140l-273 -751h126zM399 1462h1002c135 0 239 -102 239 -236v-1009c0 -133 -104 -235 -239 -235h-1002c-134 0 -239 102 -239 235v1009c0 134 105 236 239 236z" />
    <glyph glyph-name="uni1F171" unicode="B&#x20de;&#x25a0;" 
d="M642 360h303c162 0 271 78 271 211c0 107 -71 172 -166 186v1c71 19 123 78 123 166c0 113 -89 187 -227 187h-304v-751zM762 1017h161c82 0 130 -44 130 -112c0 -71 -54 -114 -162 -114h-129v226zM762 701h177c97 0 153 -48 153 -126c0 -80 -59 -121 -192 -121h-138v247
zM399 1462h1002c135 0 239 -102 239 -236v-1009c0 -133 -104 -235 -239 -235h-1002c-134 0 -239 102 -239 235v1009c0 134 105 236 239 236z" />
    <glyph glyph-name="uni1F172" unicode="C&#x20de;&#x25a0;" 
d="M1098 584c-15 -77 -92 -137 -194 -137c-131 0 -225 113 -225 283c0 169 94 284 225 284c102 0 182 -67 197 -148h122c-19 150 -144 254 -321 254c-207 0 -348 -158 -348 -390s141 -390 348 -390c174 0 296 99 319 244h-123zM399 1462h1002c135 0 239 -102 239 -236v-1009
c0 -133 -104 -235 -239 -235h-1002c-134 0 -239 102 -239 235v1009c0 134 105 236 239 236z" />
    <glyph glyph-name="uni1F173" unicode="D&#x20de;&#x25a0;" 
d="M621 1104v-743h263c226 0 345 135 345 373c0 233 -119 370 -345 370h-263zM741 1004h128c154 0 236 -94 236 -272c0 -181 -81 -271 -236 -271h-128v543zM399 1462h1002c135 0 239 -102 239 -236v-1009c0 -133 -104 -235 -239 -235h-1002c-134 0 -239 102 -239 235v1009
c0 134 105 236 239 236z" />
    <glyph glyph-name="uni1F174" unicode="E&#x20de;&#x25a0;" 
d="M1147 456h-369v234h348v95h-348v223h369v100h-490v-752h490v100zM399 1462h1002c135 0 239 -102 239 -236v-1009c0 -133 -104 -235 -239 -235h-1002c-134 0 -239 102 -239 235v1009c0 134 105 236 239 236z" />
    <glyph glyph-name="uni1F175" unicode="F&#x20de;&#x25a0;" 
d="M807 356v316h332v100h-332v235h361v101h-482v-752h121zM399 1462h1002c135 0 239 -102 239 -236v-1009c0 -133 -104 -235 -239 -235h-1002c-134 0 -239 102 -239 235v1009c0 134 105 236 239 236z" />
    <glyph glyph-name="uni1F176" unicode="G&#x20de;&#x25a0;" 
d="M1101 626c0 -97 -68 -174 -196 -174c-132 0 -225 107 -225 278s93 279 225 279c109 0 183 -57 194 -125h123c-19 136 -146 236 -318 236c-207 0 -350 -158 -350 -390s142 -389 349 -389c196 0 316 128 316 299v119h-304v-103h186v-30zM399 1462h1002
c135 0 239 -102 239 -236v-1009c0 -133 -104 -235 -239 -235h-1002c-134 0 -239 102 -239 235v1009c0 134 105 236 239 236z" />
    <glyph glyph-name="uni1F177" unicode="H&#x20de;&#x25a0;" 
d="M1208 356v752h-120v-315h-375v315h-121v-752h121v337h375v-337h120zM399 1462h1002c135 0 239 -102 239 -236v-1009c0 -133 -104 -235 -239 -235h-1002c-134 0 -239 102 -239 235v1009c0 134 105 236 239 236z" />
    <glyph glyph-name="uni1F178" unicode="I&#x20de;&#x25a0;" 
d="M960 356v752h-120v-752h120zM399 1462h1002c135 0 239 -102 239 -236v-1009c0 -133 -104 -235 -239 -235h-1002c-134 0 -239 102 -239 235v1009c0 134 105 236 239 236z" />
    <glyph glyph-name="uni1F179" unicode="J&#x20de;&#x25a0;" 
d="M626 559c1 -123 89 -216 239 -216c149 0 242 86 242 241v524h-121v-528c0 -84 -42 -132 -122 -132c-70 0 -118 46 -120 111h-118zM399 1462h1002c135 0 239 -102 239 -236v-1009c0 -133 -104 -235 -239 -235h-1002c-134 0 -239 102 -239 235v1009c0 134 105 236 239 236z
" />
    <glyph glyph-name="uni1F17A" unicode="&#x212a;&#x20de;&#x25a0;" 
d="M1217 1108h-139l-330 -356h-1v356h-121v-752h121v257l87 92l250 -349h148c-68 99 -242 330 -311 428zM399 1462h1002c135 0 239 -102 239 -236v-1009c0 -133 -104 -235 -239 -235h-1002c-134 0 -239 102 -239 235v1009c0 134 105 236 239 236z" />
    <glyph glyph-name="uni1F17B" unicode="L&#x20de;&#x25a0;" 
d="M1182 459h-355v649h-121v-752h476v103zM399 1462h1002c135 0 239 -102 239 -236v-1009c0 -133 -104 -235 -239 -235h-1002c-134 0 -239 102 -239 235v1009c0 134 105 236 239 236z" />
    <glyph glyph-name="uni1F17C" unicode="M&#x20de;&#x25a0;" 
d="M640 356v563h1l213 -545h92l212 542h2v-560h111v752h-129l-242 -608h-1l-240 608h-129v-752h110zM399 1462h1002c135 0 239 -102 239 -236v-1009c0 -133 -104 -235 -239 -235h-1002c-134 0 -239 102 -239 235v1009c0 134 105 236 239 236z" />
    <glyph glyph-name="uni1F17D" unicode="N&#x20de;&#x25a0;" 
d="M713 356v565h1l377 -565h113v752h-116v-565h-1l-379 565h-111v-752h116zM399 1462h1002c135 0 239 -102 239 -236v-1009c0 -133 -104 -235 -239 -235h-1002c-134 0 -239 102 -239 235v1009c0 134 105 236 239 236z" />
    <glyph glyph-name="uni1F17E" unicode="O&#x20de;&#x25a0;" 
d="M900 443c-130 0 -228 107 -228 287s98 288 228 288s228 -108 228 -288s-98 -287 -228 -287zM900 340c199 0 350 146 350 390c0 245 -151 390 -350 390s-350 -145 -350 -390c0 -244 151 -390 350 -390zM399 1462h1002c135 0 239 -102 239 -236v-1009
c0 -133 -104 -235 -239 -235h-1002c-134 0 -239 102 -239 235v1009c0 134 105 236 239 236z" />
    <glyph glyph-name="uni1F17F" unicode="P&#x20de;&#x25a0;" 
d="M955 1108h-293v-752h121v271h172c157 0 256 101 256 239s-99 242 -256 242zM1087 866c0 -87 -56 -143 -147 -143h-157v287h157c91 0 147 -54 147 -144zM399 1462h1002c135 0 239 -102 239 -236v-1009c0 -133 -104 -235 -239 -235h-1002c-134 0 -239 102 -239 235v1009
c0 134 105 236 239 236z" />
    <glyph glyph-name="uni1F180" unicode="Q&#x20de;&#x25a0;" 
d="M1220 277l-102 138c82 65 132 174 132 315c0 245 -151 390 -350 390s-350 -145 -350 -390c0 -244 151 -390 350 -390c46 0 89 8 129 24l63 -87h128zM900 443c-130 0 -228 107 -228 287s98 288 228 288s228 -108 228 -288c0 -97 -30 -174 -79 -222l-57 79h-124l96 -134
c-20 -6 -41 -10 -64 -10zM399 1462h1002c135 0 239 -102 239 -236v-1009c0 -133 -104 -235 -239 -235h-1002c-134 0 -239 102 -239 235v1009c0 134 105 236 239 236z" />
    <glyph glyph-name="uni1F181" unicode="R&#x20de;&#x25a0;" 
d="M754 741v269h160c89 0 149 -51 149 -136c0 -83 -59 -133 -151 -133h-158zM927 1108h-292v-752h119v292h161l150 -292h137l-166 309c87 26 151 103 151 212c0 139 -99 231 -260 231zM399 1462h1002c135 0 239 -102 239 -236v-1009c0 -133 -104 -235 -239 -235h-1002
c-134 0 -239 102 -239 235v1009c0 134 105 236 239 236z" />
    <glyph glyph-name="uni1F182" unicode="S&#x20de;&#x25a0;" 
d="M600 568c4 -138 124 -227 295 -227c181 0 300 89 300 228c0 109 -67 174 -211 208l-123 29c-75 17 -117 55 -117 103c0 71 64 119 158 119c92 0 160 -51 166 -123h115c-2 126 -115 220 -280 220c-166 0 -280 -91 -280 -222c0 -102 68 -171 192 -200l123 -30
c96 -23 136 -57 136 -113c0 -74 -70 -121 -172 -121s-178 54 -183 129h-119zM399 1462h1002c135 0 239 -102 239 -236v-1009c0 -133 -104 -235 -239 -235h-1002c-134 0 -239 102 -239 235v1009c0 134 105 236 239 236z" />
    <glyph glyph-name="uni1F183" unicode="T&#x20de;&#x25a0;" 
d="M961 350v651h234v101h-590v-101h235v-651h121zM399 1462h1002c135 0 239 -102 239 -236v-1009c0 -133 -104 -235 -239 -235h-1002c-134 0 -239 102 -239 235v1009c0 134 105 236 239 236z" />
    <glyph glyph-name="uni1F184" unicode="U&#x20de;&#x25a0;" 
d="M900 437c-113 0 -185 67 -185 179v484h-121v-493c0 -166 123 -273 306 -273c182 0 306 108 306 273v493h-121v-484c0 -112 -73 -179 -185 -179zM399 1462h1002c135 0 239 -102 239 -236v-1009c0 -133 -104 -235 -239 -235h-1002c-134 0 -239 102 -239 235v1009
c0 134 105 236 239 236z" />
    <glyph glyph-name="uni1F185" unicode="V&#x20de;&#x25a0;" 
d="M971 348l275 752h-138l-206 -627h-4l-206 627h-138l276 -752h141zM399 1462h1002c135 0 239 -102 239 -236v-1009c0 -133 -104 -235 -239 -235h-1002c-134 0 -239 102 -239 235v1009c0 134 105 236 239 236z" />
    <glyph glyph-name="uni1F186" unicode="W&#x20de;&#x25a0;" 
d="M900 923h4l157 -575h119l204 752h-133l-133 -597h-4l-156 597h-112l-155 -597h-4l-134 597h-132l204 -752h118zM399 1462h1002c135 0 239 -102 239 -236v-1009c0 -133 -104 -235 -239 -235h-1002c-134 0 -239 102 -239 235v1009c0 134 105 236 239 236z" />
    <glyph glyph-name="uni1F187" unicode="X&#x20de;&#x25a0;" 
d="M1221 1112h-139l-182 -293h-4l-185 293h-144l246 -374l-249 -377h136l187 289h3l186 -289h141l-249 373zM399 1462h1002c135 0 239 -102 239 -236v-1009c0 -133 -104 -235 -239 -235h-1002c-134 0 -239 102 -239 235v1009c0 134 105 236 239 236z" />
    <glyph glyph-name="uni1F188" unicode="Y&#x20de;&#x25a0;" 
d="M840 361h120v306l275 445h-137l-196 -333h-4l-196 333h-137l275 -445v-306zM399 1462h1002c135 0 239 -102 239 -236v-1009c0 -133 -104 -235 -239 -235h-1002c-134 0 -239 102 -239 235v1009c0 134 105 236 239 236z" />
    <glyph glyph-name="uni1F189" unicode="Z&#x20de;&#x25a0;" 
d="M612 361h570v100h-425v1l416 566v84h-548v-100h404v-2l-417 -566v-83zM399 1462h1002c135 0 239 -102 239 -236v-1009c0 -133 -104 -235 -239 -235h-1002c-134 0 -239 102 -239 235v1009c0 134 105 236 239 236z" />
    <glyph glyph-name="zero.blacksquare" unicode="&#x30;&#x20de;&#x25a0;" 
d="M897 441c-101 0 -164 108 -164 290c0 181 63 290 164 290c102 0 165 -109 165 -290c0 -182 -63 -290 -165 -290zM897 340c174 0 287 150 287 391c0 240 -113 390 -287 390c-173 0 -287 -150 -287 -390c0 -241 114 -391 287 -391zM399 1462h1002c135 0 239 -102 239 -236
v-1009c0 -133 -104 -235 -239 -235h-1002c-134 0 -239 102 -239 235v1009c0 134 105 236 239 236z" />
    <glyph glyph-name="one.blacksquare" unicode="&#x31;&#x20de;&#x25a0;" 
d="M1000 360v751h-118l-190 -130v-114l186 126h2v-633h120zM399 1462h1002c135 0 239 -102 239 -236v-1009c0 -133 -104 -235 -239 -235h-1002c-134 0 -239 102 -239 235v1009c0 134 105 236 239 236z" />
    <glyph glyph-name="two.blacksquare" unicode="&#x32;&#x20de;&#x25a0;" 
d="M757 892v8c1 71 54 128 138 128c74 0 134 -48 134 -119c0 -62 -37 -109 -87 -162l-294 -313v-75h518v99h-354v1l216 231c73 79 121 139 121 226c0 121 -103 208 -252 208c-167 0 -255 -108 -257 -224v-8h117zM399 1462h1002c135 0 239 -102 239 -236v-1009
c0 -133 -104 -235 -239 -235h-1002c-134 0 -239 102 -239 235v1009c0 134 105 236 239 236z" />
    <glyph glyph-name="three.blacksquare" unicode="&#x33;&#x20de;&#x25a0;" 
d="M810 699h93c90 0 153 -53 154 -128c0 -77 -64 -130 -162 -130c-86 1 -149 50 -158 107h-112c7 -114 108 -203 269 -203c159 0 286 86 284 224c-2 113 -89 174 -167 183v1c64 14 143 78 142 178c-2 110 -104 195 -255 195c-156 -1 -249 -88 -256 -201h115
c6 58 59 105 138 105c82 0 138 -48 138 -115c0 -68 -56 -120 -135 -120h-88v-96zM399 1462h1002c135 0 239 -102 239 -236v-1009c0 -133 -104 -235 -239 -235h-1002c-134 0 -239 102 -239 235v1009c0 134 105 236 239 236z" />
    <glyph glyph-name="four.blacksquare" unicode="&#x34;&#x20de;&#x25a0;" 
d="M907 1111c-133 -203 -251 -383 -319 -502v-97h375v-152h116v152h104v98h-104v501h-172zM963 610h-259v2c66 113 184 292 258 401h1v-403zM399 1462h1002c135 0 239 -102 239 -236v-1009c0 -133 -104 -235 -239 -235h-1002c-134 0 -239 102 -239 235v1009
c0 134 105 236 239 236z" />
    <glyph glyph-name="five.blacksquare" unicode="&#x35;&#x20de;&#x25a0;" 
d="M632 547c6 -114 115 -201 264 -201c167 0 284 104 284 262c0 150 -113 245 -252 245c-81 0 -138 -37 -164 -70h-1c4 45 14 185 19 231h355v97h-455l-34 -434h106c26 41 75 80 148 80c88 0 159 -60 159 -153c0 -100 -76 -161 -160 -161c-73 0 -143 39 -156 104h-113z
M399 1462h1002c135 0 239 -102 239 -236v-1009c0 -133 -104 -235 -239 -235h-1002c-134 0 -239 102 -239 235v1009c0 134 105 236 239 236z" />
    <glyph glyph-name="six.blacksquare" unicode="&#x36;&#x20de;&#x25a0;" 
d="M911 343c161 0 276 109 276 260c0 142 -105 246 -248 246c-92 0 -168 -46 -201 -123h-8c1 190 68 296 186 296c70 0 124 -39 137 -101h122c-18 119 -121 200 -261 200c-184 0 -300 -150 -300 -400c0 -256 127 -378 297 -378zM910 441c-90 0 -158 71 -158 163
c0 87 67 153 158 153c92 0 157 -65 157 -157c0 -90 -68 -159 -157 -159zM399 1462h1002c135 0 239 -102 239 -236v-1009c0 -133 -104 -235 -239 -235h-1002c-134 0 -239 102 -239 235v1009c0 134 105 236 239 236z" />
    <glyph glyph-name="seven.blacksquare" unicode="&#x37;&#x20de;&#x25a0;" 
d="M645 1111v-100h395v-2l-328 -649h129l322 652v99h-518zM399 1462h1002c135 0 239 -102 239 -236v-1009c0 -133 -104 -235 -239 -235h-1002c-134 0 -239 102 -239 235v1009c0 134 105 236 239 236z" />
    <glyph glyph-name="eight.blacksquare" unicode="&#x38;&#x20de;&#x25a0;" 
d="M898 796c-83 0 -141 50 -141 119c0 70 58 119 141 119s141 -49 141 -119c0 -69 -59 -119 -141 -119zM898 436c-98 0 -170 58 -170 137c0 78 72 136 170 136s169 -58 169 -136c0 -79 -71 -137 -169 -137zM898 345c170 0 289 90 289 222c0 91 -64 166 -161 187v1
c81 26 130 91 130 171c0 117 -106 200 -258 200s-258 -83 -258 -200c0 -80 49 -144 130 -171v-1c-97 -21 -161 -96 -161 -187c0 -132 118 -222 289 -222zM399 1462h1002c135 0 239 -102 239 -236v-1009c0 -133 -104 -235 -239 -235h-1002c-134 0 -239 102 -239 235v1009
c0 134 105 236 239 236z" />
    <glyph glyph-name="nine.blacksquare" unicode="&#x39;&#x20de;&#x25a0;" 
d="M885 343c189 0 302 150 302 399c0 248 -121 379 -298 379c-161 0 -275 -109 -275 -261c0 -141 103 -245 247 -245c92 0 168 47 201 122h8c1 -192 -70 -295 -183 -295c-71 0 -125 39 -140 100h-122c21 -120 124 -199 260 -199zM890 707c-93 0 -157 66 -157 156
s67 159 157 159c91 0 158 -70 158 -161c0 -87 -68 -154 -158 -154zM399 1462h1002c135 0 239 -102 239 -236v-1009c0 -133 -104 -235 -239 -235h-1002c-134 0 -239 102 -239 235v1009c0 134 105 236 239 236z" />
    <glyph glyph-name="plus.uc.blacksquare" unicode="&#x2b;&#x20de;&#x25a0;" 
d="M953 682h232v98h-232v231h-106v-231h-232v-98h232v-241h106v241zM399 1462h1002c135 0 239 -102 239 -236v-1009c0 -133 -104 -235 -239 -235h-1002c-134 0 -239 102 -239 235v1009c0 134 105 236 239 236z" />
    <glyph glyph-name="minus.uc.blacksquare" unicode="&#x2212;&#x20de;&#x25a0;" 
d="M1171 678v100h-542v-100h542zM399 1462h1002c135 0 239 -102 239 -236v-1009c0 -133 -104 -235 -239 -235h-1002c-134 0 -239 102 -239 235v1009c0 134 105 236 239 236z" />
    <glyph glyph-name="multiply.uc.blacksquare" unicode="&#xd7;&#x20de;&#x25a0;" 
d="M898 796l-174 168l-75 -72l174 -169l-174 -168l75 -71l174 167l174 -167l74 71l-174 168l174 169l-74 72zM399 1462h1002c135 0 239 -102 239 -236v-1009c0 -133 -104 -235 -239 -235h-1002c-134 0 -239 102 -239 235v1009c0 134 105 236 239 236z" />
    <glyph glyph-name="divide.uc.blacksquare" unicode="&#xf7;&#x20de;&#x25a0;" 
d="M820 942c0 -43 35 -74 79 -74c45 0 82 32 82 75c0 44 -36 77 -82 77c-44 0 -79 -33 -79 -78zM1171 682v91h-542v-91h542zM820 515c0 -44 35 -75 80 -75s81 32 81 75c0 45 -36 77 -81 77s-80 -33 -80 -77zM399 1462h1002c135 0 239 -102 239 -236v-1009
c0 -133 -104 -235 -239 -235h-1002c-134 0 -239 102 -239 235v1009c0 134 105 236 239 236z" />
    <glyph glyph-name="equal.uc.blacksquare" unicode="&#x3d;&#x20de;&#x25a0;" 
d="M1160 795v95h-519v-95h519zM1160 565v94h-519v-94h519zM399 1462h1002c135 0 239 -102 239 -236v-1009c0 -133 -104 -235 -239 -235h-1002c-134 0 -239 102 -239 235v1009c0 134 105 236 239 236z" />
    <glyph glyph-name="greater.uc.blacksquare" unicode="&#x3e;&#x20de;&#x25a0;" 
d="M1176 760l-507 288v-119l378 -209v-2l-378 -201v-119l507 277v85zM399 1462h1002c135 0 239 -102 239 -236v-1009c0 -133 -104 -235 -239 -235h-1002c-134 0 -239 102 -239 235v1009c0 134 105 236 239 236z" />
    <glyph glyph-name="less.uc.blacksquare" unicode="&#x3c;&#x20de;&#x25a0;" 
d="M619 675l507 -277v119c-83 42 -294 161 -378 201v2l378 209v119l-507 -288v-85zM399 1462h1002c135 0 239 -102 239 -236v-1009c0 -133 -104 -235 -239 -235h-1002c-134 0 -239 102 -239 235v1009c0 134 105 236 239 236z" />
    <glyph glyph-name="numbersign.blacksquare" unicode="&#x23;&#x20de;&#x25a0;" 
d="M836 818h157l-37 -169h-156zM1206 815l18 89h-122l43 203h-97l-43 -203h-146l43 203h-98l-42 -203h-117l-18 -89h115l-33 -158h-121l-18 -91h119l-44 -210h98l44 210h147l-45 -210h98l44 210h116l19 91h-116l33 158h123zM399 1462h1002c135 0 239 -102 239 -236v-1009
c0 -133 -104 -235 -239 -235h-1002c-134 0 -239 102 -239 235v1009c0 134 105 236 239 236z" />
    <glyph glyph-name="uni25BC.blacksquare" unicode="&#x25bc;&#x20de;&#x25a0;" 
d="M1219 949h-637l318 -541zM399 1462h1002c135 0 239 -102 239 -236v-1009c0 -133 -104 -235 -239 -235h-1002c-134 0 -239 102 -239 235v1009c0 134 105 236 239 236z" />
    <glyph glyph-name="uni25B2.blacksquare" unicode="&#x25b2;&#x20de;&#x25a0;" 
d="M1219 508l-319 539l-318 -539h637zM399 1462h1002c135 0 239 -102 239 -236v-1009c0 -133 -104 -235 -239 -235h-1002c-134 0 -239 102 -239 235v1009c0 134 105 236 239 236z" />
    <glyph glyph-name="uni25C0.blacksquare" unicode="&#x25c0;&#x20de;&#x25a0;" 
d="M1117 412v636l-539 -318zM399 1462h1002c135 0 239 -102 239 -236v-1009c0 -133 -104 -235 -239 -235h-1002c-134 0 -239 102 -239 235v1009c0 134 105 236 239 236z" />
    <glyph glyph-name="uni25B6.blacksquare" unicode="&#x25b6;&#x20de;&#x25a0;" 
d="M683 412l540 318l-540 318v-636zM399 1462h1002c135 0 239 -102 239 -236v-1009c0 -133 -104 -235 -239 -235h-1002c-134 0 -239 102 -239 235v1009c0 134 105 236 239 236z" />
    <glyph glyph-name="question.blacksquare" unicode="&#x3f;&#x20de;&#x25a0;" 
d="M796 427c0 -45 37 -78 87 -78c53 0 90 34 90 78c0 46 -37 79 -90 79c-49 0 -87 -33 -87 -79zM899 1127c-126 0 -246 -66 -246 -216v-3h112c2 71 48 124 129 124c68 0 126 -36 126 -102c0 -53 -33 -82 -93 -123c-66 -47 -107 -94 -103 -172v-44h110v37c0 58 23 78 89 125
s117 93 117 182c0 122 -111 192 -241 192zM399 1462h1002c135 0 239 -102 239 -236v-1009c0 -133 -104 -235 -239 -235h-1002c-134 0 -239 102 -239 235v1009c0 134 105 236 239 236z" />
    <glyph glyph-name="exclam.blacksquare" unicode="&#x21;&#x20de;&#x25a0;" 
d="M835 1111l12 -499h106l12 499h-130zM812 427c0 -44 37 -77 88 -77s88 34 88 77c0 46 -38 79 -88 79c-51 0 -88 -33 -88 -79zM399 1462h1002c135 0 239 -102 239 -236v-1009c0 -133 -104 -235 -239 -235h-1002c-134 0 -239 102 -239 235v1009c0 134 105 236 239 236z" />
    <glyph glyph-name="uni2717.blacksquare" unicode="&#x2717;&#x20de;&#x25a0;" 
d="M539 1016l289 -290l-288 -288l75 -75l288 288l288 -288l74 75l-288 288l288 288l-74 74l-288 -288l-289 290zM399 1462h1002c135 0 239 -102 239 -236v-1009c0 -133 -104 -235 -239 -235h-1002c-134 0 -239 102 -239 235v1009c0 134 105 236 239 236z" />
    <glyph glyph-name="uni2713.blacksquare" unicode="&#x2713;&#x20de;&#x25a0;" 
d="M766 395l588 588l-78 80l-511 -512l-228 230l-79 -79zM399 1462h1002c135 0 239 -102 239 -236v-1009c0 -133 -104 -235 -239 -235h-1002c-134 0 -239 102 -239 235v1009c0 134 105 236 239 236z" />
    <glyph glyph-name=".notdef" horiz-adv-x="2048" 
d="M100 -494v308h1848v-308h-1848zM100 -67v308h1848v-308h-1848zM100 361v307h1848v-307h-1848zM100 788v307h1848v-307h-1848zM100 1215v308h1848v-308h-1848zM100 1642v308h1848v-308h-1848z" />
    <glyph glyph-name=".null" horiz-adv-x="0" 
 />
    <glyph glyph-name="nonmarkingreturn" horiz-adv-x="0" 
 />
    <glyph glyph-name="space" unicode=" " horiz-adv-x="554" 
 />
    <glyph glyph-name="A" unicode="A" horiz-adv-x="1363" 
d="M1145 0l-160 442h-606l-160 -442h-145l540 1443h136l539 -1443h-144zM675 1264l-255 -704h524l-256 704h-13z" />
    <glyph glyph-name="Agrave" unicode="&#xc0;" horiz-adv-x="1363" 
d="M1145 0l-160 442h-606l-160 -442h-145l540 1443h136l539 -1443h-144zM675 1264l-255 -704h524l-256 704h-13zM618 1576l-230 298h164l185 -298h-119z" />
    <glyph glyph-name="Aacute" unicode="&#xc1;" horiz-adv-x="1363" 
d="M1145 0l-160 442h-606l-160 -442h-145l540 1443h136l539 -1443h-144zM675 1264l-255 -704h524l-256 704h-13zM746 1576h-119l185 298h164z" />
    <glyph glyph-name="Adieresis" unicode="&#xc4;" horiz-adv-x="1363" 
d="M1145 0l-160 442h-606l-160 -442h-145l540 1443h136l539 -1443h-144zM675 1264l-255 -704h524l-256 704h-13zM490 1646c-53 0 -97 44 -97 98c0 53 44 97 97 97c54 0 98 -44 98 -97c0 -54 -44 -98 -98 -98zM874 1646c-54 0 -98 44 -98 98c0 53 44 97 98 97
c53 0 97 -44 97 -97c0 -54 -44 -98 -97 -98z" />
    <glyph glyph-name="Adieresismacron" unicode="&#x1de;" horiz-adv-x="1363" 
d="M1145 0l-160 442h-606l-160 -442h-145l540 1443h136l539 -1443h-144zM675 1264l-255 -704h524l-256 704h-13zM500 1778c55 0 99 -44 99 -99s-44 -99 -99 -99s-99 44 -99 99s44 99 99 99zM363 2016h638v-101h-638v101zM864 1778c55 0 99 -44 99 -99s-44 -99 -99 -99
s-99 44 -99 99s44 99 99 99z" />
    <glyph glyph-name="Aring" unicode="&#x212b;" horiz-adv-x="1363" 
d="M1145 0l-160 442h-606l-160 -442h-145l540 1443h136l539 -1443h-144zM675 1264l-255 -704h524l-256 704h-13zM682 1555c-103 0 -185 80 -185 183c0 104 82 184 185 184s185 -80 185 -184c0 -103 -82 -183 -185 -183zM682 1631c64 0 108 47 108 107c0 62 -44 108 -108 108
s-108 -46 -108 -108c0 -60 44 -107 108 -107z" />
    <glyph glyph-name="Aring" unicode="&#xc5;" horiz-adv-x="1363" 
d="M1145 0l-160 442h-606l-160 -442h-145l540 1443h136l539 -1443h-144zM675 1264l-255 -704h524l-256 704h-13zM682 1555c-103 0 -185 80 -185 183c0 104 82 184 185 184s185 -80 185 -184c0 -103 -82 -183 -185 -183zM682 1631c64 0 108 47 108 107c0 62 -44 108 -108 108
s-108 -46 -108 -108c0 -60 44 -107 108 -107z" />
    <glyph glyph-name="Aringacute" unicode="&#x1fa;" horiz-adv-x="1363" 
d="M1145 0l-160 442h-606l-160 -442h-145l540 1443h136l539 -1443h-144zM675 1264l-255 -704h524l-256 704h-13zM683 1538c-104 0 -188 82 -188 185c0 104 84 185 188 185c103 0 187 -81 187 -185c0 -103 -84 -185 -187 -185zM683 1616c59 0 105 47 105 107
s-46 106 -105 106c-60 0 -106 -46 -106 -106s46 -107 106 -107zM767 2138h147l-165 -169h-126z" />
    <glyph glyph-name="Atilde" unicode="&#xc3;" horiz-adv-x="1363" 
d="M1145 0l-160 442h-606l-160 -442h-145l540 1443h136l539 -1443h-144zM675 1264l-255 -704h524l-256 704h-13zM809 1594c-155 0 -163 153 -259 153c-54 0 -89 -50 -89 -156h-110c0 162 75 260 201 260c154 0 167 -158 263 -158c58 0 88 54 88 160h110
c0 -161 -75 -259 -204 -259z" />
    <glyph glyph-name="Abrevegrave" unicode="&#x1eb0;" horiz-adv-x="1363" 
d="M1145 0l-160 442h-606l-160 -442h-145l540 1443h136l539 -1443h-144zM675 1264l-255 -704h524l-256 704h-13zM1012 1848c0 -165 -128 -271 -330 -271s-330 106 -330 271h118c0 -106 83 -173 212 -173s212 67 212 173h118zM782 1839h-149l-243 217h169z" />
    <glyph glyph-name="Adotmacron" unicode="&#x1e0;" horiz-adv-x="1363" 
d="M1145 0l-160 442h-606l-160 -442h-145l540 1443h136l539 -1443h-144zM675 1264l-255 -704h524l-256 704h-13zM682 1578c-58 0 -104 47 -104 104s46 104 104 104s104 -47 104 -104s-46 -104 -104 -104zM1004 2016v-101h-644v101h644z" />
    <glyph glyph-name="Aringbelow" unicode="&#x1e00;" horiz-adv-x="1363" 
d="M1145 0l-160 442h-606l-160 -442h-145l540 1443h136l539 -1443h-144zM675 1264l-255 -704h524l-256 704h-13zM682 -475c-118 0 -213 92 -213 211c0 118 96 210 213 210c118 0 213 -92 213 -210c0 -119 -95 -211 -213 -211zM682 -390c71 0 125 55 125 126
s-54 125 -125 125s-125 -54 -125 -125s54 -126 125 -126z" />
    <glyph glyph-name="Acircumflex" unicode="&#xc2;" horiz-adv-x="1363" 
d="M1145 0l-160 442h-606l-160 -442h-145l540 1443h136l539 -1443h-144zM675 1264l-255 -704h524l-256 704h-13zM620 1874h124l289 -297h-155l-190 202h-12l-190 -202h-155z" />
    <glyph glyph-name="Acircumflexdotbelow" unicode="&#x1eac;" horiz-adv-x="1363" 
d="M1145 0l-160 442h-606l-160 -442h-145l540 1443h136l539 -1443h-144zM675 1264l-255 -704h524l-256 704h-13zM620 1874h124l289 -297h-155l-190 202h-12l-190 -202h-155zM682 -362c-54 0 -97 44 -97 98c0 53 43 97 97 97s97 -44 97 -97c0 -54 -43 -98 -97 -98z" />
    <glyph glyph-name="Acircumflexacute" unicode="&#x1ea4;" horiz-adv-x="1363" 
d="M1145 0l-160 442h-606l-160 -442h-145l540 1443h136l539 -1443h-144zM675 1264l-255 -704h524l-256 704h-13zM609 1804h146l285 -227h-172l-180 149h-12l-180 -149h-172zM872 1825l224 231h167l-243 -231h-148z" />
    <glyph glyph-name="Acircumflextilde" unicode="&#x1eaa;" horiz-adv-x="1363" 
d="M1145 0l-160 442h-606l-160 -442h-145l540 1443h136l539 -1443h-144zM675 1264l-255 -704h524l-256 704h-13zM816 1845c-155 0 -160 125 -265 125c-59 0 -93 -39 -96 -111h-106c0 125 80 211 199 211c155 0 160 -124 265 -124c52 0 92 34 97 110h105
c0 -119 -80 -211 -199 -211zM609 1801h146l285 -224h-172l-180 145h-12l-180 -145h-172z" />
    <glyph glyph-name="Acircumflexgrave" unicode="&#x1ea6;" horiz-adv-x="1363" 
d="M1145 0l-160 442h-606l-160 -442h-145l540 1443h136l539 -1443h-144zM675 1264l-255 -704h524l-256 704h-13zM609 1804h146l285 -227h-172l-180 149h-12l-180 -149h-172zM1086 1825h-148l-243 231h167z" />
    <glyph glyph-name="Acircumflexhookabove" unicode="&#x1ea8;" horiz-adv-x="1363" 
d="M1145 0l-160 442h-606l-160 -442h-145l540 1443h136l539 -1443h-144zM675 1264l-255 -704h524l-256 704h-13zM609 1804h146l285 -227h-172l-180 149h-12l-180 -149h-172zM797 1955v82c21 10 70 19 123 19c99 0 168 -59 168 -146c0 -69 -46 -135 -116 -160l-75 58
c49 19 80 56 80 97s-35 69 -86 69c-35 0 -75 -9 -94 -19z" />
    <glyph glyph-name="Abreve" unicode="&#x102;" horiz-adv-x="1363" 
d="M1145 0l-160 442h-606l-160 -442h-145l540 1443h136l539 -1443h-144zM675 1264l-255 -704h524l-256 704h-13zM359 1860h118c0 -109 76 -176 205 -176s205 67 205 176h118c0 -168 -121 -274 -323 -274s-323 106 -323 274z" />
    <glyph glyph-name="Abreveacute" unicode="&#x1eae;" horiz-adv-x="1363" 
d="M1145 0l-160 442h-606l-160 -442h-145l540 1443h136l539 -1443h-144zM675 1264l-255 -704h524l-256 704h-13zM352 1848h118c0 -106 83 -173 212 -173s212 67 212 173h118c0 -165 -128 -271 -330 -271s-330 106 -330 271zM583 1839l224 217h169l-243 -217h-150z" />
    <glyph glyph-name="Abrevetilde" unicode="&#x1eb4;" horiz-adv-x="1363" 
d="M1145 0l-160 442h-606l-160 -442h-145l540 1443h136l539 -1443h-144zM675 1264l-255 -704h524l-256 704h-13zM352 1797h118c0 -59 80 -122 212 -122s212 63 212 122h118c0 -114 -128 -220 -330 -220s-330 106 -330 220zM824 1845c-152 0 -172 126 -275 126
c-59 0 -93 -40 -94 -98h-106c0 111 72 197 191 197c152 0 172 -126 275 -126c52 0 93 37 95 98h105c0 -105 -72 -197 -191 -197z" />
    <glyph glyph-name="Abrevehookabove" unicode="&#x1eb2;" horiz-adv-x="1363" 
d="M1145 0l-160 442h-606l-160 -442h-145l540 1443h136l539 -1443h-144zM675 1264l-255 -704h524l-256 704h-13zM529 2014v84c26 16 71 28 118 28c110 0 183 -64 183 -161c0 -76 -55 -146 -142 -180l-51 69c54 19 89 61 89 106s-40 78 -94 78c-36 0 -79 -11 -103 -24z
M352 1834h118c0 -95 80 -159 212 -159s212 64 212 159h118c0 -150 -126 -257 -330 -257s-330 107 -330 257z" />
    <glyph glyph-name="Abrevedotbelow" unicode="&#x1eb6;" horiz-adv-x="1363" 
d="M1145 0l-160 442h-606l-160 -442h-145l540 1443h136l539 -1443h-144zM675 1264l-255 -704h524l-256 704h-13zM359 1860h118c0 -109 76 -176 205 -176s205 67 205 176h118c0 -168 -121 -274 -323 -274s-323 106 -323 274zM682 -362c-54 0 -97 44 -97 98c0 53 43 97 97 97
s97 -44 97 -97c0 -54 -43 -98 -97 -98z" />
    <glyph glyph-name="Ainvertedbreve" unicode="&#x202;" horiz-adv-x="1363" 
d="M1145 0l-160 442h-606l-160 -442h-145l540 1443h136l539 -1443h-144zM675 1264l-255 -704h524l-256 704h-13zM1005 1586h-118c0 109 -76 176 -205 176s-205 -67 -205 -176h-118c0 168 121 274 323 274s323 -106 323 -274z" />
    <glyph glyph-name="Acaron" unicode="&#x1cd;" horiz-adv-x="1363" 
d="M1145 0l-160 442h-606l-160 -442h-145l540 1443h136l539 -1443h-144zM675 1264l-255 -704h524l-256 704h-13zM744 1577h-124l-289 297h155l190 -202h12l190 202h155z" />
    <glyph glyph-name="Adotaccent" unicode="&#x226;" horiz-adv-x="1363" 
d="M1145 0l-160 442h-606l-160 -442h-145l540 1443h136l539 -1443h-144zM675 1264l-255 -704h524l-256 704h-13zM682 1646c-54 0 -97 44 -97 98c0 53 43 97 97 97s97 -44 97 -97c0 -54 -43 -98 -97 -98z" />
    <glyph glyph-name="Adotbelow" unicode="&#x1ea0;" horiz-adv-x="1363" 
d="M1145 0l-160 442h-606l-160 -442h-145l540 1443h136l539 -1443h-144zM675 1264l-255 -704h524l-256 704h-13zM682 -362c-54 0 -97 44 -97 98c0 53 43 97 97 97s97 -44 97 -97c0 -54 -43 -98 -97 -98z" />
    <glyph glyph-name="Ahookabove" unicode="&#x1ea2;" horiz-adv-x="1363" 
d="M1145 0l-160 442h-606l-160 -442h-145l540 1443h136l539 -1443h-144zM675 1264l-255 -704h524l-256 704h-13zM522 1788v96c30 13 80 23 128 23c128 0 204 -66 204 -166c0 -85 -67 -163 -161 -198l-58 78c59 20 106 64 106 112c0 46 -44 80 -105 80
c-47 0 -88 -12 -114 -25z" />
    <glyph glyph-name="Adblgrave" unicode="&#x200;" horiz-adv-x="1363" 
d="M1145 0l-160 442h-606l-160 -442h-145l540 1443h136l539 -1443h-144zM675 1264l-255 -704h524l-256 704h-13zM900 1577h-111l-181 297h147zM594 1577h-111l-219 297h157z" />
    <glyph glyph-name="Amacron" unicode="&#x100;" horiz-adv-x="1363" 
d="M1145 0l-160 442h-606l-160 -442h-145l540 1443h136l539 -1443h-144zM675 1264l-255 -704h524l-256 704h-13zM994 1796v-106h-624v106h624z" />
    <glyph glyph-name="Aogonek" unicode="&#x104;" horiz-adv-x="1363" 
d="M420 560h524l-256 704h-13zM750 1443l539 -1443c-99 -59 -180 -126 -180 -208c0 -67 47 -99 112 -99c24 0 50 5 74 13v-105c-32 -11 -69 -19 -108 -19c-105 0 -207 55 -207 178c0 86 55 168 163 245l-158 437h-606l-160 -442h-145l540 1443h136z" />
    <glyph glyph-name="Aogonek.mini" horiz-adv-x="1363" 
d="M420 560h524l-256 704h-13zM750 1443l539 -1443c-99 -59 -180 -126 -180 -208c0 -67 47 -99 112 -99c24 0 50 5 74 13v-105c-32 -11 -69 -19 -108 -19c-105 0 -207 55 -207 178c0 86 55 168 163 245l-158 437h-606l-160 -442h-145l540 1443h136z" />
    <glyph glyph-name="Aringbelow.mini" horiz-adv-x="1363" 
d="M1145 0l-160 442h-606l-160 -442h-145l540 1443h136l539 -1443h-144zM675 1264l-255 -704h524l-256 704h-13zM682 -494c-103 0 -185 80 -185 183c0 104 82 184 185 184s185 -80 185 -184c0 -103 -82 -183 -185 -183zM682 -418c64 0 108 47 108 107c0 62 -44 108 -108 108
s-108 -46 -108 -108c0 -60 44 -107 108 -107z" />
    <glyph glyph-name="A.mini" horiz-adv-x="1363" 
d="M1146 0l-172 439h-585l-172 -439h-143l540 1335h136l539 -1335h-143zM679 1181l-244 -624h494l-245 624h-5z" />
    <glyph glyph-name="Adieresismacron.mini" horiz-adv-x="1363" 
d="M1146 0l-172 439h-585l-172 -439h-143l540 1335h136l539 -1335h-143zM679 1181l-244 -624h494l-245 624h-5zM360 1807v101h644v-101h-644zM500 1469c-55 0 -99 43 -99 99c0 55 44 99 99 99s99 -44 99 -99c0 -56 -44 -99 -99 -99zM864 1469c-55 0 -99 43 -99 99
c0 55 44 99 99 99s99 -44 99 -99c0 -56 -44 -99 -99 -99z" />
    <glyph glyph-name="Aringacute.mini" horiz-adv-x="1363" 
d="M1146 0l-172 439h-585l-172 -439h-143l540 1335h136l539 -1335h-143zM679 1181l-244 -624h494l-245 624h-5zM582 1587c0 -56 43 -101 100 -101s100 45 100 101c0 57 -43 101 -100 101s-100 -44 -100 -101zM682 1412c-99 0 -179 77 -179 176s81 176 179 176
c99 0 179 -77 179 -176s-80 -176 -179 -176zM728 1953h139l-117 -128h-111z" />
    <glyph glyph-name="Abrevegrave.mini" horiz-adv-x="1363" 
d="M1146 0l-172 439h-585l-172 -439h-143l540 1335h136l539 -1335h-143zM679 1181l-244 -624h494l-245 624h-5zM352 1740h118c0 -106 83 -173 212 -173s212 67 212 173h118c0 -165 -128 -271 -330 -271s-330 106 -330 271zM770 1731h-148l-221 207h166z" />
    <glyph glyph-name="Adotmacron.mini" horiz-adv-x="1363" 
d="M1146 0l-172 439h-585l-172 -439h-143l540 1335h136l539 -1335h-143zM679 1181l-244 -624h494l-245 624h-5zM682 1470c-58 0 -104 47 -104 104s46 104 104 104s104 -47 104 -104s-46 -104 -104 -104zM1004 1807h-644v101h644v-101z" />
    <glyph glyph-name="Acircumflexacute.mini" horiz-adv-x="1363" 
d="M1146 0l-172 439h-585l-172 -439h-143l540 1335h136l539 -1335h-143zM679 1181l-244 -624h494l-245 624h-5zM755 1696l285 -227h-172l-180 149h-12l-180 -149h-172l285 227h146zM872 1717l203 221h167l-222 -221h-148z" />
    <glyph glyph-name="Acircumflextilde.mini" horiz-adv-x="1363" 
d="M1146 0l-172 439h-585l-172 -439h-143l540 1335h136l539 -1335h-143zM679 1181l-244 -624h494l-245 624h-5zM755 1693l285 -224h-172l-180 145h-12l-180 -145h-172l285 224h146zM824 1736c-152 0 -167 106 -272 106c-59 0 -94 -34 -97 -89h-104c0 112 70 187 187 187
c155 0 174 -107 274 -107c61 0 93 31 97 100h104c0 -120 -70 -197 -189 -197z" />
    <glyph glyph-name="Acircumflexgrave.mini" horiz-adv-x="1363" 
d="M1146 0l-172 439h-585l-172 -439h-143l540 1335h136l539 -1335h-143zM679 1181l-244 -624h494l-245 624h-5zM755 1696l285 -227h-172l-180 149h-12l-180 -149h-172l285 227h146zM1079 1717h-148l-222 221h167z" />
    <glyph glyph-name="Acircumflexhookabove.mini" horiz-adv-x="1363" 
d="M1146 0l-172 439h-585l-172 -439h-143l540 1335h136l539 -1335h-143zM679 1181l-244 -624h494l-245 624h-5zM755 1696l285 -227h-172l-180 149h-12l-180 -149h-172l285 227h146zM797 1836v82c21 11 70 20 123 20c99 0 168 -59 168 -146c0 -70 -46 -135 -115 -160l-74 56
c49 19 78 57 78 98s-35 70 -86 70c-35 0 -75 -9 -94 -20z" />
    <glyph glyph-name="Abreveacute.mini" horiz-adv-x="1363" 
d="M1146 0l-172 439h-585l-172 -439h-143l540 1335h136l539 -1335h-143zM679 1181l-244 -624h494l-245 624h-5zM352 1740h118c0 -106 83 -173 212 -173s212 67 212 173h118c0 -165 -128 -271 -330 -271s-330 106 -330 271zM583 1731l203 207h166l-221 -207h-148z" />
    <glyph glyph-name="Abrevehookabove.mini" horiz-adv-x="1363" 
d="M1146 0l-172 439h-585l-172 -439h-143l540 1335h136l539 -1335h-143zM679 1181l-244 -624h494l-245 624h-5zM352 1726h118c0 -95 80 -159 212 -159s212 64 212 159h118c0 -150 -126 -257 -330 -257s-330 107 -330 257zM533 1844v81c28 16 71 25 109 25
c99 0 174 -50 174 -133c0 -72 -52 -133 -118 -154l-57 65c39 11 71 38 71 79c0 39 -33 58 -85 58c-41 0 -72 -9 -94 -21z" />
    <glyph glyph-name="Abrevetilde.mini" horiz-adv-x="1363" 
d="M1146 0l-172 439h-585l-172 -439h-143l540 1335h136l539 -1335h-143zM679 1181l-244 -624h494l-245 624h-5zM352 1689h118c0 -59 80 -122 212 -122s212 63 212 122h118c0 -114 -128 -220 -330 -220s-330 106 -330 220zM824 1736c-147 0 -168 106 -271 106
c-60 0 -95 -35 -98 -89h-104c0 104 69 187 188 187c143 0 172 -107 272 -107c62 0 94 32 98 100h104c0 -113 -66 -197 -189 -197z" />
    <glyph glyph-name="B" unicode="B" horiz-adv-x="1319" 
d="M715 0h-530v1443h519c266 0 429 -137 429 -356c0 -162 -111 -291 -264 -318v-13c203 -22 338 -159 338 -357c0 -251 -179 -399 -492 -399zM322 1322v-515h323c223 0 350 90 350 258c0 162 -120 257 -317 257h-356zM322 121h374c242 0 371 100 371 285
c0 183 -137 282 -388 282h-357v-567z" />
    <glyph glyph-name="Blinebelow" unicode="&#x1e06;" horiz-adv-x="1319" 
d="M715 0h-530v1443h519c266 0 429 -137 429 -356c0 -162 -111 -291 -264 -318v-13c203 -22 338 -159 338 -357c0 -251 -179 -399 -492 -399zM322 1322v-515h323c223 0 350 90 350 258c0 162 -120 257 -317 257h-356zM322 121h374c242 0 371 100 371 285
c0 183 -137 282 -388 282h-357v-567zM913 -211v-106h-624v106h624z" />
    <glyph glyph-name="Bdotbelow" unicode="&#x1e04;" horiz-adv-x="1319" 
d="M715 0h-530v1443h519c266 0 429 -137 429 -356c0 -162 -111 -291 -264 -318v-13c203 -22 338 -159 338 -357c0 -251 -179 -399 -492 -399zM322 1322v-515h323c223 0 350 90 350 258c0 162 -120 257 -317 257h-356zM322 121h374c242 0 371 100 371 285
c0 183 -137 282 -388 282h-357v-567zM601 -362c-54 0 -97 44 -97 98c0 53 43 97 97 97s97 -44 97 -97c0 -54 -43 -98 -97 -98z" />
    <glyph glyph-name="Bdotaccent" unicode="&#x1e02;" horiz-adv-x="1319" 
d="M715 0h-530v1443h519c266 0 429 -137 429 -356c0 -162 -111 -291 -264 -318v-13c203 -22 338 -159 338 -357c0 -251 -179 -399 -492 -399zM322 1322v-515h323c223 0 350 90 350 258c0 162 -120 257 -317 257h-356zM322 121h374c242 0 371 100 371 285
c0 183 -137 282 -388 282h-357v-567zM601 1646c-54 0 -97 44 -97 98c0 53 43 97 97 97s97 -44 97 -97c0 -54 -43 -98 -97 -98z" />
    <glyph glyph-name="C" unicode="C" horiz-adv-x="1455" 
d="M763 -30c-392 0 -636 288 -636 751s244 752 635 752c297 0 537 -197 576 -471h-139c-42 204 -220 344 -437 344c-302 0 -495 -243 -495 -625s192 -624 496 -624c223 0 396 124 436 314h139c-41 -265 -269 -441 -575 -441z" />
    <glyph glyph-name="Cacute" unicode="&#x106;" horiz-adv-x="1455" 
d="M763 -30c-392 0 -636 288 -636 751s244 752 635 752c297 0 537 -197 576 -471h-139c-42 204 -220 344 -437 344c-302 0 -495 -243 -495 -625s192 -624 496 -624c223 0 396 124 436 314h139c-41 -265 -269 -441 -575 -441zM826 1576h-119l185 298h164z" />
    <glyph glyph-name="Ccaron" unicode="&#x10c;" horiz-adv-x="1455" 
d="M763 -30c-392 0 -636 288 -636 751s244 752 635 752c297 0 537 -197 576 -471h-139c-42 204 -220 344 -437 344c-302 0 -495 -243 -495 -625s192 -624 496 -624c223 0 396 124 436 314h139c-41 -265 -269 -441 -575 -441zM824 1577h-124l-289 297h155l190 -202h12
l190 202h155z" />
    <glyph glyph-name="Ccircumflex" unicode="&#x108;" horiz-adv-x="1455" 
d="M763 -30c-392 0 -636 288 -636 751s244 752 635 752c297 0 537 -197 576 -471h-139c-42 204 -220 344 -437 344c-302 0 -495 -243 -495 -625s192 -624 496 -624c223 0 396 124 436 314h139c-41 -265 -269 -441 -575 -441zM700 1874h124l289 -297h-155l-190 202h-12
l-190 -202h-155z" />
    <glyph glyph-name="Cdotaccent" unicode="&#x10a;" horiz-adv-x="1455" 
d="M763 -30c-392 0 -636 288 -636 751s244 752 635 752c297 0 537 -197 576 -471h-139c-42 204 -220 344 -437 344c-302 0 -495 -243 -495 -625s192 -624 496 -624c223 0 396 124 436 314h139c-41 -265 -269 -441 -575 -441zM762 1646c-54 0 -97 44 -97 98c0 53 43 97 97 97
s97 -44 97 -97c0 -54 -43 -98 -97 -98z" />
    <glyph glyph-name="Ccedilla" unicode="&#xc7;" horiz-adv-x="1455" 
d="M1338 1002h-139c-42 204 -220 344 -437 344c-302 0 -495 -243 -495 -625s192 -624 496 -624c223 0 396 124 436 314h139c-38 -248 -240 -418 -516 -439l-58 -107c133 0 219 -57 219 -160c0 -127 -113 -185 -242 -185c-54 0 -101 9 -142 20v92c20 -7 68 -17 121 -17
c71 0 138 27 138 85c0 57 -54 79 -155 79h-56v71l64 122c-362 24 -584 307 -584 749c0 463 244 752 635 752c297 0 537 -197 576 -471z" />
    <glyph glyph-name="Ccedillaacute" unicode="&#x1e08;" horiz-adv-x="1455" 
d="M1056 1874l-230 -298h-119l185 298h164zM1338 1002h-139c-42 204 -220 344 -437 344c-302 0 -495 -243 -495 -625s192 -624 496 -624c223 0 396 124 436 314h139c-38 -248 -240 -418 -516 -439l-58 -107c133 0 219 -57 219 -160c0 -127 -113 -185 -242 -185
c-54 0 -101 9 -142 20v92c20 -7 68 -17 121 -17c71 0 138 27 138 85c0 57 -54 79 -155 79h-56v71l64 122c-362 24 -584 307 -584 749c0 463 244 752 635 752c297 0 537 -197 576 -471z" />
    <glyph glyph-name="Ccedilla.mini" horiz-adv-x="1455" 
d="M1338 1002h-139c-42 204 -220 344 -437 344c-302 0 -495 -243 -495 -625s192 -624 496 -624c223 0 396 124 436 314h139c-38 -246 -237 -415 -510 -438l-51 -91c125 -4 200 -59 200 -151c0 -102 -95 -163 -236 -163c-50 0 -97 8 -125 17v89c22 -7 67 -15 114 -15
c70 0 124 17 124 70c0 47 -47 70 -129 70h-62v62l58 110c-367 20 -594 304 -594 750c0 463 244 752 635 752c297 0 537 -197 576 -471z" />
    <glyph glyph-name="Ccedillaacute.mini" horiz-adv-x="1455" 
d="M1056 1874l-230 -298h-119l185 298h164zM1338 1002h-139c-42 204 -220 344 -437 344c-302 0 -495 -243 -495 -625s192 -624 496 -624c223 0 396 124 436 314h139c-38 -246 -237 -415 -510 -438l-51 -91c125 -4 200 -59 200 -151c0 -102 -95 -163 -236 -163
c-50 0 -97 8 -125 17v89c22 -7 67 -15 114 -15c70 0 124 17 124 70c0 47 -47 70 -129 70h-62v62l58 110c-367 20 -594 304 -594 750c0 463 244 752 635 752c297 0 537 -197 576 -471z" />
    <glyph glyph-name="D" unicode="D" horiz-adv-x="1472" 
d="M185 1443h475c440 0 685 -273 685 -721c0 -449 -244 -722 -685 -722h-475v1443zM322 1319v-1195h330c353 0 553 224 553 597s-201 598 -553 598h-330z" />
    <glyph glyph-name="Ddotaccent" unicode="&#x1e0a;" horiz-adv-x="1472" 
d="M185 1443h475c440 0 685 -273 685 -721c0 -449 -244 -722 -685 -722h-475v1443zM322 1319v-1195h330c353 0 553 224 553 597s-201 598 -553 598h-330zM605 1646c-54 0 -97 44 -97 98c0 53 43 97 97 97s97 -44 97 -97c0 -54 -43 -98 -97 -98z" />
    <glyph glyph-name="Dcircumflexbelow" unicode="&#x1e12;" horiz-adv-x="1472" 
d="M185 1443h475c440 0 685 -273 685 -721c0 -449 -244 -722 -685 -722h-475v1443zM322 1319v-1195h330c353 0 553 224 553 597s-201 598 -553 598h-330zM543 -125h124l289 -297h-155l-190 202h-12l-190 -202h-155z" />
    <glyph glyph-name="Dcommaaccent" unicode="&#x1e10;" horiz-adv-x="1472" 
d="M185 1443h475c440 0 685 -273 685 -721c0 -449 -244 -722 -685 -722h-475v1443zM322 1319v-1195h330c353 0 553 224 553 597s-201 598 -553 598h-330zM546 -489h-100l88 364h142z" />
    <glyph glyph-name="Dlinebelow" unicode="&#x1e0e;" horiz-adv-x="1472" 
d="M185 1443h475c440 0 685 -273 685 -721c0 -449 -244 -722 -685 -722h-475v1443zM322 1319v-1195h330c353 0 553 224 553 597s-201 598 -553 598h-330zM917 -211v-106h-624v106h624z" />
    <glyph glyph-name="Dcaron" unicode="&#x10e;" horiz-adv-x="1472" 
d="M185 1443h475c440 0 685 -273 685 -721c0 -449 -244 -722 -685 -722h-475v1443zM322 1319v-1195h330c353 0 553 224 553 597s-201 598 -553 598h-330zM667 1577h-124l-289 297h155l190 -202h12l190 202h155z" />
    <glyph glyph-name="Ddotbelow" unicode="&#x1e0c;" horiz-adv-x="1472" 
d="M185 1443h475c440 0 685 -273 685 -721c0 -449 -244 -722 -685 -722h-475v1443zM322 1319v-1195h330c353 0 553 224 553 597s-201 598 -553 598h-330zM605 -362c-54 0 -97 44 -97 98c0 53 43 97 97 97s97 -44 97 -97c0 -54 -43 -98 -97 -98z" />
    <glyph glyph-name="Dcroat" unicode="&#x110;" horiz-adv-x="1472" 
d="M322 124h330c353 0 553 224 553 597s-201 598 -553 598h-330v-514h339v-123h-339v-558zM185 1443h475c440 0 685 -273 685 -721c0 -449 -244 -722 -685 -722h-475v682h-162v123h162v638z" />
    <glyph glyph-name="Dcommaaccent.mini" horiz-adv-x="1472" 
d="M185 1443h475c440 0 685 -273 685 -721c0 -449 -244 -722 -685 -722h-475v1443zM322 1319v-1195h330c353 0 553 224 553 597s-201 598 -553 598h-330zM564 -432h-112l83 289h137z" />
    <glyph glyph-name="E" unicode="E" horiz-adv-x="1197" 
d="M1057 124v-124h-872v1443h872v-124h-735v-519h698v-122h-698v-554h735z" />
    <glyph glyph-name="Egrave" unicode="&#xc8;" horiz-adv-x="1197" 
d="M1057 124v-124h-872v1443h872v-124h-735v-519h698v-122h-698v-554h735zM557 1576l-230 298h164l185 -298h-119z" />
    <glyph glyph-name="Edblgrave" unicode="&#x204;" horiz-adv-x="1197" 
d="M1057 124v-124h-872v1443h872v-124h-735v-519h698v-122h-698v-554h735zM839 1577h-111l-181 297h147zM533 1577h-111l-219 297h157z" />
    <glyph glyph-name="Eacute" unicode="&#xc9;" horiz-adv-x="1197" 
d="M1057 124v-124h-872v1443h872v-124h-735v-519h698v-122h-698v-554h735zM685 1576h-119l185 298h164z" />
    <glyph glyph-name="Ecircumflex" unicode="&#xca;" horiz-adv-x="1197" 
d="M1057 124v-124h-872v1443h872v-124h-735v-519h698v-122h-698v-554h735zM559 1874h124l289 -297h-155l-190 202h-12l-190 -202h-155z" />
    <glyph glyph-name="Ecircumflexhookabove" unicode="&#x1ec2;" horiz-adv-x="1197" 
d="M1057 124v-124h-872v1443h872v-124h-735v-519h698v-122h-698v-554h735zM548 1804h146l285 -227h-172l-180 149h-12l-180 -149h-172zM736 1955v82c21 10 70 19 123 19c99 0 168 -59 168 -146c0 -69 -46 -135 -116 -160l-75 58c49 19 80 56 80 97s-35 69 -86 69
c-35 0 -75 -9 -94 -19z" />
    <glyph glyph-name="Ecircumflexgrave" unicode="&#x1ec0;" horiz-adv-x="1197" 
d="M1057 124v-124h-872v1443h872v-124h-735v-519h698v-122h-698v-554h735zM548 1804h146l285 -227h-172l-180 149h-12l-180 -149h-172zM1025 1825h-148l-243 231h167z" />
    <glyph glyph-name="Ecircumflextilde" unicode="&#x1ec4;" horiz-adv-x="1197" 
d="M1057 124v-124h-872v1443h872v-124h-735v-519h698v-122h-698v-554h735zM755 1845c-155 0 -160 125 -265 125c-59 0 -93 -39 -96 -111h-106c0 125 80 211 199 211c155 0 160 -124 265 -124c52 0 92 34 97 110h105c0 -119 -80 -211 -199 -211zM548 1801h146l285 -224h-172
l-180 145h-12l-180 -145h-172z" />
    <glyph glyph-name="Ecircumflexdotbelow" unicode="&#x1ec6;" horiz-adv-x="1197" 
d="M1057 124v-124h-872v1443h872v-124h-735v-519h698v-122h-698v-554h735zM559 1874h124l289 -297h-155l-190 202h-12l-190 -202h-155zM621 -362c-54 0 -97 44 -97 98c0 53 43 97 97 97s97 -44 97 -97c0 -54 -43 -98 -97 -98z" />
    <glyph glyph-name="Ecircumflexacute" unicode="&#x1ebe;" horiz-adv-x="1197" 
d="M1057 124v-124h-872v1443h872v-124h-735v-519h698v-122h-698v-554h735zM548 1804h146l285 -227h-172l-180 149h-12l-180 -149h-172zM811 1825l224 231h167l-243 -231h-148z" />
    <glyph glyph-name="Edieresis" unicode="&#xcb;" horiz-adv-x="1197" 
d="M1057 124v-124h-872v1443h872v-124h-735v-519h698v-122h-698v-554h735zM429 1646c-53 0 -97 44 -97 98c0 53 44 97 97 97c54 0 98 -44 98 -97c0 -54 -44 -98 -98 -98zM813 1646c-54 0 -98 44 -98 98c0 53 44 97 98 97c53 0 97 -44 97 -97c0 -54 -44 -98 -97 -98z" />
    <glyph glyph-name="Edotbelow" unicode="&#x1eb8;" horiz-adv-x="1197" 
d="M1057 124v-124h-872v1443h872v-124h-735v-519h698v-122h-698v-554h735zM621 -362c-54 0 -97 44 -97 98c0 53 43 97 97 97s97 -44 97 -97c0 -54 -43 -98 -97 -98z" />
    <glyph glyph-name="Einvertedbreve" unicode="&#x206;" horiz-adv-x="1197" 
d="M1057 124v-124h-872v1443h872v-124h-735v-519h698v-122h-698v-554h735zM944 1586h-118c0 109 -76 176 -205 176s-205 -67 -205 -176h-118c0 168 121 274 323 274s323 -106 323 -274z" />
    <glyph glyph-name="Ehookabove" unicode="&#x1eba;" horiz-adv-x="1197" 
d="M1057 124v-124h-872v1443h872v-124h-735v-519h698v-122h-698v-554h735zM461 1788v96c30 13 80 23 128 23c128 0 204 -66 204 -166c0 -85 -67 -163 -161 -198l-58 78c59 20 106 64 106 112c0 46 -44 80 -105 80c-47 0 -88 -12 -114 -25z" />
    <glyph glyph-name="Ecaron" unicode="&#x11a;" horiz-adv-x="1197" 
d="M1057 124v-124h-872v1443h872v-124h-735v-519h698v-122h-698v-554h735zM683 1577h-124l-289 297h155l190 -202h12l190 202h155z" />
    <glyph glyph-name="Emacron" unicode="&#x112;" horiz-adv-x="1197" 
d="M1057 124v-124h-872v1443h872v-124h-735v-519h698v-122h-698v-554h735zM933 1796v-106h-624v106h624z" />
    <glyph glyph-name="Emacrongrave" unicode="&#x1e14;" horiz-adv-x="1197" 
d="M1057 124v-124h-872v1443h872v-124h-735v-519h698v-122h-698v-554h735zM299 1619v101h644v-101h-644zM706 1839h-149l-243 217h168z" />
    <glyph glyph-name="Emacronacute" unicode="&#x1e16;" horiz-adv-x="1197" 
d="M1057 124v-124h-872v1443h872v-124h-735v-519h698v-122h-698v-554h735zM943 1618h-644v101h644v-101zM536 1838l224 217h168l-243 -217h-149z" />
    <glyph glyph-name="Etilde" unicode="&#x1ebc;" horiz-adv-x="1197" 
d="M1057 124v-124h-872v1443h872v-124h-735v-519h698v-122h-698v-554h735zM748 1594c-155 0 -163 153 -259 153c-54 0 -89 -50 -89 -156h-110c0 162 75 260 201 260c154 0 167 -158 263 -158c58 0 88 54 88 160h110c0 -161 -75 -259 -204 -259z" />
    <glyph glyph-name="Ecircumflexbelow" unicode="&#x1e18;" horiz-adv-x="1197" 
d="M1057 124v-124h-872v1443h872v-124h-735v-519h698v-122h-698v-554h735zM698 -125l247 -332h-146l-172 243h-12l-172 -243h-146l247 332h154z" />
    <glyph glyph-name="Ebreve" unicode="&#x114;" horiz-adv-x="1197" 
d="M1057 124v-124h-872v1443h872v-124h-735v-519h698v-122h-698v-554h735zM298 1860h118c0 -109 76 -176 205 -176s205 67 205 176h118c0 -168 -121 -274 -323 -274s-323 106 -323 274z" />
    <glyph glyph-name="Etildebelow" unicode="&#x1e1a;" horiz-adv-x="1197" 
d="M1057 124v-124h-872v1443h872v-124h-735v-519h698v-122h-698v-554h735zM748 -392c-155 0 -163 153 -259 153c-54 0 -89 -50 -89 -156h-110c0 162 75 260 201 260c154 0 167 -158 263 -158c58 0 88 54 88 160h110c0 -161 -75 -259 -204 -259z" />
    <glyph glyph-name="Edotaccent" unicode="&#x116;" horiz-adv-x="1197" 
d="M1057 124v-124h-872v1443h872v-124h-735v-519h698v-122h-698v-554h735zM621 1646c-54 0 -97 44 -97 98c0 53 43 97 97 97s97 -44 97 -97c0 -54 -43 -98 -97 -98z" />
    <glyph glyph-name="Ecedilla" unicode="&#x228;" horiz-adv-x="1197" 
d="M1057 1319h-735v-519h698v-122h-698v-554h735v-124h-361l-73 -135c133 0 219 -57 219 -160c0 -127 -113 -185 -242 -185c-54 0 -101 9 -142 20v92c20 -7 68 -17 121 -17c71 0 138 27 138 85c0 57 -54 79 -155 79h-56v71l79 150h-400v1443h872v-124z" />
    <glyph glyph-name="Ecedillabreve" unicode="&#x1e1c;" horiz-adv-x="1197" 
d="M826 1860h118c0 -168 -121 -274 -323 -274s-323 106 -323 274h118c0 -109 76 -176 205 -176s205 67 205 176zM1057 1319h-735v-519h698v-122h-698v-554h735v-124h-361l-73 -135c133 0 219 -57 219 -160c0 -127 -113 -185 -242 -185c-54 0 -101 9 -142 20v92
c20 -7 68 -17 121 -17c71 0 138 27 138 85c0 57 -54 79 -155 79h-56v71l79 150h-400v1443h872v-124z" />
    <glyph glyph-name="Eogonek" unicode="&#x118;" horiz-adv-x="1197" 
d="M1057 124v-124c-99 -59 -180 -126 -180 -208c0 -67 46 -99 112 -99c24 0 50 5 74 13v-105c-32 -11 -70 -19 -108 -19c-105 0 -207 55 -207 178c0 84 53 164 156 240h-719v1443h872v-124h-735v-519h698v-122h-698v-554h735z" />
    <glyph glyph-name="Eogonek.mini" horiz-adv-x="1197" 
d="M1057 124v-124c-99 -59 -180 -126 -180 -208c0 -67 46 -99 112 -99c24 0 50 5 74 13v-105c-32 -11 -70 -19 -108 -19c-105 0 -207 55 -207 178c0 84 53 164 156 240h-719v1443h872v-124h-735v-519h698v-122h-698v-554h735z" />
    <glyph glyph-name="Ecedillabreve.mini" horiz-adv-x="1197" 
d="M826 1860h118c0 -168 -121 -274 -323 -274s-323 106 -323 274h118c0 -109 76 -176 205 -176s205 67 205 176zM1057 1319h-735v-519h698v-122h-698v-554h735v-124h-355l-66 -118c125 -4 200 -59 200 -151c0 -102 -95 -163 -236 -163c-50 0 -97 8 -125 17v89
c22 -7 67 -15 114 -15c70 0 124 17 124 70c0 47 -47 70 -129 70h-62v62l74 139h-411v1443h872v-124z" />
    <glyph glyph-name="Ecedilla.mini" horiz-adv-x="1197" 
d="M1057 1319h-735v-519h698v-122h-698v-554h735v-124h-355l-66 -118c125 -4 200 -59 200 -151c0 -102 -95 -163 -236 -163c-50 0 -97 8 -125 17v89c22 -7 67 -15 114 -15c70 0 124 17 124 70c0 47 -47 70 -129 70h-62v62l74 139h-411v1443h872v-124z" />
    <glyph glyph-name="E.mini" horiz-adv-x="1197" 
d="M1057 124v-124h-872v1335h872v-124h-735v-465h698v-122h-698v-500h735z" />
    <glyph glyph-name="Emacronacute.mini" horiz-adv-x="1197" 
d="M1057 124v-124h-872v1335h872v-124h-735v-465h698v-122h-698v-500h735zM943 1511h-644v101h644v-101zM537 1731l203 207h165l-220 -207h-148z" />
    <glyph glyph-name="Ecircumflexhookabove.mini" horiz-adv-x="1197" 
d="M1057 124v-124h-872v1335h872v-124h-735v-465h698v-122h-698v-500h735zM694 1696l285 -227h-172l-180 149h-12l-180 -149h-172l285 227h146zM736 1836v82c21 11 70 20 123 20c99 0 168 -59 168 -146c0 -70 -46 -135 -115 -160l-74 56c49 19 78 57 78 98s-35 70 -86 70
c-35 0 -75 -9 -94 -20z" />
    <glyph glyph-name="Emacrongrave.mini" horiz-adv-x="1197" 
d="M1057 124v-124h-872v1335h872v-124h-735v-465h698v-122h-698v-500h735zM943 1511h-644v101h644v-101zM706 1731h-148l-221 207h166z" />
    <glyph glyph-name="Ecircumflexacute.mini" horiz-adv-x="1197" 
d="M1057 124v-124h-872v1335h872v-124h-735v-465h698v-122h-698v-500h735zM694 1696l285 -227h-172l-180 149h-12l-180 -149h-172l285 227h146zM811 1717l203 221h167l-222 -221h-148z" />
    <glyph glyph-name="Ecircumflexgrave.mini" horiz-adv-x="1197" 
d="M1057 124v-124h-872v1335h872v-124h-735v-465h698v-122h-698v-500h735zM694 1696l285 -227h-172l-180 149h-12l-180 -149h-172l285 227h146zM1018 1717h-148l-222 221h167z" />
    <glyph glyph-name="Ecircumflextilde.mini" horiz-adv-x="1197" 
d="M1057 124v-124h-872v1335h872v-124h-735v-465h698v-122h-698v-500h735zM694 1693l285 -224h-172l-180 145h-12l-180 -145h-172l285 224h146zM763 1736c-152 0 -167 106 -272 106c-59 0 -94 -34 -97 -89h-104c0 112 70 187 187 187c155 0 174 -107 274 -107
c61 0 93 31 97 100h104c0 -120 -70 -197 -189 -197z" />
    <glyph glyph-name="F" unicode="F" horiz-adv-x="1155" 
d="M322 0h-137v1443h856v-124h-719v-542h661v-122h-661v-655z" />
    <glyph glyph-name="Fdotaccent" unicode="&#x1e1e;" horiz-adv-x="1155" 
d="M322 0h-137v1443h856v-124h-719v-542h661v-122h-661v-655zM613 1646c-54 0 -97 44 -97 98c0 53 43 97 97 97s97 -44 97 -97c0 -54 -43 -98 -97 -98z" />
    <glyph glyph-name="G" unicode="G" horiz-adv-x="1506" 
d="M1375 559c0 -357 -237 -589 -602 -589c-391 0 -646 297 -646 752c0 452 255 751 643 751c308 0 539 -177 591 -452h-139c-60 206 -224 325 -452 325c-305 0 -503 -246 -503 -624c0 -379 198 -625 506 -625c283 0 466 179 466 451v50h-440v121h576v-160z" />
    <glyph glyph-name="Gacute" unicode="&#x1f4;" horiz-adv-x="1506" 
d="M1375 559c0 -357 -237 -589 -602 -589c-391 0 -646 297 -646 752c0 452 255 751 643 751c308 0 539 -177 591 -452h-139c-60 206 -224 325 -452 325c-305 0 -503 -246 -503 -624c0 -379 198 -625 506 -625c283 0 466 179 466 451v50h-440v121h576v-160zM834 1576h-119
l185 298h164z" />
    <glyph glyph-name="Gcaron" unicode="&#x1e6;" horiz-adv-x="1506" 
d="M1375 559c0 -357 -237 -589 -602 -589c-391 0 -646 297 -646 752c0 452 255 751 643 751c308 0 539 -177 591 -452h-139c-60 206 -224 325 -452 325c-305 0 -503 -246 -503 -624c0 -379 198 -625 506 -625c283 0 466 179 466 451v50h-440v121h576v-160zM832 1577h-124
l-289 297h155l190 -202h12l190 202h155z" />
    <glyph glyph-name="Gcircumflex" unicode="&#x11c;" horiz-adv-x="1506" 
d="M1375 559c0 -357 -237 -589 -602 -589c-391 0 -646 297 -646 752c0 452 255 751 643 751c308 0 539 -177 591 -452h-139c-60 206 -224 325 -452 325c-305 0 -503 -246 -503 -624c0 -379 198 -625 506 -625c283 0 466 179 466 451v50h-440v121h576v-160zM708 1874h124
l289 -297h-155l-190 202h-12l-190 -202h-155z" />
    <glyph glyph-name="Gbreve" unicode="&#x11e;" horiz-adv-x="1506" 
d="M1375 559c0 -357 -237 -589 -602 -589c-391 0 -646 297 -646 752c0 452 255 751 643 751c308 0 539 -177 591 -452h-139c-60 206 -224 325 -452 325c-305 0 -503 -246 -503 -624c0 -379 198 -625 506 -625c283 0 466 179 466 451v50h-440v121h576v-160zM447 1860h118
c0 -109 76 -176 205 -176s205 67 205 176h118c0 -168 -121 -274 -323 -274s-323 106 -323 274z" />
    <glyph glyph-name="Gmacron" unicode="&#x1e20;" horiz-adv-x="1506" 
d="M1375 559c0 -357 -237 -589 -602 -589c-391 0 -646 297 -646 752c0 452 255 751 643 751c308 0 539 -177 591 -452h-139c-60 206 -224 325 -452 325c-305 0 -503 -246 -503 -624c0 -379 198 -625 506 -625c283 0 466 179 466 451v50h-440v121h576v-160zM1082 1796v-106
h-624v106h624z" />
    <glyph glyph-name="Gdotaccent" unicode="&#x120;" horiz-adv-x="1506" 
d="M1375 559c0 -357 -237 -589 -602 -589c-391 0 -646 297 -646 752c0 452 255 751 643 751c308 0 539 -177 591 -452h-139c-60 206 -224 325 -452 325c-305 0 -503 -246 -503 -624c0 -379 198 -625 506 -625c283 0 466 179 466 451v50h-440v121h576v-160zM770 1646
c-54 0 -97 44 -97 98c0 53 43 97 97 97s97 -44 97 -97c0 -54 -43 -98 -97 -98z" />
    <glyph glyph-name="Gcommaaccent" unicode="&#x122;" horiz-adv-x="1506" 
d="M1375 559c0 -357 -237 -589 -602 -589c-391 0 -646 297 -646 752c0 452 255 751 643 751c308 0 539 -177 591 -452h-139c-60 206 -224 325 -452 325c-305 0 -503 -246 -503 -624c0 -379 198 -625 506 -625c283 0 466 179 466 451v50h-440v121h576v-160zM714 -489h-100
l88 364h142z" />
    <glyph glyph-name="Gcommaaccent.mini" horiz-adv-x="1506" 
d="M1375 559c0 -357 -237 -589 -602 -589c-391 0 -646 297 -646 752c0 452 255 751 643 751c308 0 539 -177 591 -452h-139c-60 206 -224 325 -452 325c-305 0 -503 -246 -503 -624c0 -379 198 -625 506 -625c283 0 466 179 466 451v50h-440v121h576v-160zM732 -432h-112
l83 289h137z" />
    <glyph glyph-name="H" unicode="H" horiz-adv-x="1488" 
d="M1303 0h-137v677h-844v-677h-137v1443h137v-642h844v642h137v-1443z" />
    <glyph glyph-name="Hdieresis" unicode="&#x1e26;" horiz-adv-x="1488" 
d="M1303 0h-137v677h-844v-677h-137v1443h137v-642h844v642h137v-1443zM552 1646c-53 0 -97 44 -97 98c0 53 44 97 97 97c54 0 98 -44 98 -97c0 -54 -44 -98 -98 -98zM936 1646c-54 0 -98 44 -98 98c0 53 44 97 98 97c53 0 97 -44 97 -97c0 -54 -44 -98 -97 -98z" />
    <glyph glyph-name="Hcaron" unicode="&#x21e;" horiz-adv-x="1488" 
d="M1303 0h-137v677h-844v-677h-137v1443h137v-642h844v642h137v-1443zM806 1577h-124l-289 297h155l190 -202h12l190 202h155z" />
    <glyph glyph-name="Hcircumflex" unicode="&#x124;" horiz-adv-x="1488" 
d="M1303 0h-137v677h-844v-677h-137v1443h137v-642h844v642h137v-1443zM682 1874h124l289 -297h-155l-190 202h-12l-190 -202h-155z" />
    <glyph glyph-name="Hdotbelow" unicode="&#x1e24;" horiz-adv-x="1488" 
d="M1303 0h-137v677h-844v-677h-137v1443h137v-642h844v642h137v-1443zM744 -362c-54 0 -97 44 -97 98c0 53 43 97 97 97s97 -44 97 -97c0 -54 -43 -98 -97 -98z" />
    <glyph glyph-name="Hdotaccent" unicode="&#x1e22;" horiz-adv-x="1488" 
d="M1303 0h-137v677h-844v-677h-137v1443h137v-642h844v642h137v-1443zM744 1646c-54 0 -97 44 -97 98c0 53 43 97 97 97s97 -44 97 -97c0 -54 -43 -98 -97 -98z" />
    <glyph glyph-name="Hbrevebelow" unicode="&#x1e2a;" horiz-adv-x="1488" 
d="M1303 0h-137v677h-844v-677h-137v1443h137v-642h844v642h137v-1443zM424 -111h119c0 -125 66 -206 201 -206s201 81 201 206h119c0 -183 -114 -307 -320 -307s-320 124 -320 307z" />
    <glyph glyph-name="Hcedilla" unicode="&#x1e28;" horiz-adv-x="1488" 
d="M1166 1443h137v-1443h-137v677h-844v-657v-20l-73 -135c133 0 219 -57 219 -160c0 -127 -113 -185 -242 -185c-54 0 -101 9 -142 20v92c20 -7 68 -17 121 -17c71 0 138 27 138 85c0 57 -54 79 -155 79h-56v71l79 150h-26v1443h137v-642h844v642z" />
    <glyph glyph-name="Hbar" unicode="&#x126;" horiz-adv-x="1488" 
d="M1166 801v283h-844v-283h844zM1442 1208v-124h-139v-1084h-137v677h-844v-677h-137v1084h-139v124h139v235h137v-235h844v235h137v-235h139z" />
    <glyph glyph-name="Hcedilla.mini" horiz-adv-x="1488" 
d="M1166 1443h137v-1443h-137v677h-844v-650v-27l-66 -118c126 -4 200 -59 200 -151c0 -102 -95 -163 -236 -163c-50 0 -97 8 -124 17v89c21 -7 66 -15 113 -15c70 0 124 17 124 70c0 47 -47 70 -129 70h-62v62l75 139h-32v1443h137v-642h844v642z" />
    <glyph glyph-name="I" unicode="I" horiz-adv-x="507" 
d="M322 0h-137v1443h137v-1443z" />
    <glyph glyph-name="Idotaccent" unicode="&#x130;" horiz-adv-x="507" 
d="M322 0h-137v1443h137v-1443zM254 1646c-54 0 -97 44 -97 98c0 53 43 97 97 97s97 -44 97 -97c0 -54 -43 -98 -97 -98z" />
    <glyph glyph-name="Igrave" unicode="&#xcc;" horiz-adv-x="507" 
d="M322 0h-137v1443h137v-1443zM190 1576l-230 298h164l185 -298h-119z" />
    <glyph glyph-name="Idblgrave" unicode="&#x208;" horiz-adv-x="507" 
d="M322 0h-137v1443h137v-1443zM472 1577h-111l-181 297h147zM166 1577h-111l-219 297h157z" />
    <glyph glyph-name="Iacute" unicode="&#xcd;" horiz-adv-x="507" 
d="M322 0h-137v1443h137v-1443zM318 1576h-119l185 298h164z" />
    <glyph glyph-name="Icircumflex" unicode="&#xce;" horiz-adv-x="507" 
d="M322 0h-137v1443h137v-1443zM192 1874h124l289 -297h-155l-190 202h-12l-190 -202h-155z" />
    <glyph glyph-name="Icaron" unicode="&#x1cf;" horiz-adv-x="507" 
d="M322 0h-137v1443h137v-1443zM316 1577h-124l-289 297h155l190 -202h12l190 202h155z" />
    <glyph glyph-name="Idieresis" unicode="&#xcf;" horiz-adv-x="507" 
d="M322 0h-137v1443h137v-1443zM62 1646c-53 0 -97 44 -97 98c0 53 44 97 97 97c54 0 98 -44 98 -97c0 -54 -44 -98 -98 -98zM446 1646c-54 0 -98 44 -98 98c0 53 44 97 98 97c53 0 97 -44 97 -97c0 -54 -44 -98 -97 -98z" />
    <glyph glyph-name="Idieresisacute" unicode="&#x1e2e;" horiz-adv-x="507" 
d="M322 0h-137v1443h137v-1443zM180 1839l231 217h174l-267 -217h-138zM72 1568c-56 0 -102 45 -102 102s46 102 102 102c57 0 102 -45 102 -102s-45 -102 -102 -102zM436 1568c-57 0 -102 45 -102 102s45 102 102 102c56 0 102 -45 102 -102s-46 -102 -102 -102z" />
    <glyph glyph-name="Ibreve" unicode="&#x12c;" horiz-adv-x="507" 
d="M322 0h-137v1443h137v-1443zM-69 1860h118c0 -109 76 -176 205 -176s205 67 205 176h118c0 -168 -121 -274 -323 -274s-323 106 -323 274z" />
    <glyph glyph-name="Idotbelow" unicode="&#x1eca;" horiz-adv-x="507" 
d="M322 0h-137v1443h137v-1443zM254 -362c-54 0 -97 44 -97 98c0 53 43 97 97 97s97 -44 97 -97c0 -54 -43 -98 -97 -98z" />
    <glyph glyph-name="Iinvertedbreve" unicode="&#x20a;" horiz-adv-x="507" 
d="M322 0h-137v1443h137v-1443zM577 1586h-118c0 109 -76 176 -205 176s-205 -67 -205 -176h-118c0 168 121 274 323 274s323 -106 323 -274z" />
    <glyph glyph-name="Imacron" unicode="&#x12a;" horiz-adv-x="507" 
d="M322 0h-137v1443h137v-1443zM566 1796v-106h-624v106h624z" />
    <glyph glyph-name="Itildebelow" unicode="&#x1e2c;" horiz-adv-x="507" 
d="M322 0h-137v1443h137v-1443zM381 -392c-155 0 -163 153 -259 153c-54 0 -89 -50 -89 -156h-110c0 162 75 260 201 260c154 0 167 -158 263 -158c58 0 88 54 88 160h110c0 -161 -75 -259 -204 -259z" />
    <glyph glyph-name="Ihookabove" unicode="&#x1ec8;" horiz-adv-x="507" 
d="M322 0h-137v1443h137v-1443zM94 1788v96c30 13 80 23 128 23c128 0 204 -66 204 -166c0 -85 -67 -163 -161 -198l-58 78c59 20 106 64 106 112c0 46 -44 80 -105 80c-47 0 -88 -12 -114 -25z" />
    <glyph glyph-name="Itilde" unicode="&#x128;" horiz-adv-x="507" 
d="M322 0h-137v1443h137v-1443zM381 1594c-155 0 -163 153 -259 153c-54 0 -89 -50 -89 -156h-110c0 162 75 260 201 260c154 0 167 -158 263 -158c58 0 88 54 88 160h110c0 -161 -75 -259 -204 -259z" />
    <glyph glyph-name="Iogonek" unicode="&#x12e;" horiz-adv-x="507" 
d="M322 1443v-1443c-99 -59 -180 -126 -180 -208c0 -67 47 -99 112 -99c24 0 50 5 74 13v-105c-32 -11 -70 -19 -108 -19c-105 0 -207 55 -207 178c0 88 58 172 172 251v1432h137z" />
    <glyph glyph-name="Iogonek.mini" horiz-adv-x="507" 
d="M322 1443v-1443c-99 -59 -180 -126 -180 -208c0 -67 47 -99 112 -99c24 0 50 5 74 13v-105c-32 -11 -70 -19 -108 -19c-105 0 -207 55 -207 178c0 88 58 172 172 251v1432h137z" />
    <glyph glyph-name="I.mini" horiz-adv-x="507" 
d="M322 0h-137v1335h137v-1335z" />
    <glyph glyph-name="Idieresisacute.mini" horiz-adv-x="507" 
d="M322 0h-137v1335h137v-1335zM72 1469c-56 0 -102 45 -102 102c0 56 46 102 102 102c57 0 102 -46 102 -102c0 -57 -45 -102 -102 -102zM436 1469c-57 0 -102 45 -102 102c0 56 45 102 102 102c56 0 102 -46 102 -102c0 -57 -46 -102 -102 -102zM168 1731l203 207h166
l-221 -207h-148z" />
    <glyph glyph-name="I.1" horiz-adv-x="974" 
d="M129 0v118h290v1207h-290v118h716v-118h-290v-1207h290v-118h-716z" />
    <glyph glyph-name="Idotaccent.1" horiz-adv-x="974" 
d="M129 0v118h290v1207h-290v118h716v-118h-290v-1207h290v-118h-716zM487 1646c-54 0 -97 44 -97 98c0 53 43 97 97 97s97 -44 97 -97c0 -54 -43 -98 -97 -98z" />
    <glyph glyph-name="Igrave.1" horiz-adv-x="974" 
d="M129 0v118h290v1207h-290v118h716v-118h-290v-1207h290v-118h-716zM423 1576l-230 298h164l185 -298h-119z" />
    <glyph glyph-name="Idblgrave.1" horiz-adv-x="974" 
d="M129 0v118h290v1207h-290v118h716v-118h-290v-1207h290v-118h-716zM705 1577h-111l-181 297h147zM399 1577h-111l-219 297h157z" />
    <glyph glyph-name="Iacute.1" horiz-adv-x="974" 
d="M129 0v118h290v1207h-290v118h716v-118h-290v-1207h290v-118h-716zM551 1576h-119l185 298h164z" />
    <glyph glyph-name="Icircumflex.1" horiz-adv-x="974" 
d="M129 0v118h290v1207h-290v118h716v-118h-290v-1207h290v-118h-716zM425 1874h124l289 -297h-155l-190 202h-12l-190 -202h-155z" />
    <glyph glyph-name="Icaron.1" horiz-adv-x="974" 
d="M129 0v118h290v1207h-290v118h716v-118h-290v-1207h290v-118h-716zM549 1577h-124l-289 297h155l190 -202h12l190 202h155z" />
    <glyph glyph-name="Idieresis.1" horiz-adv-x="974" 
d="M129 0v118h290v1207h-290v118h716v-118h-290v-1207h290v-118h-716zM295 1646c-53 0 -97 44 -97 98c0 53 44 97 97 97c54 0 98 -44 98 -97c0 -54 -44 -98 -98 -98zM679 1646c-54 0 -98 44 -98 98c0 53 44 97 98 97c53 0 97 -44 97 -97c0 -54 -44 -98 -97 -98z" />
    <glyph glyph-name="Idieresisacute.1" horiz-adv-x="974" 
d="M129 0v118h290v1207h-290v118h716v-118h-290v-1207h290v-118h-716zM413 1839l231 217h174l-267 -217h-138zM305 1568c-56 0 -102 45 -102 102s46 102 102 102c57 0 102 -45 102 -102s-45 -102 -102 -102zM669 1568c-57 0 -102 45 -102 102s45 102 102 102
c56 0 102 -45 102 -102s-46 -102 -102 -102z" />
    <glyph glyph-name="Ibreve.1" horiz-adv-x="974" 
d="M129 0v118h290v1207h-290v118h716v-118h-290v-1207h290v-118h-716zM164 1860h118c0 -109 76 -176 205 -176s205 67 205 176h118c0 -168 -121 -274 -323 -274s-323 106 -323 274z" />
    <glyph glyph-name="Idotbelow.1" horiz-adv-x="974" 
d="M129 0v118h290v1207h-290v118h716v-118h-290v-1207h290v-118h-716zM487 -362c-54 0 -97 44 -97 98c0 53 43 97 97 97s97 -44 97 -97c0 -54 -43 -98 -97 -98z" />
    <glyph glyph-name="Iinvertedbreve.1" horiz-adv-x="974" 
d="M129 0v118h290v1207h-290v118h716v-118h-290v-1207h290v-118h-716zM810 1586h-118c0 109 -76 176 -205 176s-205 -67 -205 -176h-118c0 168 121 274 323 274s323 -106 323 -274z" />
    <glyph glyph-name="Imacron.1" horiz-adv-x="974" 
d="M129 0v118h290v1207h-290v118h716v-118h-290v-1207h290v-118h-716zM799 1796v-106h-624v106h624z" />
    <glyph glyph-name="Itildebelow.1" horiz-adv-x="974" 
d="M129 0v118h290v1207h-290v118h716v-118h-290v-1207h290v-118h-716zM614 -392c-155 0 -163 153 -259 153c-54 0 -89 -50 -89 -156h-110c0 162 75 260 201 260c154 0 167 -158 263 -158c58 0 88 54 88 160h110c0 -161 -75 -259 -204 -259z" />
    <glyph glyph-name="Ihookabove.1" horiz-adv-x="974" 
d="M129 0v118h290v1207h-290v118h716v-118h-290v-1207h290v-118h-716zM327 1788v96c30 13 80 23 128 23c128 0 204 -66 204 -166c0 -85 -67 -163 -161 -198l-58 78c59 20 106 64 106 112c0 46 -44 80 -105 80c-47 0 -88 -12 -114 -25z" />
    <glyph glyph-name="Itilde.1" horiz-adv-x="974" 
d="M129 0v118h290v1207h-290v118h716v-118h-290v-1207h290v-118h-716zM614 1594c-155 0 -163 153 -259 153c-54 0 -89 -50 -89 -156h-110c0 162 75 260 201 260c154 0 167 -158 263 -158c58 0 88 54 88 160h110c0 -161 -75 -259 -204 -259z" />
    <glyph glyph-name="Iogonek.1" horiz-adv-x="974" 
d="M845 118v-118c-99 -59 -180 -126 -180 -208c0 -67 46 -99 112 -99c24 0 50 5 74 13v-105c-32 -11 -70 -19 -108 -19c-105 0 -207 55 -207 178c0 84 53 164 156 240h-563v118h290v1207h-290v118h716v-118h-290v-1207h290z" />
    <glyph glyph-name="Iogonek.mini.1" horiz-adv-x="974" 
d="M845 118v-118c-99 -59 -180 -126 -180 -208c0 -67 46 -99 112 -99c24 0 50 5 74 13v-105c-32 -11 -70 -19 -108 -19c-105 0 -207 55 -207 178c0 84 53 164 156 240h-563v118h290v1207h-290v118h716v-118h-290v-1207h290z" />
    <glyph glyph-name="I.mini.1" horiz-adv-x="974" 
d="M129 0v118h290v1077h-290v118h716v-118h-290v-1077h290v-118h-716z" />
    <glyph glyph-name="Idieresisacute.mini.1" horiz-adv-x="974" 
d="M129 0v118h290v1077h-290v118h716v-118h-290v-1077h290v-118h-716zM305 1447c-56 0 -102 45 -102 102c0 56 46 102 102 102c57 0 102 -46 102 -102c0 -57 -45 -102 -102 -102zM669 1447c-57 0 -102 45 -102 102c0 56 45 102 102 102c56 0 102 -46 102 -102
c0 -57 -46 -102 -102 -102zM401 1709l203 207h166l-221 -207h-148z" />
    <glyph glyph-name="J" unicode="J" horiz-adv-x="1088" 
d="M92 330h136c6 -137 113 -233 264 -233c174 0 274 108 274 301v1045h137v-1050c0 -264 -157 -423 -410 -423c-233 0 -399 147 -401 360z" />
    <glyph glyph-name="Jacute" horiz-adv-x="1088" 
d="M92 330h136c6 -137 113 -233 264 -233c174 0 274 108 274 301v1045h137v-1050c0 -264 -157 -423 -410 -423c-233 0 -399 147 -401 360zM899 1576h-119l185 298h164z" />
    <glyph glyph-name="Jcircumflex" unicode="&#x134;" horiz-adv-x="1088" 
d="M92 330h136c6 -137 113 -233 264 -233c174 0 274 108 274 301v1045h137v-1050c0 -264 -157 -423 -410 -423c-233 0 -399 147 -401 360zM773 1874h124l289 -297h-155l-190 202h-12l-190 -202h-155z" />
    <glyph glyph-name="K" unicode="&#x212a;" horiz-adv-x="1311" 
d="M322 0h-137v1443h137v-746h12l683 746h171l-578 -623l637 -820h-177l-555 725l-193 -210v-515z" />
    <glyph glyph-name="K" unicode="K" horiz-adv-x="1311" 
d="M322 0h-137v1443h137v-746h12l683 746h171l-578 -623l637 -820h-177l-555 725l-193 -210v-515z" />
    <glyph glyph-name="Kacute" unicode="&#x1e30;" horiz-adv-x="1311" 
d="M322 0h-137v1443h137v-746h12l683 746h171l-578 -623l637 -820h-177l-555 725l-193 -210v-515zM701 1576h-119l185 298h164z" />
    <glyph glyph-name="Kcaron" unicode="&#x1e8;" horiz-adv-x="1311" 
d="M322 0h-137v1443h137v-746h12l683 746h171l-578 -623l637 -820h-177l-555 725l-193 -210v-515zM699 1577h-124l-289 297h155l190 -202h12l190 202h155z" />
    <glyph glyph-name="Kdotbelow" unicode="&#x1e32;" horiz-adv-x="1311" 
d="M322 0h-137v1443h137v-746h12l683 746h171l-578 -623l637 -820h-177l-555 725l-193 -210v-515zM637 -362c-54 0 -97 44 -97 98c0 53 43 97 97 97s97 -44 97 -97c0 -54 -43 -98 -97 -98z" />
    <glyph glyph-name="Klinebelow" unicode="&#x1e34;" horiz-adv-x="1311" 
d="M322 0h-137v1443h137v-746h12l683 746h171l-578 -623l637 -820h-177l-555 725l-193 -210v-515zM949 -211v-106h-624v106h624z" />
    <glyph glyph-name="Kcommaaccent" unicode="&#x136;" horiz-adv-x="1311" 
d="M322 0h-137v1443h137v-746h12l683 746h171l-578 -623l637 -820h-177l-555 725l-193 -210v-515zM578 -489h-100l88 364h142z" />
    <glyph glyph-name="Kcommaaccent.mini" horiz-adv-x="1311" 
d="M322 0h-137v1443h137v-746h12l683 746h171l-578 -623l637 -820h-177l-555 725l-193 -210v-515zM596 -432h-112l83 289h137z" />
    <glyph glyph-name="L" unicode="L" horiz-adv-x="1139" 
d="M1044 124v-124h-859v1443h137v-1319h722z" />
    <glyph glyph-name="Lacute" unicode="&#x139;" horiz-adv-x="1139" 
d="M1044 124v-124h-859v1443h137v-1319h722zM318 1576h-119l185 298h164z" />
    <glyph glyph-name="Lcircumflexbelow" unicode="&#x1e3c;" horiz-adv-x="1139" 
d="M1044 124v-124h-859v1443h137v-1319h722zM692 -125l247 -332h-146l-172 243h-12l-172 -243h-146l247 332h154z" />
    <glyph glyph-name="Ldotbelow" unicode="&#x1e36;" horiz-adv-x="1139" 
d="M1044 124v-124h-859v1443h137v-1319h722zM615 -362c-54 0 -97 44 -97 98c0 53 43 97 97 97s97 -44 97 -97c0 -54 -43 -98 -97 -98z" />
    <glyph glyph-name="Ldotbelowmacron" unicode="&#x1e38;" horiz-adv-x="1139" 
d="M1044 124v-124h-859v1443h137v-1319h722zM615 -362c-54 0 -97 44 -97 98c0 53 43 97 97 97s97 -44 97 -97c0 -54 -43 -98 -97 -98zM566 1796v-106h-624v106h624z" />
    <glyph glyph-name="Llinebelow" unicode="&#x1e3a;" horiz-adv-x="1139" 
d="M1044 124v-124h-859v1443h137v-1319h722zM927 -211v-106h-624v106h624z" />
    <glyph glyph-name="Lcommaaccent" unicode="&#x13b;" horiz-adv-x="1139" 
d="M1044 124v-124h-859v1443h137v-1319h722zM556 -489h-100l88 364h142z" />
    <glyph glyph-name="Lcaron" unicode="&#x13d;" horiz-adv-x="1139" 
d="M1044 124v-124h-859v1443h137v-1319h722zM591 1560h133l-41 -492h-92v492z" />
    <glyph glyph-name="Lslash" unicode="&#x141;" horiz-adv-x="1139" 
d="M322 124h722v-124h-859v724l-168 -83v110l168 83v609h137v-541l312 154v-111l-312 -154v-667z" />
    <glyph glyph-name="Lcommaaccent.mini" horiz-adv-x="1139" 
d="M1044 124v-124h-859v1443h137v-1319h722zM574 -432h-112l83 289h137z" />
    <glyph glyph-name="M" unicode="M" horiz-adv-x="1761" 
d="M1576 0h-128v1177h-10l-498 -1177h-119l-498 1177h-9v-1177h-129v1443h157l533 -1263h12l531 1263h158v-1443z" />
    <glyph glyph-name="Macute" unicode="&#x1e3e;" horiz-adv-x="1761" 
d="M1576 0h-128v1177h-10l-498 -1177h-119l-498 1177h-9v-1177h-129v1443h157l533 -1263h12l531 1263h158v-1443zM945 1576h-119l185 298h164z" />
    <glyph glyph-name="Mdotaccent" unicode="&#x1e40;" horiz-adv-x="1761" 
d="M1576 0h-128v1177h-10l-498 -1177h-119l-498 1177h-9v-1177h-129v1443h157l533 -1263h12l531 1263h158v-1443zM881 1646c-54 0 -97 44 -97 98c0 53 43 97 97 97s97 -44 97 -97c0 -54 -43 -98 -97 -98z" />
    <glyph glyph-name="Mdotbelow" unicode="&#x1e42;" horiz-adv-x="1761" 
d="M1576 0h-128v1177h-10l-498 -1177h-119l-498 1177h-9v-1177h-129v1443h157l533 -1263h12l531 1263h158v-1443zM881 -362c-54 0 -97 44 -97 98c0 53 43 97 97 97s97 -44 97 -97c0 -54 -43 -98 -97 -98z" />
    <glyph glyph-name="N" unicode="N" horiz-adv-x="1494" 
d="M320 0h-135v1443h135l841 -1198h13v1198h135v-1443h-132l-844 1199h-13v-1199z" />
    <glyph glyph-name="Ngrave" unicode="&#x1f8;" horiz-adv-x="1494" 
d="M320 0h-135v1443h135l841 -1198h13v1198h135v-1443h-132l-844 1199h-13v-1199zM683 1576l-230 298h164l185 -298h-119z" />
    <glyph glyph-name="Nacute" unicode="&#x143;" horiz-adv-x="1494" 
d="M320 0h-135v1443h135l841 -1198h13v1198h135v-1443h-132l-844 1199h-13v-1199zM811 1576h-119l185 298h164z" />
    <glyph glyph-name="Ntilde" unicode="&#xd1;" horiz-adv-x="1494" 
d="M320 0h-135v1443h135l841 -1198h13v1198h135v-1443h-132l-844 1199h-13v-1199zM874 1594c-155 0 -163 153 -259 153c-54 0 -89 -50 -89 -156h-110c0 162 75 260 201 260c154 0 167 -158 263 -158c58 0 88 54 88 160h110c0 -161 -75 -259 -204 -259z" />
    <glyph glyph-name="Ndotbelow" unicode="&#x1e46;" horiz-adv-x="1494" 
d="M320 0h-135v1443h135l841 -1198h13v1198h135v-1443h-132l-844 1199h-13v-1199zM747 -362c-54 0 -97 44 -97 98c0 53 43 97 97 97s97 -44 97 -97c0 -54 -43 -98 -97 -98z" />
    <glyph glyph-name="Ndotaccent" unicode="&#x1e44;" horiz-adv-x="1494" 
d="M320 0h-135v1443h135l841 -1198h13v1198h135v-1443h-132l-844 1199h-13v-1199zM747 1646c-54 0 -97 44 -97 98c0 53 43 97 97 97s97 -44 97 -97c0 -54 -43 -98 -97 -98z" />
    <glyph glyph-name="Ncaron" unicode="&#x147;" horiz-adv-x="1494" 
d="M320 0h-135v1443h135l841 -1198h13v1198h135v-1443h-132l-844 1199h-13v-1199zM809 1577h-124l-289 297h155l190 -202h12l190 202h155z" />
    <glyph glyph-name="Ncircumflexbelow" unicode="&#x1e4a;" horiz-adv-x="1494" 
d="M320 0h-135v1443h135l841 -1198h13v1198h135v-1443h-132l-844 1199h-13v-1199zM824 -125l247 -332h-146l-172 243h-12l-172 -243h-146l247 332h154z" />
    <glyph glyph-name="Nlinebelow" unicode="&#x1e48;" horiz-adv-x="1494" 
d="M320 0h-135v1443h135l841 -1198h13v1198h135v-1443h-132l-844 1199h-13v-1199zM1059 -211v-106h-624v106h624z" />
    <glyph glyph-name="Ncommaaccent" unicode="&#x145;" horiz-adv-x="1494" 
d="M320 0h-135v1443h135l841 -1198h13v1198h135v-1443h-132l-844 1199h-13v-1199zM688 -489h-100l88 364h142z" />
    <glyph glyph-name="Ncommaaccent.mini" horiz-adv-x="1494" 
d="M320 0h-135v1443h135l841 -1198h13v1198h135v-1443h-132l-844 1199h-13v-1199zM706 -432h-112l83 289h137z" />
    <glyph glyph-name="O" unicode="O" horiz-adv-x="1561" 
d="M781 1473c404 0 653 -290 653 -751c0 -460 -247 -752 -653 -752c-407 0 -654 291 -654 752c0 462 251 751 654 751zM781 1346c-315 0 -514 -242 -514 -624c0 -380 195 -625 514 -625c316 0 513 245 513 625c0 382 -198 624 -513 624z" />
    <glyph glyph-name="Odieresis" unicode="&#xd6;" horiz-adv-x="1561" 
d="M781 1473c404 0 653 -290 653 -751c0 -460 -247 -752 -653 -752c-407 0 -654 291 -654 752c0 462 251 751 654 751zM781 1346c-315 0 -514 -242 -514 -624c0 -380 195 -625 514 -625c316 0 513 245 513 625c0 382 -198 624 -513 624zM589 1646c-53 0 -97 44 -97 98
c0 53 44 97 97 97c54 0 98 -44 98 -97c0 -54 -44 -98 -98 -98zM973 1646c-54 0 -98 44 -98 98c0 53 44 97 98 97c53 0 97 -44 97 -97c0 -54 -44 -98 -97 -98z" />
    <glyph glyph-name="Oslash" unicode="&#xd8;" horiz-adv-x="1561" 
d="M1199 1128l-772 -895c88 -91 208 -142 354 -142c320 0 519 248 519 631c0 163 -36 301 -101 406zM362 316l772 895c-88 91 -208 142 -353 142c-320 0 -520 -246 -520 -631c0 -163 36 -301 101 -406zM1421 1385l-132 -153c94 -127 145 -301 145 -510
c0 -460 -247 -752 -653 -752c-181 0 -330 58 -441 162l-125 -145l-75 71l132 153c-94 128 -145 302 -145 511c0 462 251 751 654 751c180 0 329 -58 440 -162l125 145z" />
    <glyph glyph-name="Otilde" unicode="&#xd5;" horiz-adv-x="1561" 
d="M781 1473c404 0 653 -290 653 -751c0 -460 -247 -752 -653 -752c-407 0 -654 291 -654 752c0 462 251 751 654 751zM781 1346c-315 0 -514 -242 -514 -624c0 -380 195 -625 514 -625c316 0 513 245 513 625c0 382 -198 624 -513 624zM908 1594c-155 0 -163 153 -259 153
c-54 0 -89 -50 -89 -156h-110c0 162 75 260 201 260c154 0 167 -158 263 -158c58 0 88 54 88 160h110c0 -161 -75 -259 -204 -259z" />
    <glyph glyph-name="Oacute" unicode="&#xd3;" horiz-adv-x="1561" 
d="M781 1473c404 0 653 -290 653 -751c0 -460 -247 -752 -653 -752c-407 0 -654 291 -654 752c0 462 251 751 654 751zM781 1346c-315 0 -514 -242 -514 -624c0 -380 195 -625 514 -625c316 0 513 245 513 625c0 382 -198 624 -513 624zM845 1576h-119l185 298h164z" />
    <glyph glyph-name="Ocircumflex" unicode="&#xd4;" horiz-adv-x="1561" 
d="M781 1473c404 0 653 -290 653 -751c0 -460 -247 -752 -653 -752c-407 0 -654 291 -654 752c0 462 251 751 654 751zM781 1346c-315 0 -514 -242 -514 -624c0 -380 195 -625 514 -625c316 0 513 245 513 625c0 382 -198 624 -513 624zM719 1874h124l289 -297h-155
l-190 202h-12l-190 -202h-155z" />
    <glyph glyph-name="Ograve" unicode="&#xd2;" horiz-adv-x="1561" 
d="M781 1473c404 0 653 -290 653 -751c0 -460 -247 -752 -653 -752c-407 0 -654 291 -654 752c0 462 251 751 654 751zM781 1346c-315 0 -514 -242 -514 -624c0 -380 195 -625 514 -625c316 0 513 245 513 625c0 382 -198 624 -513 624zM717 1576l-230 298h164l185 -298
h-119z" />
    <glyph glyph-name="Ocircumflexhookabove" unicode="&#x1ed4;" horiz-adv-x="1561" 
d="M781 1473c404 0 653 -290 653 -751c0 -460 -247 -752 -653 -752c-407 0 -654 291 -654 752c0 462 251 751 654 751zM781 1346c-315 0 -514 -242 -514 -624c0 -380 195 -625 514 -625c316 0 513 245 513 625c0 382 -198 624 -513 624zM708 1804h146l285 -227h-172
l-180 149h-12l-180 -149h-172zM896 1955v82c21 10 70 19 123 19c99 0 168 -59 168 -146c0 -69 -46 -135 -116 -160l-75 58c49 19 80 56 80 97s-35 69 -86 69c-35 0 -75 -9 -94 -19z" />
    <glyph glyph-name="Ocircumflexgrave" unicode="&#x1ed2;" horiz-adv-x="1561" 
d="M781 1473c404 0 653 -290 653 -751c0 -460 -247 -752 -653 -752c-407 0 -654 291 -654 752c0 462 251 751 654 751zM781 1346c-315 0 -514 -242 -514 -624c0 -380 195 -625 514 -625c316 0 513 245 513 625c0 382 -198 624 -513 624zM708 1804h146l285 -227h-172
l-180 149h-12l-180 -149h-172zM1185 1825h-148l-243 231h167z" />
    <glyph glyph-name="Odotbelow" unicode="&#x1ecc;" horiz-adv-x="1561" 
d="M781 1473c404 0 653 -290 653 -751c0 -460 -247 -752 -653 -752c-407 0 -654 291 -654 752c0 462 251 751 654 751zM781 1346c-315 0 -514 -242 -514 -624c0 -380 195 -625 514 -625c316 0 513 245 513 625c0 382 -198 624 -513 624zM781 -362c-54 0 -97 44 -97 98
c0 53 43 97 97 97s97 -44 97 -97c0 -54 -43 -98 -97 -98z" />
    <glyph glyph-name="Odblgrave" unicode="&#x20c;" horiz-adv-x="1561" 
d="M781 1473c404 0 653 -290 653 -751c0 -460 -247 -752 -653 -752c-407 0 -654 291 -654 752c0 462 251 751 654 751zM781 1346c-315 0 -514 -242 -514 -624c0 -380 195 -625 514 -625c316 0 513 245 513 625c0 382 -198 624 -513 624zM999 1577h-111l-181 297h147z
M693 1577h-111l-219 297h157z" />
    <glyph glyph-name="Otildeacute" unicode="&#x1e4c;" horiz-adv-x="1561" 
d="M781 1473c404 0 653 -290 653 -751c0 -460 -247 -752 -653 -752c-407 0 -654 291 -654 752c0 462 251 751 654 751zM781 1346c-315 0 -514 -242 -514 -624c0 -380 195 -625 514 -625c316 0 513 245 513 625c0 382 -198 624 -513 624zM917 1573c-157 0 -163 137 -269 137
c-62 0 -97 -44 -100 -122h-106c0 131 82 222 203 222c157 0 163 -136 269 -136c55 0 97 40 101 122h105c0 -126 -82 -223 -203 -223zM762 1845l212 211h169l-234 -211h-147z" />
    <glyph glyph-name="Omacronacute" unicode="&#x1e52;" horiz-adv-x="1561" 
d="M781 1473c404 0 653 -290 653 -751c0 -460 -247 -752 -653 -752c-407 0 -654 291 -654 752c0 462 251 751 654 751zM781 1346c-315 0 -514 -242 -514 -624c0 -380 195 -625 514 -625c316 0 513 245 513 625c0 382 -198 624 -513 624zM1103 1618h-644v101h644v-101z
M696 1838l224 217h168l-243 -217h-149z" />
    <glyph glyph-name="Ocircumflextilde" unicode="&#x1ed6;" horiz-adv-x="1561" 
d="M781 1473c404 0 653 -290 653 -751c0 -460 -247 -752 -653 -752c-407 0 -654 291 -654 752c0 462 251 751 654 751zM781 1346c-315 0 -514 -242 -514 -624c0 -380 195 -625 514 -625c316 0 513 245 513 625c0 382 -198 624 -513 624zM915 1845c-155 0 -160 125 -265 125
c-59 0 -93 -39 -96 -111h-106c0 125 80 211 199 211c155 0 160 -124 265 -124c52 0 92 34 97 110h105c0 -119 -80 -211 -199 -211zM708 1801h146l285 -224h-172l-180 145h-12l-180 -145h-172z" />
    <glyph glyph-name="Odotaccentmacron" unicode="&#x230;" horiz-adv-x="1561" 
d="M781 1473c404 0 653 -290 653 -751c0 -460 -247 -752 -653 -752c-407 0 -654 291 -654 752c0 462 251 751 654 751zM781 1346c-315 0 -514 -242 -514 -624c0 -380 195 -625 514 -625c316 0 513 245 513 625c0 382 -198 624 -513 624zM781 1578c-58 0 -104 47 -104 104
s46 104 104 104s104 -47 104 -104s-46 -104 -104 -104zM1103 2016v-101h-644v101h644z" />
    <glyph glyph-name="Omacrongrave" unicode="&#x1e50;" horiz-adv-x="1561" 
d="M781 1473c404 0 653 -290 653 -751c0 -460 -247 -752 -653 -752c-407 0 -654 291 -654 752c0 462 251 751 654 751zM781 1346c-315 0 -514 -242 -514 -624c0 -380 195 -625 514 -625c316 0 513 245 513 625c0 382 -198 624 -513 624zM459 1619v101h644v-101h-644z
M866 1839h-149l-243 217h168z" />
    <glyph glyph-name="Ocaron" unicode="&#x1d1;" horiz-adv-x="1561" 
d="M781 1473c404 0 653 -290 653 -751c0 -460 -247 -752 -653 -752c-407 0 -654 291 -654 752c0 462 251 751 654 751zM781 1346c-315 0 -514 -242 -514 -624c0 -380 195 -625 514 -625c316 0 513 245 513 625c0 382 -198 624 -513 624zM843 1577h-124l-289 297h155
l190 -202h12l190 202h155z" />
    <glyph glyph-name="Oslashacute" unicode="&#x1fe;" horiz-adv-x="1561" 
d="M1069 1874l-230 -298h-119l185 298h164zM1199 1128l-772 -895c88 -91 208 -142 354 -142c320 0 519 248 519 631c0 163 -36 301 -101 406zM362 316l772 895c-88 91 -208 142 -353 142c-320 0 -520 -246 -520 -631c0 -163 36 -301 101 -406zM1421 1385l-132 -153
c94 -127 145 -301 145 -510c0 -460 -247 -752 -653 -752c-181 0 -330 58 -441 162l-125 -145l-75 71l132 153c-94 128 -145 302 -145 511c0 462 251 751 654 751c180 0 329 -58 440 -162l125 145z" />
    <glyph glyph-name="Ohungarumlaut" unicode="&#x150;" horiz-adv-x="1561" 
d="M781 1473c404 0 653 -290 653 -751c0 -460 -247 -752 -653 -752c-407 0 -654 291 -654 752c0 462 251 751 654 751zM781 1346c-315 0 -514 -242 -514 -624c0 -380 195 -625 514 -625c316 0 513 245 513 625c0 382 -198 624 -513 624zM563 1577l145 297h147l-181 -297
h-111zM869 1577l173 297h157l-219 -297h-111z" />
    <glyph glyph-name="Obreve" unicode="&#x14e;" horiz-adv-x="1561" 
d="M781 1473c404 0 653 -290 653 -751c0 -460 -247 -752 -653 -752c-407 0 -654 291 -654 752c0 462 251 751 654 751zM781 1346c-315 0 -514 -242 -514 -624c0 -380 195 -625 514 -625c316 0 513 245 513 625c0 382 -198 624 -513 624zM458 1860h118
c0 -109 76 -176 205 -176s205 67 205 176h118c0 -168 -121 -274 -323 -274s-323 106 -323 274z" />
    <glyph glyph-name="Oinvertedbreve" unicode="&#x20e;" horiz-adv-x="1561" 
d="M781 1473c404 0 653 -290 653 -751c0 -460 -247 -752 -653 -752c-407 0 -654 291 -654 752c0 462 251 751 654 751zM781 1346c-315 0 -514 -242 -514 -624c0 -380 195 -625 514 -625c316 0 513 245 513 625c0 382 -198 624 -513 624zM1104 1586h-118
c0 109 -76 176 -205 176s-205 -67 -205 -176h-118c0 168 121 274 323 274s323 -106 323 -274z" />
    <glyph glyph-name="Ohookabove" unicode="&#x1ece;" horiz-adv-x="1561" 
d="M781 1473c404 0 653 -290 653 -751c0 -460 -247 -752 -653 -752c-407 0 -654 291 -654 752c0 462 251 751 654 751zM781 1346c-315 0 -514 -242 -514 -624c0 -380 195 -625 514 -625c316 0 513 245 513 625c0 382 -198 624 -513 624zM621 1788v96c30 13 80 23 128 23
c128 0 204 -66 204 -166c0 -85 -67 -163 -161 -198l-58 78c59 20 106 64 106 112c0 46 -44 80 -105 80c-47 0 -88 -12 -114 -25z" />
    <glyph glyph-name="Odieresismacron" unicode="&#x22a;" horiz-adv-x="1561" 
d="M781 1473c404 0 653 -290 653 -751c0 -460 -247 -752 -653 -752c-407 0 -654 291 -654 752c0 462 251 751 654 751zM781 1346c-315 0 -514 -242 -514 -624c0 -380 195 -625 514 -625c316 0 513 245 513 625c0 382 -198 624 -513 624zM599 1778c55 0 99 -44 99 -99
s-44 -99 -99 -99s-99 44 -99 99s44 99 99 99zM462 2016h638v-101h-638v101zM963 1778c55 0 99 -44 99 -99s-44 -99 -99 -99s-99 44 -99 99s44 99 99 99z" />
    <glyph glyph-name="Otildemacron" unicode="&#x22c;" horiz-adv-x="1561" 
d="M781 1473c404 0 653 -290 653 -751c0 -460 -247 -752 -653 -752c-407 0 -654 291 -654 752c0 462 251 751 654 751zM781 1346c-315 0 -514 -242 -514 -624c0 -380 195 -625 514 -625c316 0 513 245 513 625c0 382 -198 624 -513 624zM918 1573c-159 0 -163 137 -270 137
c-61 0 -97 -44 -100 -122h-106c0 132 80 222 202 222c159 0 163 -136 270 -136c55 0 97 41 101 122h105c0 -127 -80 -223 -202 -223zM1103 2016v-101h-644v101h644z" />
    <glyph glyph-name="Odotaccent" unicode="&#x22e;" horiz-adv-x="1561" 
d="M781 1473c404 0 653 -290 653 -751c0 -460 -247 -752 -653 -752c-407 0 -654 291 -654 752c0 462 251 751 654 751zM781 1346c-315 0 -514 -242 -514 -624c0 -380 195 -625 514 -625c316 0 513 245 513 625c0 382 -198 624 -513 624zM781 1646c-54 0 -97 44 -97 98
c0 53 43 97 97 97s97 -44 97 -97c0 -54 -43 -98 -97 -98z" />
    <glyph glyph-name="Ocircumflexdotbelow" unicode="&#x1ed8;" horiz-adv-x="1561" 
d="M781 1473c404 0 653 -290 653 -751c0 -460 -247 -752 -653 -752c-407 0 -654 291 -654 752c0 462 251 751 654 751zM781 1346c-315 0 -514 -242 -514 -624c0 -380 195 -625 514 -625c316 0 513 245 513 625c0 382 -198 624 -513 624zM719 1874h124l289 -297h-155
l-190 202h-12l-190 -202h-155zM781 -362c-54 0 -97 44 -97 98c0 53 43 97 97 97s97 -44 97 -97c0 -54 -43 -98 -97 -98z" />
    <glyph glyph-name="Ocircumflexacute" unicode="&#x1ed0;" horiz-adv-x="1561" 
d="M781 1473c404 0 653 -290 653 -751c0 -460 -247 -752 -653 -752c-407 0 -654 291 -654 752c0 462 251 751 654 751zM781 1346c-315 0 -514 -242 -514 -624c0 -380 195 -625 514 -625c316 0 513 245 513 625c0 382 -198 624 -513 624zM708 1804h146l285 -227h-172
l-180 149h-12l-180 -149h-172zM971 1825l224 231h167l-243 -231h-148z" />
    <glyph glyph-name="Otildedieresis" unicode="&#x1e4e;" horiz-adv-x="1561" 
d="M781 1473c404 0 653 -290 653 -751c0 -460 -247 -752 -653 -752c-407 0 -654 291 -654 752c0 462 251 751 654 751zM781 1346c-315 0 -514 -242 -514 -624c0 -380 195 -625 514 -625c316 0 513 245 513 625c0 382 -198 624 -513 624zM917 1567c-157 0 -163 136 -269 136
c-62 0 -97 -43 -100 -121h-106c0 131 82 222 203 222c157 0 163 -136 269 -136c55 0 97 40 101 121h105c0 -125 -82 -222 -203 -222zM599 2058c58 0 99 -38 99 -90c0 -51 -41 -89 -99 -89s-99 38 -99 89c0 52 41 90 99 90zM963 2058c58 0 99 -38 99 -90
c0 -51 -41 -89 -99 -89s-99 38 -99 89c0 52 41 90 99 90z" />
    <glyph glyph-name="Omacron" unicode="&#x14c;" horiz-adv-x="1561" 
d="M781 1473c404 0 653 -290 653 -751c0 -460 -247 -752 -653 -752c-407 0 -654 291 -654 752c0 462 251 751 654 751zM781 1346c-315 0 -514 -242 -514 -624c0 -380 195 -625 514 -625c316 0 513 245 513 625c0 382 -198 624 -513 624zM1093 1796v-106h-624v106h624z" />
    <glyph glyph-name="Oogonek" unicode="&#x1ea;" horiz-adv-x="1561" 
d="M267 722c0 -380 195 -625 514 -625c316 0 513 245 513 625c0 382 -198 624 -513 624s-514 -242 -514 -624zM1146 -294v-105c-32 -11 -69 -19 -107 -19c-105 0 -208 54 -208 175c0 76 47 152 135 236c-57 -15 -119 -23 -185 -23c-407 0 -654 291 -654 752
c0 462 251 751 654 751c404 0 653 -290 653 -751c0 -265 -82 -475 -229 -604c-121 -119 -245 -222 -245 -329c0 -44 23 -97 107 -97c25 0 52 5 79 14z" />
    <glyph glyph-name="Oogonekmacron" unicode="&#x1ec;" horiz-adv-x="1561" 
d="M1093 1796v-106h-624v106h624zM267 722c0 -380 195 -625 514 -625c316 0 513 245 513 625c0 382 -198 624 -513 624s-514 -242 -514 -624zM1146 -294v-105c-32 -11 -69 -19 -107 -19c-105 0 -208 54 -208 175c0 76 47 152 135 236c-57 -15 -119 -23 -185 -23
c-407 0 -654 291 -654 752c0 462 251 751 654 751c404 0 653 -290 653 -751c0 -265 -82 -475 -229 -604c-121 -119 -245 -222 -245 -329c0 -44 23 -97 107 -97c25 0 52 5 79 14z" />
    <glyph glyph-name="Ohorn" unicode="&#x1a0;" horiz-adv-x="1579" 
d="M781 -30c-407 0 -654 291 -654 752c0 462 252 751 654 751c144 0 241 -34 404 -34c108 0 140 27 140 107v129h122v-168c0 -114 -78 -170 -202 -170h-72v-9c158 -92 260 -331 260 -606c0 -460 -246 -752 -652 -752zM781 97c317 0 513 246 512 625c0 382 -196 624 -512 624
c-315 0 -514 -242 -514 -624c0 -380 195 -625 514 -625z" />
    <glyph glyph-name="Ohorndotbelow" unicode="&#x1ee2;" horiz-adv-x="1579" 
d="M781 -30c-407 0 -654 291 -654 752c0 462 252 751 654 751c144 0 241 -34 404 -34c108 0 140 27 140 107v129h122v-168c0 -114 -78 -170 -202 -170h-72v-9c158 -92 260 -331 260 -606c0 -460 -246 -752 -652 -752zM781 97c317 0 513 246 512 625c0 382 -196 624 -512 624
c-315 0 -514 -242 -514 -624c0 -380 195 -625 514 -625zM781 -362c-54 0 -97 44 -97 98c0 53 43 97 97 97s97 -44 97 -97c0 -54 -43 -98 -97 -98z" />
    <glyph glyph-name="Ohornhookabove" unicode="&#x1ede;" horiz-adv-x="1579" 
d="M781 -30c-407 0 -654 291 -654 752c0 462 252 751 654 751c144 0 241 -34 404 -34c108 0 140 27 140 107v129h122v-168c0 -114 -78 -170 -202 -170h-72v-9c158 -92 260 -331 260 -606c0 -460 -246 -752 -652 -752zM781 97c317 0 513 246 512 625c0 382 -196 624 -512 624
c-315 0 -514 -242 -514 -624c0 -380 195 -625 514 -625zM621 1788v96c30 13 80 23 128 23c128 0 204 -66 204 -166c0 -85 -67 -163 -161 -198l-58 78c59 20 106 64 106 112c0 46 -44 80 -105 80c-47 0 -88 -12 -114 -25z" />
    <glyph glyph-name="Ohorntilde" unicode="&#x1ee0;" horiz-adv-x="1579" 
d="M781 -30c-407 0 -654 291 -654 752c0 462 252 751 654 751c144 0 241 -34 404 -34c108 0 140 27 140 107v129h122v-168c0 -114 -78 -170 -202 -170h-72v-9c158 -92 260 -331 260 -606c0 -460 -246 -752 -652 -752zM781 97c317 0 513 246 512 625c0 382 -196 624 -512 624
c-315 0 -514 -242 -514 -624c0 -380 195 -625 514 -625zM908 1594c-155 0 -163 153 -259 153c-54 0 -89 -50 -89 -156h-110c0 162 75 260 201 260c154 0 167 -158 263 -158c58 0 88 54 88 160h110c0 -161 -75 -259 -204 -259z" />
    <glyph glyph-name="Ohorngrave" unicode="&#x1edc;" horiz-adv-x="1579" 
d="M781 -30c-407 0 -654 291 -654 752c0 462 252 751 654 751c144 0 241 -34 404 -34c108 0 140 27 140 107v129h122v-168c0 -114 -78 -170 -202 -170h-72v-9c158 -92 260 -331 260 -606c0 -460 -246 -752 -652 -752zM781 97c317 0 513 246 512 625c0 382 -196 624 -512 624
c-315 0 -514 -242 -514 -624c0 -380 195 -625 514 -625zM717 1576l-230 298h164l185 -298h-119z" />
    <glyph glyph-name="Ohornacute" unicode="&#x1eda;" horiz-adv-x="1579" 
d="M781 -30c-407 0 -654 291 -654 752c0 462 252 751 654 751c144 0 241 -34 404 -34c108 0 140 27 140 107v129h122v-168c0 -114 -78 -170 -202 -170h-72v-9c158 -92 260 -331 260 -606c0 -460 -246 -752 -652 -752zM781 97c317 0 513 246 512 625c0 382 -196 624 -512 624
c-315 0 -514 -242 -514 -624c0 -380 195 -625 514 -625zM845 1576h-119l185 298h164z" />
    <glyph glyph-name="Oogonek.mini" horiz-adv-x="1561" 
d="M267 722c0 -380 195 -625 514 -625c316 0 513 245 513 625c0 382 -198 624 -513 624s-514 -242 -514 -624zM1146 -294v-105c-32 -11 -69 -19 -107 -19c-105 0 -208 54 -208 175c0 76 47 152 135 236c-57 -15 -119 -23 -185 -23c-407 0 -654 291 -654 752
c0 462 251 751 654 751c404 0 653 -290 653 -751c0 -265 -82 -475 -229 -604c-121 -119 -245 -222 -245 -329c0 -44 23 -97 107 -97c25 0 52 5 79 14z" />
    <glyph glyph-name="Ocircumflexacute.mini" horiz-adv-x="1561" 
d="M781 1364c381 0 652 -261 652 -696c0 -436 -270 -698 -652 -698c-383 0 -654 261 -654 698c0 436 275 696 654 696zM781 1238c-292 0 -514 -214 -514 -570s219 -571 514 -571c293 0 512 216 512 571c0 356 -219 570 -512 570zM854 1696l285 -227h-172l-180 149h-12
l-180 -149h-172l285 227h146zM971 1717l203 221h167l-222 -221h-148z" />
    <glyph glyph-name="O.mini" horiz-adv-x="1561" 
d="M781 1364c381 0 652 -261 652 -696c0 -436 -270 -698 -652 -698c-383 0 -654 261 -654 698c0 436 275 696 654 696zM781 1238c-292 0 -514 -214 -514 -570s219 -571 514 -571c293 0 512 216 512 571c0 356 -219 570 -512 570z" />
    <glyph glyph-name="Ocircumflexgrave.mini" horiz-adv-x="1561" 
d="M781 1364c381 0 652 -261 652 -696c0 -436 -270 -698 -652 -698c-383 0 -654 261 -654 698c0 436 275 696 654 696zM781 1238c-292 0 -514 -214 -514 -570s219 -571 514 -571c293 0 512 216 512 571c0 356 -219 570 -512 570zM854 1696l285 -227h-172l-180 149h-12
l-180 -149h-172l285 227h146zM1178 1717h-148l-222 221h167z" />
    <glyph glyph-name="Otildemacron.mini" horiz-adv-x="1561" 
d="M781 1364c381 0 652 -261 652 -696c0 -436 -270 -698 -652 -698c-383 0 -654 261 -654 698c0 436 275 696 654 696zM781 1238c-292 0 -514 -214 -514 -570s219 -571 514 -571c293 0 512 216 512 571c0 356 -219 570 -512 570zM1103 1807h-644v101h644v-101zM917 1465
c-157 0 -163 137 -269 137c-61 0 -97 -43 -100 -122h-106c0 131 82 222 203 222c157 0 163 -136 269 -136c55 0 97 40 101 122h105c0 -126 -82 -223 -203 -223z" />
    <glyph glyph-name="Omacronacute.mini" horiz-adv-x="1561" 
d="M781 1364c381 0 652 -261 652 -696c0 -436 -270 -698 -652 -698c-383 0 -654 261 -654 698c0 436 275 696 654 696zM781 1238c-292 0 -514 -214 -514 -570s219 -571 514 -571c293 0 512 216 512 571c0 356 -219 570 -512 570zM1103 1511h-644v101h644v-101zM697 1731
l203 207h165l-220 -207h-148z" />
    <glyph glyph-name="Omacrongrave.mini" horiz-adv-x="1561" 
d="M781 1364c381 0 652 -261 652 -696c0 -436 -270 -698 -652 -698c-383 0 -654 261 -654 698c0 436 275 696 654 696zM781 1238c-292 0 -514 -214 -514 -570s219 -571 514 -571c293 0 512 216 512 571c0 356 -219 570 -512 570zM1103 1511h-644v101h644v-101zM866 1731
h-148l-221 207h166z" />
    <glyph glyph-name="Otildedieresis.mini" horiz-adv-x="1561" 
d="M781 1364c381 0 652 -261 652 -696c0 -436 -270 -698 -652 -698c-383 0 -654 261 -654 698c0 436 275 696 654 696zM781 1238c-292 0 -514 -214 -514 -570s219 -571 514 -571c293 0 512 216 512 571c0 356 -219 570 -512 570zM921 1465c-157 0 -167 123 -273 123
c-61 0 -97 -36 -100 -108h-106c0 131 75 209 196 209c157 0 170 -123 276 -123c63 0 97 33 101 108h105c0 -126 -78 -209 -199 -209zM599 1760c-58 0 -99 38 -99 90s41 90 99 90s99 -38 99 -90s-41 -90 -99 -90zM963 1760c-58 0 -99 38 -99 90s41 90 99 90s99 -38 99 -90
s-41 -90 -99 -90z" />
    <glyph glyph-name="Otildeacute.mini" horiz-adv-x="1561" 
d="M781 1364c381 0 652 -261 652 -696c0 -436 -270 -698 -652 -698c-383 0 -654 261 -654 698c0 436 275 696 654 696zM781 1238c-292 0 -514 -214 -514 -570s219 -571 514 -571c293 0 512 216 512 571c0 356 -219 570 -512 570zM762 1737l192 201h166l-211 -201h-147z
M917 1465c-157 0 -163 137 -269 137c-62 0 -97 -44 -100 -122h-106c0 131 82 222 203 222c157 0 163 -136 269 -136c55 0 97 40 101 122h105c0 -126 -82 -223 -203 -223z" />
    <glyph glyph-name="Odieresismacron.mini" horiz-adv-x="1561" 
d="M781 1364c381 0 652 -261 652 -696c0 -436 -270 -698 -652 -698c-383 0 -654 261 -654 698c0 436 275 696 654 696zM781 1238c-292 0 -514 -214 -514 -570s219 -571 514 -571c293 0 512 216 512 571c0 356 -219 570 -512 570zM459 1807v101h644v-101h-644zM599 1469
c-55 0 -99 43 -99 99c0 55 44 99 99 99s99 -44 99 -99c0 -56 -44 -99 -99 -99zM963 1469c-55 0 -99 43 -99 99c0 55 44 99 99 99s99 -44 99 -99c0 -56 -44 -99 -99 -99z" />
    <glyph glyph-name="Odotaccentmacron.mini" horiz-adv-x="1561" 
d="M781 1364c381 0 652 -261 652 -696c0 -436 -270 -698 -652 -698c-383 0 -654 261 -654 698c0 436 275 696 654 696zM781 1238c-292 0 -514 -214 -514 -570s219 -571 514 -571c293 0 512 216 512 571c0 356 -219 570 -512 570zM781 1470c-58 0 -104 47 -104 104
s46 104 104 104s104 -47 104 -104s-46 -104 -104 -104zM1103 1807h-644v101h644v-101z" />
    <glyph glyph-name="Ocircumflexhookabove.mini" horiz-adv-x="1561" 
d="M781 1364c381 0 652 -261 652 -696c0 -436 -270 -698 -652 -698c-383 0 -654 261 -654 698c0 436 275 696 654 696zM781 1238c-292 0 -514 -214 -514 -570s219 -571 514 -571c293 0 512 216 512 571c0 356 -219 570 -512 570zM854 1696l285 -227h-172l-180 149h-12
l-180 -149h-172l285 227h146zM896 1836v82c21 11 70 20 123 20c99 0 168 -59 168 -146c0 -70 -46 -135 -115 -160l-74 56c49 19 78 57 78 98s-35 70 -86 70c-35 0 -75 -9 -94 -20z" />
    <glyph glyph-name="Ocircumflextilde.mini" horiz-adv-x="1561" 
d="M781 1364c381 0 652 -261 652 -696c0 -436 -270 -698 -652 -698c-383 0 -654 261 -654 698c0 436 275 696 654 696zM781 1238c-292 0 -514 -214 -514 -570s219 -571 514 -571c293 0 512 216 512 571c0 356 -219 570 -512 570zM854 1693l285 -224h-172l-180 145h-12
l-180 -145h-172l285 224h146zM923 1736c-152 0 -167 106 -272 106c-59 0 -94 -34 -97 -89h-104c0 112 70 187 187 187c155 0 174 -107 274 -107c61 0 93 31 97 100h104c0 -120 -70 -197 -189 -197z" />
    <glyph glyph-name="P" unicode="P" horiz-adv-x="1272" 
d="M185 1443h513c276 0 462 -183 462 -452c0 -265 -189 -447 -464 -447h-374v-544h-137v1443zM322 1321v-655h343c222 0 356 122 356 325c0 208 -131 330 -356 330h-343z" />
    <glyph glyph-name="Pdotaccent" unicode="&#x1e56;" horiz-adv-x="1272" 
d="M185 1443h513c276 0 462 -183 462 -452c0 -265 -189 -447 -464 -447h-374v-544h-137v1443zM322 1321v-655h343c222 0 356 122 356 325c0 208 -131 330 -356 330h-343zM570 1646c-54 0 -97 44 -97 98c0 53 43 97 97 97s97 -44 97 -97c0 -54 -43 -98 -97 -98z" />
    <glyph glyph-name="Pacute" unicode="&#x1e54;" horiz-adv-x="1272" 
d="M185 1443h513c276 0 462 -183 462 -452c0 -265 -189 -447 -464 -447h-374v-544h-137v1443zM322 1321v-655h343c222 0 356 122 356 325c0 208 -131 330 -356 330h-343zM634 1576h-119l185 298h164z" />
    <glyph glyph-name="Q" unicode="Q" horiz-adv-x="1561" 
d="M781 -30c-405 0 -654 286 -654 751c0 464 252 752 654 752s652 -289 652 -752c0 -292 -96 -519 -270 -637l183 -253h-154l-140 191c-80 -34 -172 -52 -271 -52zM782 97c68 0 132 11 192 35l-194 263h155l148 -198c135 97 210 284 210 524c0 383 -198 625 -512 625
c-315 0 -514 -242 -514 -625c0 -384 199 -624 515 -624z" />
    <glyph glyph-name="R" unicode="R" horiz-adv-x="1309" 
d="M322 1321v-608h369c209 0 332 111 332 304c0 189 -128 304 -338 304h-363zM322 591v-591h-137v1443h517c281 0 461 -165 461 -422c0 -204 -116 -357 -309 -408l350 -613h-160l-332 591h-21h-369z" />
    <glyph glyph-name="Rcaron" unicode="&#x158;" horiz-adv-x="1309" 
d="M322 1321v-608h369c209 0 332 111 332 304c0 189 -128 304 -338 304h-363zM322 591v-591h-137v1443h517c281 0 461 -165 461 -422c0 -204 -116 -357 -309 -408l350 -613h-160l-332 591h-21h-369zM653 1577h-124l-289 297h155l190 -202h12l190 202h155z" />
    <glyph glyph-name="Rlinebelow" unicode="&#x1e5e;" horiz-adv-x="1309" 
d="M322 1321v-608h369c209 0 332 111 332 304c0 189 -128 304 -338 304h-363zM322 591v-591h-137v1443h517c281 0 461 -165 461 -422c0 -204 -116 -357 -309 -408l350 -613h-160l-332 591h-21h-369zM912 -211v-106h-624v106h624z" />
    <glyph glyph-name="Rdotbelowmacron" unicode="&#x1e5c;" horiz-adv-x="1309" 
d="M322 1321v-608h369c209 0 332 111 332 304c0 189 -128 304 -338 304h-363zM322 591v-591h-137v1443h517c281 0 461 -165 461 -422c0 -204 -116 -357 -309 -408l350 -613h-160l-332 591h-21h-369zM600 -362c-54 0 -97 44 -97 98c0 53 43 97 97 97s97 -44 97 -97
c0 -54 -43 -98 -97 -98zM903 1796v-106h-624v106h624z" />
    <glyph glyph-name="Rdblgrave" unicode="&#x210;" horiz-adv-x="1309" 
d="M322 1321v-608h369c209 0 332 111 332 304c0 189 -128 304 -338 304h-363zM322 591v-591h-137v1443h517c281 0 461 -165 461 -422c0 -204 -116 -357 -309 -408l350 -613h-160l-332 591h-21h-369zM809 1577h-111l-181 297h147zM503 1577h-111l-219 297h157z" />
    <glyph glyph-name="Rinvertedbreve" unicode="&#x212;" horiz-adv-x="1309" 
d="M322 1321v-608h369c209 0 332 111 332 304c0 189 -128 304 -338 304h-363zM322 591v-591h-137v1443h517c281 0 461 -165 461 -422c0 -204 -116 -357 -309 -408l350 -613h-160l-332 591h-21h-369zM914 1586h-118c0 109 -76 176 -205 176s-205 -67 -205 -176h-118
c0 168 121 274 323 274s323 -106 323 -274z" />
    <glyph glyph-name="Racute" unicode="&#x154;" horiz-adv-x="1309" 
d="M322 1321v-608h369c209 0 332 111 332 304c0 189 -128 304 -338 304h-363zM322 591v-591h-137v1443h517c281 0 461 -165 461 -422c0 -204 -116 -357 -309 -408l350 -613h-160l-332 591h-21h-369zM655 1576h-119l185 298h164z" />
    <glyph glyph-name="Rdotbelow" unicode="&#x1e5a;" horiz-adv-x="1309" 
d="M322 1321v-608h369c209 0 332 111 332 304c0 189 -128 304 -338 304h-363zM322 591v-591h-137v1443h517c281 0 461 -165 461 -422c0 -204 -116 -357 -309 -408l350 -613h-160l-332 591h-21h-369zM600 -362c-54 0 -97 44 -97 98c0 53 43 97 97 97s97 -44 97 -97
c0 -54 -43 -98 -97 -98z" />
    <glyph glyph-name="Rdotaccent" unicode="&#x1e58;" horiz-adv-x="1309" 
d="M322 1321v-608h369c209 0 332 111 332 304c0 189 -128 304 -338 304h-363zM322 591v-591h-137v1443h517c281 0 461 -165 461 -422c0 -204 -116 -357 -309 -408l350 -613h-160l-332 591h-21h-369zM591 1646c-54 0 -97 44 -97 98c0 53 43 97 97 97s97 -44 97 -97
c0 -54 -43 -98 -97 -98z" />
    <glyph glyph-name="Rcommaaccent" unicode="&#x156;" horiz-adv-x="1309" 
d="M322 1321v-608h369c209 0 332 111 332 304c0 189 -128 304 -338 304h-363zM322 591v-591h-137v1443h517c281 0 461 -165 461 -422c0 -204 -116 -357 -309 -408l350 -613h-160l-332 591h-21h-369zM541 -489h-100l88 364h142z" />
    <glyph glyph-name="Rcommaaccent.mini" horiz-adv-x="1309" 
d="M322 1321v-608h369c209 0 332 111 332 304c0 189 -128 304 -338 304h-363zM322 591v-591h-137v1443h517c281 0 461 -165 461 -422c0 -204 -116 -357 -309 -408l350 -613h-160l-332 591h-21h-369zM559 -432h-112l83 289h137z" />
    <glyph glyph-name="S" unicode="S" horiz-adv-x="1284" 
d="M115 375h138c19 -166 184 -280 404 -280c216 0 371 121 371 281c0 136 -99 224 -322 279l-165 42c-271 67 -385 180 -385 376c0 233 201 400 494 400c276 0 480 -163 495 -383h-138c-22 154 -161 258 -361 258c-207 0 -350 -114 -350 -271c0 -126 89 -199 309 -254
l143 -36c298 -74 420 -192 420 -396c0 -252 -207 -421 -523 -421c-298 0 -513 164 -530 405z" />
    <glyph glyph-name="Scaron" unicode="&#x160;" horiz-adv-x="1284" 
d="M115 375h138c19 -166 184 -280 404 -280c216 0 371 121 371 281c0 136 -99 224 -322 279l-165 42c-271 67 -385 180 -385 376c0 233 201 400 494 400c276 0 480 -163 495 -383h-138c-22 154 -161 258 -361 258c-207 0 -350 -114 -350 -271c0 -126 89 -199 309 -254
l143 -36c298 -74 420 -192 420 -396c0 -252 -207 -421 -523 -421c-298 0 -513 164 -530 405zM712 1577h-124l-289 297h155l190 -202h12l190 202h155z" />
    <glyph glyph-name="Scedilla" unicode="&#x15e;" horiz-adv-x="1284" 
d="M605 823l143 -36c298 -74 420 -192 420 -396c0 -236 -181 -399 -463 -419l-58 -107c133 0 219 -57 219 -160c0 -127 -113 -185 -242 -185c-54 0 -101 9 -142 20v92c20 -7 68 -17 121 -17c71 0 138 27 138 85c0 57 -54 79 -155 79h-56v71l64 122
c-271 17 -463 176 -479 403h138c19 -166 184 -280 404 -280c216 0 371 121 371 281c0 136 -99 224 -322 279l-165 42c-271 67 -385 180 -385 376c0 233 201 400 494 400c276 0 480 -163 495 -383h-138c-22 154 -161 258 -361 258c-207 0 -350 -114 -350 -271
c0 -126 89 -199 309 -254z" />
    <glyph glyph-name="Sdotaccent" unicode="&#x1e60;" horiz-adv-x="1284" 
d="M115 375h138c19 -166 184 -280 404 -280c216 0 371 121 371 281c0 136 -99 224 -322 279l-165 42c-271 67 -385 180 -385 376c0 233 201 400 494 400c276 0 480 -163 495 -383h-138c-22 154 -161 258 -361 258c-207 0 -350 -114 -350 -271c0 -126 89 -199 309 -254
l143 -36c298 -74 420 -192 420 -396c0 -252 -207 -421 -523 -421c-298 0 -513 164 -530 405zM650 1646c-54 0 -97 44 -97 98c0 53 43 97 97 97s97 -44 97 -97c0 -54 -43 -98 -97 -98z" />
    <glyph glyph-name="Sdotbelow" unicode="&#x1e62;" horiz-adv-x="1284" 
d="M115 375h138c19 -166 184 -280 404 -280c216 0 371 121 371 281c0 136 -99 224 -322 279l-165 42c-271 67 -385 180 -385 376c0 233 201 400 494 400c276 0 480 -163 495 -383h-138c-22 154 -161 258 -361 258c-207 0 -350 -114 -350 -271c0 -126 89 -199 309 -254
l143 -36c298 -74 420 -192 420 -396c0 -252 -207 -421 -523 -421c-298 0 -513 164 -530 405zM645 -362c-54 0 -97 44 -97 98c0 53 43 97 97 97s97 -44 97 -97c0 -54 -43 -98 -97 -98z" />
    <glyph glyph-name="Scommaaccent" unicode="&#x218;" horiz-adv-x="1284" 
d="M115 375h138c19 -166 184 -280 404 -280c216 0 371 121 371 281c0 136 -99 224 -322 279l-165 42c-271 67 -385 180 -385 376c0 233 201 400 494 400c276 0 480 -163 495 -383h-138c-22 154 -161 258 -361 258c-207 0 -350 -114 -350 -271c0 -126 89 -199 309 -254
l143 -36c298 -74 420 -192 420 -396c0 -252 -207 -421 -523 -421c-298 0 -513 164 -530 405zM586 -489h-100l88 364h142z" />
    <glyph glyph-name="Sdotbelowdotaccent" unicode="&#x1e68;" horiz-adv-x="1284" 
d="M115 375h138c19 -166 184 -280 404 -280c216 0 371 121 371 281c0 136 -99 224 -322 279l-165 42c-271 67 -385 180 -385 376c0 233 201 400 494 400c276 0 480 -163 495 -383h-138c-22 154 -161 258 -361 258c-207 0 -350 -114 -350 -271c0 -126 89 -199 309 -254
l143 -36c298 -74 420 -192 420 -396c0 -252 -207 -421 -523 -421c-298 0 -513 164 -530 405zM645 -362c-54 0 -97 44 -97 98c0 53 43 97 97 97s97 -44 97 -97c0 -54 -43 -98 -97 -98zM650 1646c-54 0 -97 44 -97 98c0 53 43 97 97 97s97 -44 97 -97c0 -54 -43 -98 -97 -98z
" />
    <glyph glyph-name="Scarondotaccent" unicode="&#x1e66;" horiz-adv-x="1284" 
d="M115 375h138c19 -166 184 -280 404 -280c216 0 371 121 371 281c0 136 -99 224 -322 279l-165 42c-271 67 -385 180 -385 376c0 233 201 400 494 400c276 0 480 -163 495 -383h-138c-22 154 -161 258 -361 258c-207 0 -350 -114 -350 -271c0 -126 89 -199 309 -254
l143 -36c298 -74 420 -192 420 -396c0 -252 -207 -421 -523 -421c-298 0 -513 164 -530 405zM577 1577l-285 227h172l180 -149h12l180 149h172l-285 -227h-146zM650 1850c-57 0 -103 46 -103 103s46 103 103 103s103 -46 103 -103s-46 -103 -103 -103z" />
    <glyph glyph-name="Scircumflex" unicode="&#x15c;" horiz-adv-x="1284" 
d="M115 375h138c19 -166 184 -280 404 -280c216 0 371 121 371 281c0 136 -99 224 -322 279l-165 42c-271 67 -385 180 -385 376c0 233 201 400 494 400c276 0 480 -163 495 -383h-138c-22 154 -161 258 -361 258c-207 0 -350 -114 -350 -271c0 -126 89 -199 309 -254
l143 -36c298 -74 420 -192 420 -396c0 -252 -207 -421 -523 -421c-298 0 -513 164 -530 405zM588 1874h124l289 -297h-155l-190 202h-12l-190 -202h-155z" />
    <glyph glyph-name="Sacutedotaccent" unicode="&#x1e64;" horiz-adv-x="1284" 
d="M115 375h138c19 -166 184 -280 404 -280c216 0 371 121 371 281c0 136 -99 224 -322 279l-165 42c-271 67 -385 180 -385 376c0 233 201 400 494 400c276 0 480 -163 495 -383h-138c-22 154 -161 258 -361 258c-207 0 -350 -114 -350 -271c0 -126 89 -199 309 -254
l143 -36c298 -74 420 -192 420 -396c0 -252 -207 -421 -523 -421c-298 0 -513 164 -530 405zM785 1576h-119l185 298h164zM466 1723c-54 0 -97 44 -97 98c0 53 43 97 97 97s97 -44 97 -97c0 -54 -43 -98 -97 -98z" />
    <glyph glyph-name="Sacute" unicode="&#x15a;" horiz-adv-x="1284" 
d="M115 375h138c19 -166 184 -280 404 -280c216 0 371 121 371 281c0 136 -99 224 -322 279l-165 42c-271 67 -385 180 -385 376c0 233 201 400 494 400c276 0 480 -163 495 -383h-138c-22 154 -161 258 -361 258c-207 0 -350 -114 -350 -271c0 -126 89 -199 309 -254
l143 -36c298 -74 420 -192 420 -396c0 -252 -207 -421 -523 -421c-298 0 -513 164 -530 405zM714 1576h-119l185 298h164z" />
    <glyph glyph-name="germandbls.uc" unicode="&#x1e9e;" horiz-adv-x="2567" 
d="M115 375h138c19 -166 184 -280 404 -280c216 0 371 121 371 281c0 136 -99 224 -322 279l-165 42c-271 67 -385 180 -385 376c0 233 201 400 494 400c276 0 480 -163 495 -383h-138c-22 154 -161 258 -361 258c-207 0 -350 -114 -350 -271c0 -126 89 -199 309 -254
l143 -36c298 -74 420 -192 420 -396c0 -252 -207 -421 -523 -421c-298 0 -513 164 -530 405zM1399 375h138c19 -166 184 -280 404 -280c216 0 371 121 371 281c0 136 -99 224 -322 279l-165 42c-271 67 -385 180 -385 376c0 233 201 400 494 400c276 0 480 -163 495 -383
h-138c-22 154 -161 258 -361 258c-207 0 -350 -114 -350 -271c0 -126 89 -199 309 -254l143 -36c298 -74 420 -192 420 -396c0 -252 -207 -421 -523 -421c-298 0 -513 164 -530 405z" />
    <glyph glyph-name="Scommaaccent.mini" horiz-adv-x="1284" 
d="M115 375h138c19 -166 184 -280 404 -280c216 0 371 121 371 281c0 136 -99 224 -322 279l-165 42c-271 67 -385 180 -385 376c0 233 201 400 494 400c276 0 480 -163 495 -383h-138c-22 154 -161 258 -361 258c-207 0 -350 -114 -350 -271c0 -126 89 -199 309 -254
l143 -36c298 -74 420 -192 420 -396c0 -252 -207 -421 -523 -421c-298 0 -513 164 -530 405zM604 -432h-112l83 289h137z" />
    <glyph glyph-name="Scedilla.mini" horiz-adv-x="1284" 
d="M605 823l143 -36c298 -74 420 -192 420 -396c0 -234 -179 -397 -457 -418l-51 -91c125 -4 200 -59 200 -151c0 -102 -95 -163 -236 -163c-50 0 -97 8 -125 17v89c22 -7 67 -15 114 -15c70 0 124 17 124 70c0 47 -47 70 -129 70h-62v62l58 110c-276 14 -473 174 -489 404
h138c19 -166 184 -280 404 -280c216 0 371 121 371 281c0 136 -99 224 -322 279l-165 42c-271 67 -385 180 -385 376c0 233 201 400 494 400c276 0 480 -163 495 -383h-138c-22 154 -161 258 -361 258c-207 0 -350 -114 -350 -271c0 -126 89 -199 309 -254z" />
    <glyph glyph-name="S.mini" horiz-adv-x="1284" 
d="M115 375h138c19 -166 183 -280 407 -280c228 0 368 97 368 252c0 125 -77 187 -315 251l-164 44c-280 74 -393 175 -393 351c0 223 193 371 492 371c275 0 481 -158 497 -383h-138c-22 159 -164 259 -363 259c-212 0 -348 -91 -348 -238c0 -110 86 -177 317 -238l149 -40
c292 -77 406 -180 406 -363c0 -243 -196 -391 -520 -391c-302 0 -516 163 -533 405z" />
    <glyph glyph-name="Scarondotaccent.mini" horiz-adv-x="1284" 
d="M115 375h138c19 -166 183 -280 407 -280c228 0 368 97 368 252c0 125 -77 187 -315 251l-164 44c-280 74 -393 175 -393 351c0 223 193 371 492 371c275 0 481 -158 497 -383h-138c-22 159 -164 259 -363 259c-212 0 -348 -91 -348 -238c0 -110 86 -177 317 -238l149 -40
c292 -77 406 -180 406 -363c0 -243 -196 -391 -520 -391c-302 0 -516 163 -533 405zM650 1732c-57 0 -103 46 -103 103s46 103 103 103s103 -46 103 -103s-46 -103 -103 -103zM723 1469h-146l-285 227h172l180 -149h12l180 149h172z" />
    <glyph glyph-name="T" unicode="T" horiz-adv-x="1280" 
d="M708 0h-136v1319h-484v124h1104v-124h-484v-1319z" />
    <glyph glyph-name="Tcircumflexbelow" unicode="&#x1e70;" horiz-adv-x="1280" 
d="M708 0h-136v1319h-484v124h1104v-124h-484v-1319zM717 -125l247 -332h-146l-172 243h-12l-172 -243h-146l247 332h154z" />
    <glyph glyph-name="Tdotbelow" unicode="&#x1e6c;" horiz-adv-x="1280" 
d="M708 0h-136v1319h-484v124h1104v-124h-484v-1319zM640 -362c-54 0 -97 44 -97 98c0 53 43 97 97 97s97 -44 97 -97c0 -54 -43 -98 -97 -98z" />
    <glyph glyph-name="Tcommaaccent" unicode="&#x21a;" horiz-adv-x="1280" 
d="M708 0h-136v1319h-484v124h1104v-124h-484v-1319zM581 -489h-100l88 364h142z" />
    <glyph glyph-name="Tdotaccent" unicode="&#x1e6a;" horiz-adv-x="1280" 
d="M708 0h-136v1319h-484v124h1104v-124h-484v-1319zM640 1646c-54 0 -97 44 -97 98c0 53 43 97 97 97s97 -44 97 -97c0 -54 -43 -98 -97 -98z" />
    <glyph glyph-name="Tcedilla" unicode="&#x162;" horiz-adv-x="1280" 
d="M708 20v-20l-72 -135c132 0 219 -57 219 -160c0 -127 -113 -185 -242 -185c-54 0 -101 9 -142 20v92c19 -7 67 -17 120 -17c71 0 138 27 138 85c0 57 -54 79 -154 79h-57v71l79 150h-25v1319h-484v124h1104v-124h-484v-1299z" />
    <glyph glyph-name="Tlinebelow" unicode="&#x1e6e;" horiz-adv-x="1280" 
d="M708 0h-136v1319h-484v124h1104v-124h-484v-1319zM952 -211v-106h-624v106h624z" />
    <glyph glyph-name="Tcaron" unicode="&#x164;" horiz-adv-x="1280" 
d="M708 0h-136v1319h-484v124h1104v-124h-484v-1319zM702 1577h-124l-289 297h155l190 -202h12l190 202h155z" />
    <glyph glyph-name="Tbar" unicode="&#x166;" horiz-adv-x="1280" 
d="M1192 1319h-484v-535h346v-124h-346v-660h-136v660h-346v124h346v535h-484v124h1104v-124z" />
    <glyph glyph-name="Tcommaaccent.mini" horiz-adv-x="1280" 
d="M708 0h-136v1319h-484v124h1104v-124h-484v-1319zM599 -432h-112l83 289h137z" />
    <glyph glyph-name="Tcedilla.mini" horiz-adv-x="1280" 
d="M708 27v-27l-66 -118c126 -4 200 -59 200 -151c0 -102 -95 -163 -235 -163c-51 0 -97 8 -125 17v89c22 -7 66 -15 113 -15c71 0 124 17 124 70c0 47 -46 70 -129 70h-62v62l75 139h-31v1319h-484v124h1104v-124h-484v-1292z" />
    <glyph glyph-name="U" unicode="U" horiz-adv-x="1485" 
d="M320 1443v-934c0 -242 161 -409 422 -409s422 167 422 409v934h137v-943c0 -313 -214 -526 -559 -526s-558 213 -558 526v943h136z" />
    <glyph glyph-name="Ugrave" unicode="&#xd9;" horiz-adv-x="1485" 
d="M320 1443v-934c0 -242 161 -409 422 -409s422 167 422 409v934h137v-943c0 -313 -214 -526 -559 -526s-558 213 -558 526v943h136zM678 1576l-230 298h164l185 -298h-119z" />
    <glyph glyph-name="Udblgrave" unicode="&#x214;" horiz-adv-x="1485" 
d="M320 1443v-934c0 -242 161 -409 422 -409s422 167 422 409v934h137v-943c0 -313 -214 -526 -559 -526s-558 213 -558 526v943h136zM960 1577h-111l-181 297h147zM654 1577h-111l-219 297h157z" />
    <glyph glyph-name="Uacute" unicode="&#xda;" horiz-adv-x="1485" 
d="M320 1443v-934c0 -242 161 -409 422 -409s422 167 422 409v934h137v-943c0 -313 -214 -526 -559 -526s-558 213 -558 526v943h136zM806 1576h-119l185 298h164z" />
    <glyph glyph-name="Uhungarumlaut" unicode="&#x170;" horiz-adv-x="1485" 
d="M320 1443v-934c0 -242 161 -409 422 -409s422 167 422 409v934h137v-943c0 -313 -214 -526 -559 -526s-558 213 -558 526v943h136zM524 1577l145 297h147l-181 -297h-111zM830 1577l173 297h157l-219 -297h-111z" />
    <glyph glyph-name="Ucircumflex" unicode="&#xdb;" horiz-adv-x="1485" 
d="M320 1443v-934c0 -242 161 -409 422 -409s422 167 422 409v934h137v-943c0 -313 -214 -526 -559 -526s-558 213 -558 526v943h136zM680 1874h124l289 -297h-155l-190 202h-12l-190 -202h-155z" />
    <glyph glyph-name="Ucaron" unicode="&#x1d3;" horiz-adv-x="1485" 
d="M320 1443v-934c0 -242 161 -409 422 -409s422 167 422 409v934h137v-943c0 -313 -214 -526 -559 -526s-558 213 -558 526v943h136zM804 1577h-124l-289 297h155l190 -202h12l190 202h155z" />
    <glyph glyph-name="Ucircumflexbelow" unicode="&#x1e76;" horiz-adv-x="1485" 
d="M320 1443v-934c0 -242 161 -409 422 -409s422 167 422 409v934h137v-943c0 -313 -214 -526 -559 -526s-558 213 -558 526v943h136zM819 -125l247 -332h-146l-172 243h-12l-172 -243h-146l247 332h154z" />
    <glyph glyph-name="Udieresis" unicode="&#xdc;" horiz-adv-x="1485" 
d="M320 1443v-934c0 -242 161 -409 422 -409s422 167 422 409v934h137v-943c0 -313 -214 -526 -559 -526s-558 213 -558 526v943h136zM550 1646c-53 0 -97 44 -97 98c0 53 44 97 97 97c54 0 98 -44 98 -97c0 -54 -44 -98 -98 -98zM934 1646c-54 0 -98 44 -98 98
c0 53 44 97 98 97c53 0 97 -44 97 -97c0 -54 -44 -98 -97 -98z" />
    <glyph glyph-name="Udieresisgrave" unicode="&#x1db;" horiz-adv-x="1485" 
d="M320 1443v-934c0 -242 161 -409 422 -409s422 167 422 409v934h137v-943c0 -313 -214 -526 -559 -526s-558 213 -558 526v943h136zM828 1839h-138l-267 217h175zM560 1568c-56 0 -102 45 -102 102s46 102 102 102c57 0 102 -45 102 -102s-45 -102 -102 -102zM924 1568
c-57 0 -102 45 -102 102s45 102 102 102c56 0 102 -45 102 -102s-46 -102 -102 -102z" />
    <glyph glyph-name="Udieresisacute" unicode="&#x1d7;" horiz-adv-x="1485" 
d="M320 1443v-934c0 -242 161 -409 422 -409s422 167 422 409v934h137v-943c0 -313 -214 -526 -559 -526s-558 213 -558 526v943h136zM668 1839l231 217h174l-267 -217h-138zM560 1568c-56 0 -102 45 -102 102s46 102 102 102c57 0 102 -45 102 -102s-45 -102 -102 -102z
M924 1568c-57 0 -102 45 -102 102s45 102 102 102c56 0 102 -45 102 -102s-46 -102 -102 -102z" />
    <glyph glyph-name="Udieresismacron" unicode="&#x1d5;" horiz-adv-x="1485" 
d="M320 1443v-934c0 -242 161 -409 422 -409s422 167 422 409v934h137v-943c0 -313 -214 -526 -559 -526s-558 213 -558 526v943h136zM560 1778c55 0 99 -44 99 -99s-44 -99 -99 -99s-99 44 -99 99s44 99 99 99zM423 2016h638v-101h-638v101zM924 1778c55 0 99 -44 99 -99
s-44 -99 -99 -99s-99 44 -99 99s44 99 99 99z" />
    <glyph glyph-name="Udieresiscaron" unicode="&#x1d9;" horiz-adv-x="1485" 
d="M320 1443v-934c0 -242 161 -409 422 -409s422 167 422 409v934h137v-943c0 -313 -214 -526 -559 -526s-558 213 -558 526v943h136zM669 1832l-285 224h172l180 -146h12l180 146h172l-285 -224h-146zM560 1778c55 0 99 -44 99 -99s-44 -99 -99 -99s-99 44 -99 99
s44 99 99 99zM924 1778c55 0 99 -44 99 -99s-44 -99 -99 -99s-99 44 -99 99s44 99 99 99z" />
    <glyph glyph-name="Udieresisbelow" unicode="&#x1e72;" horiz-adv-x="1485" 
d="M320 1443v-934c0 -242 161 -409 422 -409s422 167 422 409v934h137v-943c0 -313 -214 -526 -559 -526s-558 213 -558 526v943h136zM550 -362c-53 0 -97 44 -97 98c0 53 44 97 97 97c54 0 98 -44 98 -97c0 -54 -44 -98 -98 -98zM934 -362c-54 0 -98 44 -98 98
c0 53 44 97 98 97c53 0 97 -44 97 -97c0 -54 -44 -98 -97 -98z" />
    <glyph glyph-name="Utildebelow" unicode="&#x1e74;" horiz-adv-x="1485" 
d="M320 1443v-934c0 -242 161 -409 422 -409s422 167 422 409v934h137v-943c0 -313 -214 -526 -559 -526s-558 213 -558 526v943h136zM869 -392c-155 0 -163 153 -259 153c-54 0 -89 -50 -89 -156h-110c0 162 75 260 201 260c154 0 167 -158 263 -158c58 0 88 54 88 160h110
c0 -161 -75 -259 -204 -259z" />
    <glyph glyph-name="Uhookabove" unicode="&#x1ee6;" horiz-adv-x="1485" 
d="M320 1443v-934c0 -242 161 -409 422 -409s422 167 422 409v934h137v-943c0 -313 -214 -526 -559 -526s-558 213 -558 526v943h136zM582 1788v96c30 13 80 23 128 23c128 0 204 -66 204 -166c0 -85 -67 -163 -161 -198l-58 78c59 20 106 64 106 112c0 46 -44 80 -105 80
c-47 0 -88 -12 -114 -25z" />
    <glyph glyph-name="Ubreve" unicode="&#x16c;" horiz-adv-x="1485" 
d="M320 1443v-934c0 -242 161 -409 422 -409s422 167 422 409v934h137v-943c0 -313 -214 -526 -559 -526s-558 213 -558 526v943h136zM419 1860h118c0 -109 76 -176 205 -176s205 67 205 176h118c0 -168 -121 -274 -323 -274s-323 106 -323 274z" />
    <glyph glyph-name="Uinvertedbreve" unicode="&#x216;" horiz-adv-x="1485" 
d="M320 1443v-934c0 -242 161 -409 422 -409s422 167 422 409v934h137v-943c0 -313 -214 -526 -559 -526s-558 213 -558 526v943h136zM1065 1586h-118c0 109 -76 176 -205 176s-205 -67 -205 -176h-118c0 168 121 274 323 274s323 -106 323 -274z" />
    <glyph glyph-name="Utildeacute" unicode="&#x1e78;" horiz-adv-x="1485" 
d="M320 1443v-934c0 -242 161 -409 422 -409s422 167 422 409v934h137v-943c0 -313 -214 -526 -559 -526s-558 213 -558 526v943h136zM878 1573c-157 0 -163 137 -269 137c-62 0 -97 -44 -100 -122h-106c0 131 82 222 203 222c157 0 163 -136 269 -136c55 0 97 40 101 122
h105c0 -126 -82 -223 -203 -223zM723 1845l212 211h169l-234 -211h-147z" />
    <glyph glyph-name="Udotbelow" unicode="&#x1ee4;" horiz-adv-x="1485" 
d="M320 1443v-934c0 -242 161 -409 422 -409s422 167 422 409v934h137v-943c0 -313 -214 -526 -559 -526s-558 213 -558 526v943h136zM742 -362c-54 0 -97 44 -97 98c0 53 43 97 97 97s97 -44 97 -97c0 -54 -43 -98 -97 -98z" />
    <glyph glyph-name="Utilde" unicode="&#x168;" horiz-adv-x="1485" 
d="M320 1443v-934c0 -242 161 -409 422 -409s422 167 422 409v934h137v-943c0 -313 -214 -526 -559 -526s-558 213 -558 526v943h136zM869 1594c-155 0 -163 153 -259 153c-54 0 -89 -50 -89 -156h-110c0 162 75 260 201 260c154 0 167 -158 263 -158c58 0 88 54 88 160h110
c0 -161 -75 -259 -204 -259z" />
    <glyph glyph-name="Umacron" unicode="&#x16a;" horiz-adv-x="1485" 
d="M320 1443v-934c0 -242 161 -409 422 -409s422 167 422 409v934h137v-943c0 -313 -214 -526 -559 -526s-558 213 -558 526v943h136zM1054 1796v-106h-624v106h624z" />
    <glyph glyph-name="Umacrondieresis" unicode="&#x1e7a;" horiz-adv-x="1485" 
d="M320 1443v-934c0 -242 161 -409 422 -409s422 167 422 409v934h137v-943c0 -313 -214 -526 -559 -526s-558 213 -558 526v943h136zM1064 1619h-644v101h644v-101zM560 1853c-55 0 -99 44 -99 100c0 55 44 99 99 99s99 -44 99 -99c0 -56 -44 -100 -99 -100zM924 1853
c-56 0 -100 44 -100 100c0 55 44 99 100 99c55 0 99 -44 99 -99c0 -56 -44 -100 -99 -100z" />
    <glyph glyph-name="Uring" unicode="&#x16e;" horiz-adv-x="1485" 
d="M320 1443v-934c0 -242 161 -409 422 -409s422 167 422 409v934h137v-943c0 -313 -214 -526 -559 -526s-558 213 -558 526v943h136zM742 1555c-103 0 -185 80 -185 183c0 104 82 184 185 184s185 -80 185 -184c0 -103 -82 -183 -185 -183zM742 1631c64 0 108 47 108 107
c0 62 -44 108 -108 108s-108 -46 -108 -108c0 -60 44 -107 108 -107z" />
    <glyph glyph-name="Uogonek" unicode="&#x172;" horiz-adv-x="1485" 
d="M1164 1443h137v-943c0 -160 -56 -294 -157 -387c-119 -116 -240 -219 -240 -324c0 -44 23 -97 107 -97c24 0 52 5 79 14v-105c-32 -11 -70 -19 -108 -19c-105 0 -207 54 -207 175c0 76 47 152 134 236c-51 -13 -107 -19 -167 -19c-345 0 -558 213 -558 526v943h136v-934
c0 -242 161 -409 422 -409s422 167 422 409v934z" />
    <glyph glyph-name="Uhorn" unicode="&#x1af;" horiz-adv-x="1621" 
d="M742 -26c-338 0 -558 207 -558 526v943h136v-934c0 -248 167 -409 422 -409c256 0 422 161 422 409v934h163c69 0 101 31 101 94v158h122v-182c0 -112 -75 -170 -189 -170h-60v-843c0 -319 -221 -526 -559 -526z" />
    <glyph glyph-name="Uhorngrave" unicode="&#x1eea;" horiz-adv-x="1621" 
d="M742 -26c-338 0 -558 207 -558 526v943h136v-934c0 -248 167 -409 422 -409c256 0 422 161 422 409v934h163c69 0 101 31 101 94v158h122v-182c0 -112 -75 -170 -189 -170h-60v-843c0 -319 -221 -526 -559 -526zM678 1576l-230 298h164l185 -298h-119z" />
    <glyph glyph-name="Uhornacute" unicode="&#x1ee8;" horiz-adv-x="1621" 
d="M742 -26c-338 0 -558 207 -558 526v943h136v-934c0 -248 167 -409 422 -409c256 0 422 161 422 409v934h163c69 0 101 31 101 94v158h122v-182c0 -112 -75 -170 -189 -170h-60v-843c0 -319 -221 -526 -559 -526zM806 1576h-119l185 298h164z" />
    <glyph glyph-name="Uhorndotbelow" unicode="&#x1ef0;" horiz-adv-x="1621" 
d="M742 -26c-338 0 -558 207 -558 526v943h136v-934c0 -248 167 -409 422 -409c256 0 422 161 422 409v934h163c69 0 101 31 101 94v158h122v-182c0 -112 -75 -170 -189 -170h-60v-843c0 -319 -221 -526 -559 -526zM742 -362c-54 0 -97 44 -97 98c0 53 43 97 97 97
s97 -44 97 -97c0 -54 -43 -98 -97 -98z" />
    <glyph glyph-name="Uhornhookabove" unicode="&#x1eec;" horiz-adv-x="1621" 
d="M742 -26c-338 0 -558 207 -558 526v943h136v-934c0 -248 167 -409 422 -409c256 0 422 161 422 409v934h163c69 0 101 31 101 94v158h122v-182c0 -112 -75 -170 -189 -170h-60v-843c0 -319 -221 -526 -559 -526zM582 1788v96c30 13 80 23 128 23c128 0 204 -66 204 -166
c0 -85 -67 -163 -161 -198l-58 78c59 20 106 64 106 112c0 46 -44 80 -105 80c-47 0 -88 -12 -114 -25z" />
    <glyph glyph-name="Uhorntilde" unicode="&#x1eee;" horiz-adv-x="1621" 
d="M742 -26c-338 0 -558 207 -558 526v943h136v-934c0 -248 167 -409 422 -409c256 0 422 161 422 409v934h163c69 0 101 31 101 94v158h122v-182c0 -112 -75 -170 -189 -170h-60v-843c0 -319 -221 -526 -559 -526zM869 1594c-155 0 -163 153 -259 153
c-54 0 -89 -50 -89 -156h-110c0 162 75 260 201 260c154 0 167 -158 263 -158c58 0 88 54 88 160h110c0 -161 -75 -259 -204 -259z" />
    <glyph glyph-name="Uogonek.mini" horiz-adv-x="1485" 
d="M1164 1443h137v-943c0 -160 -56 -294 -157 -387c-119 -116 -240 -219 -240 -324c0 -44 23 -97 107 -97c24 0 52 5 79 14v-105c-32 -11 -70 -19 -108 -19c-105 0 -207 54 -207 175c0 76 47 152 134 236c-51 -13 -107 -19 -167 -19c-345 0 -558 213 -558 526v943h136v-934
c0 -242 161 -409 422 -409s422 167 422 409v934z" />
    <glyph glyph-name="U.mini" horiz-adv-x="1485" 
d="M320 1335v-826c0 -242 161 -409 422 -409s422 167 422 409v826h137v-835c0 -313 -214 -526 -559 -526s-558 213 -558 526v835h136z" />
    <glyph glyph-name="Udieresismacron.mini" horiz-adv-x="1485" 
d="M320 1335v-826c0 -242 161 -409 422 -409s422 167 422 409v826h137v-835c0 -313 -214 -526 -559 -526s-558 213 -558 526v835h136zM420 1807v101h644v-101h-644zM560 1469c-55 0 -99 43 -99 99c0 55 44 99 99 99s99 -44 99 -99c0 -56 -44 -99 -99 -99zM924 1469
c-55 0 -99 43 -99 99c0 55 44 99 99 99s99 -44 99 -99c0 -56 -44 -99 -99 -99z" />
    <glyph glyph-name="Udieresiscaron.mini" horiz-adv-x="1485" 
d="M320 1335v-826c0 -242 161 -409 422 -409s422 167 422 409v826h137v-835c0 -313 -214 -526 -559 -526s-558 213 -558 526v835h136zM560 1469c-55 0 -99 43 -99 99c0 55 44 99 99 99s99 -44 99 -99c0 -56 -44 -99 -99 -99zM924 1469c-55 0 -99 43 -99 99c0 55 44 99 99 99
s99 -44 99 -99c0 -56 -44 -99 -99 -99zM819 1724h-154l-284 214h182l173 -136h12l173 136h182z" />
    <glyph glyph-name="Udieresisacute.mini" horiz-adv-x="1485" 
d="M320 1335v-826c0 -242 161 -409 422 -409s422 167 422 409v826h137v-835c0 -313 -214 -526 -559 -526s-558 213 -558 526v835h136zM560 1469c-56 0 -102 45 -102 102c0 56 46 102 102 102c57 0 102 -46 102 -102c0 -57 -45 -102 -102 -102zM924 1469
c-57 0 -102 45 -102 102c0 56 45 102 102 102c56 0 102 -46 102 -102c0 -57 -46 -102 -102 -102zM656 1731l203 207h166l-221 -207h-148z" />
    <glyph glyph-name="Udieresisgrave.mini" horiz-adv-x="1485" 
d="M320 1335v-826c0 -242 161 -409 422 -409s422 167 422 409v826h137v-835c0 -313 -214 -526 -559 -526s-558 213 -558 526v835h136zM560 1469c-56 0 -102 45 -102 102c0 56 46 102 102 102c57 0 102 -46 102 -102c0 -57 -45 -102 -102 -102zM924 1469
c-57 0 -102 45 -102 102c0 56 45 102 102 102c56 0 102 -46 102 -102c0 -57 -46 -102 -102 -102zM828 1731h-148l-221 207h166z" />
    <glyph glyph-name="Utildeacute.mini" horiz-adv-x="1485" 
d="M320 1335v-826c0 -242 161 -409 422 -409s422 167 422 409v826h137v-835c0 -313 -214 -526 -559 -526s-558 213 -558 526v835h136zM723 1737l192 201h166l-211 -201h-147zM878 1465c-157 0 -163 137 -269 137c-62 0 -97 -44 -100 -122h-106c0 131 82 222 203 222
c157 0 163 -136 269 -136c55 0 97 40 101 122h105c0 -126 -82 -223 -203 -223z" />
    <glyph glyph-name="Umacrondieresis.mini" horiz-adv-x="1485" 
d="M320 1335v-826c0 -242 161 -409 422 -409s422 167 422 409v826h137v-835c0 -313 -214 -526 -559 -526s-558 213 -558 526v835h136zM420 1490v102h644v-102h-644zM560 1735c-55 0 -99 44 -99 99c0 56 44 100 99 100s99 -44 99 -100c0 -55 -44 -99 -99 -99zM924 1735
c-56 0 -100 44 -100 99c0 56 44 100 100 100c55 0 99 -44 99 -100c0 -55 -44 -99 -99 -99z" />
    <glyph glyph-name="V" unicode="V" horiz-adv-x="1363" 
d="M750 0h-136l-540 1443h144l457 -1264h13l457 1264h144z" />
    <glyph glyph-name="Vtilde" unicode="&#x1e7c;" horiz-adv-x="1363" 
d="M750 0h-136l-540 1443h144l457 -1264h13l457 1264h144zM809 1594c-155 0 -163 153 -259 153c-54 0 -89 -50 -89 -156h-110c0 162 75 260 201 260c154 0 167 -158 263 -158c58 0 88 54 88 160h110c0 -161 -75 -259 -204 -259z" />
    <glyph glyph-name="Vdotbelow" unicode="&#x1e7e;" horiz-adv-x="1363" 
d="M750 0h-136l-540 1443h144l457 -1264h13l457 1264h144zM682 -362c-54 0 -97 44 -97 98c0 53 43 97 97 97s97 -44 97 -97c0 -54 -43 -98 -97 -98z" />
    <glyph glyph-name="W" unicode="W" horiz-adv-x="1956" 
d="M973 1205l-354 -1205h-127l-397 1443h142l317 -1230h9l347 1230h136l347 -1230h9l317 1230h142l-397 -1443h-127l-354 1205h-10z" />
    <glyph glyph-name="Wgrave" unicode="&#x1e80;" horiz-adv-x="1956" 
d="M973 1205l-354 -1205h-127l-397 1443h142l317 -1230h9l347 1230h136l347 -1230h9l317 1230h142l-397 -1443h-127l-354 1205h-10zM914 1576l-230 298h164l185 -298h-119z" />
    <glyph glyph-name="Wacute" unicode="&#x1e82;" horiz-adv-x="1956" 
d="M973 1205l-354 -1205h-127l-397 1443h142l317 -1230h9l347 1230h136l347 -1230h9l317 1230h142l-397 -1443h-127l-354 1205h-10zM1042 1576h-119l185 298h164z" />
    <glyph glyph-name="Wdotaccent" unicode="&#x1e86;" horiz-adv-x="1956" 
d="M973 1205l-354 -1205h-127l-397 1443h142l317 -1230h9l347 1230h136l347 -1230h9l317 1230h142l-397 -1443h-127l-354 1205h-10zM978 1646c-54 0 -97 44 -97 98c0 53 43 97 97 97s97 -44 97 -97c0 -54 -43 -98 -97 -98z" />
    <glyph glyph-name="Wdotbelow" unicode="&#x1e88;" horiz-adv-x="1956" 
d="M973 1205l-354 -1205h-127l-397 1443h142l317 -1230h9l347 1230h136l347 -1230h9l317 1230h142l-397 -1443h-127l-354 1205h-10zM978 -362c-54 0 -97 44 -97 98c0 53 43 97 97 97s97 -44 97 -97c0 -54 -43 -98 -97 -98z" />
    <glyph glyph-name="Wdieresis" unicode="&#x1e84;" horiz-adv-x="1956" 
d="M973 1205l-354 -1205h-127l-397 1443h142l317 -1230h9l347 1230h136l347 -1230h9l317 1230h142l-397 -1443h-127l-354 1205h-10zM786 1646c-53 0 -97 44 -97 98c0 53 44 97 97 97c54 0 98 -44 98 -97c0 -54 -44 -98 -98 -98zM1170 1646c-54 0 -98 44 -98 98
c0 53 44 97 98 97c53 0 97 -44 97 -97c0 -54 -44 -98 -97 -98z" />
    <glyph glyph-name="Wcircumflex" unicode="&#x174;" horiz-adv-x="1956" 
d="M973 1205l-354 -1205h-127l-397 1443h142l317 -1230h9l347 1230h136l347 -1230h9l317 1230h142l-397 -1443h-127l-354 1205h-10zM916 1874h124l289 -297h-155l-190 202h-12l-190 -202h-155z" />
    <glyph glyph-name="X" unicode="X" horiz-adv-x="1366" 
d="M95 0l504 724v0l-500 719h165l418 -609h11l422 609h156l-508 -724v0l500 -719h-164l-416 606h-11l-421 -606h-156z" />
    <glyph glyph-name="Xdotaccent" unicode="&#x1e8a;" horiz-adv-x="1366" 
d="M95 0l504 724v0l-500 719h165l418 -609h11l422 609h156l-508 -724v0l500 -719h-164l-416 606h-11l-421 -606h-156zM683 1646c-54 0 -97 44 -97 98c0 53 43 97 97 97s97 -44 97 -97c0 -54 -43 -98 -97 -98z" />
    <glyph glyph-name="Xdieresis" unicode="&#x1e8c;" horiz-adv-x="1366" 
d="M95 0l504 724v0l-500 719h165l418 -609h11l422 609h156l-508 -724v0l500 -719h-164l-416 606h-11l-421 -606h-156zM491 1646c-53 0 -97 44 -97 98c0 53 44 97 97 97c54 0 98 -44 98 -97c0 -54 -44 -98 -98 -98zM875 1646c-54 0 -98 44 -98 98c0 53 44 97 98 97
c53 0 97 -44 97 -97c0 -54 -44 -98 -97 -98z" />
    <glyph glyph-name="Y" unicode="Y" horiz-adv-x="1321" 
d="M729 0h-136v624l-518 819h157l423 -680h12l423 680h156l-517 -819v-624z" />
    <glyph glyph-name="Ygrave" unicode="&#x1ef2;" horiz-adv-x="1321" 
d="M729 0h-136v624l-518 819h157l423 -680h12l423 680h156l-517 -819v-624zM597 1576l-230 298h164l185 -298h-119z" />
    <glyph glyph-name="Yacute" unicode="&#xdd;" horiz-adv-x="1321" 
d="M729 0h-136v624l-518 819h157l423 -680h12l423 680h156l-517 -819v-624zM725 1576h-119l185 298h164z" />
    <glyph glyph-name="Ydotaccent" unicode="&#x1e8e;" horiz-adv-x="1321" 
d="M729 0h-136v624l-518 819h157l423 -680h12l423 680h156l-517 -819v-624zM661 1646c-54 0 -97 44 -97 98c0 53 43 97 97 97s97 -44 97 -97c0 -54 -43 -98 -97 -98z" />
    <glyph glyph-name="Ydotbelow" unicode="&#x1ef4;" horiz-adv-x="1321" 
d="M729 0h-136v624l-518 819h157l423 -680h12l423 680h156l-517 -819v-624zM661 -362c-54 0 -97 44 -97 98c0 53 43 97 97 97s97 -44 97 -97c0 -54 -43 -98 -97 -98z" />
    <glyph glyph-name="Ydieresis" unicode="&#x178;" horiz-adv-x="1321" 
d="M729 0h-136v624l-518 819h157l423 -680h12l423 680h156l-517 -819v-624zM469 1646c-53 0 -97 44 -97 98c0 53 44 97 97 97c54 0 98 -44 98 -97c0 -54 -44 -98 -98 -98zM853 1646c-54 0 -98 44 -98 98c0 53 44 97 98 97c53 0 97 -44 97 -97c0 -54 -44 -98 -97 -98z" />
    <glyph glyph-name="Ytilde" unicode="&#x1ef8;" horiz-adv-x="1321" 
d="M729 0h-136v624l-518 819h157l423 -680h12l423 680h156l-517 -819v-624zM788 1594c-155 0 -163 153 -259 153c-54 0 -89 -50 -89 -156h-110c0 162 75 260 201 260c154 0 167 -158 263 -158c58 0 88 54 88 160h110c0 -161 -75 -259 -204 -259z" />
    <glyph glyph-name="Ycircumflex" unicode="&#x176;" horiz-adv-x="1321" 
d="M729 0h-136v624l-518 819h157l423 -680h12l423 680h156l-517 -819v-624zM599 1874h124l289 -297h-155l-190 202h-12l-190 -202h-155z" />
    <glyph glyph-name="Ymacron" unicode="&#x232;" horiz-adv-x="1321" 
d="M729 0h-136v624l-518 819h157l423 -680h12l423 680h156l-517 -819v-624zM973 1796v-106h-624v106h624z" />
    <glyph glyph-name="Yhookabove" unicode="&#x1ef6;" horiz-adv-x="1321" 
d="M729 0h-136v624l-518 819h157l423 -680h12l423 680h156l-517 -819v-624zM501 1788v96c30 13 80 23 128 23c128 0 204 -66 204 -166c0 -85 -67 -163 -161 -198l-58 78c59 20 106 64 106 112c0 46 -44 80 -105 80c-47 0 -88 -12 -114 -25z" />
    <glyph glyph-name="Z" unicode="Z" horiz-adv-x="1328" 
d="M138 0v99l863 1208v12h-834v124h1011v-100l-860 -1207v-12h872v-124h-1052z" />
    <glyph glyph-name="Zacute" unicode="&#x179;" horiz-adv-x="1328" 
d="M138 0v99l863 1208v12h-834v124h1011v-100l-860 -1207v-12h872v-124h-1052zM728 1576h-119l185 298h164z" />
    <glyph glyph-name="Zcaron" unicode="&#x17d;" horiz-adv-x="1328" 
d="M138 0v99l863 1208v12h-834v124h1011v-100l-860 -1207v-12h872v-124h-1052zM726 1577h-124l-289 297h155l190 -202h12l190 202h155z" />
    <glyph glyph-name="Zcircumflex" unicode="&#x1e90;" horiz-adv-x="1328" 
d="M138 0v99l863 1208v12h-834v124h1011v-100l-860 -1207v-12h872v-124h-1052zM602 1874h124l289 -297h-155l-190 202h-12l-190 -202h-155z" />
    <glyph glyph-name="Zlinebelow" unicode="&#x1e94;" horiz-adv-x="1328" 
d="M138 0v99l863 1208v12h-834v124h1011v-100l-860 -1207v-12h872v-124h-1052zM976 -211v-106h-624v106h624z" />
    <glyph glyph-name="Zdotbelow" unicode="&#x1e92;" horiz-adv-x="1328" 
d="M138 0v99l863 1208v12h-834v124h1011v-100l-860 -1207v-12h872v-124h-1052zM664 -362c-54 0 -97 44 -97 98c0 53 43 97 97 97s97 -44 97 -97c0 -54 -43 -98 -97 -98z" />
    <glyph glyph-name="Zdotaccent" unicode="&#x17b;" horiz-adv-x="1328" 
d="M138 0v99l863 1208v12h-834v124h1011v-100l-860 -1207v-12h872v-124h-1052zM664 1646c-54 0 -97 44 -97 98c0 53 43 97 97 97s97 -44 97 -97c0 -54 -43 -98 -97 -98z" />
    <glyph glyph-name="AE" unicode="&#xc6;" horiz-adv-x="1955" 
d="M841 1327l-365 -766h526v766h-161zM1002 0v443h-581l-208 -443h-139l678 1443h1063v-124h-677v-526h640v-122h-640v-547h677v-124h-813z" />
    <glyph glyph-name="AEmacron" unicode="&#x1e2;" horiz-adv-x="1955" 
d="M841 1327l-365 -766h526v766h-161zM1002 0v443h-581l-208 -443h-139l678 1443h1063v-124h-677v-526h640v-122h-640v-547h677v-124h-813zM1601 1796v-106h-624v106h624z" />
    <glyph glyph-name="AEacute" unicode="&#x1fc;" horiz-adv-x="1955" 
d="M841 1327l-365 -766h526v766h-161zM1002 0v443h-581l-208 -443h-139l678 1443h1063v-124h-677v-526h640v-122h-640v-547h677v-124h-813zM1353 1576h-119l185 298h164z" />
    <glyph glyph-name="OE" unicode="&#x152;" horiz-adv-x="2321" 
d="M788 1346c-320 0 -521 -240 -521 -624c0 -385 200 -625 521 -625c312 0 506 240 506 625s-194 624 -506 624zM1309 0v302h-12c-88 -204 -289 -332 -523 -332c-398 0 -647 289 -647 752c0 460 250 751 647 751c231 0 435 -126 523 -325h12v295h872v-124h-748v-519h711
v-122h-711v-554h748v-124h-872z" />
    <glyph glyph-name="Eth" unicode="&#xd0;" horiz-adv-x="1472" 
d="M322 124h330c353 0 553 224 553 597s-201 598 -553 598h-330v-514h339v-123h-339v-558zM185 1443h475c440 0 685 -273 685 -721c0 -449 -244 -722 -685 -722h-475v682h-162v123h162v638z" />
    <glyph glyph-name="Thorn" unicode="&#xde;" horiz-adv-x="1270" 
d="M185 1443h137v-274h386c237 0 431 -151 431 -410s-194 -411 -432 -411h-385v-348h-137v1443zM322 1046v-576h352c194 0 325 102 325 289c0 186 -131 287 -325 287h-352z" />
    <glyph glyph-name="Alphagreek" unicode="&#x391;" horiz-adv-x="1363" 
d="M1145 0l-160 442h-606l-160 -442h-145l540 1443h136l539 -1443h-144zM675 1264l-255 -704h524l-256 704h-13z" />
    <glyph glyph-name="Betagreek" unicode="&#x392;" horiz-adv-x="1319" 
d="M715 0h-530v1443h519c266 0 429 -137 429 -356c0 -162 -111 -291 -264 -318v-13c203 -22 338 -159 338 -357c0 -251 -179 -399 -492 -399zM322 1322v-515h323c223 0 350 90 350 258c0 162 -120 257 -317 257h-356zM322 121h374c242 0 371 100 371 285
c0 183 -137 282 -388 282h-357v-567z" />
    <glyph glyph-name="Gammagreek" unicode="&#x393;" horiz-adv-x="1135" 
d="M322 0h-137v1443h836v-124h-699v-1319z" />
    <glyph glyph-name="Deltagreek" unicode="&#x2206;" horiz-adv-x="1377" 
d="M1280 0h-1183v97l523 1346h136l524 -1346v-97zM253 136v-12h870v12l-429 1135h-12z" />
    <glyph glyph-name="Deltagreek" unicode="&#x394;" horiz-adv-x="1377" 
d="M1280 0h-1183v97l523 1346h136l524 -1346v-97zM253 136v-12h870v12l-429 1135h-12z" />
    <glyph glyph-name="Epsilongreek" unicode="&#x395;" horiz-adv-x="1197" 
d="M1057 124v-124h-872v1443h872v-124h-735v-519h698v-122h-698v-554h735z" />
    <glyph glyph-name="Zetagreek" unicode="&#x396;" horiz-adv-x="1328" 
d="M138 0v99l863 1208v12h-834v124h1011v-100l-860 -1207v-12h872v-124h-1052z" />
    <glyph glyph-name="Etagreek" unicode="&#x397;" horiz-adv-x="1488" 
d="M1303 0h-137v677h-844v-677h-137v1443h137v-642h844v642h137v-1443z" />
    <glyph glyph-name="Thetagreek" unicode="&#x398;" horiz-adv-x="1575" 
d="M1107 661h-639v124h639v-124zM788 1473c404 0 659 -276 659 -751c0 -474 -253 -752 -659 -752c-407 0 -661 277 -661 752c0 476 259 751 661 751zM788 1346c-315 0 -521 -228 -521 -624c0 -394 202 -625 521 -625c316 0 519 232 519 625c0 396 -203 624 -519 624z" />
    <glyph glyph-name="Iotagreek" unicode="&#x399;" horiz-adv-x="507" 
d="M322 0h-137v1443h137v-1443z" />
    <glyph glyph-name="Iotagreek.1" horiz-adv-x="974" 
d="M129 0v118h290v1207h-290v118h716v-118h-290v-1207h290v-118h-716z" />
    <glyph glyph-name="Kappagreek" unicode="&#x39a;" horiz-adv-x="1311" 
d="M322 0h-137v1443h137v-746h12l683 746h171l-578 -623l637 -820h-177l-555 725l-193 -210v-515z" />
    <glyph glyph-name="Lambdagreek" unicode="&#x39b;" horiz-adv-x="1351" 
d="M1118 0l-437 1256h-12l-437 -1256h-144l519 1443h136l520 -1443h-145z" />
    <glyph glyph-name="Mugreek" unicode="&#x39c;" horiz-adv-x="1761" 
d="M1576 0h-128v1177h-10l-498 -1177h-119l-498 1177h-9v-1177h-129v1443h157l533 -1263h12l531 1263h158v-1443z" />
    <glyph glyph-name="Nugreek" unicode="&#x39d;" horiz-adv-x="1494" 
d="M320 0h-135v1443h135l841 -1198h13v1198h135v-1443h-132l-844 1199h-13v-1199z" />
    <glyph glyph-name="Xigreek" unicode="&#x39e;" horiz-adv-x="1323" 
d="M140 1443h1042v-128h-1042v128zM1105 675h-887v127h887v-127zM140 128h1042v-128h-1042v128z" />
    <glyph glyph-name="Omicrongreek" unicode="&#x39f;" horiz-adv-x="1561" 
d="M781 1473c404 0 653 -290 653 -751c0 -460 -247 -752 -653 -752c-407 0 -654 291 -654 752c0 462 251 751 654 751zM781 1346c-315 0 -514 -242 -514 -624c0 -380 195 -625 514 -625c316 0 513 245 513 625c0 382 -198 624 -513 624z" />
    <glyph glyph-name="Pigreek" unicode="&#x3a0;" horiz-adv-x="1468" 
d="M1283 0h-137v1319h-824v-1319h-137v1443h1098v-1443z" />
    <glyph glyph-name="Rhogreek" unicode="&#x3a1;" horiz-adv-x="1272" 
d="M185 1443h513c276 0 462 -183 462 -452c0 -265 -189 -447 -464 -447h-374v-544h-137v1443zM322 1321v-655h343c222 0 356 122 356 325c0 208 -131 330 -356 330h-343z" />
    <glyph glyph-name="Sigmagreek" unicode="&#x3a3;" horiz-adv-x="1302" 
d="M312 136v-12h851v-124h-1025v102l441 628l-423 597v116h989v-124h-811v-12l389 -555v-25z" />
    <glyph glyph-name="Taugreek" unicode="&#x3a4;" horiz-adv-x="1280" 
d="M708 0h-136v1319h-484v124h1104v-124h-484v-1319z" />
    <glyph glyph-name="Upsilongreek" unicode="&#x3a5;" horiz-adv-x="1321" 
d="M729 0h-136v624l-518 819h157l423 -680h12l423 680h156l-517 -819v-624z" />
    <glyph glyph-name="Phigreek" unicode="&#x3a6;" horiz-adv-x="1697" 
d="M1439 720c0 326 -205 511 -523 519v-1038c318 7 523 192 523 519zM257 720c0 -327 205 -512 523 -519v1038c-318 -8 -523 -193 -523 -519zM916 -58h-136v136c-403 12 -663 251 -663 642c0 390 260 629 663 642v133h136v-133c403 -13 663 -252 663 -642
s-260 -630 -663 -642v-136z" />
    <glyph glyph-name="Chigreek" unicode="&#x3a7;" horiz-adv-x="1366" 
d="M95 0l504 724v0l-500 719h165l418 -609h11l422 609h156l-508 -724v0l500 -719h-164l-416 606h-11l-421 -606h-156z" />
    <glyph glyph-name="Psigreek" unicode="&#x3a8;" horiz-adv-x="1633" 
d="M885 0h-137v345c-356 1 -576 213 -576 559v539h136v-535c0 -278 156 -433 440 -437v972h137v-972c284 4 440 159 440 437v535h136v-539c0 -346 -220 -559 -576 -559v-345z" />
    <glyph glyph-name="Omegagreek" unicode="&#x2126;" horiz-adv-x="1584" 
d="M1308 784c0 341 -202 562 -516 562c-315 0 -516 -221 -516 -562c0 -278 122 -487 386 -623v-161h-527v124h366v12c-235 122 -365 364 -365 651c0 407 265 686 656 686s656 -278 656 -686c0 -287 -131 -530 -365 -651v-12h366v-124h-527v161c264 136 386 345 386 623z" />
    <glyph glyph-name="Omegagreek" unicode="&#x3a9;" horiz-adv-x="1584" 
d="M1308 784c0 341 -202 562 -516 562c-315 0 -516 -221 -516 -562c0 -278 122 -487 386 -623v-161h-527v124h366v12c-235 122 -365 364 -365 651c0 407 265 686 656 686s656 -278 656 -686c0 -287 -131 -530 -365 -651v-12h366v-124h-527v161c264 136 386 345 386 623z" />
    <glyph glyph-name="Alphatonosgreek" unicode="&#x386;" horiz-adv-x="1363" 
d="M1145 0l-160 442h-606l-160 -442h-145l540 1443h136l539 -1443h-144zM675 1264l-255 -704h524l-256 704h-13zM267 1111h-113l97 332h146z" />
    <glyph glyph-name="Epsilontonosgreek" unicode="&#x388;" horiz-adv-x="1522" 
d="M207 1111h-113l97 332h146zM1382 124v-124h-872v1443h872v-124h-735v-519h698v-122h-698v-554h735z" />
    <glyph glyph-name="Etatonosgreek" unicode="&#x389;" horiz-adv-x="1813" 
d="M207 1111h-113l97 332h146zM1628 0h-137v677h-844v-677h-137v1443h137v-642h844v642h137v-1443z" />
    <glyph glyph-name="Iotatonosgreek" unicode="&#x38a;" horiz-adv-x="832" 
d="M207 1111h-113l97 332h146zM647 0h-137v1443h137v-1443z" />
    <glyph glyph-name="Iotadieresisgreek" unicode="&#x3aa;" horiz-adv-x="507" 
d="M322 0h-137v1443h137v-1443zM62 1646c-53 0 -97 44 -97 98c0 53 44 97 97 97c54 0 98 -44 98 -97c0 -54 -44 -98 -98 -98zM446 1646c-54 0 -98 44 -98 98c0 53 44 97 98 97c53 0 97 -44 97 -97c0 -54 -44 -98 -97 -98z" />
    <glyph glyph-name="Iotatonosgreek.1" horiz-adv-x="1333" 
d="M207 1111h-113l97 332h146zM488 0v118h290v1207h-290v118h716v-118h-290v-1207h290v-118h-716z" />
    <glyph glyph-name="Iotadieresisgreek.1" horiz-adv-x="974" 
d="M129 0v118h290v1207h-290v118h716v-118h-290v-1207h290v-118h-716zM295 1646c-53 0 -97 44 -97 98c0 53 44 97 97 97c54 0 98 -44 98 -97c0 -54 -44 -98 -98 -98zM679 1646c-54 0 -98 44 -98 98c0 53 44 97 98 97c53 0 97 -44 97 -97c0 -54 -44 -98 -97 -98z" />
    <glyph glyph-name="Omicrontonosgreek" unicode="&#x38c;" horiz-adv-x="1765" 
d="M207 1111h-113l97 332h146zM984 1473c404 0 653 -290 653 -751c0 -460 -247 -752 -653 -752c-407 0 -654 291 -654 752c0 462 251 751 654 751zM984 1346c-315 0 -514 -242 -514 -624c0 -380 195 -625 514 -625c316 0 513 245 513 625c0 382 -198 624 -513 624z" />
    <glyph glyph-name="Upsilontonosgreek" unicode="&#x38e;" horiz-adv-x="1658" 
d="M207 1111h-113l97 332h146zM1066 0h-136v624l-518 819h157l423 -680h12l423 680h156l-517 -819v-624z" />
    <glyph glyph-name="Upsilondieresisgreek" unicode="&#x3ab;" horiz-adv-x="1321" 
d="M729 0h-136v624l-518 819h157l423 -680h12l423 680h156l-517 -819v-624zM469 1646c-53 0 -97 44 -97 98c0 53 44 97 97 97c54 0 98 -44 98 -97c0 -54 -44 -98 -98 -98zM853 1646c-54 0 -98 44 -98 98c0 53 44 97 98 97c53 0 97 -44 97 -97c0 -54 -44 -98 -97 -98z" />
    <glyph glyph-name="Omegatonosgreek" unicode="&#x38f;" horiz-adv-x="1786" 
d="M207 1111h-113l97 332h146zM1509 784c0 341 -202 562 -516 562c-315 0 -516 -221 -516 -562c0 -278 122 -487 386 -623v-161h-527v124h366v12c-235 122 -365 364 -365 651c0 407 265 686 656 686s656 -278 656 -686c0 -287 -131 -530 -365 -651v-12h366v-124h-527v161
c264 136 386 345 386 623z" />
    <glyph glyph-name="Acyrillic" unicode="&#x410;" horiz-adv-x="1383" 
d="M1155 0l-160 442h-606l-160 -442h-145l540 1443h136l539 -1443h-144zM685 1264l-255 -704h524l-256 704h-13z" />
    <glyph glyph-name="uni04D0" unicode="&#x4d0;" horiz-adv-x="1383" 
d="M1155 0l-160 442h-606l-160 -442h-145l540 1443h136l539 -1443h-144zM685 1264l-255 -704h524l-256 704h-13zM377 1851h119c0 -112 84 -181 196 -181c114 0 196 69 196 181h119c0 -173 -126 -274 -315 -274s-315 101 -315 274z" />
    <glyph glyph-name="uni04D2" unicode="&#x4d2;" horiz-adv-x="1383" 
d="M1155 0l-160 442h-606l-160 -442h-145l540 1443h136l539 -1443h-144zM685 1264l-255 -704h524l-256 704h-13zM500 1646c-53 0 -97 44 -97 98c0 53 44 97 97 97c54 0 98 -44 98 -97c0 -54 -44 -98 -98 -98zM884 1646c-54 0 -98 44 -98 98c0 53 44 97 98 97
c53 0 97 -44 97 -97c0 -54 -44 -98 -97 -98z" />
    <glyph glyph-name="uniF50E" horiz-adv-x="1383" 
d="M1155 0l-160 442h-606l-160 -442h-145l540 1443h136l539 -1443h-144zM685 1264l-255 -704h524l-256 704h-13zM1004 1796v-106h-624v106h624z" />
    <glyph glyph-name="uniF460" horiz-adv-x="1383" 
d="M1155 0l-160 442h-606l-160 -442h-145l540 1443h136l539 -1443h-144zM685 1264l-255 -704h524l-256 704h-13zM756 1576h-119l185 298h164z" />
    <glyph glyph-name="Becyrillic" unicode="&#x411;" horiz-adv-x="1281" 
d="M1160 425c0 -253 -188 -425 -463 -425h-502v1443h830v-124h-693v-467h364c275 0 464 -173 464 -427zM332 124h333c223 0 355 111 355 301s-133 303 -355 303h-333v-604z" />
    <glyph glyph-name="Vecyrillic" unicode="&#x412;" horiz-adv-x="1339" 
d="M725 0h-530v1443h519c266 0 429 -137 429 -356c0 -162 -111 -291 -264 -318v-13c203 -22 338 -159 338 -357c0 -251 -179 -399 -492 -399zM332 1322v-515h323c223 0 350 90 350 258c0 162 -120 257 -317 257h-356zM332 121h374c242 0 371 100 371 285
c0 183 -137 282 -388 282h-357v-567z" />
    <glyph glyph-name="Gecyrillic" unicode="&#x413;" horiz-adv-x="1153" 
d="M332 0h-137v1443h843v-125h-706v-1318z" />
    <glyph glyph-name="Gjecyrillic" unicode="&#x403;" horiz-adv-x="1153" 
d="M332 0h-137v1443h843v-125h-706v-1318zM680 1576h-119l185 298h164z" />
    <glyph glyph-name="Geupturncyrillic" unicode="&#x490;" horiz-adv-x="1153" 
d="M333 1318v-1318h-138v1443h715v273h128v-398h-705z" />
    <glyph glyph-name="uni04F6" unicode="&#x4f6;" horiz-adv-x="1153" 
d="M1038 1318h-706v-1194h183v-409h-127v285h-56h-137v124v1319h843v-125z" />
    <glyph glyph-name="uni0492" unicode="&#x492;" horiz-adv-x="1153" 
d="M1038 1318h-706v-534h541v-123h-541v-661h-137v661h-122v123h122v659h843v-125z" />
    <glyph glyph-name="uniF53C" horiz-adv-x="1175" 
d="M332 0h-137v1443h856v-124h-719v-542h661v-122h-661v-655z" />
    <glyph glyph-name="uni04FA" unicode="&#x4fa;" horiz-adv-x="1153" 
d="M1038 1318h-706v-534h558v-123h-558v-661v-68c0 -214 -100 -302 -309 -302h-24v116h21c126 0 175 54 175 182v72v661h-122v123h122v659h843v-125z" />
    <glyph glyph-name="Decyrillic" unicode="&#x414;" horiz-adv-x="1495" 
d="M428 503c-10 -166 -33 -287 -109 -369v-10h783v1195h-624zM168 0v-285h-128v409h102c104 54 145 191 156 384l57 935h884v-1319h183v-409h-128v285h-1126z" />
    <glyph glyph-name="uni0414.BUL" horiz-adv-x="1484" 
d="M736 1253l-409 -1129h829l-408 1129h-12zM1300 124h131v-409h-127v285h-1124v-285h-128v409h131l491 1319h136z" />
    <glyph glyph-name="Iecyrillic" unicode="&#x415;" horiz-adv-x="1217" 
d="M1067 124v-124h-872v1443h872v-124h-735v-519h698v-122h-698v-554h735z" />
    <glyph glyph-name="Iocyrillic" unicode="&#x401;" horiz-adv-x="1217" 
d="M1067 124v-124h-872v1443h872v-124h-735v-519h698v-122h-698v-554h735zM439 1646c-53 0 -97 44 -97 98c0 53 44 97 97 97c54 0 98 -44 98 -97c0 -54 -44 -98 -98 -98zM823 1646c-54 0 -98 44 -98 98c0 53 44 97 98 97c53 0 97 -44 97 -97c0 -54 -44 -98 -97 -98z" />
    <glyph glyph-name="uni04D6" unicode="&#x4d6;" horiz-adv-x="1217" 
d="M1067 124v-124h-872v1443h872v-124h-735v-519h698v-122h-698v-554h735zM316 1851h119c0 -112 84 -181 196 -181c114 0 196 69 196 181h119c0 -173 -126 -274 -315 -274s-315 101 -315 274z" />
    <glyph glyph-name="uniF510" horiz-adv-x="1217" 
d="M1067 124v-124h-872v1443h872v-124h-735v-519h698v-122h-698v-554h735zM943 1796v-106h-624v106h624z" />
    <glyph glyph-name="uniF512" horiz-adv-x="1217" 
d="M1067 124v-124h-872v1443h872v-124h-735v-519h698v-122h-698v-554h735zM449 1778c55 0 99 -44 99 -99s-44 -99 -99 -99s-99 44 -99 99s44 99 99 99zM312 2016h638v-101h-638v101zM813 1778c55 0 99 -44 99 -99s-44 -99 -99 -99s-99 44 -99 99s44 99 99 99z" />
    </font>
</defs>
</svg>
